<?xml version="1.0" encoding="UTF-8"?>
<svg id="Capa_1" data-name="Capa 1" xmlns="http://www.w3.org/2000/svg" version="1.1" width="36" height="36" viewBox="36 36">
  <defs>
    <style>
      .cls-1 {
        fill: #69be28;
        stroke-width: 0px;
      }

      .cls-2 {
        fill: none;
        stroke: #fff;
        stroke-linecap: round;
        stroke-linejoin: round;
        stroke-width: 2px;
      }
    </style>
  </defs>
    <path class="cls-1" d="M18,6c-2.4,0-4.7.7-6.7,2-2,1.3-3.5,3.2-4.4,5.4-.9,2.2-1.1,4.6-.7,6.9.5,2.3,1.6,4.5,3.3,6.1,1.7,1.7,3.8,2.8,6.1,3.3,2.3.5,4.7.2,6.9-.7,2.2-.9,4.1-2.4,5.4-4.4,1.3-2,2-4.3,2-6.7s-1.3-6.2-3.5-8.5c-2.3-2.3-5.3-3.5-8.5-3.5Z"/>
      <polyline class="cls-2" points="11.4 17.9 16 23.3 24.6 12.7"/>
</svg>