<?xml version="1.0" encoding="UTF-8"?>
<svg id="Capa_1" data-name="Capa 1" xmlns="http://www.w3.org/2000/svg" version="1.1" viewBox="0 0 28.3 28.3">
  <defs>
    <style>
      .cls-1 {
        fill: #1f6359;
      }

      .cls-1, .cls-2 {
        stroke-width: 0px;
      }

      .cls-2 {
        fill: #fff;
      }
    </style>
  </defs>
  <path class="cls-1" d="M14.1,25.4c-6.2,0-11.3-5.1-11.3-11.3S7.9,2.9,14.1,2.9s11.3,5.1,11.3,11.3-5.1,11.3-11.3,11.3Z"/>
  <path class="cls-2" d="M12.5,20.3c-.2,0-.6,0-.8-.3l-3.8-3.8c-.5-.5-.5-1.1,0-1.5s1.1-.5,1.5,0l3.1,3.1,8.1-8.1c.5-.5,1.1-.5,1.5,0s.5,1.1,0,1.5l-8.9,8.9c-.2.2-.5.3-.8.3h.2Z"/>
</svg>