<?xml version="1.0" encoding="UTF-8"?><svg id="Layer_1" xmlns="http://www.w3.org/2000/svg" viewBox="0 0 80 80"><defs><style>.cls-1{fill:#ff575d;}</style></defs><path d="m6.51,5.29h47.65c.66,0,1.28.13,1.86.35-.28.16-.55.33-.81.52-.44.31-.87.66-1.28,1.04l-2.62,2.41.1.1-.14.14H6.51c-.18,0-.36.07-.49.21h0c-.13.13-.21.3-.21.5h0v58.89h0s0,0,0,0c0,.18.08.36.22.49.13.13.31.22.5.22h0s0,0,0,0h47.66c.18,0,.36-.07.49-.21.13-.13.22-.31.22-.5h0v-12.11l4.56-4.56v16.67h0s0,0,0,0c0,1.46-.59,2.77-1.54,3.72-.95.95-2.26,1.53-3.72,1.54h0s0,0,0,0H6.51c-1.46,0-2.77-.6-3.72-1.54-.95-.95-1.53-2.26-1.54-3.72h0V10.56h0s0,0,0,0c0-1.45.59-2.76,1.54-3.71h0c.95-.95,2.26-1.54,3.72-1.54h0s0,0,0,0h0Zm6.86,11.5c-1.07,0-1.95.88-1.95,1.95v2.2c0,1.07.88,1.95,1.95,1.95h24.42l6.26-6.09H13.37Zm0,11.11c-1.07,0-1.95.88-1.95,1.95v2.2c0,1.07.88,1.95,1.95,1.95h13.02l6.26-6.09H13.37ZM59.42,11.55c-.09.05-.19.11-.29.18-.13.09-.27.2-.4.32l-.07.07-3.79,3.79v31.74l4.56-4.56V11.55Z"/><path class="cls-1" d="m60.34,7.9c-.81,0-1.53.17-2.18.47-.68.31-1.3.77-1.91,1.33h0s-27.84,27.84-27.84,27.84h0c-.4.45-.76.88-1.03,1.34-.26.44-.45.91-.54,1.46l-3.17,18.82c-.07.41-.07.81,0,1.18.11.68.44,1.29.9,1.75.47.47,1.07.79,1.75.9.37.06.77.06,1.18,0l18.82-3.17c.52-.1.99-.26,1.42-.49.43-.23.84-.54,1.23-.93l28.17-28.17c.53-.66.95-1.25,1.22-1.85.27-.6.41-1.25.41-2.08,0-2.15-2.04-5.5-4.85-8.77-1.74-2.02-3.76-3.99-5.8-5.62-1-.81-2.01-1.53-2.99-2.14-1.86-1.16-3.54-1.87-4.78-1.87h0ZM28,53.52c-.07-4.68.3-10.06,3.14-13.96l.36-.36.51.03,6.17.37,1.02.06.05,1.02.32,6.27,6.27.32.98.05.09.98.6,6.21.05.54-.38.38h0s0,0,0,0c-3.94,2.74-9.51,3.2-14.05,3.23-2.96-.96-4.52-2.76-5.13-5.13Z"/></svg>