<?xml version="1.0" encoding="UTF-8"?><svg id="Layer_1" xmlns="http://www.w3.org/2000/svg" viewBox="0 0 320 325"><defs><style>.cls-1{fill:#ff575d;}.cls-2{fill:#fff;}.cls-3{fill:#83dcd8;}.cls-4{fill:#07b9b1;}</style></defs><circle class="cls-4" cx="160" cy="158" r="158"/><path d="m184.96,77.15c-1.92-.79-8.89-2.91-13.16-9.4-3.02-4.59-5.31-12.27-1.88-16.93.86-1.16,3.66-4.31,16.93-3.76,16.81.69,28.63,6.25,28.63,6.25,27.4,12.89,13.97,20.35,31.7,33.76,26.1,19.75,23.51,8.4,35.94,22.04,20.21,22.16,17.24,54.29-22.52,79.07-26.86,16.73-64.36,7.08-83.38-13.9-31.06-34.25,30.93-87.66,7.76-97.14Z"/><path d="m96.14,557.83s-4.83-72.86,3.09-138.39c7.92-65.53,37.37-159.12,37.37-159.12,0,0,31.69-1.44,54.76,1.66,23.07,3.1,32.2-.09,32.2-.09,0,0,17.22,19.72,15.82,56.79-1.41,37.07-41.59,193.44-40.07,230.14,0,0-13.51,6.79-31.02,3.42l7.25-210.74s-15.01,43.38-22.06,73.1c-5.74,24.23-15.71,39.9-15.71,39.9,0,0,.42,56.32-12.5,103.07,0,0-15.27,4.78-29.14.26Z"/><path class="cls-1" d="m240.54,275.18c-3.76,4.21-11.37,3.46-26.44,1.8-23.54-2.59-27.58-7.91-42.79-9.4-27.11-2.67-38.26,11.84-47.96,5.17-5.9-4.06-10.78-15.61-2.02-51.27,2.84-13.5,5.64-27.14,8.37-40.92,3.76-18.97,7.33-37.73,10.7-56.27,18.84-1.64,34.86-.88,47.01.39,15.84,1.66,27.83,4.49,32.73,5.72,11.99,3.01,22.28,6.64,31.15,10.21-9,13.07-4.5,30.83-13.5,43.9.16,9.93,9.74,82.85,2.76,90.68Z"/><path class="cls-2" d="m37.08,102.18s-14.32-13.28-18.4-16.67c-4.64-3.85,5.97-5.12,19.56,7.34l-1.17,9.33Z"/><path d="m36.13,103.21c-.14-.13-14.34-13.29-18.34-16.62-1.24-1.03-1.77-2.07-1.58-3.11.16-.83.79-1.49,1.73-1.8,2.89-.96,11.22.93,21.26,10.13l.53.49-1.6,12.77-2.01-1.86Zm-16.77-18.97c.06.06.14.12.22.19,3.18,2.64,12.35,11.07,16.45,14.86l.74-5.89c-8.61-7.7-15.26-9.29-17.4-9.16Z"/><path class="cls-2" d="m35.88,99.49c-.08.73-.18,1.47-.31,2.2-.22,1.23-.52,4.21,1.26,6.1,1.74,1.85,10.16,6.43,14.14,8.54,1.36.72,2.55,1.71,3.51,2.91,1.33,1.66-2.28,19.26-2.28,19.26l14.46-5.17s-1.73-24.02-4.91-33.78c-3.17-9.76-11.56-14.39-13.72-14.09-2.17.3-2.83,4.46-2.83,4.46,0,0-4.7-3.62-7.55-1.69-1.49,1.02-.77,2.74-1,4.4l-.78,6.85Z"/><path d="m50.84,138.22c1.55-7.57,2.91-16.58,2.47-18.2-.83-1.01-1.83-1.83-3-2.44-5.65-3-12.76-6.96-14.5-8.81-2.23-2.36-1.88-5.9-1.62-7.31.13-.7.22-1.43.29-2.11l.79-6.89c.05-.38.04-.81.02-1.27-.04-1.25-.1-2.96,1.58-4.1,2.44-1.66,5.55-.46,7.47.61.54-1.53,1.59-3.35,3.5-3.61,3.02-.42,11.93,4.82,15.25,15.04,3.19,9.81,4.9,33.13,4.97,34.11l.08,1.06-17.81,6.37.5-2.44Zm9.59-38.23c-3.02-9.27-10.77-13.29-12.2-13.13-.63.09-1.4,1.84-1.64,3.29l-.37,2.32-1.87-1.43c-1.01-.78-4.27-2.75-5.9-1.64-.34.23-.39.5-.35,1.69.02.53.04,1.13-.04,1.72l-.78,6.85c-.08.73-.18,1.51-.32,2.29-.18.99-.45,3.46.9,4.89,1.12,1.19,6.27,4.28,13.77,8.26,1.54.82,2.87,1.92,3.95,3.27,1.07,1.34.56,7.39-1.51,17.98l11.11-3.97c-.38-4.74-2.05-24.05-4.76-32.39Z"/><path d="m48.9,109.53c.35,0,.7-.05,1.05-.14,1.93-.54,4.06-2.75,4.23-7.36.26-6.78-8.07-13.17-8.42-13.44-.62-.47-1.5-.35-1.96.27-.47.62-.35,1.5.27,1.97,2.09,1.59,7.49,6.69,7.32,11.1-.11,2.91-1.17,4.49-2.18,4.77-.73.2-1.24-.39-1.48-.76-1.57-2.4-1.25-4.84-1.24-4.86.12-.77-.41-1.48-1.17-1.6-.76-.12-1.48.41-1.6,1.17-.02.14-.51,3.5,1.67,6.82.87,1.33,2.16,2.07,3.53,2.07Z"/><path class="cls-1" d="m71.18,127.74c-7.49,1.66-15.79,4.25-21.97,7.68-1.84,9.15-1.29,25.29,6.18,45.47,3.1,8.37,6.75,18.22,14.87,23.47,15.54,10.03,43.94.93,69.43-22.78.24-19.1.49-38.2.73-57.3-6.65,2.26-12.59,6.26-17.19,11.58l-8.05,9.3c-7.22,13.04-16.91,22-24.35,20.36-6.08-1.34-9.4-10.03-16.05-27.42-3.43-8.97-2.12-4.79-3.59-10.35Z"/><path d="m230.28,279.7c5.31,0,8.92-.91,11.31-3.59,5.25-5.88,2.39-40.35-.99-75.14-.72-7.45-1.3-13.42-1.4-16.06,4.47-6.72,5.62-14.57,6.72-22.16,1.13-7.76,2.2-15.09,6.52-21.36.24-.35.31-.79.19-1.2-.12-.41-.42-.74-.82-.9-10.72-4.31-20.96-7.67-31.33-10.27-10.31-2.58-21.69-4.57-32.92-5.75-15.58-1.63-31.49-1.76-47.27-.39-.77.07-1.34.75-1.28,1.52.07.77.76,1.34,1.52,1.28,15.61-1.36,31.34-1.23,46.74.39,11.1,1.16,22.35,3.13,32.53,5.68,9.73,2.44,19.36,5.56,29.39,9.52-3.9,6.47-4.99,13.89-6.04,21.08-1.13,7.76-2.2,15.09-6.52,21.36-.17.24-.25.53-.25.82.04,2.47.62,8.45,1.42,16.72,2.13,21.92,6.56,67.54,1.69,73-3.21,3.6-10.45,2.97-25.24,1.34-12.75-1.41-19.73-3.62-25.89-5.58-5.08-1.61-9.88-3.14-16.91-3.83-14.43-1.42-24.59,1.98-32.01,4.46-6.76,2.26-11.22,3.75-15.29.95-7.76-5.34-8.25-22.09-1.45-49.78,2.05-9.73,4.07-19.53,6.02-29.16.15-.76-.34-1.5-1.1-1.65-.75-.15-1.5.34-1.65,1.1-1.94,9.62-3.96,19.41-6,29.09-7.2,29.31-6.35,46.56,2.6,52.72,5.22,3.59,10.76,1.74,17.77-.6,7.58-2.54,17.02-5.69,30.85-4.33,6.73.66,11.18,2.08,16.34,3.71,6.28,1.99,13.41,4.26,26.43,5.69,6.7.74,12.06,1.33,16.33,1.33Z"/><path d="m129.71,181.96c.66,0,1.24-.46,1.37-1.13,2.17-10.93,4.32-22.02,6.38-32.96.14-.76-.36-1.5-1.12-1.64-.76-.14-1.5.36-1.64,1.12-2.06,10.93-4.21,22.01-6.37,32.93-.15.76.34,1.5,1.1,1.65.09.02.18.03.27.03Z"/><path d="m85.45,209.82c12.48,0,27.74-5.92,43.08-17.18.62-.46.76-1.34.3-1.96-.46-.63-1.34-.76-1.96-.3-21.52,15.79-43.45,20.81-55.86,12.8-7.73-4.99-11.23-14.44-14.31-22.78-8.68-23.45-7.14-39-6.24-44.07,5-2.68,11.93-5.11,19.71-6.92.08.32.15.59.21.82.38,1.49.4,1.54.99,3,.37.92.98,2.44,2.1,5.36,6.82,17.83,10.24,26.78,17.06,28.29,7.68,1.69,17.8-6.51,25.81-20.92l7.95-9.19c4.28-4.94,9.79-8.72,15.93-10.94.73-.26,1.11-1.07.84-1.8-.26-.73-1.07-1.11-1.8-.84-6.6,2.38-12.51,6.44-17.1,11.74l-8.05,9.3c-.06.07-.12.15-.17.24-7.29,13.17-16.48,21.07-22.82,19.67-5.34-1.18-8.58-9.65-15.04-26.55-1.13-2.95-1.75-4.48-2.12-5.41q-.53-1.32-.87-2.65c-.13-.5-.3-1.18-.56-2.16-.19-.73-.92-1.17-1.66-1.01-5.14,1.14-14.87,3.67-22.35,7.82-.36.2-.61.55-.7.95-.9,4.47-3.1,21.01,6.24,46.24,3.08,8.32,6.91,18.66,15.42,24.16,4.45,2.88,9.88,4.28,15.96,4.28Z"/><path class="cls-2" d="m171.17,125.76c5.97-.98,10.25-6.29,9.93-12.33l-.49-9.38c-5.66-.44-10.37-3.14-10.36-4.93,0-.87,2.09-9.39,3.38-12.92-1.1-.89-2.43-3.35-.07-4.86,2.36-1.51,7.67-11.09,7.67-11.09,6.55-7.61,8.44,3.12,13.33,4.01,3.39.62,5.22,2.68,3.95,7.11-1.28,4.43,1.15,2.21,3.65.94,2.49-1.26,4.19-.28,2.82,3.74-1.37,4.03-6.35,6.44-6.35,6.44l-2.36,4.64,4.98,22.8c.94,4.31,4.04,7.83,8.19,9.31l6.86,2.45-36.05,18.88-17.41-23.46,8.33-1.36Z"/><path d="m179.13,151.42l-17.41-23.46c-.29-.39-.36-.91-.17-1.36.18-.45.59-.78,1.07-.86l8.33-1.36c5.27-.86,9.03-5.53,8.76-10.87l-.43-8.19c-5.17-.7-10.45-3.25-10.42-6.21,0-1.12,1.93-8.79,3.18-12.55-.7-.86-1.24-2.06-1.17-3.29.05-.88.43-2.14,1.96-3.11,1.42-.91,5.06-6.74,7.2-10.59.05-.08.1-.16.16-.24,1.85-2.15,3.6-3.2,5.35-3.2h0c2.42,0,4.06,1.9,5.65,3.75,1.17,1.36,2.39,2.77,3.65,3,2.21.4,3.78,1.34,4.68,2.79.96,1.55,1.08,3.6.36,6.08-.03.1-.05.19-.08.27.12-.07.24-.14.35-.2.45-.26.92-.53,1.39-.77,2.37-1.2,3.73-.52,4.33,0,1.18,1.02,1.33,2.86.45,5.45-1.3,3.83-5.29,6.29-6.63,7.03l-1.93,3.79,4.87,22.31c.84,3.86,3.57,6.96,7.29,8.29l6.86,2.45c.53.19.89.67.93,1.22.04.56-.25,1.08-.75,1.34l-36.05,18.88c-.21.11-.43.16-.65.16-.43,0-.85-.2-1.13-.57Zm29.85-20.84c-4.64-1.66-8.04-5.52-9.09-10.34l-4.98-22.8c-.07-.32-.03-.65.12-.94l2.36-4.64c.14-.27.36-.49.64-.63,1.24-.6,4.67-2.79,5.64-5.63.61-1.79.37-2.38.4-2.4-.1-.03-.52-.02-1.26.36-.43.22-.85.46-1.25.7-1.47.85-2.86,1.65-4.02.75-1.09-.85-.81-2.44-.35-4.03.49-1.69.47-2.98-.05-3.83-.46-.75-1.4-1.26-2.8-1.51-2.25-.41-3.86-2.28-5.28-3.93-1.23-1.43-2.39-2.77-3.52-2.77-.83,0-1.91.73-3.13,2.12-1.07,1.92-5.6,9.89-8.07,11.47-.63.4-.65.77-.66.91-.03.58.42,1.32.86,1.68.46.38.64,1.01.43,1.57-1.24,3.38-3.15,11.23-3.29,12.41.31.79,3.74,3.14,9.06,3.55.7.05,1.26.62,1.29,1.33l.49,9.38c.35,6.76-4.42,12.69-11.1,13.78l-6.05.99,15.32,20.64,32.15-16.83-3.84-1.37Z"/><path d="m182.65,105.71c4.48,0,7.27-3.25,8.2-5.25.33-.7.02-1.54-.68-1.86-.7-.33-1.53-.02-1.86.67-.1.21-2.28,4.63-7.37,3.42-.76-.18-1.51.29-1.69,1.04-.18.75.29,1.51,1.04,1.69.83.2,1.62.29,2.36.29Z"/><path class="cls-2" d="m199.29,202.69h75.55c1.92,0,3.48,1.56,3.48,3.48v98.77c0,1.92-1.56,3.48-3.48,3.48h-75.55c-1.92,0-3.48-1.56-3.48-3.48v-98.77c0-1.92,1.56-3.48,3.48-3.48Z" transform="translate(-106.4 196.04) rotate(-37.32)"/><path d="m233.07,320.7l-59.88-78.55c-.79-1.04-1.13-2.32-.96-3.62.17-1.29.84-2.44,1.88-3.23l60.08-45.81c2.14-1.63,5.21-1.22,6.85.92l59.88,78.55c.79,1.04,1.13,2.32.96,3.62s-.84,2.44-1.88,3.23l-60.08,45.81c-.88.67-1.92,1-2.96,1-1.47,0-2.93-.66-3.89-1.92Zm2.83-128.97l-60.08,45.81c-.44.34-.73.83-.8,1.38-.07.55.07,1.1.41,1.54l59.88,78.55c.7.91,2,1.09,2.92.39l60.08-45.81c.44-.34.73-.83.8-1.38.07-.55-.07-1.1-.41-1.54l-59.88-78.55c-.41-.54-1.03-.82-1.66-.82-.44,0-.88.14-1.26.42Z"/><rect class="cls-3" x="205.26" y="207.82" width="62.1" height="93.5" transform="translate(-105.95 195.38) rotate(-37.32)"/><path class="cls-2" d="m188.94,220.48l27.04-20.62c1.87-1.43,4.54-1.06,5.97.8l4.72,6.19-33.81,25.78-4.72-6.19c-1.43-1.87-1.06-4.54.8-5.97Z"/><path class="cls-2" d="m192.2,211.79l5.54,7.27,14.53-11.08-5.54-7.27c-3.06-4.01-8.79-4.79-12.81-1.73-4.01,3.06-4.79,8.79-1.73,12.81Zm4.01-6.84c-.6-.79-.45-1.93.34-2.53.79-.6,1.93-.45,2.53.34.6.79.45,1.93-.34,2.53-.79.6-1.93.45-2.53-.34Z"/><rect class="cls-2" x="192.38" y="227.89" width="50.35" height="4.17" transform="translate(530.01 280.98) rotate(142.68)"/><rect class="cls-2" x="197.57" y="234.7" width="50.35" height="4.17" transform="translate(543.45 290.05) rotate(142.68)"/><rect class="cls-2" x="202.76" y="241.51" width="50.35" height="4.17" transform="translate(556.89 299.12) rotate(142.68)"/><path class="cls-2" d="m245.66,290.27s-18.67,15.9-28.47,11.92c-1.43-.58-2.58-1.22-3.5-1.9-3.96-2.91-3-9.09,1.62-10.78l12.15-4.44s-14.69-.03-12.38-4.71c1.19-2.41,2.41-2.1,5.69-1.69,8.49,1.06,24.33,2.4,24.33,2.4l.56,9.2Z"/><path d="m216.67,303.49c-1.46-.59-2.74-1.29-3.8-2.07-2.26-1.66-3.38-4.32-2.98-7.12.4-2.8,2.29-5.14,4.94-6.11l6.02-2.2c-2.95-.46-5.89-1.35-6.96-3.08-.59-.95-.62-2.08-.07-3.18,1.56-3.17,3.68-2.9,6.61-2.53l.52.07c8.37,1.04,24.12,2.38,24.27,2.39.69.06,1.24.62,1.28,1.31l.56,9.2c.03.44-.15.87-.49,1.15-.7.59-15.27,12.88-25.88,12.88-1.43,0-2.79-.22-4.03-.73Zm27.1-21.13c-3.87-.34-16.12-1.42-23.18-2.3l-.53-.07c-2.94-.37-3.08-.34-3.73.99-.15.31-.1.4-.06.46.82,1.32,6.45,2.22,11.19,2.23.68,0,1.26.49,1.38,1.16.12.67-.26,1.33-.9,1.56l-12.15,4.44c-1.7.62-2.87,2.07-3.13,3.87-.25,1.75.44,3.42,1.86,4.46.88.64,1.95,1.23,3.2,1.73,7.12,2.9,21.04-6.74,26.49-11.24l-.45-7.28Z"/><path class="cls-1" d="m241,135.98c10.5,1.66,19.73,7.86,25.28,16.93,14.76,24.15,41.49,72.79,35.2,99.07-8.59,35.9-56.7,41.25-56.7,41.25l-2.98-16.47c47.02-31.11-13.08-90.68-13.08-90.68l8.93-50.63,3.35.53Z"/><path d="m244.78,295.6c.05,0,.1,0,.16,0,.49-.05,49.19-5.88,57.91-42.32,6.32-26.42-19.44-74.08-35.37-100.13-5.76-9.42-15.28-15.82-26.15-17.57l-8.27-2.71c-.74-.24-1.53.16-1.77.9s.16,1.53.9,1.77l8.38,2.74c.07.02.14.04.22.05,10.1,1.6,18.96,7.53,24.3,16.28,12.64,20.68,41.35,71.62,35.03,98.01-7.48,31.26-46.55,38.81-54.19,40l-2.58-14.24c10.59-7.24,16.64-16.42,17.99-27.29,2.99-24.13-17.91-50-27.03-60-.52-.57-1.41-.61-1.98-.09-.57.52-.61,1.41-.09,1.98,8.86,9.72,29.17,34.8,26.32,57.77-1.28,10.28-7.17,18.97-17.52,25.82-.47.31-.71.87-.61,1.42l2.98,16.47c.12.67.71,1.15,1.38,1.15Z"/><path d="m230.72,177.14c.67,0,1.26-.48,1.38-1.16l5.2-29.49c.13-.76-.38-1.49-1.14-1.63-.76-.13-1.49.37-1.63,1.14l-5.2,29.49c-.13.76.38,1.49,1.14,1.63.08.01.16.02.25.02Z"/></svg>