<?xml version="1.0" encoding="UTF-8"?><svg id="Layer_1" xmlns="http://www.w3.org/2000/svg" viewBox="0 0 100 100"><defs><style>.cls-1{fill:#03111a;}.cls-2{fill:#ff575d;}.cls-3{fill:#07b9b1;}</style></defs><path class="cls-1" d="m33.09,49.08h-6.11l-6.75-4.33c-.54-.35-1.14-.59-1.76-.73l-5.59-1.24c-1.95-.42-3.97.12-5.48,1.54-.94.88-1.52,2.09-1.78,3.36l-3.24,15.55c-.25,1.19-.2,2.45.27,3.58.97,2.3,3.13,3.68,5.49,3.68h14.7v17.69c0,2.22,1.6,4.25,3.81,4.47,2.55.25,4.69-1.74,4.69-4.23v-20.33c0-3.37-2.73-6.1-6.1-6.1h-7.46l1.92-8.78,3.46,2.22c1.07.69,2.31,1.05,3.58,1.05h6.53c2.25,0,4.02-2,3.65-4.32-.3-1.82-2-3.08-3.84-3.08Z"/><path class="cls-1" d="m15.56,41.15c4.5.49,8.55-2.76,9.04-7.26.49-4.5-2.76-8.55-7.26-9.04-4.5-.49-8.55,2.76-9.04,7.26-.49,4.5,2.76,8.55,7.26,9.04Z"/><path class="cls-1" d="m1.48,74.62h15.49c.82,0,1.48.66,1.48,1.48v14.86c0,.82-.66,1.48-1.48,1.48H1.48c-.82,0-1.48-.66-1.48-1.48v-14.86c0-.82.66-1.48,1.48-1.48Z"/><path class="cls-1" d="m97.34,66.8c.48-1.12.52-2.38.27-3.58l-3.24-15.55c-.26-1.26-.84-2.47-1.78-3.36-1.51-1.42-3.52-1.96-5.48-1.54l-5.59,1.24c-.63.14-1.22.39-1.76.73l-6.75,4.33h-6.11c-1.84,0-3.55,1.26-3.84,3.08-.38,2.32,1.4,4.32,3.65,4.32h6.53c1.27,0,2.51-.36,3.58-1.05l3.46-2.22,1.92,8.78h-7.46c-3.37,0-6.1,2.73-6.1,6.1v20.33c0,2.49,2.14,4.48,4.69,4.23,2.21-.22,3.81-2.25,3.81-4.47v-17.69h14.7c2.36,0,4.51-1.38,5.48-3.68Z"/><path class="cls-1" d="m84.44,41.15c4.5-.49,7.75-4.54,7.26-9.04-.49-4.5-4.54-7.75-9.04-7.26-4.5.49-7.75,4.54-7.26,9.04.49,4.5,4.54,7.75,9.04,7.26Z"/><path class="cls-1" d="m83.03,74.62h15.49c.82,0,1.48.66,1.48,1.48v14.86c0,.82-.66,1.48-1.48,1.48h-15.49c-.82,0-1.48-.66-1.48-1.48v-14.86c0-.82.66-1.48,1.48-1.48Z"/><path class="cls-3" d="m42.62,22.93h14.76c1.08,0,1.76-1.17,1.22-2.11l-7.38-12.79c-.54-.94-1.89-.94-2.43,0l-7.38,12.79c-.54.94.14,2.11,1.22,2.11Z"/><path class="cls-1" d="m32.91,28.08h12.63c.77,0,1.4.63,1.4,1.4v12.63c0,.77-.63,1.4-1.4,1.4h-12.63c-.77,0-1.4-.63-1.4-1.4v-12.63c0-.77.63-1.4,1.4-1.4Z"/><path class="cls-2" d="m66.29,42.55l2.77-8.51c.19-.58-.02-1.21-.51-1.57l-7.24-5.26c-.49-.36-1.16-.36-1.65,0l-7.24,5.26c-.49.36-.7.99-.51,1.57l2.76,8.51c.19.58.73.97,1.34.97h8.95c.61,0,1.15-.39,1.34-.97Z"/></svg>