<?xml version="1.0" encoding="UTF-8"?><svg id="Layer_1" xmlns="http://www.w3.org/2000/svg" viewBox="0 0 80 80"><defs><style>.cls-1{fill:#ff575d;}.cls-2{fill:#fff;}</style></defs><circle class="cls-1" cx="40" cy="40" r="40"/><path class="cls-2" d="m35.67,18.68l-18.84,32.63c-1.92,3.33.48,7.5,4.33,7.5h37.68c3.85,0,6.25-4.17,4.33-7.5l-18.84-32.63c-1.92-3.33-6.74-3.33-8.66,0Z"/><path class="cls-1" d="m37.81,41.49l-.64-9.52c-.12-1.85-.18-3.19-.18-3.99,0-1.1.29-1.96.86-2.57.57-.62,1.33-.92,2.27-.92,1.14,0,1.9.39,2.28,1.18.38.79.58,1.92.58,3.41,0,.87-.05,1.76-.14,2.66l-.85,9.79c-.09,1.17-.29,2.06-.6,2.68-.31.62-.81.93-1.51.93s-1.21-.3-1.49-.9c-.28-.6-.48-1.52-.6-2.75Zm2.21,13.07c-.81,0-1.51-.26-2.12-.78-.6-.52-.9-1.25-.9-2.2,0-.82.29-1.52.86-2.1.57-.58,1.28-.86,2.12-.86s1.55.29,2.14.86c.59.58.88,1.28.88,2.1,0,.93-.3,1.66-.89,2.19s-1.29.79-2.09.79Z"/></svg>