<?xml version="1.0" encoding="UTF-8"?><svg id="Layer_1" xmlns="http://www.w3.org/2000/svg" viewBox="0 0 100 100"><defs><style>.cls-1{fill:#03111a;}.cls-2{fill:#ff575d;}</style></defs><path class="cls-1" d="m65.15,9.56H7.35c-4.04,0-7.35,3.29-7.35,7.32v44.29c0,4.04,3.31,7.32,7.35,7.32h29.54c-.43-.75-.65-1.63-.65-2.56,0-.7.13-1.35.4-1.98H7.35c-1.53,0-2.78-1.25-2.78-2.78V26.64h63.37v24.73c.7-.12,1.45-.18,2.18-.18.8,0,1.58.07,2.36.23V16.88c0-4.04-3.29-7.32-7.32-7.32ZM10.83,20.67c-1.43,0-2.58-1.15-2.58-2.58s1.15-2.58,2.58-2.58,2.61,1.15,2.61,2.58-1.15,2.58-2.61,2.58Zm7.67,0c-1.43,0-2.61-1.15-2.61-2.58s1.18-2.58,2.61-2.58,2.58,1.15,2.58,2.58-1.15,2.58-2.58,2.58Zm7.65,0c-1.43,0-2.58-1.15-2.58-2.58s1.15-2.58,2.58-2.58,2.61,1.15,2.61,2.58-1.18,2.58-2.61,2.58Zm34.96-.48h-12.61c-1.15,0-2.11-.95-2.11-2.11s.95-2.11,2.11-2.11h12.61c1.15,0,2.11.95,2.11,2.11s-.95,2.11-2.11,2.11Z"/><path class="cls-1" d="m70.12,80.71c-1.35,0-2.68-.23-3.96-.68l-13.84-4.74v9.25c0,1.1.65,2.11,1.68,2.56,3.49,1.5,9.08,3.34,16.1,3.34s12.69-1.83,16.18-3.34c1.03-.45,1.68-1.45,1.68-2.56v-9.25l-13.84,4.74c-1.28.45-2.61.68-3.99.68Z"/><path class="cls-1" d="m99.06,64.63l-26.25-8.99c-1.74-.6-3.63-.6-5.37,0l-26.25,8.99c-1.25.43-1.25,2.2,0,2.63l26.25,8.99c1.74.6,3.63.6,5.37,0l20.21-6.92v7.07c-1.17.5-2,1.67-2,3.02,0,1.82,1.47,3.29,3.29,3.29s3.29-1.47,3.29-3.29c0-1.36-.82-2.52-2-3.02v-7.96l3.44-1.18c1.25-.43,1.25-2.2,0-2.63Z"/><path class="cls-2" d="m36.2,32.36c-6.48,0-11.73,5.25-11.73,11.73s5.25,11.73,11.73,11.73,11.73-5.25,11.73-11.73-5.25-11.73-11.73-11.73Zm4.76,12.6l-6.84,4.55c-.69.46-1.62-.04-1.62-.87v-9.1c0-.83.93-1.33,1.62-.87l6.84,4.55c.62.41.62,1.32,0,1.74Z"/></svg>