<?xml version="1.0" encoding="UTF-8"?><svg id="Layer_1" xmlns="http://www.w3.org/2000/svg" viewBox="0 0 80 80"><defs><style>.cls-1{fill:#03111a;}.cls-2{fill:#ff575d;}.cls-3{fill:#fff;}</style></defs><circle class="cls-3" cx="40" cy="40" r="38.5"/><path class="cls-1" d="m40,3c20.4,0,37,16.6,37,37s-16.6,37-37,37S3,60.4,3,40,19.6,3,40,3m0-3C17.91,0,0,17.91,0,40s17.91,40,40,40,40-17.91,40-40S62.09,0,40,0h0Z"/><path class="cls-1" d="m63.2,25.4h-8.07c.15.39.23.8.23,1.25v1.1c0,.11,0,.23-.02.34h6.26v22.86H18.39v-22.86h6.26c-.02-.11-.02-.23-.02-.34v-1.1c0-.44.08-.85.23-1.25h-8.08c-.59,0-1.08.49-1.08,1.08v29.07c0,.59.49,1.08,1.08,1.08h18.78l-1.31,6.94h-3.16c-.23,0-.43.18-.43.43v1.55c0,.25.2.44.43.44h17.84c.23,0,.43-.2.43-.44v-1.55c0-.25-.2-.43-.43-.43h-3.16l-1.31-6.94h18.76c.61,0,1.1-.49,1.1-1.1v-29.06c0-.59-.49-1.08-1.1-1.08Zm-22.91,29.53h-.59c-.62,0-1.11-.49-1.11-1.1s.49-1.1,1.11-1.1h.59c.62,0,1.11.49,1.11,1.1s-.49,1.1-1.11,1.1Z"/><path class="cls-2" d="m40,18.82c.58,0,1.05-.47,1.05-1.05v-2.72c0-.58-.47-1.05-1.05-1.05s-1.05.47-1.05,1.05v2.72c0,.58.47,1.05,1.05,1.05Z"/><path class="cls-2" d="m34.83,19c.17.4.56.65.97.65.13,0,.27-.03.4-.08.54-.22.79-.84.57-1.37l-1.04-2.51c-.22-.54-.84-.79-1.37-.57-.54.22-.79.84-.57,1.37l1.04,2.51Z"/><path class="cls-2" d="m43.8,19.57c.13.05.27.08.4.08.41,0,.8-.24.97-.65l1.04-2.51c.22-.54-.03-1.15-.57-1.37-.54-.22-1.15.03-1.37.57l-1.04,2.51c-.22.54.03,1.15.57,1.37Z"/><path class="cls-2" d="m51.77,25.6h-3.94v-1.93h.2c.58,0,1.05-.47,1.05-1.05s-.47-1.05-1.05-1.05h-16.04c-.58,0-1.05.47-1.05,1.05s.47,1.05,1.05,1.05h.2v1.93s-3.94,0-3.94,0c-.58,0-1.05.47-1.05,1.05v1.09c0,3.52,2.37,6.62,5.77,7.53l1.92.52c.08.1.16.2.25.29.9.92,1.98,1.51,3.2,1.79v2.11c0,.77-.62,1.39-1.39,1.39h0c-.28,0-.51.23-.51.51v.8c0,.28-.23.51-.51.51h-.71c-.28,0-.51.23-.51.51v2.97c0,.28.23.51.51.51h9.62c.28,0,.51-.23.51-.51v-2.97c0-.28-.23-.51-.51-.51h-.71c-.28,0-.51-.23-.51-.51v-.8c0-.28-.23-.51-.51-.51-.77,0-1.39-.62-1.39-1.39v-2.11c1.23-.28,2.3-.87,3.2-1.79.09-.09.17-.19.25-.29l1.92-.52c3.4-.92,5.77-4.01,5.77-7.53v-1.09c0-.58-.47-1.05-1.05-1.05Zm-22.48,2.14v-.04h2.91c.05,1.22.28,3.41,1.11,5.47-2.38-.73-4.02-2.93-4.02-5.43Zm12.6,16.36v1.11c0,.16-.13.3-.3.3h-3.17c-.16,0-.3-.13-.3-.3v-1.11c0-.16.13-.3.3-.3h3.17c.16,0,.3.13.3.3Zm1.89-14.89l-1.21,1.15c-.11.11-.17.27-.14.42l.3,1.64c.11.58-.51,1.03-1.03.75l-1.47-.79c-.14-.08-.31-.08-.45,0l-1.47.79c-.52.28-1.14-.17-1.03-.75l.3-1.64c.03-.16-.02-.31-.14-.42l-1.21-1.15c-.43-.41-.19-1.13.39-1.21l1.66-.22c.16-.02.29-.12.36-.26l.72-1.51c.26-.53,1.02-.53,1.27,0l.72,1.51c.07.14.2.24.36.26l1.66.22c.59.08.82.8.39,1.21Zm6.94-1.48c0,2.5-1.65,4.7-4.02,5.43.84-2.07,1.06-4.26,1.12-5.47h2.91v.04Z"/></svg>