<?xml version="1.0" encoding="UTF-8"?><svg id="Layer_1" xmlns="http://www.w3.org/2000/svg" viewBox="0 0 80 80"><defs><style>.cls-1{fill:#03111a;}.cls-2{fill:#ff575d;}.cls-3{fill:#fff;}</style></defs><circle class="cls-3" cx="40" cy="40" r="38.5"/><path class="cls-1" d="m40,3c20.4,0,37,16.6,37,37s-16.6,37-37,37S3,60.4,3,40,19.6,3,40,3m0-3C17.91,0,0,17.91,0,40s17.91,40,40,40,40-17.91,40-40S62.09,0,40,0h0Z"/><path class="cls-1" d="m22.34,38.23c-.01-.07-.01-.16-.01-.24,0-9.75,7.93-17.68,17.67-17.68s17.68,7.93,17.68,17.68c0,.07,0,.15-.01.22,1.06.52,1.97,1.29,2.67,2.22.1-.8.15-1.62.15-2.45,0-11.3-9.19-20.49-20.49-20.49s-20.48,9.19-20.48,20.49c0,.84.05,1.65.15,2.46.69-.94,1.61-1.71,2.67-2.22Z"/><path class="cls-1" d="m20.98,44.92c0,2.58,2.09,4.67,4.67,4.67s4.67-2.09,4.67-4.67-2.09-4.67-4.67-4.67-4.67,2.09-4.67,4.67Z"/><path class="cls-1" d="m29.65,50.81c-1.14.78-2.52,1.23-4,1.23s-2.86-.46-4-1.23c-2.25,1.27-3.78,3.68-3.78,6.44v.96c0,1.05.85,1.88,1.88,1.88h10.02v-.44c0-2.47.92-4.74,2.44-6.46-.65-.98-1.53-1.8-2.56-2.38Z"/><path class="cls-1" d="m54.36,40.25c-2.58,0-4.67,2.09-4.67,4.67s2.09,4.67,4.67,4.67,4.67-2.09,4.67-4.67-2.09-4.67-4.67-4.67Z"/><path class="cls-1" d="m58.36,50.81c-1.14.78-2.52,1.23-4,1.23s-2.86-.46-4-1.23c-1.03.58-1.9,1.39-2.55,2.37,1.51,1.72,2.44,3.99,2.44,6.47v.44h10.01c1.05,0,1.88-.84,1.88-1.88v-.96c0-2.76-1.52-5.17-3.77-6.44Z"/><path class="cls-1" d="m35.34,47.32c0,2.58,2.09,4.67,4.67,4.67s4.67-2.09,4.67-4.67-2.09-4.67-4.67-4.67-4.67,2.09-4.67,4.67Z"/><path class="cls-1" d="m44,53.21c-1.14.78-2.52,1.23-4,1.23s-2.86-.46-4-1.23c-2.25,1.26-3.78,3.67-3.78,6.44v.96c0,1.04.84,1.89,1.89,1.89h11.78c1.04,0,1.89-.84,1.89-1.89v-.96c0-2.77-1.52-5.17-3.78-6.44Z"/><path class="cls-2" d="m48.84,34.24v-5.99c0-1.41-1.14-2.56-2.56-2.56h-12.56c-1.41,0-2.56,1.14-2.56,2.56v5.99c0,1.41,1.15,2.56,2.56,2.56h3.75l1.62,2.88c.4.71,1.42.71,1.82,0l1.62-2.88h3.76c1.41,0,2.56-1.14,2.56-2.56Zm-8.84-4.43c.79,0,1.43.64,1.43,1.43s-.64,1.43-1.43,1.43-1.43-.64-1.43-1.43.64-1.43,1.43-1.43Zm-4.86,2.86c-.79,0-1.43-.64-1.43-1.43s.64-1.43,1.43-1.43,1.43.64,1.43,1.43-.64,1.43-1.43,1.43Zm9.71,0c-.79,0-1.43-.64-1.43-1.43s.64-1.43,1.43-1.43,1.43.64,1.43,1.43-.64,1.43-1.43,1.43Z"/></svg>