<?xml version="1.0" encoding="UTF-8"?><svg id="Layer_1" xmlns="http://www.w3.org/2000/svg" viewBox="0 0 80 80"><defs><style>.cls-1{fill:#03111a;}.cls-2{fill:#fff;}</style></defs><path class="cls-1" d="m16.28,60.28c-2.15-.47-3.57-2.47-3.31-4.65l.76-6.3c.47-3.86,3.02-7.01,6.46-8.35-.92-.81-1.68-1.76-2.23-2.86-.37-.08-.74-.16-1.1-.18h-.03c-1.05.42-2.21.63-3.41.63s-2.34-.21-3.41-.63h-.03c-3.6.37-6.49,3.18-6.93,6.8l-.76,6.27c-.08.81.45,1.6,1.23,1.76,1.16.26,2.34.45,3.52.6l.87,14.7c.05,1.16,1.02,2.07,2.18,2.07h6.69c.6,0,1.18-.26,1.58-.68l-.53-8.9c-.55-.08-1.05-.18-1.55-.29Z"/><path class="cls-1" d="m13.42,35.95c1.29,0,2.49-.34,3.54-.92-.11-.47-.13-.95-.13-1.44,0-2.97,1.31-5.64,3.41-7.46-1.02-2.76-3.7-4.75-6.83-4.75-4.02,0-7.27,3.28-7.27,7.3s3.26,7.27,7.27,7.27Z"/><path class="cls-1" d="m29.56,65.19c-2.15-.45-3.57-2.44-3.31-4.65l.76-6.27c.47-3.83,3.02-6.98,6.43-8.37-.92-.79-1.65-1.73-2.21-2.81-.37-.11-.76-.18-1.16-.21-1.05.39-2.18.6-3.36.6s-2.31-.21-3.36-.6c-3.62.32-6.59,3.1-7.04,6.77l-.74,6.3c-.11.81.42,1.58,1.23,1.76,1.13.24,2.31.42,3.49.58l.87,14.73c.05,1.16,1.02,2.05,2.18,2.05h6.69c.6,0,1.18-.26,1.58-.66l-.53-8.9c-.52-.11-1.05-.21-1.55-.32Z"/><path class="cls-1" d="m26.73,40.86c1.26,0,2.47-.34,3.52-.89-.1-.47-.13-.95-.13-1.44,0-2.97,1.31-5.64,3.41-7.48-1.02-2.76-3.68-4.73-6.8-4.73-4.02,0-7.27,3.26-7.27,7.27s3.26,7.27,7.27,7.27Z"/><path class="cls-1" d="m76.95,44.74c-.45-3.65-3.36-6.46-6.93-6.8t-.03,0c-1.05.42-2.21.63-3.41.63s-2.36-.21-3.41-.63t-.03,0c-.37.03-.74.11-1.08.18-.55,1.1-1.31,2.05-2.23,2.83,3.41,1.37,5.96,4.52,6.43,8.38l.76,6.3c.26,2.18-1.16,4.17-3.28,4.65-.5.11-1.02.21-1.58.29l-.5,8.9c.39.42.97.68,1.57.68h6.69c1.16,0,2.13-.92,2.18-2.07l.84-14.7c1.21-.16,2.39-.34,3.52-.6.81-.16,1.34-.94,1.23-1.76l-.76-6.27Z"/><path class="cls-1" d="m63.06,35.05c1.05.55,2.26.89,3.52.89,4.02,0,7.27-3.26,7.27-7.27s-3.26-7.3-7.27-7.3c-3.12,0-5.78,2-6.8,4.75,2.1,1.81,3.41,4.49,3.41,7.46,0,.5-.03,1-.13,1.47Z"/><path class="cls-1" d="m64.43,55.95l-.76-6.3c-.45-3.68-3.39-6.46-7.01-6.77-1.05.39-2.18.6-3.36.6s-2.31-.21-3.36-.6c-.39.03-.79.11-1.16.21-.55,1.08-1.29,2.02-2.2,2.78,3.41,1.39,5.96,4.54,6.41,8.4l.76,6.27c.26,2.21-1.16,4.2-3.28,4.65-.5.11-1.02.21-1.58.32l-.52,8.9c.42.39.97.66,1.6.66h6.67c1.18,0,2.13-.89,2.21-2.05l.84-14.73c1.21-.16,2.39-.34,3.52-.58.81-.18,1.34-.95,1.23-1.76Z"/><path class="cls-1" d="m49.78,39.96c1.05.55,2.26.89,3.52.89,4.02,0,7.27-3.25,7.27-7.27s-3.26-7.27-7.27-7.27c-3.12,0-5.78,1.97-6.8,4.73,2.1,1.84,3.41,4.52,3.41,7.48,0,.5-.03.97-.13,1.44Z"/><path class="cls-1" d="m51.14,60.86l-.76-6.27c-.45-3.65-3.36-6.46-6.93-6.8t-.03,0c-1.05.42-2.2.63-3.41.63s-2.36-.21-3.41-.63t-.03,0c-3.57.34-6.48,3.15-6.93,6.8l-.76,6.27c-.1.81.42,1.6,1.23,1.76,1.13.26,2.31.45,3.52.6l.84,14.7c.08,1.16,1.02,2.07,2.18,2.07h6.69c1.16,0,2.13-.92,2.2-2.07l.84-14.7c1.18-.16,2.36-.34,3.52-.6.79-.16,1.34-.94,1.23-1.76Z"/><path class="cls-1" d="m40.01,45.78c4.02,0,7.28-3.26,7.28-7.28s-3.26-7.28-7.28-7.28-7.27,3.26-7.27,7.28,3.26,7.28,7.27,7.28Z"/><path class="cls-2" d="m40,26.31c7.27,0,13.16-5.89,13.16-13.16S47.27,0,40,0s-13.16,5.89-13.16,13.16,5.89,13.16,13.16,13.16Zm-6.9-14.59c.79-.79,2.08-.8,2.87,0l2.23,2.22,5.37-5.37c.79-.79,2.08-.79,2.87,0,.79.79.79,2.08,0,2.87l-6.81,6.81c-.38.38-.9.6-1.44.6s-1.06-.21-1.44-.59l-3.66-3.66c-.79-.79-.79-2.08,0-2.87Z"/></svg>