<?xml version="1.0" encoding="UTF-8"?><svg id="Layer_1" xmlns="http://www.w3.org/2000/svg" viewBox="0 0 80 80"><defs><style>.cls-1{fill:#ff575d;}</style></defs><path d="m54.85,48.54c.67-.67,1.76-.67,2.43,0l4.06,4.07,3.64-3.64-7.59-12.06c-.64-.98-2.04-.98-2.67,0l-7.51,11.95,2.83,4.49,4.8-4.8Z"/><path d="m79.26,71.66l-12.4-19.71-4.3,4.3c-.65.64-1.79.64-2.43,0l-4.06-4.07-4.14,4.14,8.17,12.98c.9,1.43,1.06,3.2.45,4.73h17.39c1.22,0,1.98-1.35,1.32-2.38Z"/><path class="cls-1" d="m22.57,48.51l5.2-5.2c.65-.64,1.78-.64,2.43,0l5.2,5.2,4.63-4.63-9.19-14.62v-8.56h11.93c.69,0,1.32-.38,1.64-.99.32-.61.28-1.34-.11-1.91l-3.05-4.48,3.05-4.48c.39-.57.43-1.3.11-1.91-.32-.61-.95-.99-1.64-.99h-13.78c-1.02,0-1.85.83-1.85,1.85v21.46l-9.19,14.62,4.63,4.63Z"/><path d="m41.91,46.86l-5.29,5.29c-.32.32-.76.5-1.21.5s-.89-.18-1.21-.5l-5.2-5.2-5.2,5.2c-.65.64-1.79.64-2.43,0l-5.29-5.29L.79,71.14c-.8,1.27.11,2.92,1.61,2.92h53.16c1.5,0,2.41-1.65,1.61-2.92l-15.27-24.27Z"/></svg>