<?xml version="1.0" encoding="UTF-8"?><svg id="Layer_1" xmlns="http://www.w3.org/2000/svg" viewBox="0 0 80 80"><defs><style>.cls-1{fill:#07b9b1;}</style></defs><circle class="cls-1" cx="40" cy="40" r="40"/><path d="m45.64,27.16c1.16,0,2.49.18,3.98.53l-1.08,5.18c-1.08-.28-2.13-.43-3.13-.43-1.65,0-3,.19-4.05.58-1.05.39-1.91,1.01-2.59,1.85s-1.28,2.13-1.82,3.84h.14c1.21-1.94,2.96-2.91,5.25-2.91,1.82,0,3.21.59,4.17,1.76.96,1.17,1.44,2.88,1.44,5.11,0,1.99-.39,3.77-1.17,5.32-.78,1.55-1.9,2.75-3.37,3.59-1.46.84-3.16,1.26-5.08,1.26-2.56,0-4.53-.71-5.9-2.12-1.37-1.41-2.05-3.5-2.05-6.27,0-1.2.15-2.64.44-4.34.97-4.47,2.67-7.74,5.1-9.83,2.43-2.08,5.67-3.13,9.71-3.13Zm-7.01,20.44c.75,0,1.37-.44,1.86-1.31.49-.87.74-1.91.74-3.1,0-1.47-.52-2.2-1.57-2.2-.78,0-1.42.42-1.93,1.25-.51.83-.77,1.86-.77,3.09,0,.75.15,1.32.45,1.7.3.38.71.57,1.22.57Z"/></svg>