<?xml version="1.0" encoding="UTF-8"?><svg id="Layer_1" xmlns="http://www.w3.org/2000/svg" viewBox="0 0 200 200"><defs><style>.cls-1{fill:#fff;}.cls-2{fill:#6ad5d0;}.cls-3{fill:#07b9b1;}.cls-4{fill:#51555a;}</style></defs><circle class="cls-3" cx="99.77" cy="75.62" r="91.38"/><path class="cls-1" d="m116.51,102.27c.84-.07,7.88,7.62,12.81,13.13,2.95,3.3,7.75,4.18,11.7,2.19,12.27-6.18,21.23-12.47,32.9-21.87,0,0,7.01-11.79,12.31-16.04,2.09-1.68,3.49-2.79,4.41-3.51,1-.78,2.48-.06,2.45,1.22-.02.69-.21,1.47-.74,2.29-1.66,2.6-4.34,6.2-4.34,6.2,0,0,5.84,3.44.87,11.08-2.07,3.19-4.14,3.77-6.4,4.4-2.29.64-4.82,4.69-4.82,4.69,0,0-20.22,31.84-38.54,36.54-13.21,3.39-22.51-7.13-38.12-15.08l15.51-25.24Z"/><path d="m112.58,135.34c-3.72-2.34-7.57-4.76-11.99-7.01-.23-.12-.4-.32-.47-.57-.07-.25-.03-.51.1-.73l15.51-25.24c.15-.25.42-.41.71-.43.64-.05,1.44-.12,13.57,13.43,2.66,2.97,7.02,3.79,10.6,1.99,12.69-6.39,21.58-12.79,32.61-21.66.86-1.42,7.33-12.04,12.43-16.14,2.1-1.69,3.5-2.79,4.42-3.51.75-.59,1.75-.68,2.6-.25.84.43,1.35,1.28,1.33,2.22-.03.96-.32,1.88-.88,2.76-1.22,1.92-2.97,4.33-3.84,5.52.77.68,1.88,1.93,2.32,3.83.56,2.4-.09,5.07-1.96,7.93-2.27,3.48-4.63,4.14-6.92,4.78-1.42.39-3.38,2.84-4.29,4.3-.83,1.31-20.62,32.2-39.08,36.94-1.81.46-3.55.67-5.24.67-7.51,0-14.1-4.15-21.52-8.81Zm78.62-58.44c-.92.72-2.31,1.82-4.4,3.5-5.1,4.1-12.02,15.68-12.09,15.79-.06.09-.13.18-.21.25-11.18,9-20.18,15.48-33.06,21.97-4.32,2.18-9.58,1.19-12.79-2.4-7.88-8.8-10.77-11.6-11.82-12.48l-14.51,23.62c4.13,2.16,7.75,4.43,11.26,6.64,9.09,5.72,16.28,10.23,25.33,7.91,17.76-4.55,37.79-35.83,37.99-36.14.28-.45,2.79-4.37,5.35-5.09,2.23-.62,3.99-1.11,5.88-4.02,1.57-2.42,2.15-4.6,1.72-6.49-.51-2.2-2.27-3.29-2.28-3.3-.22-.13-.38-.35-.43-.61-.05-.26,0-.52.16-.73.03-.04,2.68-3.6,4.3-6.14.38-.59.58-1.2.59-1.82,0-.33-.22-.48-.32-.53-.04-.02-.15-.07-.28-.07-.11,0-.24.03-.36.13Z"/><path class="cls-4" d="m7.87,131.9S-.96,90.28,35.33,78.1c22.25-7.46,49.74-5.72,61.09.59,16.21,9.01,26.69,26.26,26.69,26.26l-19.03,26.94s4.2,69.12.88,87.36c0,0-20.46,2.39-29.14-1.03-8.68-3.42-37.21-8.21-50.85-1.94l2.48-87.51-19.59,3.11Z"/><path d="m75.49,219.08c-8.95-3.52-37.16-7.92-50.13-1.96-.29.13-.62.11-.89-.07-.26-.17-.42-.47-.41-.79l2.45-86.4-18.5,2.94c-.47.08-.94-.24-1.04-.72-.09-.43-2.22-10.73.12-22.7,2.17-11.12,8.78-25.73,27.95-32.16,22.62-7.59,50.23-5.79,61.83.66,16.24,9.02,26.92,26.41,27.02,26.59.19.31.18.71-.03,1l-18.84,26.68c.34,5.74,4.07,69.56.85,87.26-.07.4-.4.7-.8.75-.48.06-7.21.82-14.53.82-5.48,0-11.29-.43-15.05-1.91Zm27.68-87.13c-.01-.21.05-.41.17-.58l18.67-26.44c-1.86-2.89-11.75-17.5-26.03-25.43-11.03-6.13-38.52-7.85-60.36-.52-14.7,4.93-23.69,15.26-26.72,30.71-1.9,9.68-.74,18.46-.29,21.17l18.7-2.97c.27-.04.54.04.75.22.2.18.32.44.31.71l-2.44,86.08c14.42-5.56,41.79-.84,50.23,2.48,7.49,2.95,24.41,1.42,28.01,1.05,3.05-18.9-.97-85.79-1.01-86.47Z"/><path d="m35.67,206.38c.05,0,.11,0,.16-.01,33.36-5.89,43.13-29.16,43.22-29.39.19-.47-.04-1-.51-1.19-.47-.19-1,.04-1.19.5-.09.23-9.53,22.57-41.84,28.28-.5.09-.83.56-.74,1.06.08.44.47.76.9.76Z"/><polygon class="cls-2" points="113.76 172.43 72.11 172.43 87 120.16 128.65 120.16 113.76 172.43"/><path d="m71.38,172.98c-.17-.23-.23-.53-.15-.8l14.89-52.27c.11-.39.47-.67.88-.67h41.65c.29,0,.56.13.73.36s.23.53.15.8l-14.89,52.27c-.11.39-.47.67-.88.67h-41.65c-.29,0-.56-.13-.73-.36Zm56.06-51.91h-39.74s-14.37,50.44-14.37,50.44h39.74s14.37-50.44,14.37-50.44Z"/><path class="cls-1" d="m113.22,123.4h-15.26s2.28-8.01,2.28-8.01h14.97c.34,0,.59.33.49.65l-1.99,6.98c-.06.22-.26.37-.49.37Z"/><path d="m97.23,123.95c-.17-.23-.23-.53-.15-.8l2.28-8.01c.11-.39.47-.67.88-.67h14.97c.45,0,.87.21,1.14.57.27.36.36.82.23,1.25l-1.99,6.98c-.18.61-.74,1.04-1.38,1.04h-15.26c-.29,0-.56-.13-.73-.36Zm15.6-1.18h0,0Zm1.85-6.47h-13.74s-1.76,6.18-1.76,6.18h13.74s1.76-6.18,1.76-6.18Z"/><path class="cls-1" d="m11.54,131.42l20.41-3.64,2.15,9.59c.75,3.37,3.48,5.95,6.9,6.49,6.62,1.05,18.51.8,28.7-2.6,2.62-.87,8.92-3.21,8.74-11.25-.12-5.36,5.71-.35,4.65,3.89-1.25,5-.66,5.03,6.28,5.6,3.12.26,9.65-1.83,10.89,0,1.24,1.83-2.18,6.91-7.23,8.78-7.04,2.61-13.36-.24-15.54.71-7.18,3.11-12.48,6.11-18.26,8.28-11.02,4.12-20.68,6.27-26.67,7.83-5.96,1.55-12.07-1.96-13.74-7.89l-7.27-25.79Z"/><path d="m17.93,157.45l-7.27-25.79c-.07-.25-.03-.52.11-.74.14-.22.36-.37.62-.42l20.41-3.64c.48-.09.95.22,1.06.7l2.15,9.59c.68,3.03,3.09,5.3,6.15,5.78,6.71,1.07,18.41.72,28.26-2.56,3.55-1.18,8.26-3.55,8.11-10.36-.04-1.6.4-2.64,1.29-3.07.8-.4,1.83-.17,2.8.61,1.62,1.31,3,4.05,2.37,6.56-.37,1.46-.69,2.93-.35,3.41.43.61,2.53.78,5.71,1.04h.1c1.05.09,2.66-.13,4.22-.35,3.21-.45,6.25-.87,7.35.75.33.49.64,1.37.18,2.78-.79,2.46-3.81,5.88-7.85,7.37-4.64,1.72-8.9,1.19-12,.8-1.5-.19-2.91-.36-3.49-.11-3.05,1.32-5.73,2.61-8.32,3.85-3.41,1.64-6.64,3.19-9.99,4.44-9.18,3.44-17.39,5.5-23.38,7-1.23.31-2.35.59-3.38.86-1.01.26-2.03.39-3.04.39-5.34,0-10.3-3.56-11.82-8.92Zm63.64-9.33c2.92.36,6.92.86,11.14-.7,3.37-1.25,6.08-4.14,6.74-6.21.17-.53.19-.98.04-1.19-.46-.68-3.67-.23-5.58.03-1.73.24-3.37.47-4.62.37h-.1c-4.21-.35-6.13-.51-7.06-1.81-.8-1.12-.48-2.75.06-4.93.47-1.88-.74-3.87-1.74-4.69-.51-.41-.8-.41-.84-.4-.06.03-.29.37-.27,1.39.13,5.94-3.02,10.02-9.36,12.14-10.14,3.38-22.21,3.73-29.13,2.63-3.8-.61-6.81-3.43-7.65-7.2l-1.95-8.74-18.55,3.31,7,24.81c1.53,5.42,7.19,8.67,12.63,7.25,1.03-.27,2.16-.55,3.39-.86,5.95-1.49,14.1-3.54,23.19-6.94,3.27-1.23,6.46-2.76,9.84-4.38,2.61-1.25,5.3-2.55,8.38-3.88.47-.2,1.01-.28,1.65-.28.78,0,1.71.11,2.8.25Z"/><path class="cls-1" d="m56.93,48.61l-2.05,20.97c-.27,2.16-1.83,3.93-3.96,4.48l-2.54.66c-1.33.34-1.56,2.12-.37,2.79,5.62,3.16,18.48,8.21,32.46-1.27,1.2-.9.79-2.79-.69-3.11l-3.57-.79c-2.1-.46-3.71-2.13-4.09-4.23l-.83-23.2-14.38,3.71Z"/><path d="m47.57,78.31c-.87-.49-1.36-1.45-1.23-2.44.13-.99.84-1.79,1.81-2.04l2.54-.66c1.77-.46,3.05-1.91,3.27-3.68l2.05-20.97c.04-.38.31-.7.68-.8l14.38-3.71c.27-.07.56-.01.78.15.22.17.36.42.37.7l.83,23.14c.34,1.71,1.66,3.05,3.38,3.43l3.57.79c1.04.23,1.82,1.01,2.05,2.05.22,1.03-.16,2.06-1.04,2.72-6.2,4.2-12.21,5.6-17.47,5.6-7.18,0-12.97-2.61-15.96-4.29Zm10.21-28.97l-1.99,20.35c-.31,2.55-2.13,4.61-4.64,5.26l-2.54.66c-.36.09-.44.38-.45.5-.02.12-.02.42.31.6,6.05,3.41,18.2,7.78,31.46-1.21.39-.29.35-.69.32-.84-.03-.12-.15-.54-.65-.64l-3.57-.79c-2.46-.55-4.35-2.49-4.8-4.96,0-.04-.01-.09-.01-.13l-.79-22.06-12.65,3.27Z"/><path d="m84.07,23.04c-4.63-1.06.45,4.69-15.99-3.23-6.54-3.16-4.4,5.38-6.1,4.56-6.28-3.01-8-3.76-11.36-3.47-2.22.19-7.44,3.59-7.21,6.56.74,9.68,5.32,7.93,6.79,16.51,1.03,6.03,2.35,8.03,4.52,9.26,2.19,1.24,4.43-1.57,6.92-.39,3.23,1.52,1.58,7.2,4.47,10.16,1.82,1.87,6.54,3.39,14.91.98,1.36-.39,2.24-1.69,2.09-3.09-.19-1.79-.44-4.06-.86-6.21-2-10.23-5.1-12.99-3.43-15.26,2.56-3.49,9.49-.06,11.22-2.99,1.8-3.04.34-11.94-5.99-13.39Z"/><path class="cls-1" d="m64.99,36.82l.92,2.7c.43,1.27.78,2.57,1.03,3.88.48,2.47,1.46,6.67,1.99,9.05,1.69,7.62,11.87,1.3,11.87,1.3l.95-1.86,1.27-.28c.25-.05.48-.16.67-.33.46-.42.57-1.07.33-1.6-1.34-2.91-4.08-9.38-4.53-14.86,0,0-7.28-3.24-14.5,2Z"/><path d="m71.09,56.68c-1.57-.66-2.6-2.02-3.05-4.04-.14-.65-.32-1.45-.52-2.31-.5-2.21-1.12-4.96-1.47-6.76-.25-1.27-.58-2.53-1-3.76l-.92-2.7c-.13-.38,0-.8.33-1.04,7.56-5.49,15.1-2.24,15.41-2.1.31.14.51.43.54.76.45,5.41,3.26,11.98,4.45,14.55.42.91.2,1.98-.55,2.66-.29.26-.67.45-1.09.54l-.85.19-.75,1.47c-.08.15-.19.27-.33.36-.21.13-4.23,2.6-7.86,2.6-.82,0-1.62-.13-2.35-.43Zm9.85-5.22c.12-.24.35-.42.62-.48l1.27-.28c.11-.02.2-.06.25-.11.15-.14.2-.35.11-.54-1.47-3.19-3.97-9.23-4.56-14.59-1.62-.55-7.06-1.94-12.55,1.7l.7,2.04c.45,1.31.81,2.65,1.07,4,.34,1.77.96,4.51,1.46,6.71.2.86.38,1.66.52,2.32.32,1.42.96,2.32,1.97,2.75,2.45,1.03,6.64-.92,8.31-1.9l.83-1.63Z"/><path class="cls-1" d="m65.43,45.76s-2.21-6.48-4.95-4.87c-2.75,1.61-.14,8.69,4.95,4.87Z"/><path d="m76.63,49.23c-.6-.16-1.12-.7-1.46-1.52-.58-1.43-.64-3.91.95-6.57.31-.51.85-.89,1.51-1.04.79-.18,1.63-.03,2.36.44,1.01.65,1.4,1.87,1.19,3.75-.25,2.32-.9,3.81-1.99,4.56-.48.33-1.04.5-1.64.5-.3,0-.61-.04-.92-.12Zm1.42-7.34c-.2.05-.32.14-.35.2-1.67,2.78-1,5.03-.56,5.38.55.13.85,0,1.02-.12.34-.24.96-.97,1.2-3.24.08-.76.09-1.72-.36-2.01-.42-.27-.78-.24-.95-.2Zm-.89,5.59h0Z"/><path d="m78.23,41.83c.49,0,.89-.38.92-.88.02-.51-.37-.93-.88-.96l-14.91-.65c-.52-.02-.93.37-.96.88-.02.51.37.93.88.96l14.91.65s.03,0,.04,0Z"/><path d="m83.77,48.9c.08,0,.16-.01.24-.03.51-.14.99-.66,1.45-1.56.34-.67,1.38-3.02.5-5.34-.27-.71-.76-1.21-1.43-1.46-1.53-.57-3.46.44-3.67.56-.45.24-.61.8-.37,1.24.24.45.8.61,1.24.37.45-.24,1.57-.67,2.16-.45.12.04.25.12.35.39.7,1.83-.41,4.11-.86,4.54-.4.18-.62.63-.51,1.07.11.41.48.68.88.68Z"/></svg>