<?xml version="1.0" encoding="UTF-8"?><svg id="Layer_1" xmlns="http://www.w3.org/2000/svg" viewBox="0 0 80 80"><defs><style>.cls-1{fill:#07b9b1;}</style></defs><circle class="cls-1" cx="40" cy="40" r="40"/><path d="m49.77,32.87c0,1.73-.52,3.17-1.57,4.31s-2.53,1.9-4.44,2.29v.14c1.51.29,2.7.95,3.55,1.96s1.28,2.26,1.28,3.74c0,2.53-1.04,4.48-3.13,5.85s-4.91,2.06-8.47,2.06c-1.36,0-2.63-.12-3.82-.36s-2.17-.58-2.94-1.03v-5.84c1.96,1.17,4.17,1.76,6.63,1.76,1.62,0,2.83-.27,3.63-.82s1.2-1.33,1.2-2.35c0-.63-.16-1.11-.47-1.42s-.82-.55-1.51-.69-1.66-.22-2.92-.22h-1.48l.93-5.12h1.37c1.72,0,3.06-.27,4.03-.82s1.44-1.29,1.44-2.24c0-.54-.21-.97-.63-1.3s-1-.49-1.74-.49c-1.37,0-2.95.49-4.75,1.48l-2.78-4.36c1.48-.95,2.9-1.62,4.28-2.01s2.89-.59,4.54-.59c2.36,0,4.24.54,5.65,1.63s2.12,2.57,2.12,4.45Z"/></svg>