<?xml version="1.0" encoding="UTF-8"?><svg id="Layer_1" xmlns="http://www.w3.org/2000/svg" viewBox="0 0 80 80"><defs><style>.cls-1{fill:#03111a;}.cls-2{fill:#ff575d;}.cls-3{fill:#07b9b1;}</style></defs><path class="cls-1" d="m78.65,15.11H21.76c-.72,0-1.33.6-1.33,1.33v4.09c1.16.31,2.27.8,3.29,1.43v-3.53h52.99v28.02h-42.69c1.57,2.01,2.64,4.4,3.07,6.96h7.69l-1.62,8.39h-3.87c-.29,0-.53.22-.53.51v2.02c0,.31.24.56.53.56h21.85c.29,0,.53-.24.53-.56v-2.02c0-.29-.24-.51-.53-.51h-3.87l-1.62-8.39h22.99c.75,0,1.35-.6,1.35-1.35V16.44c0-.72-.6-1.33-1.35-1.33Zm-28.07,36.21h-.73c-.77,0-1.38-.6-1.38-1.35s.6-1.35,1.38-1.35h.73c.75,0,1.35.6,1.35,1.35s-.6,1.35-1.35,1.35Z"/><path class="cls-1" d="m25.66,44.61l-.59-.21-.51.36c-2.27,1.58-4.93,2.41-7.7,2.41s-5.45-.83-7.7-2.41l-.51-.36-.59.21c-4.82,1.7-8.06,6.28-8.06,11.4v6.69c0,1.21.98,2.19,2.19,2.19h29.3c1.21,0,2.19-.98,2.19-2.19v-6.69c0-5.08-3.22-9.66-8.02-11.39Z"/><path class="cls-1" d="m16.85,43.58c5.49,0,9.95-4.46,9.95-9.95s-4.45-9.95-9.95-9.95-9.95,4.45-9.95,9.95,4.45,9.95,9.95,9.95Z"/><path class="cls-2" d="m40.77,23.04c-5.18,0-9.38,4.2-9.38,9.38s4.2,9.38,9.38,9.38,9.38-4.2,9.38-9.38-4.2-9.38-9.38-9.38Zm3.81,10.08l-5.47,3.64c-.55.37-1.3-.03-1.3-.69v-7.28c0-.67.74-1.06,1.3-.69l5.47,3.64c.5.33.5,1.06,0,1.39Z"/><path class="cls-3" d="m69.31,26.88h-13.15c-.8,0-1.45-.65-1.45-1.45s.65-1.45,1.45-1.45h13.15c.8,0,1.45.65,1.45,1.45s-.65,1.45-1.45,1.45Z"/><path class="cls-3" d="m69.31,33.88h-13.15c-.8,0-1.45-.65-1.45-1.45s.65-1.45,1.45-1.45h13.15c.8,0,1.45.65,1.45,1.45s-.65,1.45-1.45,1.45Z"/><path class="cls-3" d="m69.31,40.87h-13.15c-.8,0-1.45-.65-1.45-1.45s.65-1.45,1.45-1.45h13.15c.8,0,1.45.65,1.45,1.45s-.65,1.45-1.45,1.45Z"/></svg>