<?xml version="1.0" encoding="UTF-8"?><svg id="Layer_1" xmlns="http://www.w3.org/2000/svg" viewBox="0 0 80 80"><defs><style>.cls-1{fill:#07b9b1;}</style></defs><circle class="cls-1" cx="40" cy="40" r="40"/><path d="m40.96,35.95c2.06,0,3.73.67,5.02,2.01,1.28,1.34,1.92,3.14,1.92,5.41,0,2.97-.92,5.27-2.75,6.88-1.83,1.61-4.49,2.42-7.96,2.42-1.47,0-2.86-.13-4.18-.38-1.32-.25-2.28-.6-2.9-1.04v-5.54c.9.51,1.93.91,3.09,1.2,1.16.29,2.21.44,3.14.44,3.16,0,4.73-1.09,4.73-3.28,0-.87-.29-1.57-.86-2.1-.58-.54-1.35-.8-2.33-.8-.6,0-1.24.06-1.9.17-.66.11-1.19.24-1.57.38l-2.08-1.57,3.67-12.8h13.89l-1.16,5.52h-8.05l-1.01,3.16c.4-.04.83-.07,1.28-.07Z"/></svg>