<?xml version="1.0" encoding="UTF-8"?><svg id="Layer_1" xmlns="http://www.w3.org/2000/svg" viewBox="0 0 100 100"><defs><style>.cls-1{fill:#03111a;}.cls-2{fill:#ff575d;}</style></defs><path class="cls-1" d="m100,10.12v57.33c0,1.59-1.3,2.81-2.89,2.81-3.14,0-6.27.12-9.37.41-.65-1.83-2.16-3.22-4.16-3.75l-16.26-4.28c6.68-1.55,13.45-2.41,20.17-2.61V5.56c-11.86.33-23.43,2.81-34.64,7.29v46.05c-.94-.24-1.87-.33-2.85-.33s-1.92.08-2.85.33V12.85c-11.12-4.48-22.78-6.97-34.64-7.29v54.48c6.8.2,13.57,1.06,20.17,2.61l-16.26,4.28c-2,.53-3.5,1.92-4.16,3.75-3.1-.28-6.23-.41-9.37-.41-1.59,0-2.89-1.22-2.89-2.81V10.12c0-1.55,1.3-2.85,2.89-2.85,1.26,0,2.53.04,3.75.12h.2V2.71c0-1.63,1.22-2.89,2.85-2.89,13.9,0,27.46,2.69,40.3,7.99C62.88,2.5,76.45-.19,90.38-.19c1.55,0,2.77,1.26,2.77,2.89v4.69h.2c1.22-.08,2.49-.12,3.75-.12,1.59,0,2.89,1.31,2.89,2.85Z"/><path class="cls-1" d="m38.27,23.42c.2.07.55.14.75.14,1.3,0,2.39-.82,2.8-2.04.41-1.5-.48-3.07-1.98-3.55-6.21-1.84-12.55-3.14-18.96-3.82-1.57-.14-2.93,1.02-3.14,2.52-.07.75.14,1.5.61,2.11.48.55,1.16.96,1.91,1.03,6.07.68,12.14,1.91,18,3.61Z"/><path class="cls-1" d="m18.36,29.63c.48.61,1.16.95,1.91,1.02,6.07.68,12.14,1.91,18,3.68.27.07.55.07.75.07,1.3,0,2.39-.82,2.8-2.04.41-1.5-.48-3.07-1.98-3.48-6.14-1.91-12.55-3.2-18.96-3.89-1.63-.14-2.93.96-3.14,2.52-.07.75.14,1.5.61,2.11Z"/><path class="cls-1" d="m18.36,40.47c.48.61,1.16,1.02,1.91,1.09,6.07.61,12.14,1.84,18,3.61.2.07.55.14.75.14,1.3,0,2.39-.82,2.8-2.04.41-1.5-.48-3.14-1.98-3.55-6.14-1.84-12.55-3.14-18.96-3.82-1.57-.14-2.93.96-3.14,2.52-.07.75.14,1.5.61,2.05Z"/><path class="cls-1" d="m18.36,51.38c.48.55,1.16.95,1.91,1.02,6.07.68,12.14,1.84,18,3.61.27.07.55.14.75.14,1.3,0,2.39-.82,2.8-2.04.41-1.5-.48-3.07-1.98-3.55-6.14-1.84-12.55-3.14-18.96-3.82-1.63-.14-2.93.96-3.14,2.52-.07.75.14,1.5.61,2.11Z"/><path class="cls-1" d="m60.98,23.56c.27,0,.55-.07.75-.14,5.86-1.7,11.93-2.93,18-3.61.75-.07,1.43-.48,1.91-1.03.48-.61.68-1.36.61-2.11-.14-1.44-1.43-2.52-2.93-2.52h-.2c-6.41.68-12.75,1.98-18.96,3.82-.75.21-1.37.75-1.7,1.37-.34.68-.48,1.5-.21,2.18.34,1.23,1.43,2.04,2.73,2.04Z"/><path class="cls-1" d="m58.25,32.35c.34,1.23,1.43,2.04,2.73,2.04.27,0,.55,0,.75-.07,5.93-1.77,11.93-3,18-3.68.75-.07,1.43-.41,1.91-1.02.48-.62.68-1.37.61-2.11-.2-1.5-1.57-2.66-3.14-2.52-6.41.68-12.82,1.98-18.96,3.89-.75.21-1.37.68-1.7,1.37-.34.68-.48,1.43-.21,2.11Z"/><path class="cls-1" d="m58.25,43.27c.34,1.16,1.43,2.04,2.73,2.04.27,0,.55-.07.75-.14,5.86-1.77,11.93-3,18-3.61.75-.07,1.43-.48,1.91-1.09.48-.55.68-1.3.61-2.05-.2-1.56-1.63-2.66-3.14-2.52-6.41.68-12.82,1.98-18.96,3.82-.75.2-1.37.68-1.7,1.36-.34.68-.48,1.43-.21,2.18Z"/><path class="cls-1" d="m58.25,54.11c.34,1.23,1.43,2.04,2.73,2.04.27,0,.55-.07.75-.14,5.93-1.77,11.93-2.93,18-3.61.75-.07,1.43-.48,1.91-1.02.48-.61.68-1.37.61-2.11-.2-1.57-1.57-2.66-3.14-2.52-6.41.68-12.82,1.98-18.96,3.82-.75.21-1.37.75-1.7,1.37-.34.68-.48,1.5-.21,2.18Z"/><path class="cls-2" d="m27.67,81.5v12.33c0,1.95,1.31,3.64,3.21,4.1,5.09,1.22,11.58,2.26,19.13,2.26s14.03-1.04,19.12-2.26c1.9-.45,3.21-2.15,3.21-4.1v-12.33s-18.99,5.02-18.99,5.02c-1.08.3-2.21.44-3.35.44s-2.27-.14-3.35-.44l-18.99-5.02Z"/><path class="cls-2" d="m82.43,71.27l-29.96-7.91c-1.62-.43-3.31-.43-4.93,0l-29.96,7.91c-1.64.43-1.64,2.76,0,3.19l2.94.78v9.39c-1.16.47-1.98,1.6-1.98,2.93,0,1.75,1.42,3.16,3.16,3.16s3.17-1.42,3.17-3.16c0-1.33-.82-2.46-1.98-2.93v-8.76l24.65,6.51c1.62.43,3.31.43,4.93,0l29.96-7.91c1.64-.43,1.64-2.76,0-3.19Z"/></svg>