<?xml version="1.0" encoding="UTF-8"?><svg id="Layer_1" xmlns="http://www.w3.org/2000/svg" viewBox="0 0 80 80"><defs><style>.cls-1{fill:#03111a;}.cls-2{fill:#ff575d;}.cls-3{fill:#fff;}</style></defs><circle class="cls-3" cx="40" cy="40" r="38.5"/><path class="cls-1" d="m40,3c20.4,0,37,16.6,37,37s-16.6,37-37,37S3,60.4,3,40,19.6,3,40,3m0-3C17.91,0,0,17.91,0,40s17.91,40,40,40,40-17.91,40-40S62.09,0,40,0h0Z"/><path d="m57.16,24.01c1.36,0,2.46-1.1,2.46-2.46s-1.1-2.46-2.46-2.46-2.47,1.1-2.47,2.46,1.1,2.46,2.47,2.46Z"/><path d="m57.16,31.19c4.6,0,8.34-3.74,8.34-8.34s-3.74-8.34-8.34-8.34-8.34,3.74-8.34,8.34,3.74,8.34,8.34,8.34Zm0-14.57c3.44,0,6.24,2.8,6.24,6.24,0,1.88-.84,3.57-2.16,4.71v-.17c0-1.24-.8-2.28-1.9-2.67-.62.43-1.37.68-2.17.68s-1.56-.26-2.17-.68c-1.11.39-1.91,1.43-1.91,2.67v.17c-1.32-1.14-2.15-2.83-2.15-4.7,0-3.44,2.8-6.24,6.24-6.24Z"/><path d="m22.84,24.01c1.36,0,2.46-1.1,2.46-2.46s-1.1-2.46-2.46-2.46-2.47,1.1-2.47,2.46,1.1,2.46,2.47,2.46Z"/><path d="m22.84,31.19c4.6,0,8.34-3.74,8.34-8.34s-3.74-8.34-8.34-8.34-8.34,3.74-8.34,8.34,3.74,8.34,8.34,8.34Zm0-14.57c3.44,0,6.24,2.8,6.24,6.24,0,1.88-.84,3.57-2.16,4.71v-.17c0-1.24-.8-2.28-1.9-2.67-.62.43-1.37.68-2.17.68s-1.56-.26-2.17-.68c-1.11.39-1.91,1.43-1.91,2.67v.17c-1.32-1.14-2.15-2.83-2.15-4.7,0-3.44,2.8-6.24,6.24-6.24Z"/><path d="m57.16,53.37c-1.36,0-2.47,1.1-2.47,2.46s1.1,2.46,2.47,2.46,2.46-1.1,2.46-2.46-1.1-2.46-2.46-2.46Z"/><path d="m57.16,48.81c-4.6,0-8.34,3.74-8.34,8.34s3.74,8.34,8.34,8.34,8.34-3.74,8.34-8.34-3.74-8.34-8.34-8.34Zm4.08,13.05v-.17c0-1.24-.8-2.28-1.9-2.67-.62.43-1.37.68-2.17.68s-1.56-.26-2.17-.68c-1.11.39-1.91,1.43-1.91,2.67v.17c-1.32-1.14-2.15-2.83-2.15-4.7,0-3.44,2.8-6.24,6.24-6.24s6.24,2.8,6.24,6.24c0,1.88-.84,3.57-2.16,4.71Z"/><path d="m22.84,53.37c-1.36,0-2.47,1.1-2.47,2.46s1.1,2.46,2.47,2.46,2.46-1.1,2.46-2.46-1.1-2.46-2.46-2.46Z"/><path d="m22.84,48.81c-4.6,0-8.34,3.74-8.34,8.34s3.74,8.34,8.34,8.34,8.34-3.74,8.34-8.34-3.74-8.34-8.34-8.34Zm4.08,13.05v-.17c0-1.24-.8-2.28-1.9-2.67-.62.43-1.37.68-2.17.68s-1.56-.26-2.17-.68c-1.11.39-1.91,1.43-1.91,2.67v.17c-1.32-1.14-2.15-2.83-2.15-4.7,0-3.44,2.8-6.24,6.24-6.24s6.24,2.8,6.24,6.24c0,1.88-.84,3.57-2.16,4.71Z"/><path d="m34.9,21.57c.74,0,1.34-.6,1.34-1.34s-.6-1.34-1.34-1.34-1.34.6-1.34,1.34.6,1.34,1.34,1.34Z"/><path d="m45.11,21.57c.74,0,1.34-.6,1.34-1.34s-.6-1.34-1.34-1.34-1.34.6-1.34,1.34.6,1.34,1.34,1.34Z"/><path d="m40,21.57c.74,0,1.34-.6,1.34-1.34s-.6-1.34-1.34-1.34-1.34.6-1.34,1.34.6,1.34,1.34,1.34Z"/><path d="m34.9,58.43c-.74,0-1.34.6-1.34,1.34s.6,1.34,1.34,1.34,1.34-.6,1.34-1.34-.6-1.34-1.34-1.34Z"/><path d="m45.11,58.43c-.74,0-1.34.6-1.34,1.34s.6,1.34,1.34,1.34,1.34-.6,1.34-1.34-.6-1.34-1.34-1.34Z"/><path d="m40,58.43c-.74,0-1.34.6-1.34,1.34s.6,1.34,1.34,1.34,1.34-.6,1.34-1.34-.6-1.34-1.34-1.34Z"/><path d="m59.77,33.55c-.74,0-1.34.6-1.34,1.34s.6,1.34,1.34,1.34,1.34-.6,1.34-1.34-.6-1.34-1.34-1.34Z"/><path d="m59.77,43.76c-.74,0-1.34.6-1.34,1.34s.6,1.34,1.34,1.34,1.34-.6,1.34-1.34-.6-1.34-1.34-1.34Z"/><circle cx="59.77" cy="40" r="1.34"/><path d="m20.24,33.55c-.74,0-1.34.6-1.34,1.34s.6,1.34,1.34,1.34,1.34-.6,1.34-1.34-.6-1.34-1.34-1.34Z"/><path d="m20.24,43.76c-.74,0-1.34.6-1.34,1.34s.6,1.34,1.34,1.34,1.34-.6,1.34-1.34-.6-1.34-1.34-1.34Z"/><path d="m20.24,38.66c-.74,0-1.34.6-1.34,1.34s.6,1.34,1.34,1.34,1.34-.6,1.34-1.34-.6-1.34-1.34-1.34Z"/><path class="cls-2" d="m29.57,42.32l2.08.3c.26.63.33.8.59,1.43l-1.26,1.68c-.33.45-.29,1.08.11,1.47l1.71,1.7c.4.4,1.02.44,1.47.11l1.68-1.26c.63.26.8.33,1.43.59l.3,2.08c.08.55.56.97,1.12.97h2.41c.56,0,1.04-.41,1.12-.97l.3-2.08c.63-.26.8-.33,1.43-.59l1.68,1.26c.45.33,1.08.29,1.47-.11l1.71-1.7c.4-.4.44-1.02.11-1.47l-1.26-1.69c.26-.63.33-.8.59-1.42l2.08-.3c.55-.08.97-.56.97-1.12v-2.41c0-.56-.41-1.03-.97-1.11l-2.08-.3c-.26-.63-.33-.8-.59-1.43l1.26-1.68c.34-.45.29-1.08-.11-1.47l-1.71-1.71c-.4-.4-1.02-.44-1.47-.11l-1.68,1.26c-.63-.26-.8-.33-1.43-.59l-.3-2.08c-.08-.55-.56-.96-1.12-.96h-2.41c-.56,0-1.04.41-1.12.96l-.3,2.08c-.63.26-.8.33-1.43.59l-1.68-1.26c-.45-.34-1.08-.29-1.47.11l-1.71,1.71c-.4.4-.44,1.02-.11,1.47l1.26,1.68c-.26.63-.33.8-.59,1.43l-2.08.3c-.55.08-.96.56-.96,1.11v2.41c0,.56.41,1.03.96,1.12Zm10.43-6.57c2.35,0,4.25,1.9,4.25,4.25s-1.9,4.25-4.25,4.25-4.25-1.9-4.25-4.25,1.9-4.25,4.25-4.25Z"/></svg>