<?xml version="1.0" encoding="UTF-8"?><svg id="Layer_1" xmlns="http://www.w3.org/2000/svg" xmlns:xlink="http://www.w3.org/1999/xlink" viewBox="0 0 100 100"><defs><style>.cls-1{fill:none;}.cls-2{clip-path:url(#clippath);}.cls-3{fill:#ff575d;}.cls-4{fill:#fff;}.cls-4,.cls-5{fill-rule:evenodd;}.cls-5{fill:#03111a;}</style><clipPath id="clippath"><rect class="cls-1" width="100" height="100"/></clipPath></defs><g class="cls-2"><circle class="cls-3" cx="34.83" cy="35.96" r="64.04"/></g><path class="cls-5" d="m22.6,24h43.59v5.48H22.6v-5.48h0Zm0,12.63h21.67v5.48h-21.67v-5.48h0Zm0,12.63h22.21l2.95,5.48h-25.17v-5.48h0Zm0,12.63h28.97l2.7,5.03.18.46h-31.85v-5.48h0Zm36.46-25.61h7.13v5.48h-7.13v-5.48Z"/><path class="cls-4" d="m55.53,40.88l-8.59-4.43.13,9.64s.08-.07.13-.1c.55-.34,1.17-.42,1.77-.37.02-.2.03-.39.08-.59.24-1,.85-1.84,1.72-2.38.88-.54,1.9-.71,2.9-.47.18.04.35.11.52.18.22-.58.62-1.08,1.16-1.42.05-.03.11-.03.17-.06Z"/><path class="cls-4" d="m68.8,60.85l-11.11-17.97c-.28-.45-.87-.59-1.32-.31-.45.28-.59.87-.31,1.32l11.11,17.97,1.63-1.01Z"/><path class="cls-4" d="m65.54,62.87l-11.11-17.97c-.56-.9-1.74-1.18-2.64-.62-.9.56-1.18,1.74-.62,2.65l11.11,17.97,3.27-2.02Z"/><path class="cls-4" d="m60.64,65.9l-11.11-17.97c-.28-.45-.87-.59-1.32-.31-.45.28-.59.87-.31,1.32l11.11,17.97,1.63-1.01Z"/><path class="cls-4" d="m69.81,62.48l-9.8,6.06,1.01,1.63c1.12,1.8,3.48,2.36,5.29,1.25l3.27-2.02c1.8-1.12,2.36-3.48,1.25-5.29l-1.01-1.63Z"/></svg>