<?xml version="1.0" encoding="UTF-8"?><svg id="Layer_1" xmlns="http://www.w3.org/2000/svg" viewBox="0 0 200 200"><defs><style>.cls-1{fill:#03111a;}.cls-2{fill:#fff;}.cls-3{fill:#07b9b1;}</style></defs><circle class="cls-3" cx="73" cy="73.12" r="127"/><path class="cls-2" d="m102.78,58.16l-3.68-1.31c-.09-1.7-.39-3.38-.9-5.01l3.01-2.5c.67-.55.8-1.52.34-2.25l-3.33-5.19c-.46-.74-1.4-.99-2.18-.64l-3.54,1.68c-1.26-1.15-2.67-2.11-4.16-2.9l.34-3.91c.07-.87-.51-1.65-1.33-1.84l-6.02-1.33c-.85-.18-1.7.3-2,1.1l-1.33,3.68c-1.68.09-3.35.39-4.99.9l-2.53-3.01c-.55-.67-1.52-.8-2.25-.34l-5.19,3.33c-.71.46-.99,1.4-.62,2.18l1.68,3.54c-1.15,1.26-2.14,2.67-2.92,4.16l-3.91-.34c-.83-.09-1.65.51-1.84,1.33l-1.31,6.02c-.18.85.28,1.7,1.08,2l3.7,1.33c.09,1.68.39,3.35.9,4.99l-3.01,2.53c-.67.55-.83,1.52-.34,2.25l3.31,5.17c.46.74,1.4,1.01,2.18.64l3.56-1.68c1.26,1.15,2.64,2.14,4.16,2.92l-.37,3.91c-.07.85.51,1.65,1.36,1.84l6.02,1.31c.11.05.25.05.37.05.71,0,1.38-.44,1.63-1.13l1.31-3.7c1.7-.09,3.38-.39,5.01-.9l2.5,3.01c.55.67,1.52.83,2.25.34l5.19-3.31c.73-.46,1.01-1.4.64-2.18l-1.68-3.56c1.15-1.26,2.11-2.64,2.89-4.16l3.91.37c.85.07,1.65-.51,1.84-1.36l1.33-6.02c.18-.85-.3-1.7-1.1-2Zm-12.43,2.3c-.69,3.03-2.53,5.61-5.17,7.26-1.88,1.17-4,1.77-6.16,1.77-.87,0-1.77-.11-2.64-.3-3.03-.71-5.61-2.55-7.26-5.19-1.63-2.62-2.16-5.74-1.47-8.78.71-3.03,2.55-5.61,5.19-7.26,2.62-1.65,5.74-2.18,8.78-1.47,3.03.69,5.61,2.53,7.26,5.17,1.65,2.64,2.18,5.77,1.47,8.8Z"/><path class="cls-1" d="m48.86,48.27c.2.08.41.11.61.11.7,0,1.35-.42,1.61-1.12.43-1.13.93-2.25,1.48-3.31.44-.84.11-1.88-.73-2.33-.85-.44-1.88-.11-2.33.73-.62,1.18-1.17,2.42-1.65,3.69-.34.89.11,1.88,1,2.22Z"/><path class="cls-1" d="m54.15,40.06c.51,0,1.02-.23,1.36-.66,7.97-10.15,21.49-14.03,33.63-9.65.89.32,1.88-.14,2.21-1.03.32-.9-.14-1.88-1.03-2.21-13.55-4.89-28.62-.57-37.51,10.76-.59.75-.46,1.83.29,2.42.32.25.69.37,1.06.37Z"/><path class="cls-2" d="m133.04,86.15l-2.37-.62c-.18-1.01-.44-2-.83-2.96l1.75-1.75c.62-.62.69-1.59.16-2.27l-2.69-3.47c-.55-.69-1.49-.87-2.25-.44l-2.11,1.24c-.85-.6-1.75-1.1-2.67-1.52l-.02-2.48c0-.85-.64-1.59-1.49-1.7l-4.34-.55c-.87-.11-1.68.44-1.91,1.26l-.62,2.39c-1.01.16-2,.44-2.96.8l-1.75-1.75c-.62-.6-1.59-.67-2.27-.14l-3.47,2.69c-.69.53-.87,1.47-.44,2.23l1.24,2.14c-.6.83-1.1,1.72-1.52,2.67h-2.48c-.85,0-1.59.64-1.7,1.52l-.55,4.34c-.11.85.44,1.68,1.26,1.88l2.39.62c.16,1.01.44,2.02.8,2.99l-1.75,1.75c-.6.6-.67,1.59-.14,2.25l2.69,3.49c.53.67,1.47.85,2.23.41l2.14-1.24c.83.62,1.72,1.13,2.67,1.54v2.46c0,.87.64,1.61,1.49,1.72l4.37.55h.23c.76,0,1.45-.51,1.65-1.29l.62-2.37c1.01-.18,2-.44,2.96-.83l1.75,1.75c.62.62,1.61.67,2.27.16l3.49-2.69c.67-.53.85-1.49.41-2.25l-1.24-2.11c.6-.85,1.13-1.75,1.54-2.67l2.46-.02c.87,0,1.61-.64,1.7-1.49l.57-4.34c.12-.87-.44-1.68-1.29-1.91Zm-8.29,2.96c-.32,2.32-1.54,4.39-3.4,5.81-1.54,1.17-3.4,1.77-5.28,1.77-.41,0-.83-.02-1.24-.07-2.32-.32-4.39-1.54-5.79-3.4-1.42-1.88-2.02-4.18-1.7-6.53.32-2.32,1.52-4.39,3.4-5.79,1.86-1.42,4.18-2.02,6.5-1.7,2.32.32,4.39,1.52,5.81,3.4,1.4,1.86,2.02,4.18,1.7,6.5Z"/><path class="cls-1" d="m153.99,95.52c-.95,0-1.72.77-1.72,1.72v6.13c0,.95.77,1.72,1.72,1.72s1.72-.77,1.72-1.72v-6.13c0-.95-.77-1.72-1.72-1.72Z"/><path class="cls-1" d="m106.02,46.83h43.09c1.74,0,3.15,1.42,3.15,3.17v39.51c0,.95.77,1.72,1.72,1.72s1.72-.77,1.72-1.72v-39.51c0-3.65-2.96-6.62-6.59-6.62h-43.09c-.95,0-1.72.77-1.72,1.72s.77,1.72,1.72,1.72Z"/><path class="cls-1" d="m50.25,51.72h-8.38c-.95,0-1.72.77-1.72,1.72v62.08c0,.95.77,1.72,1.72,1.72h104.23c.95,0,1.72-.77,1.72-1.72v-62.08c0-.95-.77-1.72-1.72-1.72h-38.25c-.95,0-1.72.77-1.72,1.72s.77,1.72,1.72,1.72h36.52v58.64H43.6v-58.64h6.65c.95,0,1.72-.77,1.72-1.72s-.77-1.72-1.72-1.72Z"/><path class="cls-1" d="m165.23,127.03h-10.36c.53-.94.85-2,.85-3.15v-12.5c0-.94-.78-1.72-1.72-1.72s-1.72.78-1.72,1.72v12.5c0,1.72-1.38,3.1-3.08,3.15H38.81c-1.7-.05-3.08-1.42-3.08-3.15V50.01c0-1.75,1.42-3.17,3.17-3.17h4.34c.94,0,1.72-.78,1.72-1.72s-.78-1.72-1.72-1.72h-4.34c-3.65,0-6.62,2.96-6.62,6.62v73.87c0,1.15.32,2.21.83,3.15h-10.34c-.96,0-1.72.78-1.72,1.72v3.45c0,6.23,5.05,11.28,11.28,11.28h123.34c6.23,0,11.28-5.06,11.28-11.28v-3.45c0-.94-.78-1.72-1.72-1.72Zm-124.51,9.95h-1.88c-.94,0-1.72-.76-1.72-1.72s.78-1.72,1.72-1.72h1.88c.94,0,1.72.78,1.72,1.72s-.78,1.72-1.72,1.72Zm8.02,0h-1.86c-.96,0-1.72-.76-1.72-1.72s.76-1.72,1.72-1.72h1.86c.96,0,1.72.78,1.72,1.72s-.76,1.72-1.72,1.72Zm8.04,0h-1.88c-.94,0-1.72-.76-1.72-1.72s.78-1.72,1.72-1.72h1.88c.94,0,1.72.78,1.72,1.72s-.78,1.72-1.72,1.72Z"/><path class="cls-1" d="m91.16,93.33c-.92.26-1.44,1.22-1.18,2.13,1.37,4.77,4.63,11.18,12.39,14.65.23.1.47.15.7.15.66,0,1.29-.38,1.57-1.02.39-.87,0-1.89-.87-2.28-5.26-2.35-8.78-6.54-10.48-12.45-.26-.92-1.22-1.46-2.13-1.18Z"/><path class="cls-1" d="m90.71,85.22c-.96-.08-1.77.66-1.83,1.61,0,.04-.07,1.11.05,2.77.07.91.82,1.6,1.72,1.6.04,0,.09,0,.13,0,.95-.07,1.66-.9,1.59-1.85-.11-1.4-.05-2.28-.05-2.29.06-.95-.66-1.77-1.61-1.83Z"/><path class="cls-1" d="m74.14,96c.95,0,1.72-.77,1.72-1.72s-.77-1.72-1.72-1.72h-14.35c-.95,0-1.72.77-1.72,1.72s.77,1.72,1.72,1.72h14.35Z"/><path class="cls-1" d="m54.42,92.55h-3.35c-.95,0-1.72.77-1.72,1.72s.77,1.72,1.72,1.72h3.35c.95,0,1.72-.77,1.72-1.72s-.77-1.72-1.72-1.72Z"/><path class="cls-1" d="m49.35,103c0,.95.77,1.72,1.72,1.72h23.06c.95,0,1.72-.77,1.72-1.72s-.77-1.72-1.72-1.72h-23.06c-.95,0-1.72.77-1.72,1.72Z"/></svg>