<?xml version="1.0" encoding="UTF-8"?><svg id="Layer_1" xmlns="http://www.w3.org/2000/svg" viewBox="0 0 80 80"><defs><style>.cls-1{fill:#03111a;}.cls-2{fill:#ff575d;}.cls-3{fill:#fff;}</style></defs><circle class="cls-3" cx="40" cy="40" r="38.5"/><path class="cls-1" d="m40,3c20.4,0,37,16.6,37,37s-16.6,37-37,37S3,60.4,3,40,19.6,3,40,3m0-3C17.91,0,0,17.91,0,40s17.91,40,40,40,40-17.91,40-40S62.09,0,40,0h0Z"/><path class="cls-2" d="m41.93,34.52c0-1.07-.86-1.93-1.93-1.93s-1.93.86-1.93,1.93.86,1.93,1.93,1.93,1.93-.86,1.93-1.93Z"/><path class="cls-2" d="m36.59,39.4v.65c0,.14.11.26.26.26h6.31c.14,0,.26-.11.26-.26v-.65c0-1.26-1.01-2.27-2.26-2.27h-2.29c-1.25,0-2.27,1.02-2.27,2.27Z"/><path class="cls-2" d="m29.75,34.52c0-1.07-.86-1.93-1.93-1.93s-1.93.86-1.93,1.93.86,1.93,1.93,1.93,1.93-.86,1.93-1.93Z"/><path class="cls-2" d="m24.41,39.4v.65c0,.14.11.26.26.26h6.31c.14,0,.26-.11.26-.26v-.65c0-1.26-1.01-2.27-2.26-2.27h-2.29c-1.25,0-2.27,1.02-2.27,2.27Z"/><path class="cls-2" d="m54.11,34.52c0-1.07-.86-1.93-1.93-1.93s-1.93.86-1.93,1.93.86,1.93,1.93,1.93,1.93-.86,1.93-1.93Z"/><path class="cls-2" d="m48.77,39.4v.65c0,.14.11.26.26.26h6.31c.14,0,.26-.11.26-.26v-.65c0-1.26-1.01-2.27-2.26-2.27h-2.29c-1.25,0-2.27,1.02-2.27,2.27Z"/><path class="cls-2" d="m41.93,46.66c0-1.07-.86-1.93-1.93-1.93s-1.93.86-1.93,1.93.86,1.93,1.93,1.93,1.93-.86,1.93-1.93Z"/><path class="cls-2" d="m36.59,51.53v.65c0,.14.11.26.26.26h6.31c.14,0,.26-.11.26-.26v-.65c0-1.26-1.01-2.27-2.26-2.27h-2.29c-1.25,0-2.27,1.02-2.27,2.27Z"/><path class="cls-2" d="m29.75,46.66c0-1.07-.86-1.93-1.93-1.93s-1.93.86-1.93,1.93.86,1.93,1.93,1.93,1.93-.86,1.93-1.93Z"/><path class="cls-2" d="m24.41,51.53v.65c0,.14.11.26.26.26h6.31c.14,0,.26-.11.26-.26v-.65c0-1.26-1.01-2.27-2.26-2.27h-2.29c-1.25,0-2.27,1.02-2.27,2.27Z"/><path class="cls-2" d="m54.11,46.66c0-1.07-.86-1.93-1.93-1.93s-1.93.86-1.93,1.93.86,1.93,1.93,1.93,1.93-.86,1.93-1.93Z"/><path class="cls-2" d="m48.77,51.53v.65c0,.14.11.26.26.26h6.31c.14,0,.26-.11.26-.26v-.65c0-1.26-1.01-2.27-2.26-2.27h-2.29c-1.25,0-2.27,1.02-2.27,2.27Z"/><path class="cls-1" d="m57.08,42.52c0-.32-.26-.57-.57-.57h-10.05v-9.44c0-.32-.26-.57-.57-.57s-.57.26-.57.57v9.44h-10.62v-9.44c0-.32-.26-.57-.57-.57s-.57.26-.57.57v9.44h-10.05c-.32,0-.57.26-.57.57s.26.57.57.57h10.05v9.44c0,.32.26.57.57.57s.57-.26.57-.57v-9.44h10.62v9.44c0,.32.26.57.57.57s.57-.26.57-.57v-9.44h10.05c.32,0,.57-.26.57-.57Z"/><path class="cls-1" d="m59.86,27.64h-9.78v.55c0,.6-.16,1.17-.43,1.67h9.47v25.32H20.88v-25.32h9.46c-.28-.5-.43-1.08-.43-1.68v-.53h-9.78c-.81,0-1.48.66-1.48,1.48v27.73c0,.81.66,1.48,1.48,1.48h18.21v2.76c0,.84-.68,1.52-1.52,1.52h-3.62c-1.49,0-2.7,1.22-2.7,2.73v.1c0,.31.25.56.58.56h17.87c.31,0,.58-.25.58-.56v-.1c0-1.51-1.22-2.73-2.73-2.73h-3.62c-.84,0-1.52-.68-1.52-1.52v-2.76h18.21c.81,0,1.48-.66,1.48-1.48v-27.73c0-.81-.66-1.48-1.48-1.48Z"/><path class="cls-1" d="m48.31,28.18v-4.92l-6.48,2.23c-.59.19-1.21.3-1.83.3s-1.24-.1-1.83-.3l-6.47-2.21v4.9c-.01.91.72,1.67,1.65,1.67h13.29c.92,0,1.67-.75,1.67-1.67Z"/><path class="cls-1" d="m26.51,19.62l12.24,4.19c.81.28,1.69.28,2.5,0l9.53-3.26v2.32c-.57.22-.98.77-.98,1.42,0,.85.69,1.53,1.53,1.53s1.54-.69,1.54-1.53c0-.65-.41-1.2-.98-1.42v-2.7l1.6-.55c.58-.2.58-1.03,0-1.23l-12.24-4.19c-.81-.28-1.69-.28-2.5,0l-12.24,4.19c-.58.2-.58,1.03,0,1.23Z"/></svg>