<?xml version="1.0" encoding="UTF-8"?><svg id="Layer_1" xmlns="http://www.w3.org/2000/svg" viewBox="0 0 100 100"><defs><style>.cls-1{fill:#03111a;}.cls-2{fill:#fff;}</style></defs><path class="cls-1" d="m88.04,11.2H11.96c-5.31,0-9.64,4.32-9.64,9.67v58.29c0,5.32,4.32,9.64,9.64,9.64h76.09c5.31,0,9.64-4.32,9.64-9.64V20.87c0-5.35-4.32-9.67-9.64-9.67Zm-21.92,8.48h16.6c1.52,0,2.77,1.22,2.77,2.74s-1.25,2.77-2.77,2.77h-16.6c-1.52,0-2.77-1.22-2.77-2.77s1.25-2.74,2.77-2.74Zm-29.41-.66c1.88,0,3.43,1.52,3.43,3.4s-1.55,3.43-3.43,3.43-3.4-1.52-3.4-3.43,1.52-3.4,3.4-3.4Zm-10.07,0c1.88,0,3.4,1.52,3.4,3.4s-1.52,3.43-3.4,3.43-3.43-1.52-3.43-3.43,1.55-3.4,3.43-3.4Zm-10.1,0c1.91,0,3.43,1.52,3.43,3.4s-1.52,3.43-3.43,3.43-3.4-1.52-3.4-3.43,1.52-3.4,3.4-3.4Zm75.16,60.14c0,2.01-1.65,3.63-3.66,3.63H11.96c-2.01,0-3.66-1.62-3.66-3.63v-45.45h83.41v45.45Z"/><path class="cls-2" d="m44.57,76.78c-1.61,0-3.22-.61-4.45-1.84l-10.73-10.73c-2.46-2.46-2.46-6.45,0-8.91,2.46-2.46,6.44-2.46,8.9,0l6.27,6.27,17.13-17.14c2.46-2.46,6.45-2.46,8.91,0,2.46,2.46,2.46,6.45,0,8.91l-21.58,21.59c-1.23,1.22-2.84,1.84-4.46,1.84Z"/></svg>