<?xml version="1.0" encoding="UTF-8"?><svg id="Layer_1" xmlns="http://www.w3.org/2000/svg" viewBox="0 0 80 80"><defs><style>.cls-1{fill:#ff575d;}</style></defs><path d="m74.45,5.4v69.2c0,1.66-1.36,3.03-3.02,3.03h-26.21c-1.66,0-3.02-1.37-3.02-3.03V5.4c0-1.66,1.36-3.03,3.02-3.03h26.21c1.66,0,3.02,1.37,3.02,3.03Zm-4.7,35.82V8.97c0-1.02-.83-1.85-1.85-1.85h-19.15c-1.02,0-1.85.83-1.85,1.85v32.25c0,1.01.83,1.84,1.85,1.84h19.15c1.02,0,1.85-.83,1.85-1.84Zm-2.69,22.31c0-4.82-3.91-8.73-8.73-8.73s-8.74,3.91-8.74,8.73,3.91,8.74,8.74,8.74,8.73-3.91,8.73-8.74Z"/><rect class="cls-1" x="50.07" y="19.54" width="16.51" height="4.12" rx="1.18" ry="1.18"/><path class="cls-1" d="m66.58,12.86v1.77c0,.64-.53,1.17-1.18,1.17h-14.15c-.65,0-1.18-.53-1.18-1.17v-1.77c0-.64.53-1.17,1.18-1.17h14.15c.65,0,1.18.53,1.18,1.17Z"/><path class="cls-1" d="m58.33,58.58c2.73,0,4.95,2.22,4.95,4.95s-2.22,4.96-4.95,4.96-4.96-2.22-4.96-4.96,2.22-4.95,4.96-4.95Z"/><path d="m37.8,5.4v69.2c0,1.66-1.36,3.03-3.02,3.03H8.57c-1.66,0-3.02-1.37-3.02-3.03V5.4c0-1.66,1.36-3.03,3.02-3.03h26.21c1.66,0,3.02,1.37,3.02,3.03Zm-4.7,35.82V8.97c0-1.02-.83-1.85-1.85-1.85H12.1c-1.02,0-1.85.83-1.85,1.85v32.25c0,1.01.83,1.84,1.85,1.84h19.15c1.02,0,1.85-.83,1.85-1.84Zm-2.69,22.31c0-4.82-3.91-8.73-8.74-8.73s-8.73,3.91-8.73,8.73,3.91,8.74,8.73,8.74,8.74-3.91,8.74-8.74Z"/><rect class="cls-1" x="13.42" y="19.54" width="16.51" height="4.12" rx="1.18" ry="1.18"/><path class="cls-1" d="m29.93,12.86v1.77c0,.64-.53,1.17-1.18,1.17h-14.15c-.65,0-1.18-.53-1.18-1.17v-1.77c0-.64.53-1.17,1.18-1.17h14.15c.65,0,1.18.53,1.18,1.17Z"/><path class="cls-1" d="m21.67,58.58c2.74,0,4.96,2.22,4.96,4.95s-2.22,4.96-4.96,4.96-4.95-2.22-4.95-4.96,2.22-4.95,4.95-4.95Z"/></svg>