<?xml version="1.0" encoding="UTF-8"?><svg id="Layer_1" xmlns="http://www.w3.org/2000/svg" viewBox="0 0 80 80"><defs><style>.cls-1{fill:#ff575d;}.cls-2{fill-rule:evenodd;}</style></defs><rect class="cls-1" x="27.5" y="17" width="36" height="26"/><path class="cls-2" d="m17.18,2.61h49.78c3.26,0,5.92,2.66,5.92,5.92v62.93c0,3.26-2.66,5.92-5.92,5.92H17.18c-3.26,0-5.92-2.66-5.92-5.92v-1.02c2.39,0,5.03.41,6.91-1.47,2.02-2.02,2.03-6.56,0-8.59-1.89-1.89-4.51-1.48-6.92-1.48v-4.4c2.39,0,5.03.41,6.91-1.47,2.02-2.02,2.03-6.56,0-8.59-1.89-1.89-4.51-1.48-6.92-1.48v-4.4c2.39,0,5.03.41,6.91-1.47,2.02-2.02,2.03-6.56,0-8.59-1.89-1.89-4.51-1.48-6.92-1.48v-4.4c2.39,0,5.03.41,6.91-1.47,2.02-2.02,2.03-6.56,0-8.59-1.89-1.89-4.51-1.48-6.92-1.48v-2.56c0-3.26,2.66-5.92,5.92-5.92h0ZM7.91,61.13c-1.53,0-2.79,1.26-2.79,2.79v1.51c0,1.53,1.25,2.79,2.79,2.79h6.73c1.53,0,2.79-1.25,2.79-2.79v-1.51c0-1.53-1.25-2.79-2.79-2.79h-6.73Zm0-15.94c-1.53,0-2.79,1.26-2.79,2.79v1.51c0,1.53,1.25,2.79,2.79,2.79h6.73c1.53,0,2.79-1.26,2.79-2.79v-1.51c0-1.53-1.25-2.79-2.79-2.79h-6.73Zm0-15.94c-1.53,0-2.79,1.26-2.79,2.79v1.51c0,1.53,1.25,2.79,2.79,2.79h6.73c1.53,0,2.79-1.26,2.79-2.79v-1.51c0-1.53-1.25-2.79-2.79-2.79h-6.73Zm0-15.94c-1.53,0-2.79,1.25-2.79,2.79v1.51c0,1.53,1.25,2.79,2.79,2.79h6.73c1.53,0,2.79-1.26,2.79-2.79v-1.51c0-1.53-1.25-2.79-2.79-2.79h-6.73Zm23.05,5.81c-1.12,0-2.05.92-2.05,2.05v17.18c0,1.12.92,2.05,2.05,2.05h26.39c1.13,0,2.05-.92,2.05-2.05v-17.18c0-1.13-.92-2.05-2.05-2.05h-26.39Z"/></svg>