<?xml version="1.0" encoding="UTF-8"?><svg id="Layer_1" xmlns="http://www.w3.org/2000/svg" viewBox="0 0 80 80"><defs><style>.cls-1{fill:#03111a;}.cls-2{fill:#ff575d;}.cls-3{fill:#fff;}</style></defs><circle class="cls-3" cx="40" cy="40" r="38.5"/><path class="cls-1" d="m40,3c20.4,0,37,16.6,37,37s-16.6,37-37,37S3,60.4,3,40,19.6,3,40,3m0-3C17.91,0,0,17.91,0,40s17.91,40,40,40,40-17.91,40-40S62.09,0,40,0h0Z"/><path class="cls-1" d="m52.8,18.37H19.04c-2.36,0-4.28,1.92-4.28,4.28v25.87c0,2.36,1.92,4.28,4.28,4.28h26.88l-.82-2.65h-26.06c-.89,0-1.61-.73-1.61-1.63v-20.17h37v19.12c.47.06.92.19,1.35.4.2-.1.42-.19.66-.26.22-.06.44-.12.66-.15v-24.8c0-2.36-1.92-4.28-4.29-4.28Zm-31.71,6.49c-.84,0-1.51-.67-1.51-1.51s.67-1.51,1.51-1.51,1.52.67,1.52,1.51-.69,1.51-1.52,1.51Zm4.48,0c-.85,0-1.52-.67-1.52-1.51s.67-1.51,1.52-1.51,1.51.67,1.51,1.51-.67,1.51-1.51,1.51Zm4.47,0c-.84,0-1.52-.67-1.52-1.51s.69-1.51,1.52-1.51,1.51.67,1.51,1.51-.67,1.51-1.51,1.51Zm20.4-.28h-7.37c-.67,0-1.22-.56-1.22-1.23s.54-1.23,1.22-1.23h7.37c.69,0,1.23.56,1.23,1.23s-.54,1.23-1.23,1.23Z"/><path class="cls-1" d="m63.36,51.11c-.32-1.03-1.42-1.62-2.45-1.3-.67.21-1.15.74-1.32,1.37l-.02-.05c-.32-1.04-1.42-1.62-2.46-1.3-.67.21-1.15.74-1.32,1.37v-.05c-.33-1.04-1.43-1.62-2.47-1.3-.67.21-1.15.74-1.32,1.37l-2.05-6.68c-.15-.5-.5-.92-.96-1.16-.46-.24-.99-.29-1.5-.14,0,0,0,0,0,0-1.03.32-1.62,1.42-1.3,2.46l3.68,12c.03.11,0,.22-.09.29-.09.07-.2.08-.3.03l-2.49-1.31c-.84-.44-1.88-.23-2.48.51-.35.44-.51,1.01-.42,1.56.09.56.41,1.05.88,1.36l6.51,4.28c1.84,1.22,4.11,1.54,6.23.89l2.96-.91c1.66-.51,3.01-1.63,3.83-3.16.81-1.53.98-3.28.47-4.94l-1.59-5.18Z"/><path class="cls-2" d="m23.06,41.19c-.19,0-.37-.07-.51-.21l-1.24-1.24c-.28-.28-.28-.74,0-1.03.28-.28.74-.28,1.03,0l.72.72,1.98-1.98c.28-.28.74-.28,1.03,0,.28.28.28.74,0,1.03l-2.49,2.49c-.14.14-.33.21-.51.21Z"/><path class="cls-2" d="m23.06,46.66c-.19,0-.37-.07-.51-.21l-1.24-1.24c-.28-.28-.28-.74,0-1.03.28-.28.74-.28,1.03,0l.72.72,1.98-1.98c.28-.28.74-.28,1.03,0,.28.28.28.74,0,1.03l-2.49,2.49c-.14.14-.33.21-.51.21Z"/><path class="cls-2" d="m25.6,34.63c.29.29.29.75,0,1.04-.14.14-.33.21-.52.21s-.38-.07-.52-.21l-.88-.88-.88.88c-.14.14-.33.21-.52.21s-.38-.07-.52-.21c-.29-.29-.29-.75,0-1.04l.88-.88-.88-.88c-.29-.29-.29-.75,0-1.04.29-.29.75-.29,1.04,0l.88.88.88-.88c.29-.29.75-.29,1.04,0,.29.29.29.75,0,1.04l-.88.88.88.88Z"/><path class="cls-2" d="m48.64,34.75h-19.84c-.55,0-1-.45-1-1h0c0-.55.45-1,1-1h19.84c.55,0,1,.45,1,1h0c0,.55-.45,1-1,1Z"/><path class="cls-2" d="m48.64,40.22h-19.84c-.55,0-1-.45-1-1h0c0-.55.45-1,1-1h19.84c.55,0,1,.45,1,1h0c0,.55-.45,1-1,1Z"/><rect class="cls-2" x="27.8" y="43.69" width="16.26" height="2.01" rx="1" ry="1"/></svg>