<?xml version="1.0" encoding="UTF-8"?><svg id="Layer_1" xmlns="http://www.w3.org/2000/svg" viewBox="0 0 100 100"><defs><style>.cls-1{fill:#03111a;}.cls-2{fill:#ff575d;}</style></defs><path class="cls-1" d="m84.02,29.76h-44.55v6.43h7l1.21,1.9c.38.58,1.01.92,1.7.92h10.96c.69,0,1.33-.35,1.7-.92l1.21-1.9h20.76c1.76,0,3.2,1.44,3.2,3.2v37.61h6.43v-37.61c0-5.31-4.33-9.63-9.63-9.63Zm-29.16,6.08c-.84,0-1.53-.69-1.53-1.53s.69-1.53,1.53-1.53,1.53.66,1.53,1.53-.69,1.53-1.53,1.53Zm-38.79,41.15h6.43v-20.62h-6.43v20.62Zm81.9,2.85h-32.21l-1.07,3.06c-.29.81-1.07,1.36-1.9,1.36h-15.86c-.84,0-1.62-.55-1.87-1.36l-1.1-3.06H11.75c-1.12,0-2.02.89-2.02,1.99v3.03c0,2.97,2.45,5.42,5.42,5.42h79.42c3,0,5.42-2.45,5.42-5.42v-3.03c0-1.1-.89-1.99-2.02-1.99Z"/><path class="cls-1" d="m75.65,51.69h-25.58c-1.25,0-2.26-1.01-2.26-2.26h0c0-1.25,1.01-2.26,2.26-2.26h25.58c1.25,0,2.26,1.01,2.26,2.26h0c0,1.25-1.01,2.26-2.26,2.26Z"/><path class="cls-1" d="m75.65,62.73h-41.56c-1.25,0-2.26-1.01-2.26-2.26h0c0-1.25,1.01-2.26,2.26-2.26h41.56c1.25,0,2.26,1.01,2.26,2.26h0c0,1.25-1.01,2.26-2.26,2.26Z"/><path class="cls-1" d="m75.65,73.77h-41.56c-1.25,0-2.26-1.01-2.26-2.26h0c0-1.25,1.01-2.26,2.26-2.26h41.56c1.25,0,2.26,1.01,2.26,2.26h0c0,1.25-1.01,2.26-2.26,2.26Z"/><path class="cls-2" d="m19.1,16.69C8.55,16.69,0,25.24,0,35.79s8.55,19.1,19.1,19.1,19.1-8.55,19.1-19.1-8.55-19.1-19.1-19.1Zm8.38,16.98l-8.95,8.95c-.5.5-1.15.75-1.8.75s-1.31-.25-1.8-.75l-4.45-4.45c-1-1-1-2.61,0-3.61.99-1,2.61-1,3.6,0l2.64,2.64,7.15-7.15c1-1,2.61-1,3.61,0,.99,1,.99,2.61,0,3.61Z"/></svg>