<?xml version="1.0" encoding="UTF-8"?><svg id="Layer_1" xmlns="http://www.w3.org/2000/svg" viewBox="0 0 200 200"><defs><style>.cls-1{fill:#fff;}.cls-2{fill:#ff898e;}.cls-3{fill:#07b9b1;}.cls-4{fill:#51555a;}.cls-5{fill:#03111a;stroke:#51555a;stroke-miterlimit:10;stroke-width:1.38px;}</style></defs><circle class="cls-3" cx="99.77" cy="75.62" r="91.38"/><path d="m108.05,33.32c-7.14-7.72-17.74-9.35-25.72-7.17-10.09,2.76-15.18,11.49-18.77,17.64-6.34,10.88-3.28,14.83-8.27,21.15-8.83,11.2-30.25,3.78-40.68,12.38-25.06,20.66-11.4,54.82,10.81,70.94,14.81,10.75,34.96,4.53,40.45,2.84,16.64-5.13,44.21-15.19,46.88-39.22,1.79-16.15-14.69-29.1-5.84-42.57,2.26-3.43,4.12-4.36,5.8-8.65,2.72-6.96,3.33-18.69-4.67-27.35Z"/><path d="m82.01,35.22c3.79-3.08,1.39-12.14-1.03-17.04-.91-1.83-4.98-10.04-10.33-9.72-5.5.33-10.76,9.55-8.8,16.86,2.45,9.14,15.72,13.5,20.16,9.9Z"/><path class="cls-4" d="m56.41,90.91c11.44-3.73,28.86-6.41,49.69.22,7.59,2.42,13.04,9.11,13.98,17.02l16.97,97.7c.84,7.1-8.65,14.01-15.34,16.54-6.99,2.65-17.55,5.15-32.5,5.15-16.03,0-35.39-.09-41.9-2.94-.19-.08-.39-.17-.59-.27-8.37-3.9-13.29-12.73-12.47-21.92l3.46-14.36c3.81-15.84,5.58-32.1,5.26-48.38l-.56-28.44c-.42-9.15,5.29-17.49,14-20.33Z"/><path class="cls-4" d="m136.53,132.89s-13.55-37.52-28.73-41.13l7.72,53.16,21.01-12.04Z"/><path class="cls-4" d="m22.78,154.78c-5.8-4.59-8.24-12.24-6.18-19.35,1.86-6.39,4.21-14.09,6.25-19.65,6.99-19.04,21.48-23.3,27.12-24.65.89-.21,10.93-1.54,10.93-1.54l-6.04,58.28-25.81,10.57-6.27-3.65Z"/><path d="m41.09,201.16c-.16,0-.32-.04-.47-.12-.5-.26-.69-.87-.42-1.37,5.4-10.26,16.28-17.31,31.45-20.37,12.61-2.55,25.41-1.81,32.53-.41,10.01,1.98,20,8.41,20.43,8.68.47.3.6.93.3,1.4-.3.47-.93.6-1.4.3-.1-.06-10.1-6.5-19.71-8.4-15.19-3-50.28-2.12-61.79,19.74-.18.34-.53.54-.9.54Z"/><path class="cls-2" d="m82.88,163.54l66.52-.1c1.69,0,3.15-1.15,3.56-2.79l11.29-46.93c.57-2.31-1.18-4.55-3.57-4.55l-66.52.1c-1.69,0-3.15,1.15-3.56,2.79l-11.29,46.93c-.57,2.31,1.18,4.55,3.57,4.55Z"/><path d="m82.88,164.55c-1.45,0-2.79-.65-3.68-1.79-.9-1.14-1.21-2.6-.86-4.01l11.28-46.93c.52-2.1,2.38-3.56,4.54-3.57l66.52-.1h0c1.45,0,2.79.65,3.68,1.79.9,1.14,1.21,2.6.86,4.01l-11.29,46.93c-.52,2.1-2.38,3.56-4.54,3.57l-66.52.1h0Zm77.81-54.37h0l-66.52.1c-1.22,0-2.28.83-2.57,2.02l-11.28,46.93c-.2.8-.02,1.63.49,2.28.51.65,1.27,1.02,2.09,1.02h0l66.52-.1c1.22,0,2.28-.83,2.57-2.02l11.29-46.93c.2-.8.02-1.63-.49-2.28-.51-.65-1.27-1.02-2.09-1.02Z"/><path class="cls-1" d="m127.62,137.24c-.66,2.83-3.34,4.63-5.98,4.01-2.64-.62-4.24-3.41-3.57-6.25.66-2.83,3.34-4.63,5.98-4.01,2.64.62,4.24,3.41,3.57,6.25Z"/><path class="cls-1" d="m160.35,131.58l-.85,3.37c-.36,1.42-1.93,2.17-3.25,1.54l-11.25-5.34c-1.49-.71-3.28.04-3.8,1.61-1.06,3.21-.17,8.9,14.16,14.71,8.75,3.55,9.06-6.06,7.64-11.92-.63-2.6-2.64-3.97-2.64-3.97Z"/><path d="m158.75,149.25c-1.12,0-2.38-.28-3.77-.84-14.58-5.91-16.07-11.94-14.74-15.96.34-1.02,1.1-1.84,2.08-2.27,1-.43,2.14-.41,3.11.06l11.25,5.34c.36.17.77.17,1.12,0,.36-.17.62-.48.71-.87l.85-3.37c.08-.32.31-.58.62-.7.31-.12.66-.08.93.11.1.06,2.34,1.62,3.06,4.57,1.04,4.26,1.2,10.15-1.77,12.72-.95.82-2.1,1.23-3.46,1.23Zm-14.94-17.35c-.24,0-.47.05-.69.14-.46.2-.8.57-.96,1.04-1.49,4.52,3.33,9.3,13.58,13.45,2.3.93,4.03.92,5.14-.04,2.12-1.83,2.07-6.83,1.13-10.71-.23-.94-.67-1.69-1.11-2.25l-.42,1.66c-.24.97-.91,1.78-1.81,2.21-.91.43-1.95.43-2.86,0l-11.25-5.34c-.24-.11-.5-.17-.75-.17Z"/><path class="cls-1" d="m63.23,117.19s-29.87,16.83-36.03,22.11c-6.16,5.28-12.84,9.29-4.13,20.8,7.41,9.78,20.44,1.04,43.43-31.94,1.08-1.55,2.84-2.5,4.68-2.91,2.3-.52,5.65-2.34,7.19-8.39,0,0,10.9,1.55,11.86-3.76l-16.37-2.61c-2.19-.39-4.44.33-5.99,1.93l-4.64,4.77Z"/><path d="m29.88,164.89c-2.96,0-5.52-1.4-7.62-4.18-8.62-11.39-2.78-16.27,2.86-20.99.47-.39.95-.79,1.42-1.2,6.02-5.16,33.66-20.8,36.07-22.15l4.54-4.66c1.79-1.84,4.36-2.67,6.89-2.22l16.35,2.6c.27.04.51.19.67.41s.22.5.17.77c-.95,5.27-9.32,4.95-12.11,4.69-1.83,6.08-5.58,7.8-7.72,8.27-1.77.4-3.22,1.29-4.07,2.5-17.08,24.5-28.92,35.98-37.28,36.14-.06,0-.12,0-.18,0Zm42.82-53.49c-1.53,0-3.01.61-4.09,1.72l-4.64,4.77c-.07.07-.14.13-.23.18-.3.17-29.86,16.84-35.87,22-.48.41-.96.81-1.44,1.21-5.59,4.67-10,8.35-2.54,18.21,1.75,2.32,3.77,3.42,6.14,3.37,7.54-.15,19.2-11.69,35.65-35.28,1.14-1.64,3.02-2.82,5.29-3.32,2.17-.49,5.05-2.21,6.43-7.65.13-.5.62-.83,1.12-.75.09.01,8.31,1.07,10.32-1.96l-15.13-2.41c-.34-.06-.68-.09-1.01-.09Zm-9.46,5.78h0,0Z"/><path class="cls-1" d="m93.88,72.92c1.61.81,3.55.47,4.82-.8,1.43-1.44,2.59-2.97,3.53-4.52l1.83.04c.58.01,1.07-.44,1.1-1.03l.31-7.13c1.41-2.29,1.97-4.23,2.1-5.79.22-2.65-2.14-7.41-4.53-8.58-3.24-1.58-9.08-2.43-12.13,2.15-1.31,1.97-3.44,3.38-4.73,3.16-1.21-.21-1.71-1.25-2.31-2.33-1.11-2-3.89-3.89-6.55-.72-2.7,3.21-.83,6.15.85,8.62.68.99-.05,3.75-.33,4.92l-3.95,16.82c-1.01,4.32-4.1,7.86-8.25,9.45l-4.22,1.62s4.66,14.16,23.35,13.76c14.26-.31,13.17-12.01,13.17-12.01l-1.87-.83c-4.9-2.16-7.59-7.5-6.4-12.72l1.26-5.55,2.96,1.48Z"/><path d="m84.01,103.57c-18.57,0-23.5-14.31-23.55-14.46-.17-.51.1-1.07.6-1.26l4.22-1.62c3.84-1.47,6.69-4.74,7.63-8.73l4.01-17.09c.68-2.86.55-3.63.41-3.84-1.51-2.23-4.05-5.96-.78-9.84,1.57-1.86,3.14-2.14,4.19-2.04,1.87.18,3.3,1.62,4.02,2.92l.12.21c.53.96.86,1.5,1.48,1.61.7.12,2.48-.88,3.71-2.72,3.12-4.7,9.15-4.59,13.42-2.5,2.86,1.4,5.34,6.66,5.1,9.57-.16,1.91-.87,3.93-2.11,6.01l-.3,6.87c-.05,1.14-1,2.03-2.13,2l-1.25-.03c-.98,1.53-2.11,2.95-3.37,4.21-1.59,1.6-4,2-5.99,1h0s-1.8-.9-1.8-.9l-.97,4.29c-1.07,4.74,1.38,9.61,5.83,11.57l1.87.83c.34.15.57.47.6.83.02.2.43,5.01-2.95,8.8-2.46,2.76-6.23,4.21-11.21,4.32-.27,0-.53,0-.79,0Zm-21.26-14.2c1.36,3.02,6.86,12.49,22.01,12.16,4.38-.09,7.65-1.31,9.73-3.62,2.17-2.42,2.45-5.45,2.47-6.7l-1.29-.57c-5.33-2.35-8.27-8.19-6.98-13.88l1.26-5.55c.07-.3.27-.56.56-.69.28-.13.61-.13.89.01l2.96,1.48c1.21.61,2.68.36,3.65-.61,1.28-1.29,2.42-2.75,3.39-4.33.19-.31.52-.49.89-.49l1.83.04s.06-.02.06-.06l.31-7.13c0-.17.06-.34.15-.49,1.16-1.89,1.82-3.69,1.95-5.34.19-2.33-2.07-6.66-3.97-7.58-2.52-1.23-8.02-2.43-10.84,1.81-1.33,2-3.8,3.94-5.75,3.59-1.61-.29-2.3-1.53-2.9-2.63l-.11-.2c-.45-.8-1.36-1.78-2.44-1.88-.81-.08-1.64.37-2.44,1.32-2.11,2.51-.9,4.74.91,7.39.81,1.19.39,3.35-.12,5.45l-.06.27-3.95,16.82c-1.09,4.65-4.41,8.45-8.87,10.16l-3.26,1.25Z"/><path class="cls-5" d="m115.67,194.74c-.56-1.37-1.7-2.42-3.11-2.86-7.83-2.46-35.15-8.93-63.26,9.1-1.33.85-2.18,2.28-2.29,3.85-1.02,14.29-4.81,88.98,18.82,177.41l15.92-1.13,3.24-151.2s23.58,55.43,4.41,143.65l16.55,3.06s24.23-31.85,28.56-80.53c3.84-43.06-14.55-90.87-18.85-101.33Z"/></svg>