<?xml version="1.0" encoding="UTF-8"?><svg id="Layer_1" xmlns="http://www.w3.org/2000/svg" viewBox="0 0 200 200"><defs><style>.cls-1{fill:#eaeae8;}.cls-2{fill:#fff;}.cls-3{fill:#07b9b1;}.cls-4{fill:#51555a;}</style></defs><circle class="cls-3" cx="99.77" cy="75.62" r="91.38"/><path class="cls-1" d="m131.65,174.89s18.63,127.82,14.66,213.13l-5.81.58c-3.13.31-6.27.39-9.41.23l-5.51-.28s-22.22-129.59-33.31-151.11c0,0-30.17,115.24-31.34,146.47,0,0-13.41,1.35-18.76-.58-2.87-30.13-3.7-61.32-3.84-80.9-.41-56.04,4.94-81.49,7.88-93.57,2.7-11.09,5.59-20.1,7.7-26.19l7.05-20.12,70.69,12.35Z"/><path d="m131.04,389.88l-5.51-.28c-.49-.02-.9-.39-.98-.87-.21-1.25-20.78-120.71-32.01-148.16-4.65,18-29.52,115.36-30.56,143.38-.02.52-.42.95-.94,1-.56.06-13.71,1.35-19.22-.63-.38-.14-.65-.48-.69-.89-3.07-32.21-3.73-64.57-3.85-80.99-.39-53.33,4.33-79.09,7.91-93.82,2.15-8.86,4.76-17.71,7.73-26.29l7.06-20.12c.17-.48.66-.77,1.17-.69l70.69,12.35c.45.08.79.43.86.88.19,1.28,18.6,128.89,14.67,213.33-.02.52-.43.94-.94.99l-5.81.58c-2.11.21-4.24.32-6.37.32-1.07,0-2.14-.03-3.2-.08Zm-.32-214.09l-69.06-12.06-6.76,19.28c-2.95,8.52-5.53,17.3-7.67,26.1-3.56,14.63-8.24,40.22-7.85,93.31.12,16.27.77,48.22,3.77,80.12,4.56,1.28,13.85.64,16.77.4,1.69-32.27,31.03-144.63,31.33-145.77.11-.42.47-.73.9-.78.43-.05.85.18,1.05.56,10.7,20.76,31.19,138.5,33.27,150.59l4.67.24c3.08.15,6.19.08,9.25-.23l4.91-.49c3.6-80.85-13.08-200.64-14.59-211.27Z"/><path d="m132.49,212.82c.41,0,.79-.24.96-.63.23-.53-.01-1.15-.54-1.38-8.89-3.86-8.73-11.93-8.72-12.27.02-.58-.43-1.06-1.01-1.08-.61-.02-1.06.43-1.08,1.01,0,.1-.25,9.83,9.98,14.27.14.06.28.09.42.09Z"/><path d="m130.15,68.51c-12.32-1.39-38.63-3.88-56.72-2.23-5.46.5-13.35,3.84-17.5,7.42-12.24,10.56-35.32,33.81-39.18,61.72-.56,4.07,2.11,7.89,6.12,8.78l21.33,4.73s-8.5,33.51-7.82,39.3c.68,5.79,18.3,15.63,40.34,7.56,17.18-6.3,41.5-11.31,56.94-5.87.15.05,1.62,11.92,1.78,11.94,4.96.72,9.95-1.21,9.84-8.18l-2.35-36.19,28.26-3.73,2.53-.84c7.64-2.54,11.59-10.97,8.64-18.46-6.64-16.9-16.66-44.26-35.22-59.38-3.97-3.23-11.9-5.99-16.99-6.56Z"/><path class="cls-4" d="m117.3,179.88h44.17c1.92,0,3.59-1.31,4.05-3.17l15.28-61.62c.65-2.63-1.34-5.18-4.05-5.18h-44.17c-1.92,0-3.59,1.31-4.05,3.17l-15.28,61.62c-.65,2.63,1.34,5.18,4.05,5.18Z"/><path class="cls-2" d="m173.62,141.4l-1.48,6.22-5.34-1.78c-2.94-.98-5.77-2.29-8.42-3.89l-3.06-1.86c-2.29-1.39-5.26-.3-6.15,2.22-1.89,5.36-1.52,14.34,17.72,19.98,10.62,3.11,13.66-10.49,12.28-18.04-.35-1.93-1.3-3.17-2.27-3.95-1.16-.93-2.9-.35-3.27,1.1Z"/><path d="m166.59,163.3c-9.39-2.75-15.42-6.62-17.91-11.5-1.54-3-1.71-6.4-.5-9.84.53-1.51,1.7-2.68,3.2-3.22,1.49-.53,3.12-.37,4.48.45l3.06,1.86c2.58,1.57,5.34,2.84,8.21,3.8l4.25,1.42,1.22-5.1s0-.01,0-.02c.26-1.03,1.02-1.84,2.02-2.17,1-.34,2.1-.14,2.92.52,1.41,1.13,2.3,2.67,2.65,4.58,1.02,5.6-.22,13.63-4.51,17.49-1.65,1.49-3.64,2.24-5.86,2.24-1.03,0-2.12-.16-3.24-.49Zm8.7-22.34c-.33.11-.57.36-.65.7l-1.48,6.21c-.07.29-.25.53-.51.67-.26.14-.56.17-.84.08l-5.34-1.78c-3.01-1-5.92-2.35-8.63-3.99l-3.06-1.86c-.81-.49-1.79-.59-2.69-.27-.91.32-1.61,1.03-1.93,1.94-1.03,2.92-.9,5.68.38,8.18,2.23,4.34,7.82,7.86,16.64,10.44,2.84.83,5.23.4,7.11-1.29,3.59-3.23,4.78-10.45,3.85-15.56-.25-1.39-.89-2.51-1.9-3.31-.18-.15-.4-.22-.62-.22-.11,0-.22.02-.32.05Z"/><path class="cls-2" d="m71.47,105.73c-2.21,2.26-4.72,4.2-7.47,5.77-9.27,5.28-31.42,18.06-36.94,22.77-7.02,6-10.38,8.24-4.74,23.67,9.2,25.15,52.08-39.42,52.08-39.42,0,0,12.6,2.28,15.43-8.76,0,0,6.56,1.23,9.3.05,2.1-.91,2.01-4.47-.79-4.86l-18.12-3.38c-2.5-.45-5.05.37-6.82,2.19l-1.93,1.98Z"/><path d="m28.22,164.75c-3.13-.37-5.45-2.54-6.87-6.45-5.72-15.65-2.33-18.54,4.42-24.3l.62-.53c5.58-4.77,27.8-17.59,37.1-22.89,2.66-1.52,5.1-3.4,7.24-5.59l1.93-1.98c2.02-2.06,4.91-2.99,7.76-2.48l18.07,3.37c1.67.23,2.9,1.43,3.12,3.05.22,1.62-.62,3.19-2.05,3.81-2.39,1.03-6.95.49-8.97.18-3.01,9.33-12.94,8.98-15.66,8.69-3.64,5.41-30.91,45.16-45.79,45.16-.31,0-.62-.02-.92-.05Zm46.38-47.26c.48.08,11.68,1.96,14.22-7.99.14-.54.67-.87,1.21-.77,1.74.33,6.69.98,8.69.11.67-.29.89-1.03.81-1.6-.06-.41-.3-1.11-1.38-1.27l-18.11-3.38c-2.16-.39-4.36.32-5.89,1.89l-1.93,1.98c-2.28,2.33-4.87,4.33-7.7,5.95-9.24,5.26-31.33,18.01-36.77,22.66l-.62.53c-6.39,5.44-9.04,7.7-3.81,21.98,1.15,3.15,2.84,4.81,5.15,5.09.24.03.48.04.73.04,11.96,0,35.95-32.12,44.35-44.77.2-.3.53-.47.87-.47.06,0,.12,0,.18.02Z"/><path d="m101.42,26.41c.34.12.71.27,1.1.45,0,0,.87.53,1.66,1.99.79,1.46,2.12,5.96,3.84,5.69s3.84-7.28,3.84-7.28c0,0,.66-3.44,5.96-2.12,5.29,1.32,9.4,3.57,10.99,4.5s3.04,1.19,4.63,1.06c1.59-.13,6.75-3.18,5.82-8.07-.93-4.9-5.43-8.23-9.4-8.21-4.13.02-10.06-2.65-11.12-3.18-1.06-.53-7.29-3.08-10.68-1.19-3.03,1.69-5.57,4.37-6.96,9-.88,2.96-.2,5.67-.11,6.56.04.35.1.68.43.79Z"/><path class="cls-2" d="m129.47,30.14c.1.05.16.16.15.27-.05.81-.24,4.15.27,7.17.28,1.66,1.35,5.71.9,6.54-.45.83-2.12.9-2.89.83-.77-.06-2.05.26-2.37.9-.32.64-1.28,6.61-1.67,8.02s-1.67,3.08-4.04,2.82c-.3-.03-1.19-.23-1.88-.39-.5-.12-1,.22-1.08.72-1.14,7.25,6.18,15.41,7.94,17.27.18.19.12.51-.13.61-16.24,7.09-32.94-5.15-37.5-8.95-.2-.17,8.53-2.53,12.7-12.57,1.84-4.42,1.22-11.28,1.29-14.01.01-.55-.3-1.06-.8-1.29-1.1-.51-2.69-2.18-3.15-3.84-.66-2.38-.4-9.98,5.9-6.93,0,0,.87.53,1.66,1.99.79,1.46,2.12,5.96,3.84,5.69,1.72-.26,3.84-7.28,3.84-7.28,0,0,.66-3.44,5.96-2.12,4.78,1.19,10.07,4.01,11.06,4.54Z"/><path d="m86.51,66.77l-.45-.38.08-.58c.09-.61.53-.8,1.09-1.05,5.51-2.41,9.44-6.37,11.68-11.77,1.38-3.33,1.29-8.25,1.22-11.5-.02-.84-.03-1.56-.02-2.13,0-.13-.07-.26-.19-.31-1.36-.63-3.18-2.53-3.73-4.51-.52-1.88-.55-6.17,1.72-8.07.97-.81,2.74-1.49,5.64-.09l.09.05c.11.07,1.13.72,2.04,2.38.21.39.44.93.7,1.55.39.93,1.42,3.36,2.05,3.6.68-.44,2.06-3.41,2.99-6.5.08-.33.45-1.57,1.78-2.42,1.35-.86,3.18-1.01,5.44-.45,4.89,1.22,10.28,4.08,11.31,4.64.46.25.73.75.7,1.26-.04.64-.23,3.98.26,6.92.07.41.19.97.32,1.59.67,3.17.94,4.76.47,5.63-.84,1.55-3.39,1.42-3.9,1.38-.49-.04-1.17.17-1.35.34-.16.49-.57,2.65-.84,4.1-.29,1.57-.57,3.05-.75,3.71-.55,2.01-2.36,3.89-5.17,3.59-.11-.01-.41-.04-1.83-.37-.89,6.54,5.65,14.05,7.7,16.21.32.34.45.81.36,1.27-.09.46-.4.84-.83,1.03-3.71,1.62-7.42,2.28-11.01,2.28-12.71,0-23.85-8.27-27.58-11.38Zm29.32-9.9c.08-.53.39-1,.83-1.3.44-.3,1-.4,1.52-.28,1.38.32,1.7.37,1.75.37,2.18.24,2.81-1.67,2.92-2.06.16-.57.44-2.08.71-3.54.6-3.19.82-4.24,1.03-4.67.58-1.16,2.33-1.56,3.4-1.47.88.07,1.67-.11,1.85-.26.1-.67-.4-3.05-.65-4.22-.14-.65-.26-1.24-.33-1.67-.45-2.69-.38-5.58-.31-6.92-1.61-.85-6.21-3.18-10.39-4.22-1.63-.41-2.94-.35-3.77.16-.74.45-.9,1.13-.9,1.14l-.03.1c-.86,2.86-2.62,7.7-4.68,8.01-2.12.33-3.33-2.55-4.31-4.87-.23-.54-.45-1.06-.61-1.36-.56-1.02-1.14-1.48-1.26-1.58-1.48-.7-2.6-.76-3.32-.16-1.41,1.18-1.43,4.52-1.04,5.9.38,1.38,1.79,2.8,2.58,3.17.88.41,1.43,1.3,1.41,2.27-.01.53,0,1.23.02,2.04.07,3.43.17,8.62-1.38,12.35-2.31,5.56-6.25,9.73-11.72,12.39,5.69,4.43,20.03,13.72,34.27,8.12-2.71-3.02-8.65-10.55-7.57-17.45Zm14-13.16h0s0,0,0,0Zm-1.26-13.36s0,0,0,0c0,0,0,0,0,0Zm.89-.2h0,0Z"/><path d="m117.5,57.23c.45,0,.87-.3,1-.75.16-.56-.15-1.14-.71-1.3-2.06-.61-5.36-2.02-7.7-3.56-.48-.32-1.13-.18-1.45.3-.32.48-.18,1.13.3,1.45,2.51,1.65,6.05,3.17,8.26,3.82.1.03.2.04.3.04Z"/></svg>