<svg width="139" height="86" viewBox="0 0 139 86" fill="none" xmlns="http://www.w3.org/2000/svg">
<path d="M136.032 54.0053C137.183 54.0053 137.832 54.662 138.213 55.6699V56.7454C137.537 57.6588 136.64 58.0236 135.494 58.1506C130.903 58.656 126.317 59.2126 121.74 59.845C117.457 60.4368 114.416 58.7208 112.89 54.6593C112.749 54.2864 112.655 54.0134 112.195 54.0161C110.468 54.0269 108.739 54.0215 106.729 54.0215C108.026 55.2565 109.29 56.1455 109.896 57.5804C110.882 59.9179 110.639 62.1095 109.134 64.174C107.226 66.7898 104.769 68.8192 101.459 68.1085C99.0865 67.5978 97.8407 68.268 96.6868 70.038C96.4004 70.4811 95.9599 70.8297 95.5735 71.1999C93.7278 72.978 91.4255 73.8022 89.0367 73.105C87.1397 72.5511 86.2749 73.2888 85.3697 74.5832C85.0616 75.021 84.6752 75.4047 84.3077 75.7965C82.8377 77.3692 81.0541 78.261 78.8788 78.3853C76.7278 78.5069 75.9009 77.7638 75.9468 75.6344C76.5386 74.6589 77.4412 74.3022 78.541 74.3346C79.6922 74.3697 80.611 73.8806 81.3568 73.0402C82.0378 72.2754 82.6728 71.4675 83.3781 70.727C83.8078 70.2758 83.6943 70.0055 83.2646 69.665C82.2567 68.8625 81.2757 68.0275 80.2813 67.2087C79.8057 66.7466 79.3031 66.3088 78.8653 65.8143C78.106 64.955 78.1357 63.8092 78.8923 63.0553C79.7111 62.2419 80.7109 62.2094 81.7757 63.0769C83.7051 64.6496 85.5967 66.271 87.5045 67.8734C89.3772 69.7596 91.4525 69.7677 93.2198 67.8923C94.8844 66.1269 94.8619 64.4992 93.1522 63.0093C92.8172 62.7175 92.4632 62.45 92.1173 62.1689C91.366 61.469 90.5716 60.807 89.8717 60.0584C89.1691 59.3045 89.1826 58.3965 89.7852 57.6048C90.3392 56.8751 91.1363 56.5374 92.0443 56.9427C92.4848 57.14 92.8847 57.4534 93.2576 57.7669C95.1114 59.3153 96.9517 60.8799 98.7973 62.4364C98.8811 62.5364 98.9567 62.6499 99.054 62.7391C101.332 64.7739 103.416 64.6847 105.315 62.4743C107.093 60.4043 106.893 59.4639 104.194 57.2427C104.059 57.1319 103.902 57.0454 103.753 56.9454C103.699 56.8752 103.656 56.7914 103.591 56.7346C95.6383 49.8817 87.6855 43.0314 79.7354 36.1784C79.4598 35.9406 79.1869 35.7541 78.8004 35.7163C74.9308 35.3272 71.5772 33.7139 68.5723 31.3278C68.0319 30.8981 67.7427 30.8711 67.3104 31.471C66.2619 32.9249 65.1458 34.33 64.0406 35.7433C59.7602 41.21 53.5395 43.0584 46.9919 40.8047C45.403 40.2588 44.1356 39.3157 43.4546 37.7214C42.625 35.7785 43.0169 33.9923 44.0518 32.2223C48.7943 24.1073 53.5044 15.9735 58.2226 7.84499C60.252 5.2373 62.8786 3.8159 66.2186 3.62944C68.5318 3.50243 70.8368 3.18897 73.1446 2.96738C74.7768 2.81335 75.328 3.16465 75.9847 4.74818C75.8685 6.1912 75.0821 6.87758 73.6391 6.99378C71.1773 7.18834 68.7263 7.50991 66.2673 7.69096C63.9109 7.86661 62.2463 8.99076 61.0789 11.0094C56.5904 18.7649 52.0722 26.5042 47.5756 34.2571C46.6487 35.8568 46.9406 36.5405 48.7349 37.1053C53.3558 38.5618 57.5794 37.3052 60.6465 33.4896C62.3625 31.3575 63.9811 29.1498 65.6755 27.0015C66.9374 25.399 68.0021 25.3531 69.4965 26.7691C69.6911 26.9555 69.8748 27.1528 70.0721 27.3338C75.2929 32.1574 81.5946 33.0519 87.1073 29.7281C89.5582 28.2499 91.5228 26.2259 93.4009 24.0938C94.2899 23.0831 95.533 22.9913 96.3842 23.7371C97.2354 24.4829 97.2867 25.7557 96.395 26.7366C95.2816 27.9635 94.2088 29.2281 92.9658 30.3415C90.6121 32.4492 88.0152 34.1328 84.7374 35.1975C89.6447 39.3725 94.3494 43.3746 99.054 47.3766C100.189 48.3873 101.329 49.3979 102.459 50.414C102.78 50.7031 103.08 50.9139 103.491 50.5383C104.145 49.9384 104.967 49.9789 105.78 49.9816C107.574 49.9897 109.369 49.9627 111.163 49.9897C111.806 49.9978 112.198 49.8979 112.082 49.1115C111.803 47.2577 111.568 45.3986 111.314 43.5421C111.29 43.0962 111.29 42.6449 111.236 42.2018C110.109 33.0951 108.944 23.9938 107.874 14.879C107.731 13.6495 107.426 13.2712 106.196 13.609C103.678 14.3007 101.41 13.7657 99.2216 12.2902C97.2219 10.9418 94.9655 9.9825 92.9388 8.67189C89.7528 6.61275 86.4776 5.25351 82.5728 6.13175C81.173 6.44521 80.2516 5.7129 79.9543 4.28339C80.084 2.88631 80.9488 2.33234 82.254 2.11346C86.3128 1.42708 90.023 2.04861 93.5387 4.35365C96.3761 6.21282 99.4621 7.68826 102.399 9.39881C103.956 10.3041 105.442 9.47177 106.958 9.388C107.399 9.36368 107.215 8.88807 107.253 8.60974C107.793 4.73197 110.358 2.27019 114.246 1.81621C119.054 1.25414 123.856 0.638015 128.66 0.035407C130.103 -0.145646 131.087 0.30023 131.43 1.34061C131.803 2.47557 131.306 3.31057 129.836 4.01586C124.855 4.62388 119.878 5.22649 114.897 5.8372C112.144 6.17499 111.017 7.71799 111.379 10.45C112.001 15.152 112.557 19.862 113.144 24.5694C114.244 33.4059 115.349 42.2396 116.451 51.0734C116.619 54.7971 118.067 56.2617 121.115 55.8672C126.088 55.2241 131.065 54.6215 136.043 54.0026L136.032 54.0053Z" fill="#030303"/>
<path d="M67.0429 81.4849C65.7539 83.2657 64.038 84.4277 61.9248 85.0141H59.2279C59.1225 84.6033 58.7172 84.7033 58.4551 84.6006C56.177 83.7008 54.6448 82.1307 54.026 79.7446C53.8585 79.1015 53.6315 78.861 52.8749 78.8664C49.4484 78.8934 47.0136 77.0018 45.9976 73.5969C45.8273 73.0267 45.603 72.8565 44.9842 72.8457C41.3361 72.7781 39.0905 71.0298 37.9312 67.406C37.788 66.9574 37.634 66.7791 37.1233 66.7386C31.1539 66.263 28.63 62.5095 30.3297 56.551C28.7192 56.4402 27.1275 56.3483 25.5359 56.2078C24.9981 56.1591 24.7306 56.4186 24.4496 56.8023C22.4985 59.4532 19.8746 60.3017 16.6562 59.8558C11.9461 59.2019 7.21984 58.6777 2.49896 58.0994C1.05054 57.921 0.250662 57.2238 0.21283 56.0997C0.174998 54.9647 0.901911 54.2567 2.36384 54.0108C7.38198 54.6323 12.4028 55.2485 17.4209 55.8835C19.2855 56.1186 20.8339 55.4376 21.4717 53.9703C21.8689 53.0596 21.9067 52.0652 21.9608 51.0843C22.6607 45.5365 23.3687 39.9887 24.0631 34.4382C25.0819 26.2692 26.1061 18.1002 27.0897 9.92854C27.3464 7.78834 26.152 6.18048 24.0496 5.90755C18.8991 5.23469 13.735 4.64559 8.57909 4.02136C7.10634 3.32147 6.60642 2.48647 6.97934 1.34881C7.32253 0.303028 8.30886 -0.145551 9.74917 0.0382045C14.5106 0.63811 19.2666 1.25963 24.0334 1.8082C28.7165 2.34595 31.5566 5.69678 31.0972 10.3609C31.0134 11.2094 31.181 11.4688 32.016 11.4932C33.586 11.5418 35.1533 11.658 36.7179 11.7931C37.3394 11.8472 37.688 11.6607 37.9556 11.0851C38.542 9.83126 39.1851 8.60173 39.8364 7.3803C41.7901 3.71601 45.1788 2.25407 49.2106 3.32418C50.4212 3.64575 51.6291 3.98083 52.8397 4.3051C54.1774 4.66451 54.9448 5.44546 54.7637 6.91821C54.199 8.31528 53.1208 8.58281 51.7912 8.23692C50.6212 7.93156 49.47 7.55865 48.2999 7.25329C45.8895 6.62906 44.4816 7.25329 43.3169 9.46375C42.463 11.0878 41.6036 12.7092 40.8092 14.363C40.2525 15.5196 39.4364 16.0168 38.1312 15.906C35.9397 15.7168 33.7373 15.6763 31.5485 15.4709C30.6432 15.3871 30.4351 15.6601 30.3324 16.5221C29.5001 23.5048 28.6057 30.4794 27.7382 37.4594C27.1789 41.9478 26.6546 46.4417 26.0682 50.9275C25.9439 51.8706 26.0872 52.2733 27.1708 52.2841C28.9624 52.3057 30.7513 52.5111 32.5429 52.6543C33.005 52.6921 33.3887 52.6137 33.7941 52.33C37.9069 49.4548 42.1954 50.4357 44.6545 54.8269C44.9275 55.3133 45.1598 55.4755 45.6922 55.3106C49.2376 54.2216 53.0748 56.2537 54.1692 59.4046C54.326 59.8586 54.5557 59.9693 55.0691 59.8883C59.2603 59.2235 62.095 60.8638 63.4651 64.7524C63.6434 65.2577 63.8002 65.4469 64.3703 65.455C69.2669 65.509 71.934 68.2356 71.9746 73.1727C71.8016 74.6346 71.1855 75.8993 70.31 77.064C69.2101 78.5286 68.1319 80.0067 67.0429 81.4795V81.4849ZM67.9022 72.4998C67.8914 71.1595 67.2077 70.1596 66.0593 69.6948C64.8135 69.1922 63.5543 69.4787 62.5787 70.6785C61.2222 72.3431 59.9386 74.0671 58.6658 75.7966C57.4498 77.4477 57.6065 79.2906 58.9901 80.3337C60.4007 81.3957 62.1707 81.0552 63.4462 79.4285C64.6865 77.8422 65.8863 76.2235 67.0969 74.6157C67.5888 73.9617 67.9671 73.2591 67.9049 72.5025L67.9022 72.4998ZM56.7851 63.7363C56.0906 63.7147 55.4015 63.8471 54.9259 64.3551C53.0829 66.317 51.4183 68.4302 50.078 70.7622C49.397 71.9458 49.8726 73.397 50.9562 74.2374C52.0074 75.0535 53.6099 75.148 54.5557 74.1995C56.4581 72.2944 58.1254 70.1596 59.4144 67.806C60.4196 65.9684 58.8928 63.7769 56.7878 63.739L56.7851 63.7363ZM50.6239 62.2879C50.5833 60.7854 50.0131 59.8207 48.8512 59.2992C47.6892 58.7776 46.5029 58.8992 45.6354 59.8396C44.3356 61.2475 43.1331 62.7608 42.1819 64.4335C41.4307 65.7522 41.7847 67.2682 42.9088 68.16C44.0708 69.0841 45.7192 69.0517 46.8082 67.9194C48.1405 66.5359 49.2646 64.9713 50.2807 63.3391C50.5185 62.9581 50.6617 62.5311 50.6293 62.2879H50.6239ZM38.015 54.8026C37.888 54.8323 37.4448 54.8296 37.126 55.0296C35.483 56.0537 34.2778 57.4778 33.8562 59.3802C33.5671 60.6854 34.1616 61.7528 35.3749 62.369C36.5666 62.9743 37.734 62.8446 38.7176 61.9312C39.6364 61.08 40.4173 60.0855 40.9443 58.9452C41.8604 56.9644 40.4741 54.8323 38.015 54.8053V54.8026Z" fill="#040302"/>
<path d="M71.9773 73.1744C71.9394 68.2373 69.2696 65.508 64.3731 65.4567C63.8029 65.4513 63.6462 65.2621 63.4678 64.7541C62.0977 60.8655 59.2631 59.2252 55.0718 59.89C54.5584 59.9711 54.3314 59.8603 54.172 59.4063C53.0775 56.2581 49.2403 54.2233 45.6949 55.3123C45.1626 55.4745 44.9302 55.315 44.6572 54.8286C42.1982 50.4374 37.9123 49.4565 33.7968 52.3317C33.3914 52.6155 33.0104 52.6911 32.5456 52.656C30.7567 52.5128 28.9651 52.3074 27.1735 52.2858C26.0899 52.2723 25.9467 51.8696 26.071 50.9292C26.6574 46.4435 27.1843 41.9496 27.741 37.4611C28.6084 30.4838 29.5029 23.5065 30.3352 16.5238C30.4378 15.6645 30.6459 15.3889 31.5512 15.4726C33.74 15.678 35.9424 15.7212 38.1339 15.9077C39.4364 16.0185 40.2552 15.5213 40.8119 14.3647C41.6064 12.7109 42.463 11.0895 43.3196 9.46547C44.4843 7.25771 45.8922 6.63078 48.3026 7.255C49.4727 7.55766 50.6239 7.93057 51.794 8.23863C53.1208 8.58723 54.2017 8.317 54.7665 6.91992C55.9203 7.22798 57.0715 7.53334 58.2254 7.8414C53.5045 15.9699 48.7971 24.1037 44.0519 32.2187C43.017 33.9914 42.6251 35.7776 43.4547 37.7178C44.1357 39.3121 45.4031 40.2552 46.992 40.8011C53.5396 43.0548 59.7603 41.2064 64.0407 35.7397C65.1459 34.3291 66.262 32.9212 67.3104 31.4674C67.7428 30.8675 68.032 30.8945 68.5724 31.3242C71.5773 33.713 74.9309 35.3236 78.8005 35.7127C79.1897 35.7505 79.4599 35.937 79.7355 36.1748C87.6856 43.0278 95.6384 49.8781 103.591 56.731C103.656 56.7878 103.699 56.8689 103.753 56.9391C103.27 59.8224 101.278 61.3465 98.7974 62.4301C96.9517 60.8709 95.1115 59.3063 93.2577 57.7606C92.8821 57.4471 92.4849 57.1337 92.0444 56.9364C91.1364 56.5311 90.3393 56.8689 89.7853 57.5985C89.18 58.3929 89.1692 59.2982 89.8718 60.0521C90.5717 60.8007 91.3634 61.4627 92.1174 62.1626C91.2634 64.0839 89.7421 65.4621 88.2504 66.8538C87.9261 67.1564 87.4803 67.324 87.5046 67.8671C85.5968 66.2647 83.7052 64.6433 81.7757 63.0706C80.711 62.2032 79.7112 62.2356 78.8924 63.049C78.1358 63.8002 78.1033 64.9487 78.8654 65.808C79.3032 66.3025 79.8085 66.7403 80.2814 67.2024C79.0843 68.6211 78.0088 70.1722 76.6522 71.4152C75.3957 72.5664 74.0256 73.9094 71.9773 73.169V73.1744Z" fill="#F7C094"/>
<path d="M99.0486 47.3796C94.3439 43.3775 89.642 39.3755 84.7319 35.2004C88.0098 34.1357 90.6067 32.4495 92.9604 30.3444C94.2061 29.2311 95.2762 27.9664 96.3896 26.7396C97.2813 25.7587 97.2273 24.4859 96.3788 23.7401C95.5275 22.9942 94.2845 23.0888 93.3954 24.0968C91.5174 26.2262 89.5528 28.2529 87.1018 29.731C81.5892 33.0548 75.2875 32.1577 70.0667 27.3368C69.8694 27.153 69.6856 26.9558 69.4911 26.772C67.9967 25.356 66.932 25.402 65.6701 27.0044C63.9757 29.1527 62.3571 31.3605 60.6411 33.4926C57.5713 37.3082 53.3477 38.5648 48.7295 37.1082C46.9352 36.5435 46.6433 35.8598 47.5702 34.26C52.0668 26.5099 56.585 18.7706 61.0735 11.0123C62.2409 8.99373 63.9082 7.86958 66.2619 7.69393C68.7236 7.51018 71.1746 7.19131 73.6337 6.99675C75.0767 6.88325 75.8631 6.19417 75.9793 4.75115C77.3007 4.59712 78.6194 4.44309 79.9408 4.28906C80.238 5.72127 81.1595 6.45359 82.5593 6.13742C86.4668 5.26188 89.742 6.61843 92.9253 8.67756C94.952 9.98817 97.2111 10.9475 99.208 12.2959C101.397 13.7714 103.664 14.3091 106.183 13.6146C107.412 13.2768 107.715 13.6552 107.861 14.8847C108.934 23.9968 110.096 33.1008 111.222 42.2074C111.276 42.6506 111.276 43.0992 111.301 43.5478C109.215 44.0693 107.064 44.099 104.942 44.3476C103.402 44.526 101.991 44.853 100.84 45.9879C100.302 46.5176 99.6431 46.9202 99.0405 47.3823L99.0486 47.3796Z" fill="#F09E5B"/>
<path d="M116.441 51.0751C115.338 42.2413 114.236 33.4049 113.133 24.5711C112.547 19.8637 111.99 15.1537 111.369 10.4517C111.006 7.7197 112.133 6.1767 114.887 5.83891C119.864 5.2282 124.845 4.62289 129.825 4.01758C130.414 8.98437 130.995 13.9539 131.598 18.9206C132.357 25.1737 133.135 31.4214 133.908 37.6718C134.419 41.7927 134.93 45.9164 135.44 50.0374C134.873 50.0293 134.295 50.1725 133.757 50.1617C132.619 50.1401 131.498 51.0183 130.355 50.2482C130.517 49.8807 130.695 49.5186 130.833 49.1429C131.809 46.4785 130.722 43.4736 128.274 42.0332C125.82 40.5902 122.694 41.0983 120.816 43.2493C118.681 45.6948 118.865 48.7457 121.326 51.6047C119.592 52.3911 118.03 51.5777 116.435 51.0751H116.441Z" fill="#5C9BEC"/>
<path d="M8.5818 4.01562C13.7404 4.63715 18.9018 5.22625 24.0523 5.90182C26.1547 6.17745 27.3491 7.7826 27.0924 9.92281C26.1061 18.0972 25.0846 26.2635 24.0659 34.4325C23.3741 39.983 22.6661 45.528 21.9635 51.0785C21.4582 51.2136 20.9582 51.3812 20.4448 51.4758C19.3396 51.6757 18.2235 51.8892 17.148 51.3244C17.3372 51.0758 17.529 50.8299 17.7101 50.5759C19.1288 48.5762 19.1882 45.8901 17.856 43.8796C16.4779 41.7962 13.9728 40.8342 11.5057 41.3881C8.40074 42.0853 5.49039 45.955 7.84948 50.2705C6.20109 50.4543 4.59053 49.8193 2.94214 50.03C3.82308 42.8744 4.69862 35.7188 5.58767 28.5631C6.53617 20.9184 7.49548 13.2736 8.44398 5.62889C8.51154 5.09654 8.53586 4.55608 8.57909 4.02103L8.5818 4.01562Z" fill="#EB5574"/>
<path d="M17.1506 51.3237C18.2261 51.8885 19.3395 51.675 20.4474 51.475C20.9608 51.3831 21.4607 51.2129 21.9661 51.0778C21.912 52.0587 21.8742 53.0558 21.477 53.9638C20.8365 55.4284 19.2908 56.1121 17.4262 55.877C12.4081 55.242 7.38727 54.6286 2.36914 54.0043C2.5637 52.6775 2.75557 51.3507 2.95013 50.0239C4.60122 49.8131 6.20908 50.4481 7.85747 50.2644C10.6759 53.599 13.6403 53.9368 17.1533 51.321L17.1506 51.3237Z" fill="#C8395E"/>
<path d="M116.441 51.0751C118.035 51.5777 119.597 52.3884 121.332 51.6048C124.915 53.8828 127.642 53.4747 130.36 50.2482C131.503 51.0184 132.625 50.1374 133.762 50.1617C134.3 50.1726 134.878 50.0293 135.446 50.0374C135.643 51.3616 135.838 52.683 136.035 54.0071C131.057 54.6259 126.08 55.2285 121.108 55.8717C118.059 56.2662 116.611 54.8016 116.443 51.0778L116.441 51.0751Z" fill="#347ECF"/>
<path d="M99.0486 47.3795C99.6512 46.9201 100.313 46.5147 100.848 45.9851C101.999 44.8501 103.41 44.5231 104.95 44.3448C107.072 44.0989 109.223 44.0665 111.309 43.5449C111.563 45.4014 111.798 47.2606 112.076 49.1143C112.195 49.9007 111.803 50.0007 111.157 49.9926C109.363 49.9682 107.569 49.9926 105.775 49.9845C104.961 49.9818 104.142 49.9412 103.486 50.5411C103.075 50.9167 102.775 50.706 102.453 50.4168C101.321 49.4008 100.184 48.3901 99.0486 47.3795Z" fill="#D07B41"/>
<path d="M71.9773 73.1756C74.0257 73.9133 75.3957 72.573 76.6523 71.4218C78.0088 70.1788 79.0843 68.625 80.2814 67.209C81.2732 68.0305 82.2568 68.8655 83.2648 69.6654C83.6944 70.0085 83.8079 70.2761 83.3783 70.7273C82.673 71.4678 82.0379 72.2758 81.3569 73.0405C80.6111 73.8809 79.695 74.37 78.5412 74.3349C77.4413 74.2998 76.5388 74.6592 75.947 75.6347C75.0985 75.0537 74.5364 75.4131 73.9635 76.1265C72.9907 77.3398 71.9557 78.5045 70.9126 79.6584C69.8831 80.7933 68.586 81.4095 67.043 81.4851C68.132 80.0124 69.2102 78.5315 70.31 77.0696C71.1856 75.9049 71.8017 74.6375 71.9746 73.1783L71.9773 73.1756Z" fill="#E19D69"/>
<path d="M87.5046 67.8744C87.4803 67.3313 87.9235 67.1637 88.2505 66.8611C89.7421 65.4694 91.2635 64.0912 92.1174 62.1699C92.4633 62.4483 92.8173 62.7185 93.1524 63.0103C94.862 64.5002 94.8845 66.1279 93.2199 67.8933C91.4526 69.7687 89.3773 69.7606 87.5046 67.8744Z" fill="#E19D69"/>
<path d="M98.7974 62.4363C101.278 61.35 103.27 59.8259 103.753 56.9453C103.899 57.0426 104.059 57.1291 104.194 57.2426C106.891 59.4638 107.093 60.4042 105.315 62.4742C103.416 64.6846 101.332 64.7738 99.0541 62.739C98.9568 62.6525 98.8838 62.539 98.7974 62.4363Z" fill="#E19D69"/>
<path d="M67.9022 72.5004C67.9643 73.2543 67.586 73.9569 67.0942 74.6136C65.8836 76.2242 64.6865 77.8428 63.4434 79.4264C62.1679 81.0558 60.3979 81.3936 58.9874 80.3316C57.6038 79.2912 57.4471 77.4483 58.6631 75.7945C59.9359 74.065 61.2194 72.341 62.576 70.6764C63.5515 69.4793 64.8108 69.1901 66.0565 69.6927C67.2077 70.1575 67.8887 71.1574 67.8995 72.4977L67.9022 72.5004Z" fill="#EE9C5A"/>
<path d="M56.785 63.7368C58.89 63.7774 60.4195 65.9662 59.4116 67.8038C58.1226 70.1575 56.4553 72.295 54.5529 74.1974C53.6071 75.1432 52.0073 75.0513 50.9534 74.2352C49.8698 73.3948 49.3942 71.9437 50.0752 70.7601C51.4155 68.428 53.0801 66.3148 54.9231 64.353C55.3987 63.8476 56.0878 63.7152 56.7823 63.7341L56.785 63.7368Z" fill="#EE9C5A"/>
<path d="M50.6239 62.2873C50.6563 62.5305 50.5131 62.9574 50.2753 63.3385C49.2592 64.9706 48.1351 66.5353 46.8029 67.9188C45.7138 69.0484 44.0681 69.0835 42.9035 68.1593C41.7793 67.2649 41.4253 65.7516 42.1765 64.4329C43.1278 62.7629 44.3303 61.2496 45.6301 59.839C46.5002 58.8986 47.6838 58.777 48.8458 59.2986C50.0078 59.8201 50.5779 60.7848 50.6185 62.2873H50.6239Z" fill="#EE9C5A"/>
<path d="M38.0149 54.8015C40.474 54.8313 41.8603 56.9607 40.9442 58.9414C40.4145 60.0818 39.6363 61.0762 38.7175 61.9274C37.7339 62.8408 36.5665 62.9705 35.3748 62.3652C34.1615 61.7491 33.567 60.6817 33.8561 59.3765C34.2804 57.4741 35.4856 56.0527 37.1259 55.0258C37.4447 54.8258 37.8906 54.8286 38.0149 54.7988V54.8015Z" fill="#EE9C5A"/>
<path d="M130.36 50.2458C127.642 53.4723 124.915 53.8831 121.332 51.6023C118.873 48.7433 118.686 45.6925 120.821 43.2469C122.699 41.0986 125.826 40.5879 128.279 42.0309C130.728 43.4712 131.814 46.4761 130.838 49.1406C130.701 49.5162 130.519 49.8783 130.36 50.2458ZM125.25 45.2466C124.261 45.2601 123.364 46.1978 123.396 47.1787C123.429 48.184 124.339 49.0109 125.364 48.9649C126.328 48.9217 127.144 48.0867 127.15 47.1328C127.155 46.1437 126.236 45.2331 125.25 45.2466Z" fill="#020304"/>
<path d="M17.1507 51.3255C13.6377 53.9386 10.6733 53.6035 7.85481 50.2689C5.49572 45.9534 8.40608 42.0837 11.511 41.3865C13.9782 40.8325 16.4832 41.7973 17.8614 43.878C19.1909 45.8885 19.1341 48.5746 17.7154 50.5743C17.5344 50.8283 17.3398 51.0742 17.1534 51.3228L17.1507 51.3255ZM12.9027 48.9664C13.9512 48.9664 14.7753 48.1395 14.7618 47.0964C14.7483 46.0777 13.8458 45.167 12.8486 45.2589C11.7704 45.3589 11.13 46.0074 11.0381 47.0802C10.9543 48.0692 11.8812 48.961 12.9 48.9637L12.9027 48.9664Z" fill="#040202"/>
<path d="M125.25 45.2482C126.236 45.2347 127.155 46.1454 127.15 47.1344C127.144 48.0883 126.328 48.9233 125.363 48.9665C124.339 49.0125 123.429 48.1856 123.396 47.1803C123.364 46.1994 124.264 45.2617 125.25 45.2482Z" fill="#E1E4E8"/>
<path d="M12.9028 48.9652C11.884 48.9652 10.9571 48.0707 11.0409 47.0817C11.1328 46.0062 11.7732 45.3576 12.8514 45.2603C13.8486 45.1684 14.7511 46.0764 14.7647 47.0979C14.7782 48.141 13.954 48.9706 12.9055 48.9679L12.9028 48.9652Z" fill="#E1E4E8"/>
</svg>
