<svg width="169" height="138" viewBox="0 0 169 138" fill="none" xmlns="http://www.w3.org/2000/svg">
<path d="M24.7807 53.4487C23.8503 51.3999 24.0252 50.8126 25.6253 49.2785C29.7658 45.3128 34.4342 42.4458 40.2672 41.7925C44.2824 41.3405 48.159 41.8519 51.8244 43.5147C55.8066 45.3227 59.7525 47.2132 63.6521 49.1993C67.6442 51.2316 69.9405 54.5704 70.4815 59.031C70.6201 60.1692 71.0457 60.476 72.1246 60.4002C73.4904 60.3045 74.8662 60.4266 76.2354 60.3672C78.9738 60.2484 81.4581 60.8588 83.5201 62.7558C83.8896 63.0956 84.1535 63.2705 84.5956 62.8416C86.8127 60.6905 89.5577 60.2121 92.5006 60.3771C92.7183 60.3903 92.9394 60.3771 93.1571 60.3771C94.4735 60.3771 95.9747 60.7697 97.0568 60.2616C98.2643 59.6941 97.6738 57.9158 98.1159 56.7182C99.2013 53.7885 100.831 51.258 103.586 49.7503C108.146 47.2594 112.801 44.9235 117.634 43.0198C121.751 41.3999 126.06 41.2185 130.395 42.2544C132.593 42.779 133.131 43.5147 132.89 45.8737C131.996 47.1604 130.808 47.4903 129.307 47.1142C125.206 46.0881 121.263 46.6358 117.472 48.4405C114.213 49.9911 110.966 51.578 107.713 53.1452C102.636 55.5932 101.168 60.0438 103.824 65.0125C107.133 71.1985 110.452 77.3747 113.771 83.5541C114.186 84.3261 114.549 85.1378 115.051 85.8504C116.133 87.3845 118.244 87.599 119.257 86.1044C122.283 81.6505 123.942 76.8732 121.656 71.5417C120.62 69.1266 119.336 66.8238 118.208 64.4483C117.509 62.9769 117.947 61.5516 119.208 60.9181C120.481 60.2748 121.857 60.7697 122.636 62.2345C123.484 63.8314 124.209 65.4909 125.067 67.0811C128.073 72.637 128.564 78.315 125.998 84.1645C125.81 84.5934 125.645 84.9002 126.1 85.3027C129.383 88.2159 132.685 90.9114 137.545 90.4891C140.376 90.2417 143.246 90.4132 146.1 90.4594C147.604 90.4825 148.67 91.5613 148.683 92.9074C148.693 94.2601 147.634 95.2994 146.139 95.3918C145.483 95.4313 144.826 95.4346 144.17 95.4544C141.484 95.4346 138.802 95.3951 136.116 95.3983C132.471 95.4016 129.244 94.2403 126.403 91.9738C125.546 91.2908 124.711 90.5782 123.87 89.8755C123.48 89.5488 123.167 89.2354 122.646 89.7798C120.94 91.5548 118.762 92.1354 116.268 92.0727C117.799 95.5501 117.769 98.846 115.582 101.957C115.044 102.723 115.803 102.868 116.133 103.191C118.545 105.537 119.627 108.371 118.974 111.69C118.729 112.924 118.95 113.161 120.151 113.155C128.482 113.112 136.812 113.138 145.143 113.125C147.934 113.122 150.669 112.601 152.929 110.941C156.717 108.16 160.877 107.213 165.46 107.721C165.783 107.757 166.116 107.734 166.443 107.737C167.376 107.902 167.875 108.678 168.525 109.232V111.212C167.591 112.455 166.331 112.911 164.826 112.716C161.411 112.271 158.432 113.211 155.582 115.144C152.322 117.358 148.568 118.11 144.645 118.104C135.044 118.087 125.447 118.104 115.846 118.09C115.014 118.09 114.223 118.14 113.457 118.523C112.197 119.149 110.821 119.232 109.445 119.235C105.496 119.248 101.547 119.288 97.5979 119.229C89.7259 119.11 85.5491 111.904 89.3861 105.055C89.7391 104.425 89.6467 104.201 89.1684 103.755C85.1631 100.017 84.5923 96.3551 87.2614 91.3733C87.5715 90.7926 87.4957 90.565 87.0503 90.1757C86.4366 89.6379 85.8526 89.0374 85.3676 88.3842C84.886 87.7309 84.5395 86.9721 84.081 86.1704C83.3188 87.7903 82.428 89.2717 80.9962 90.3142C80.4419 90.7167 80.752 91.0038 80.9632 91.3997C83.6125 96.3188 83.0549 99.9216 78.9902 103.778C78.4789 104.267 78.5053 104.504 78.8352 105.088C82.6194 111.838 78.4657 119.08 70.7125 119.225C66.7105 119.301 62.7053 119.242 58.7 119.239C57.2088 119.239 55.7307 119.09 54.3912 118.374C53.7578 118.038 53.1144 118.104 52.4678 118.104C43.253 118.097 34.035 118.018 24.8203 118.133C19.9638 118.193 15.4406 117.252 11.432 114.471C9.38649 113.049 7.242 112.455 4.80387 112.716C4.2628 112.772 3.70853 112.709 3.15755 112.726C1.63661 112.769 0.379607 112.313 0.056283 110.667C-0.250545 109.103 0.712829 108.232 2.05891 107.698L2.20408 107.744L2.32945 107.655C7.39046 107.124 11.917 108.394 16.0707 111.383C17.9645 112.746 20.3432 113.102 22.6692 113.115C31.1713 113.155 39.6734 113.118 48.1722 113.151C49.2147 113.155 49.5117 112.94 49.2378 111.845C48.7001 109.681 49.129 107.599 50.1451 105.629C50.7852 104.385 52.415 103.567 52.6063 102.469C52.8109 101.301 51.3262 100.06 51.0656 98.6349C51.026 98.4204 51.0194 98.1961 50.9765 97.9816C50.5641 95.946 51.1646 94.0325 51.8541 92.0694C49.604 92.1288 47.5882 91.723 46.0772 90.2252C45.1369 89.2948 44.5892 89.5686 43.8205 90.2879C40.6038 93.2967 36.9647 95.3819 32.4052 95.3983C30.1584 95.4082 27.9116 95.4379 25.6649 95.461C24.6256 95.4412 23.5864 95.4181 22.5438 95.3983C20.65 95.3654 19.4953 94.4185 19.5151 92.9041C19.5349 91.3931 20.6896 90.4495 22.5867 90.4396C25.7671 90.4231 28.9443 90.4297 32.1248 90.4396C34.5761 90.4462 36.747 89.6643 38.6539 88.1401C39.6833 87.3185 40.6401 86.4047 41.709 85.6392C42.4579 85.1015 42.4216 84.6198 42.0851 83.861C40.5774 80.4595 40.132 76.9029 40.8479 73.2441C41.676 69.0276 43.9822 65.4381 45.9155 61.7067C46.516 60.5453 47.8126 60.3705 48.9574 60.9445C50.1715 61.5549 50.6433 62.6271 50.1748 63.9864C50.0494 64.346 49.868 64.6892 49.6997 65.0323C49.0927 66.2596 48.5483 67.5265 47.8555 68.7043C44.5694 74.2833 44.8301 79.7303 48.2712 85.151C48.9343 86.1935 49.6205 87.0612 50.9072 87.0711C52.1939 87.081 52.9957 86.276 53.5763 85.1872C57.2681 78.2754 61.0062 71.3899 64.6551 64.4549C66.8986 60.1956 65.3875 55.6262 61.0821 53.4652C57.5618 51.7001 54.0184 49.968 50.4454 48.3151C47.3012 46.8601 44.0053 46.3323 40.5213 46.7843C35.8793 47.388 32.2864 49.8327 28.9971 52.9406C27.3409 54.5044 26.7008 54.5275 24.7807 53.4619V53.4487ZM89.1387 84.8936L89.1288 84.8804C89.8051 86.6653 91.2898 87.3152 92.9988 87.335C98.0169 87.401 103.035 87.401 108.053 87.3416C110.059 87.3185 110.122 87.0909 109.02 85.372C108.014 83.4387 106.984 81.5152 106.011 79.5654C105.721 78.9814 105.335 78.8197 104.721 78.823C100.732 78.8494 96.7401 78.7802 92.7546 78.8692C89.749 78.9352 88.04 81.5416 88.9242 84.4944C88.8846 84.6858 88.944 84.8243 89.1387 84.8936ZM66.7435 71.2018C66.3905 71.8089 66.0375 72.4192 65.6878 73.0263C65.315 73.673 65.5591 73.8973 66.242 73.894C70.0032 73.8742 73.7676 73.9501 77.5254 73.828C79.6336 73.7587 80.818 72.6139 81.3327 70.6608C81.9035 67.3879 80.145 65.5305 77.6607 65.3919C75.3182 65.2599 72.9626 65.3688 70.6102 65.3358C69.9966 65.3292 69.6072 65.4975 69.3235 66.088C68.4954 67.8069 67.6079 69.4994 66.7435 71.2018ZM86.6873 70.2978C87.3175 72.7162 88.6999 73.8511 91.2403 73.8841C94.6781 73.927 98.1159 73.8511 101.554 73.9171C102.933 73.9435 102.962 73.5179 102.217 72.5908C101.115 70.4562 99.9931 68.3315 98.9242 66.1804C98.614 65.5602 98.2346 65.316 97.5319 65.3325C95.3478 65.3754 93.1604 65.3193 90.973 65.3589C88.0895 65.415 86.4069 67.378 86.684 70.2978H86.6873ZM59.5182 84.7386C59.0728 85.3489 58.3338 86.0978 58.6241 86.7115C58.9574 87.4142 60.0098 87.0678 60.7455 87.0843C65.3216 87.1899 69.8976 87.2592 74.4736 87.335C76.6478 87.3713 78.4558 86.7808 79.2443 84.4845C80.1681 81.5515 78.4393 78.9352 75.4007 78.8692C71.4581 78.7835 67.5122 78.8527 63.5664 78.823C62.8933 78.8197 62.4578 78.9814 62.1411 79.6347C61.3064 81.3535 60.3958 83.0395 59.5149 84.7386H59.5182ZM91.1512 94.6725C89.8183 97.6088 91.392 100.598 94.5593 100.707C99.1551 100.868 103.764 100.786 108.363 100.736C109.802 100.72 111.003 100.096 111.679 98.7141C113.484 96.1671 111.534 92.3763 108.409 92.3499C103.807 92.3136 99.2013 92.307 94.5989 92.3565C93.012 92.373 91.7846 93.1285 91.1479 94.6692L91.1512 94.6725ZM113.24 112.551C115.46 110.275 113.668 105.999 110.419 105.847C105.843 105.636 101.257 105.633 96.684 105.857C94.8463 105.946 93.5365 106.965 93.1307 108.892C92.3323 111.631 94.0512 114.148 96.9446 114.211C101.319 114.306 105.697 114.253 110.076 114.227C111.392 114.22 112.527 113.759 113.24 112.551ZM77.3109 97.6814C78.1226 94.8375 76.3641 92.4026 73.2892 92.3433C68.9078 92.2608 64.5231 92.2608 60.1418 92.3367C57.057 92.3895 55.4569 94.557 56.0375 97.6748C56.5093 99.5521 57.7762 100.657 59.637 100.697C64.3351 100.796 69.0398 100.799 73.7412 100.697C75.5854 100.657 76.8919 99.6049 77.3109 97.6847V97.6814ZM75.0312 111.205C75.8131 108.764 74.4307 106.368 71.9365 105.896C70.3133 105.59 68.667 105.741 67.0306 105.745C63.9194 105.751 60.795 105.662 57.697 105.89C54.9587 106.091 53.4773 108.615 54.2988 111.212C54.8597 113.069 56.0276 114.164 57.8818 114.194C62.405 114.263 66.9316 114.263 71.4548 114.194C73.309 114.164 74.467 113.072 75.0312 111.205ZM84.0975 79.991C84.4439 79.3311 84.6748 78.7637 85.0146 78.2787C85.4567 77.6485 85.7998 77.1965 84.9025 76.573C84.2789 76.1375 84.0018 75.9857 83.332 76.5367C82.5831 77.1536 82.6062 77.5561 83.1473 78.2391C83.5135 78.701 83.7246 79.2882 84.0975 79.9943V79.991Z" fill="#040303"/>
<path d="M137.947 48.2534C139.399 47.224 140.633 47.554 141.91 48.6922C147.839 53.9842 153.83 59.2068 159.755 64.5054C160.56 65.2246 161.349 65.5413 162.395 65.4622C163.213 65.3995 164.041 65.5051 164.859 65.4391C166.377 65.317 167.634 65.7261 168.528 67.0194V68.9989C167.799 69.5796 167.222 70.4011 166.189 70.5133C164.328 70.4869 162.467 70.4275 160.61 70.4473C159.511 70.4572 158.627 70.1438 157.786 69.3948C151.402 63.707 144.981 58.0587 138.584 52.384C136.968 50.9522 136.865 50.134 137.951 48.2567L137.947 48.2534Z" fill="#050404"/>
<path d="M166.186 70.5104C166.199 79.2699 166.212 88.0293 166.228 96.7855C166.232 98.8574 166.126 100.933 166.496 102.985C165.126 103.509 164.213 104.994 162.405 104.644C160.135 104.202 158.205 105.1 156.304 106.363C153.757 108.056 151.039 109.761 147.914 109.827C140.085 109.996 132.253 109.883 124.421 109.893C123.546 109.893 123.068 109.553 123.101 108.636C123.167 106.693 122.415 104.968 121.448 103.384C120.745 102.232 120.396 101.299 121.009 99.9296C121.402 99.0554 121.573 97.9435 121.465 96.8779C121.385 96.1124 121.392 95.3899 122.286 94.9313C123.164 94.4826 123.692 95.0435 124.183 95.4526C126.555 97.4354 129.307 98.5737 132.293 99.1411C136.879 100.009 141.092 99.5337 144.16 95.446C144.816 95.4262 145.473 95.4229 146.13 95.3833C147.624 95.2942 148.686 94.2517 148.673 92.899C148.663 91.5529 147.598 90.4774 146.09 90.451C143.239 90.4048 140.369 90.2365 137.535 90.4807C132.679 90.903 129.373 88.2075 126.09 85.2943C125.635 84.8918 125.8 84.5849 125.988 84.156C128.555 78.3065 128.063 72.6286 125.057 67.0727C124.196 65.4857 123.47 63.8229 122.626 62.2261C121.847 60.7612 120.475 60.2664 119.198 60.9097C117.938 61.5432 117.499 62.9717 118.198 64.4399C119.327 66.8153 120.61 69.1215 121.646 71.5332C123.932 76.8648 122.273 81.642 119.247 86.096C118.235 87.5905 116.12 87.3761 115.041 85.8419C114.539 85.1293 114.177 84.3177 113.761 83.5457C110.442 77.3662 107.12 71.1868 103.814 65.004C101.158 60.0354 102.623 55.5848 107.703 53.1367C110.957 51.5696 114.203 49.9827 117.463 48.432C121.25 46.6307 125.196 46.0797 129.297 47.1057C130.798 47.4819 131.986 47.1552 132.88 45.8652C134.879 45.9906 136.176 47.6204 137.941 48.244C136.859 50.1212 136.961 50.9394 138.574 52.3713C144.972 58.046 151.392 63.6942 157.776 69.3821C158.614 70.131 159.501 70.4445 160.6 70.4346C162.461 70.4148 164.318 70.4742 166.179 70.5006L166.186 70.5104Z" fill="#FDDDCE"/>
<path d="M24.7806 53.4499C26.6975 54.5155 27.3408 54.4924 28.997 52.9286C32.2863 49.8207 35.8792 47.376 40.5212 46.7723C44.0019 46.3203 47.3011 46.8481 50.4453 48.3031C54.0183 49.9593 57.5617 51.6881 61.082 53.4532C65.3875 55.6142 66.8952 60.1803 64.655 64.4429C61.0061 71.3779 57.2681 78.2634 53.5762 85.1752C52.9956 86.264 52.1906 87.069 50.9072 87.0591C49.6205 87.0492 48.9342 86.1815 48.2711 85.1389C44.83 79.7183 44.5694 74.2746 47.8554 68.6923C48.5482 67.5145 49.0926 66.2476 49.6997 65.0203C49.8712 64.6772 50.0527 64.334 50.1747 63.9744C50.6399 62.6151 50.1714 61.5429 48.9573 60.9325C47.8125 60.3585 46.5159 60.5333 45.9154 61.6947C43.9821 65.4261 41.6726 69.0156 40.8478 73.232C40.1286 76.8942 40.5773 80.4474 42.085 83.8489C42.4216 84.6078 42.4579 85.0895 41.7089 85.6272C40.64 86.3894 39.6832 87.3065 38.6539 88.128C36.7469 89.6523 34.576 90.4342 32.1247 90.4276C28.9442 90.421 25.7671 90.4144 22.5866 90.4276C20.6863 90.4375 19.5348 91.3844 19.515 92.8921C19.4952 94.4065 20.65 95.3534 22.5437 95.3863C23.583 95.4028 24.6222 95.4259 25.6648 95.449C26.0904 96.5444 26.7997 97.3791 27.7598 98.0917C30.2507 99.9459 33.0221 99.6027 35.7604 99.1772C38.8353 98.6988 41.5968 97.4187 44.0316 95.4358C44.5397 95.0234 45.0675 94.4791 45.9352 94.9476C46.7402 95.383 46.76 96.0165 46.7435 96.7489C46.7303 97.3527 46.7567 97.9399 46.9646 98.5305C47.6805 100.566 47.7465 102.523 46.2487 104.317C45.8758 104.763 45.5492 105.383 45.503 105.947C45.381 107.462 44.5001 107.603 43.2464 107.593C36.7172 107.547 30.1913 107.518 23.6622 107.593C19.6371 107.64 16.0443 106.508 12.679 104.334C11.422 103.522 10.2178 102.331 8.6177 102.335C6.26205 102.335 3.9394 102.443 2.05554 100.668C2.02255 90.5992 1.87738 80.5299 2.13142 70.4607C3.82063 70.4541 5.51313 70.3881 7.19903 70.4541C8.59791 70.5102 9.69325 70.0681 10.7325 69.1179C13.7546 66.3598 16.8625 63.694 19.9175 60.9721C21.4715 59.5897 21.5804 58.5802 20.452 56.858C22.161 56.0629 23.2399 54.4628 24.7773 53.4433L24.7806 53.4499Z" fill="#E99B8C"/>
<path d="M92.4907 41.6647C93.5398 43.5353 93.4673 44.2546 92.0288 45.7392C91.1875 46.6036 90.3594 47.4878 89.4587 48.2862C86.3739 51.0312 81.9827 51.107 79.0233 48.2631C75.1467 44.5416 71.3262 40.7508 67.6607 36.8181C63.507 32.3608 63.5169 25.7393 67.4529 21.2227C71.3658 16.7291 77.9345 15.8911 82.9097 19.3652C83.9292 20.0778 84.5264 20.0943 85.5557 19.3718C90.6167 15.8218 97.3076 16.7654 101.23 21.4668C105.048 26.0395 104.734 32.7831 100.501 37.2041C99.043 38.7283 98.3699 38.8438 96.4498 37.9134C95.3247 36.0659 95.4138 35.4489 97.0733 33.6047C99.4389 30.9785 99.5576 27.1778 97.3604 24.578C95.0872 21.8891 91.3228 21.4206 88.3139 23.4661C87.588 23.9577 86.9018 24.5054 86.1859 25.0135C84.8629 25.9505 83.5465 25.9307 82.2301 24.9805C81.3426 24.3371 80.4848 23.641 79.5412 23.0933C76.6775 21.4371 73.2001 22.0937 71.0721 24.6308C69.0266 27.0722 68.8451 30.7772 71.0226 33.1131C74.6881 37.0457 78.535 40.8102 82.3621 44.5911C83.4871 45.6996 85.0047 45.6039 86.209 44.5185C86.981 43.8191 87.7299 43.0866 88.4195 42.3047C89.6171 40.952 90.9401 40.6551 92.4874 41.668L92.4907 41.6647Z" fill="#050404"/>
<path d="M92.4906 41.6648C90.9433 40.6519 89.6236 40.9488 88.4227 42.3015C87.7332 43.0801 86.9842 43.8159 86.2122 44.5153C85.008 45.6007 83.4903 45.6964 82.3653 44.5879C78.5382 40.8103 74.6913 37.0426 71.0259 33.1099C68.8484 30.774 69.0265 27.0723 71.0754 24.6276C73.2034 22.0905 76.6774 21.4339 79.5445 23.0901C80.4881 23.6378 81.3458 24.3339 82.2333 24.9773C83.5464 25.9275 84.8661 25.9506 86.1891 25.0103C86.905 24.5022 87.5913 23.9545 88.3171 23.4629C91.3293 21.4141 95.0937 21.8826 97.3636 24.5748C99.5609 27.1746 99.4388 30.9753 97.0765 33.6015C95.4137 35.449 95.3247 36.0627 96.453 37.9103C95.1333 39.1607 93.8136 40.4111 92.4939 41.6615L92.4906 41.6648Z" fill="#EE7180"/>
<path d="M2.05566 100.676C3.93952 102.451 6.26218 102.345 8.61782 102.342C10.2179 102.342 11.4189 103.53 12.6792 104.341C16.0444 106.515 19.6372 107.647 23.6623 107.601C30.1882 107.528 36.7173 107.558 43.2465 107.601C44.5002 107.611 45.3811 107.469 45.5032 105.955C45.5494 105.39 45.876 104.77 46.2488 104.325C47.7466 102.53 47.6807 100.574 46.9647 98.5379C46.7569 97.9473 46.7338 97.3568 46.7437 96.7563C46.7569 96.0239 46.7404 95.3904 45.9354 94.9549C45.0677 94.4865 44.5365 95.0308 44.0317 95.4432C41.5969 97.4261 38.8354 98.7062 35.7605 99.1846C33.0222 99.6102 30.2475 99.9533 27.7599 98.0991C26.7999 97.3832 26.0938 96.5518 25.6649 95.4564C27.9117 95.4333 30.1585 95.4003 32.4052 95.3937C36.9648 95.3773 40.6038 93.2921 43.8206 90.2832C44.5893 89.564 45.1403 89.2902 46.0772 90.2206C47.5883 91.7184 49.6008 92.1242 51.8542 92.0648C51.1646 94.0312 50.5675 95.9414 50.9766 97.977C51.0195 98.1915 51.0294 98.4125 51.0657 98.6303C51.3263 100.056 52.8109 101.296 52.6064 102.464C52.415 103.563 50.7852 104.381 50.1452 105.625C49.129 107.591 48.7001 109.676 49.2379 111.84C49.5117 112.936 49.2148 113.153 48.1722 113.147C39.6701 113.114 31.168 113.15 22.6692 113.111C20.3433 113.101 17.9678 112.741 16.0708 111.378C11.917 108.389 7.39051 107.119 2.3295 107.65C2.24042 107.518 2.15134 107.383 2.06226 107.251C2.06226 105.06 2.05896 102.866 2.05566 100.676Z" fill="#D48676"/>
<path d="M20.4522 56.8648C21.5805 58.5903 21.4716 59.5966 19.9177 60.9789C16.8626 63.7008 13.7547 66.3699 10.7326 69.1247C9.69339 70.0749 8.59804 70.517 7.19917 70.4609C5.51327 70.3916 3.82077 70.4609 2.13156 70.4675C0.712896 70.0254 -0.151501 69.1445 0.0365552 67.5741C0.201516 66.2148 1.32655 65.2712 3.08834 65.4989C6.26549 65.9113 8.61124 64.7598 10.7524 62.5098C12.5637 60.6094 14.6818 59.0093 16.6284 57.2343C17.8359 56.1324 19.0632 55.8156 20.4522 56.8648Z" fill="#050404"/>
<path d="M71.3922 137.95C69.4291 137.91 68.1886 135.884 69.2147 134.304C70.8775 131.744 72.6888 129.273 74.5429 126.844C75.3776 125.749 76.6214 125.637 77.7696 126.392C78.9309 127.158 79.3202 128.398 78.568 129.537C76.8227 132.173 74.9157 134.703 73.0352 137.247C72.6327 137.791 71.9728 137.989 71.3955 137.953L71.3922 137.95Z" fill="#050505"/>
<path d="M100.072 135.352C100.039 136.507 99.5642 137.276 98.647 137.711C97.6605 138.176 96.5982 138.114 95.9384 137.253C94.0083 134.732 92.1113 132.175 90.366 129.523C89.6797 128.48 89.9734 127.233 91.0654 126.454C92.1178 125.702 93.3913 125.636 94.1898 126.665C96.1693 129.216 97.9839 131.891 99.8413 134.537C100.016 134.785 100.019 135.158 100.072 135.356V135.352Z" fill="#050404"/>
<path d="M118.155 11.8594C119.37 11.9089 120.086 12.4103 120.518 13.3473C120.999 14.3866 120.772 15.3599 119.983 16.056C118.466 17.3988 116.889 18.6855 115.242 19.8666C114.19 20.6221 113.012 20.4539 112.121 19.4806C111.234 18.5106 111.118 17.2734 112.009 16.3397C113.56 14.7165 115.378 13.3704 117.228 12.0903C117.519 11.8891 117.958 11.9056 118.155 11.8594Z" fill="#050505"/>
<path d="M48.2085 14.2025C48.3339 12.3648 50.32 11.187 51.831 12.1933C53.6027 13.3744 55.2523 14.7601 56.8228 16.2018C57.7828 17.0827 57.7598 18.3001 56.9448 19.3394C56.1266 20.3753 54.9224 20.6822 53.87 19.9464C52.0818 18.696 50.4322 17.2345 48.7595 15.8224C48.2712 15.41 48.2415 14.7568 48.2085 14.1992V14.2025Z" fill="#050505"/>
<path d="M94.2392 0.0490994C95.7568 0.0688947 97.0204 1.44797 96.6179 2.90293C96.1395 4.62842 95.5094 6.33412 94.7572 7.96064C94.1864 9.19125 93.0449 9.62675 91.7252 9.09228C90.422 8.5644 89.8743 7.48555 90.2537 6.17576C90.7189 4.55914 91.3557 2.98211 92.0122 1.42818C92.4015 0.504392 93.2065 0.0359025 94.2392 0.0490994Z" fill="#050505"/>
<path d="M78.7691 6.54129C78.7361 8.09852 78.0531 8.90023 76.8918 9.21366C75.7701 9.51719 74.7209 9.11138 74.2524 8.08202C73.4936 6.40272 72.8569 4.65413 72.3587 2.87915C72.0255 1.69802 72.6424 0.724753 73.7773 0.239767C74.8331 -0.212227 75.968 -0.0604629 76.5652 0.90621C77.6869 2.71089 78.2676 4.7696 78.7691 6.53799V6.54129Z" fill="#050404"/>
<path d="M2.06214 107.254C2.15122 107.386 2.2403 107.521 2.32937 107.653L2.204 107.742L2.05884 107.696C2.05884 107.548 2.05884 107.402 2.06214 107.254Z" fill="#E99B8C"/>
<path d="M144.163 95.4514C141.095 99.5391 136.882 100.017 132.296 99.1465C129.31 98.5823 126.558 97.4408 124.186 95.458C123.695 95.0456 123.164 94.488 122.289 94.9367C121.392 95.3953 121.389 96.1178 121.468 96.8832C121.577 97.9489 121.408 99.0607 121.012 99.935C120.399 101.304 120.745 102.238 121.451 103.389C122.418 104.973 123.17 106.698 123.104 108.642C123.075 109.559 123.55 109.899 124.424 109.899C132.256 109.885 140.089 110.001 147.918 109.833C151.042 109.763 153.761 108.058 156.308 106.369C158.211 105.105 160.141 104.208 162.408 104.65C164.216 105.003 165.13 103.518 166.499 102.99C166.479 104.574 166.459 106.154 166.443 107.738C166.113 107.734 165.783 107.757 165.46 107.721C160.877 107.21 156.717 108.16 152.929 110.941C150.666 112.601 147.934 113.122 145.143 113.125C136.812 113.139 128.482 113.109 120.151 113.155C118.95 113.162 118.729 112.924 118.974 111.69C119.63 108.371 118.548 105.537 116.133 103.191C115.803 102.871 115.044 102.723 115.582 101.957C117.769 98.8463 117.799 95.5503 116.268 92.073C118.759 92.1356 120.94 91.555 122.646 89.78C123.167 89.2356 123.484 89.5491 123.87 89.8757C124.711 90.5784 125.546 91.291 126.403 91.974C129.244 94.2405 132.471 95.4019 136.116 95.3986C138.802 95.3953 141.484 95.4349 144.17 95.4547L144.163 95.4514Z" fill="#FACABC"/>
<path d="M54.2955 111.213C53.474 108.62 54.9553 106.093 57.6937 105.891C60.7916 105.664 63.916 105.753 67.0272 105.746C68.6636 105.746 70.3099 105.591 71.9331 105.898C74.4273 106.37 75.8064 108.762 75.0278 111.206C71.5999 112.671 67.9806 112.173 64.4241 112.18C61.0226 112.186 57.5617 112.642 54.2922 111.216L54.2955 111.213Z" fill="#E6988A"/>
<path d="M56.0376 97.6762C55.4569 94.5617 57.057 92.3908 60.1418 92.3381C64.5232 92.2655 68.9079 92.2622 73.2892 92.3447C76.3608 92.404 78.1193 94.8389 77.311 97.6828C70.2209 99.2532 63.1276 99.2829 56.0376 97.6762Z" fill="#E89A8B"/>
<path d="M88.9242 84.4947C88.04 81.5452 89.7457 78.9388 92.7546 78.8695C96.7433 78.7805 100.732 78.8497 104.721 78.8233C105.335 78.82 105.717 78.9817 106.011 79.5657C106.984 81.5155 108.013 83.439 109.02 85.3723C108.657 85.9563 108.066 85.8177 107.538 85.821C105.73 85.8342 103.922 85.8837 102.118 85.8144C97.7793 85.6428 93.3682 86.4545 89.132 84.8807L89.1419 84.8939C89.0693 84.762 89 84.6267 88.9275 84.4947H88.9242Z" fill="#FDDDCE"/>
<path d="M93.1306 108.893C93.5364 106.966 94.8462 105.95 96.6839 105.858C101.26 105.633 105.843 105.637 110.419 105.848C113.665 105.996 115.46 110.275 113.239 112.552C112.771 111.988 112.121 112.212 111.55 112.209C107.667 112.189 103.784 112.182 99.9006 112.209C99.0098 112.215 98.185 112.011 97.3305 111.816C95.516 111.407 94.546 109.84 93.1306 108.89V108.893Z" fill="#F9DACA"/>
<path d="M91.1511 94.6737C91.7879 93.1329 93.0152 92.3807 94.6021 92.3609C99.2045 92.3114 103.81 92.3147 108.413 92.3543C111.537 92.3807 113.487 96.1715 111.682 98.7185C106.879 98.7053 102.078 98.6987 97.2745 98.6757C94.358 98.6625 92.2036 97.2372 91.1511 94.6737Z" fill="#FDDDCE"/>
<path d="M59.5183 84.7389C60.3992 83.0398 61.3098 81.3572 62.1445 79.635C62.4612 78.9817 62.8967 78.8167 63.5698 78.8233C67.5156 78.8497 71.4615 78.7805 75.4041 78.8695C78.4427 78.9355 80.1715 81.5518 79.2477 84.4848C77.7597 84.7224 76.4235 85.5274 74.8432 85.5043C70.706 85.4416 66.5655 85.4845 62.4249 85.4845C61.3923 85.4845 60.3794 85.4053 59.5183 84.7389Z" fill="#E89A8B"/>
<path d="M86.6874 70.2979C86.4102 67.3781 88.0929 65.4117 90.9764 65.3589C93.1605 65.316 95.3478 65.3754 97.5352 65.3325C98.238 65.3193 98.6174 65.5602 98.9275 66.1804C99.9965 68.3315 101.118 70.4562 102.22 72.5908C99.9833 72.6073 97.7464 72.5545 95.5128 72.6535C92.3093 72.7954 89.1981 72.7261 86.6907 70.3012L86.6874 70.2979Z" fill="#FDDDCE"/>
<path d="M66.7434 71.2024C67.6078 69.5 68.4953 67.8075 69.3234 66.0886C69.6071 65.498 69.9964 65.3298 70.6101 65.3364C72.9591 65.366 75.3148 65.2605 77.6605 65.3924C80.1449 65.531 81.9033 67.3885 81.3326 70.6613C80.4517 70.5128 79.8083 71.1892 79 71.3211C75.0937 71.9678 71.1677 71.529 67.2515 71.5686C67.0832 71.5686 66.9117 71.3278 66.7434 71.2024Z" fill="#E89A8B"/>
<path d="M91.151 94.6738C92.2035 97.2406 94.3579 98.6626 97.2744 98.6758C102.078 98.6989 106.878 98.7055 111.682 98.7187C111.009 100.101 109.805 100.725 108.366 100.741C103.764 100.791 99.1582 100.87 94.5624 100.711C91.3952 100.603 89.8214 97.6134 91.1543 94.6771L91.151 94.6738Z" fill="#FACABC"/>
<path d="M93.1307 108.893C94.5461 109.843 95.5161 111.41 97.3306 111.819C98.1851 112.01 99.0099 112.218 99.9007 112.212C103.784 112.185 107.667 112.192 111.55 112.212C112.124 112.212 112.771 111.991 113.239 112.555C112.527 113.762 111.392 114.224 110.076 114.231C105.697 114.257 101.319 114.31 96.9446 114.214C94.0512 114.152 92.3323 111.631 93.1307 108.896V108.893Z" fill="#FACABC"/>
<path d="M56.0376 97.6752C63.1276 99.2819 70.2177 99.2522 77.311 97.6818C76.892 99.6052 75.5822 100.654 73.7412 100.694C69.0431 100.8 64.3384 100.796 59.637 100.694C57.7763 100.654 56.5094 99.5524 56.0376 97.6719V97.6752Z" fill="#D48676"/>
<path d="M54.2954 111.213C57.5649 112.642 61.0258 112.186 64.4273 112.176C67.9839 112.17 71.5998 112.668 75.031 111.203C74.4669 113.07 73.3088 114.163 71.4547 114.192C66.9314 114.265 62.4049 114.265 57.8817 114.192C56.0275 114.163 54.8596 113.067 54.2987 111.21L54.2954 111.213Z" fill="#D48676"/>
<path d="M59.5181 84.7384C60.3825 85.4049 61.3953 85.484 62.4247 85.484C66.5652 85.484 70.7024 85.4445 74.843 85.5038C76.4233 85.5269 77.7595 84.7219 79.2474 84.4844C78.4589 86.7806 76.6509 87.3712 74.4768 87.3349C69.9007 87.259 65.3247 87.193 60.7487 87.0842C60.0129 87.0677 58.9605 87.4108 58.6273 86.7114C58.3369 86.0977 59.076 85.3488 59.5214 84.7384H59.5181Z" fill="#D48676"/>
<path d="M66.7436 71.2018C66.9119 71.3305 67.0834 71.5713 67.2517 71.568C71.1679 71.5251 75.0939 71.9672 79.0002 71.3206C79.8085 71.1853 80.4519 70.509 81.3328 70.6607C80.8181 72.6139 79.6304 73.7587 77.5255 73.828C73.7676 73.9501 70.0032 73.8742 66.2421 73.894C65.5559 73.8973 65.315 73.6762 65.6878 73.0263C66.0409 72.4159 66.3906 71.8089 66.7436 71.2018Z" fill="#CD8273"/>
<path d="M89.1288 84.8809C93.365 86.4546 97.7761 85.643 102.115 85.8145C103.919 85.8838 105.73 85.8343 107.535 85.8211C108.066 85.8178 108.654 85.9564 109.017 85.3724C110.118 87.0913 110.056 87.319 108.05 87.3421C103.032 87.4015 98.0136 87.4015 92.9955 87.3355C91.2865 87.3124 89.8018 86.6657 89.1255 84.8809H89.1288Z" fill="#EBBEB0"/>
<path d="M86.6873 70.2982C89.1914 72.7231 92.3058 72.7924 95.5094 72.6506C97.743 72.5516 99.9798 72.6044 102.217 72.5879C102.962 73.515 102.933 73.9406 101.554 73.9142C98.1158 73.8515 94.678 73.9241 91.2402 73.8812C88.6998 73.8482 87.3207 72.7133 86.6873 70.2949V70.2982Z" fill="#EBBEB0"/>
<path d="M88.9242 84.4961C88.9967 84.6281 89.066 84.7633 89.1386 84.8953C88.9472 84.8293 88.8846 84.6907 88.9242 84.4961Z" fill="#EBBEB0"/>
</svg>
