<?xml version="1.0" encoding="UTF-8"?><svg id="Layer_1" xmlns="http://www.w3.org/2000/svg" viewBox="0 0 1033.5 73"><defs><style>.cls-1{fill:#fff;stroke-width:0px;}</style></defs><polygon class="cls-1" points="374.19 5.05 315.08 73 393.85 73 429.82 5.05 374.19 5.05"/><polygon class="cls-1" points="262.94 5.05 157.54 73 236.31 73 318.56 5.05 262.94 5.05"/><polygon class="cls-1" points="151.68 5.05 0 73 78.77 73 207.31 5.05 151.68 5.05"/><polygon class="cls-1" points="485.45 5.05 472.62 73 551.38 73 541.07 5.05 485.45 5.05"/><polygon class="cls-1" points="707.95 5.05 787.69 73 866.46 73 763.58 5.05 707.95 5.05"/><polygon class="cls-1" points="596.7 5.05 630.15 73 708.92 73 652.33 5.05 596.7 5.05"/><polygon class="cls-1" points="875.25 5.05 819.21 5.05 945.23 73 1024 73 875.25 5.05"/></svg>