<?xml version="1.0" encoding="UTF-8"?><svg id="Layer_1" xmlns="http://www.w3.org/2000/svg" viewBox="0 0 28 36"><defs><style>.cls-1{fill:#d5dbe5;stroke-width:0px;}</style></defs><path class="cls-1" d="M27,12.98s0,0,0,0c-.01-7.17-5.83-12.98-13-12.98S1.01,5.81,1,12.98c0,0,0,0,0,0,0,0,0,.01,0,.02,0,4.82,3.13,7.94,5.7,11.63,1.93,2.78,7.3,10.87,7.3,10.87,0,0,5.25-7.65,7.35-10.54,2.65-3.63,5.65-7.14,5.65-11.96,0,0,0-.01,0-.02ZM14,20.88c-4.32,0-7.82-3.5-7.82-7.82s3.5-7.82,7.82-7.82,7.82,3.5,7.82,7.82-3.5,7.82-7.82,7.82Z"/></svg>