<svg width="22" height="19" viewBox="0 0 22 19" fill="none" xmlns="http://www.w3.org/2000/svg">
<g clip-path="url(#clip0_96_1509)">
<path d="M5.91338 19.0001C8.45201 19.0491 10.7014 16.3535 12.2439 14.5564C13.8346 12.7103 11.1835 9.982 9.57673 11.8444C8.96617 12.5469 8.33954 13.2167 7.66471 13.8539C7.26303 14.2296 6.4918 15.1772 5.91338 15.1772C3.48721 15.1282 3.48721 18.9674 5.91338 19.0164V19.0001Z" fill="#2DCCCD"/>
<path d="M4.69195 10.8315C4.57948 8.8057 4.45094 6.7799 4.33847 4.77044C4.19386 2.31988 0.418037 2.30355 0.562643 4.77044C0.675114 6.79624 0.803653 8.82203 0.916124 10.8315C1.06073 13.2821 4.83655 13.2984 4.69195 10.8315Z" fill="#2DCCCD"/>
<path d="M10.3956 4.31302C11.6006 3.85559 12.8217 3.67588 14.091 3.93727C15.0872 4.14965 16.1316 3.6432 16.4047 2.59763C16.6618 1.65008 16.0834 0.457477 15.0872 0.245096C13.1752 -0.163331 11.215 -0.0979825 9.38331 0.620848C8.43534 0.980263 7.77658 1.91148 8.06579 2.97338C8.32287 3.9046 9.43152 4.68878 10.3795 4.31302H10.3956Z" fill="#2DCCCD"/>
<path d="M16.9195 10.4067C17.8192 11.0439 17.9317 12.2365 17.5943 13.2004C17.2569 14.1806 17.9799 15.2915 18.9118 15.5529C19.9562 15.847 20.8881 15.1935 21.2255 14.2133C22.1574 11.5503 21.0327 8.69133 18.8154 7.0903C17.9799 6.48583 16.7106 6.94327 16.2286 7.77646C15.6823 8.74034 16.0679 9.80225 16.9034 10.4067H16.9195Z" fill="#2DCCCD"/>
</g>
<defs>
<clipPath id="clip0_96_1509">
<rect width="21" height="19" fill="white" transform="translate(0.5625)"/>
</clipPath>
</defs>
</svg>
