<?xml version="1.0" encoding="utf-8"?>
<!-- Generator: Adobe Illustrator 28.3.0, SVG Export Plug-In . SVG Version: 6.00 Build 0)  -->
<svg version="1.1" id="Capa_1" xmlns="http://www.w3.org/2000/svg" xmlns:xlink="http://www.w3.org/1999/xlink" x="0px" y="0px"
	 viewBox="0 0 600 600" style="enable-background:new 0 0 600 600;" xml:space="preserve">
<style type="text/css">
	.st0{fill:#28AD68;}
	.st1{fill:#FFFFFF;}
</style>
<g>
	<g>
		<path class="st0" d="M533.5,299.9c0,129-104.5,233.6-233.4,233.6S66.5,429.1,66.5,300.2S170.9,66.6,299.8,66.5
			S533.4,170.9,533.5,299.9"/>
		<g>
			<path class="st1" d="M251.8,404.2c-5.3,0-10.4-2.1-14.1-5.9l-71.9-71.9c-7.8-7.8-7.8-20.5,0-28.3s20.5-7.8,28.3,0l57.8,57.8
				L406,201.7c7.8-7.8,20.5-7.8,28.3,0s7.8,20.5,0,28.3L265.9,398.3C262.2,402.1,257.1,404.2,251.8,404.2L251.8,404.2z"/>
		</g>
	</g>
</g>
</svg>
