<?xml version="1.0" encoding="utf-8"?>
<!-- Generator: Adobe Illustrator 28.3.0, SVG Export Plug-In . SVG Version: 6.00 Build 0)  -->
<svg version="1.1" id="Capa_1" xmlns="http://www.w3.org/2000/svg" xmlns:xlink="http://www.w3.org/1999/xlink" x="0px" y="0px"
	 viewBox="0 0 600 600" style="enable-background:new 0 0 600 600;" xml:space="preserve">
<style type="text/css">
	.st0{fill:#DA3951;}
	.st1{fill:#FFFFFF;}
</style>
<g>
	<circle class="st0" cx="300" cy="300" r="232.7"/>
	<path class="st1" d="M386.1,358.4L327.7,300l58.4-58.4c7.6-7.6,7.6-20,0-27.7c-7.6-7.6-20-7.6-27.7,0l0,0L300,272.3l-58.4-58.4
		c-7.6-7.6-20-7.6-27.7,0c-7.6,7.6-7.6,20,0,27.7l0,0l58.4,58.4l-58.4,58.4c-7.6,7.6-7.6,20,0,27.7c7.6,7.6,20,7.6,27.7,0l58.4-58.4
		l58.4,58.4c7.8,7.5,20.2,7.2,27.7-0.7C393.3,377.8,393.3,365.9,386.1,358.4L386.1,358.4z"/>
</g>
</svg>
