<svg width="222" height="222" viewBox="0 0 222 222" fill="none" xmlns="http://www.w3.org/2000/svg">
<path d="M221.03 159.666C221.03 177.868 221.03 196.034 220.994 214.236C220.994 215.75 220.783 217.404 220.149 218.777C219.163 220.89 217.156 221.805 214.832 221.559C205.748 220.538 196.663 219.411 187.578 218.285C186.17 218.108 184.726 217.756 183.353 217.44C180.008 216.63 178.282 213.708 179.163 210.434C186.663 182.48 194.163 154.526 201.663 126.537C203.846 118.369 206.029 110.201 208.248 102.033C209.022 99.1461 211.276 97.4562 213.987 97.597C218.248 97.8435 220.396 99.463 220.889 102.843C221.03 103.829 221.03 104.85 221.03 105.835C221.03 123.791 221.03 141.711 221.03 159.666Z" fill="#662D90"/>
<path d="M61.9074 0.744141C80.3584 0.744141 98.8094 0.744141 117.26 0.744141C122.331 0.744141 125.324 4.82809 123.845 9.68657C123.211 11.799 121.662 12.996 119.584 13.5593C93.1051 20.6358 66.661 27.7122 40.1817 34.7887C30.6746 37.3236 21.1674 39.8937 11.6602 42.3933C7.5404 43.4847 4.65303 41.7244 4.05443 37.4996C2.64596 27.8179 1.34312 18.1361 0.110706 8.45435C-0.417471 4.37041 0.95579 1.94116 3.98401 1.0258C4.8643 0.744147 5.85023 0.744141 6.76574 0.744141C25.1463 0.744141 43.5621 0.744141 61.9426 0.744141H61.9074Z" fill="#EC1B23"/>
<path d="M185.853 89.9572C189.48 90.274 193.881 92.6329 192.297 98.4771C182.93 133.085 173.67 167.728 164.374 202.336C164.057 203.533 163.775 204.765 163.423 205.962C162.296 209.694 159.339 211.314 155.677 209.941C148.986 207.441 142.331 204.836 135.711 202.16C132.93 201.033 130.218 199.66 127.542 198.322C123.458 196.316 122.613 193.323 124.866 189.345C137.683 167.13 150.536 144.95 163.353 122.734C168.987 112.947 174.656 103.195 180.29 93.4074C181.487 91.3302 183.001 89.7811 185.818 89.922L185.853 89.9572Z" fill="#0071BB"/>
<path d="M28.8436 98.2308C26.5196 97.9844 24.8294 96.9986 23.8083 95.0622C18.9842 85.5213 14.8645 75.6987 11.5546 65.5592C10.463 62.2146 12.1532 59.3277 15.4983 58.4124C34.7591 53.237 54.02 48.0617 73.2809 42.9215C90.0769 38.4151 106.838 33.9439 123.634 29.4375C127.084 28.5221 129.514 29.7191 130.887 32.9933C132.472 36.7252 131.803 39.2953 128.528 41.1964C104.126 55.279 79.7246 69.3615 55.358 83.4441C47.6819 87.8801 40.0409 92.3161 32.3647 96.6817C31.238 97.3154 30.0055 97.7027 28.8083 98.2308H28.8436Z" fill="#F6921E"/>
<path d="M74.8302 160.018C75.7105 158.574 76.3795 156.955 77.5415 155.758C87.3656 145.794 97.2953 135.937 107.19 126.044C123.422 109.813 139.655 93.5833 155.923 77.3532C159.339 73.9382 164.303 74.7127 166.627 79.0079C167.684 81.0146 167.437 82.951 166.31 84.9225C159.374 96.9279 152.437 108.933 145.536 120.939C133.916 141.042 122.331 161.144 110.711 181.212C108.457 185.085 105.218 185.965 101.591 183.254C93.5277 177.199 85.5698 170.967 77.5767 164.806C76.0978 163.679 75.2175 162.236 75.3232 160.264C75.1471 160.159 75.0063 160.053 74.8302 159.983V160.018Z" fill="#39B44A"/>
<path d="M61.2384 146.604C59.9356 145.865 58.3158 145.407 57.3651 144.351C50.2523 136.465 43.7734 128.085 37.9986 119.178C36.2028 116.397 36.9423 113.369 39.9001 111.609C46.8016 107.525 53.7735 103.511 60.7102 99.4979C81.9782 87.2109 103.281 74.8886 124.584 62.6016C128.669 60.2427 132.718 57.8839 136.838 55.5955C140.148 53.7648 142.578 54.3985 144.972 57.5671C147.05 60.3132 146.838 63.0945 144.268 65.6293C118.246 91.6821 92.1896 117.7 66.1329 143.717C64.83 145.02 63.492 146.252 61.4497 146.111C61.3793 146.252 61.3088 146.428 61.2032 146.569L61.2384 146.604Z" fill="#FBED20"/>
</svg>
