<svg width="221" height="221" viewBox="0 0 221 221" fill="none" xmlns="http://www.w3.org/2000/svg">
<path d="M6.36771 0C10.0297 0.38727 13.727 0.739334 17.389 1.1266C44.15 4.11915 69.6081 11.5829 93.693 23.5531C97.1438 25.2782 98.024 28.4468 96.017 31.9322C88.7633 44.5361 81.4745 57.14 74.2209 69.7439C63.0587 89.0722 51.8966 108.4 40.6992 127.729C40.0654 128.785 39.326 129.876 38.3753 130.651C36.509 132.165 34.4315 131.813 32.354 130.933C25.1004 127.905 17.5651 125.722 9.81848 124.384C8.02268 124.067 6.22688 123.891 4.43108 123.539C1.79019 123.011 0.170449 121.04 0.0296021 118.399C0.0296021 117.836 0.0296021 117.273 0.0296021 116.709C0.0296021 80.2002 0.0296021 43.6911 0.0296021 7.1821C0.0296021 2.78131 0.839464 1.58429 4.88882 0C5.38179 0 5.90997 0 6.40293 0L6.36771 0Z" fill="#578BC7"/>
<path d="M53.5515 139.629C53.9388 138.572 54.1853 137.481 54.7487 136.53C68.8686 112.027 83.0238 87.5232 97.1789 63.0195C101.616 55.3445 106.017 47.7047 110.454 40.0297C112.531 36.4739 115.63 35.6641 119.01 37.9526C140.982 52.5984 159.891 70.5185 175.701 91.6775C178.096 94.8813 180.384 98.1907 182.673 101.5C185.173 105.162 184.469 108.295 180.666 110.478C148.94 128.785 117.214 147.128 85.4534 165.435C85.0309 165.681 84.5731 165.928 84.1506 166.174C81.0519 167.829 78.4815 167.301 76.3687 164.52C70.594 156.95 63.9038 150.261 56.3332 144.487C54.7487 143.29 53.7276 141.776 53.5867 139.629H53.5515Z" fill="#578BC7"/>
<path d="M158.905 220.709C140.63 220.709 122.391 220.709 104.116 220.709C99.1156 220.709 97.6015 219.441 96.9325 214.548C95.7001 205.605 93.3761 196.98 89.9253 188.636C88.3056 184.728 89.0451 182.404 92.7071 180.292C115.841 166.913 138.975 153.57 162.11 140.192C170.842 135.157 179.61 130.088 188.342 125.053C192.462 122.659 195.455 123.574 197.568 127.834C207.814 148.641 214.786 170.469 218.272 193.389C219.329 200.254 219.963 207.19 220.561 214.125C220.948 218.632 218.801 220.709 214.223 220.709C195.772 220.709 177.321 220.709 158.87 220.709H158.905Z" fill="#578BC7"/>
</svg>
