<?xml version="1.0" encoding="UTF-8"?>
<svg id="Layer_2" xmlns="http://www.w3.org/2000/svg" viewBox="0 0 160.5 36.94">
  <defs>
    <style>
      .cls-1 {
        fill: #9b2c39;
        fill-rule: evenodd;
      }
    </style>
  </defs>
  <g id="Layer_1-2" data-name="Layer_1">
    <g id="layer1">
      <path id="path7267" class="cls-1" d="M140.08.77c-1.19,0-9.34,24.01-9.34,24.01h.87s1.19-3.07,3.26-3.18c2.06-.11,7.17,10.85,7.17,10.85,0,0,.54,3.4,4.67,3.4h13.79v-.99s-2.93.22-4.34-2.85c-1.41-3.07-15.09-31.24-16.07-31.24ZM128.68,11.95V3.18s-4.24-3.18-10.1-3.18-13.03,2.85-13.03,12.06,13.68,10.52,13.68,15.35c0,2.52-2.06,2.74-3.48,2.74-4.67,0-9.23-7.01-9.23-7.01v9.54s4.67,4.06,10.53,4.06,13.25-3.51,13.25-12.72c0-10.96-14.01-11.18-14.01-16,0-2.52,1.52-2.19,2.93-2.19,4.67,0,9.45,6.14,9.45,6.14h0ZM78.4,4.49c2.3,4.78,4.45,11.51,8.04,11.51,2.93,0,5.32-14.91,5.32-14.91h11.84v30.91c0,2.63,3.04,3.29,3.04,3.29h-15.53V13.37s-9.01,23.57-9.88,23.57-13.14-23.57-13.14-23.57v18.96c0,1.75,2.72,3.07,2.72,3.07h-6.95V4.38c0-2.08-3.37-3.51-3.37-3.51h12.05s4.02-.22,5.86,3.62h0ZM45.61,33.76s9.45.88,14.01-5.81l-1.85,7.45h-24.54V4.38c0-2.08-3.37-3.51-3.37-3.51h27.91l1.85,7.45c-4.56-6.69-14.01-5.81-14.01-5.81v14.47h7.71c2.39,0,3.69-4.06,3.69-4.06,0,0,2.5,11.51,2.39,11.4-1.95-3.62-7.93-5.48-7.93-5.48h-5.86v14.91ZM27.91.88H0s3.37,1.42,3.37,3.51v31.02h15.64s-3.26-1.1-3.26-3.62v-12.93h5.86s5.97,1.86,7.93,5.48c.11.11-2.39-11.4-2.39-11.4,0,0-1.3,4.06-3.69,4.06h-7.71V2.52s9.45-.88,14.01,5.81l-1.85-7.45"/>
    </g>
  </g>
</svg>