<svg width="210" height="220" viewBox="0 0 210 220" fill="none" xmlns="http://www.w3.org/2000/svg">
<path d="M0.0296021 157.659C0.0296021 139.282 0.0296021 120.904 0.0296021 102.526C0.0296021 98.0196 1.50851 96.3297 5.98041 95.696C27.4948 92.633 46.4388 83.937 62.6714 69.4672C65.5236 66.9324 68.4109 67.0028 71.1574 69.7489C84.045 82.5992 96.8973 95.4495 109.75 108.335C121.158 119.742 132.567 131.114 143.94 142.52C145.806 144.386 147.673 146.252 149.539 148.118C152.567 151.216 152.532 154.244 149.398 157.237C132.849 172.868 114.433 185.754 94.0803 195.893C71.9321 206.913 48.6219 214.166 24.1497 217.581C18.3749 218.39 12.565 218.883 6.75507 219.306C2.28317 219.658 0.0648214 217.44 0.0648214 213.004C0.0648214 194.556 0.0648214 176.107 0.0648214 157.659H0.0296021Z" fill="#F05A5F"/>
<path d="M209.786 55.5253C209.012 56.0886 208.307 56.828 207.427 57.18C201.899 59.5037 196.23 61.5808 190.772 64.1157C176.441 70.7345 167.25 82.1414 161.476 96.5408C160.032 100.132 158.764 103.829 157.25 107.42C156.898 108.229 155.842 109.286 155.138 109.25C154.398 109.25 153.412 108.159 153.06 107.314C150.384 101.188 148.095 94.8157 145.137 88.8306C138.764 75.8746 128.165 67.4603 115.067 61.9681C111.193 60.3486 107.25 58.9051 103.306 57.3913C102.144 56.9336 100.735 56.6872 100.771 55.0325C100.806 53.5538 102.073 53.2721 103.2 52.8145C109.292 50.2796 115.454 47.9912 121.37 45.069C134.187 38.7671 142.602 28.3108 148.06 15.3549C149.785 11.3061 151.3 7.18696 152.884 3.10302C153.307 1.94121 153.694 0.708984 155.173 0.708984C156.687 0.708984 157.004 2.01163 157.426 3.13823C159.962 10.426 162.884 17.5729 166.758 24.2621C173.448 35.8802 183.624 43.3087 195.737 48.3784C199.61 49.9979 203.589 51.371 207.462 52.9553C208.307 53.3074 209.012 54.0819 209.786 54.6804C209.786 54.962 209.786 55.2437 209.786 55.5253Z" fill="#F05A5F"/>
</svg>
