<?xml version="1.0" encoding="UTF-8"?><svg id="b" xmlns="http://www.w3.org/2000/svg" viewBox="0 0 1385.54 488.41"><g id="c"><path d="M1068.51,268.12c1.93,9.96,6.6,18.54,13.66,25.69,6.79,6.86,14.91,11.5,24.48,13.7,4.69,1.08,9.4.95,14.09,1.44.61.06,1.28.17,1.85-.26,2.78.02,5.56.04,8.35.05.84,1.04.61,2.28.61,3.47-.12,13,4.47,24.09,13.9,32.99,6.35,5.99,13.87,9.86,22.63,11.27,3.03.49,6.04.65,9.08.66,12.97.02,25.95.04,38.92.07,1.32,3.85,3.62,7.21,5.54,10.76,7.41,13.72,14.93,27.39,22.42,41.07,1.91,3.48,3.79,6.98,5.79,10.4,3.2,5.46,9.86,7.66,15.7,5.29,5.68-2.3,8.92-8.79,7.32-14.87-1.95-7.4-3.98-14.77-5.97-22.16-.19-.71-.74-1.48.19-2.1,6.39,5.31,13.74,7.99,22.03,8.37,10.91.49,21.53-.4,31.38-5.72,11.92-6.43,20.14-15.89,23.82-29.07.25-.88.36-1.81.52-2.71.43-.25.7-.53.25-1,.02-.32.05-.64.08-.95,2.98-1.39,6-2.68,8.92-4.19,3.53-1.82,6.98-3.82,9.81-6.69,5.47-4.07,9.63-9.07,10.33-16.1.7-6.99-1.99-12.83-7.29-17.77,1.58-.23,2.56.43,3.61.67,7.41,1.66,14.86-4.1,14.98-11.65.21-12.67-1.45-25.12-4.81-37.32-3.27-11.85-8.04-23.11-14.37-33.66-4.45-7.4-9.43-14.45-15.32-20.8-1.49-1.61-3.01-3.2-4.44-4.86-2.46-2.84-5.63-4.16-9.27-4.6-2.4-.28-4.49.71-6.59,1.63-.63.28-1.14.84-1.9.78l.03.03c.83-2.08,1.1-4.25.92-6.47,0-4.62-2.33-7.74-6.08-10.25-8.57-5.74-17.69-10.36-27.32-13.95-9.41-3.5-19.13-5.84-29.09-7.35-9.66-1.46-19.34-1.16-29.02-1.17-2.91,0-5.5,1.05-7.51,3.27-2.3,1.16-2.67,3.78-4.14,5.71-1.48-2-1.9-4.56-4.19-5.73-1.78-2.01-4.09-3.19-6.68-3.21-12.7-.09-25.43-.38-38.12.09-9.32.35-18.52,2.21-27.46,5.05-.67.21-1.33.44-1.99.66-7.65,2.16-14.9,5.32-21.72,9.37-4.71,2.8-6.8,9.17-5.02,14.3.16.46.47.9.03,1.47-1.13-.33-1.81-1.54-3.04-1.71-1.17-1.14-2.65-1.26-4.16-1.31-.48-.92-1.37-.73-2.08-.59-3.52.69-6.68,2.07-9.38,4.6-15.12,14.19-26.33,30.94-33.09,50.54-1.66,4.82-2.48,9.88-2.04,15.05-.12,1.98-.16,3.96.08,5.93-.11.36-.06.67.28.88.13.99.03,2.03.5,2.96h0Z" style="fill:#f6f6f6;"/><path d="M1360.04,343.68c-1.33.12-2.67.28-4.01.28-14.49.03-28.97.04-43.46.06-.27-.02-.54-.04-.82-.06-4.05-4.64-9.03-8.05-14.3-11.14-4.17-2.44-8.55-4.33-13.13-5.74-3.56-1.1-7.17-2.02-10.93-2.33-22.39-1.79-44.82-.35-67.22-.82-2.22-.05-4.36.35-5.5,2.48-1.79,3.33.52,6.87,4.41,6.88,19.1.01,38.21-.09,57.31.06,6.27.05,12.58.5,18.61,2.5,5.62,1.87,11.18,3.92,15.99,7.8-.64.5-1.28.29-1.84.29-32.52.01-65.05.03-97.57-.02-4.78,0-9.29-1.45-13.69-3.25-6.22-2.54-11.34-6.56-15.78-11.51-3.77-4.19-6.6-8.96-8.32-14.36-.07-.23,0-.52,0-1,.43.35.7.56.95.77,2.74,2.36,4.43,2.37,6.96-.21,3.37-3.45,7.19-6.17,11.75-7.8,3.29-1.17,6.71-1.78,10.17-1.78,27.91-.05,55.82.05,83.72-.07,9.63-.04,18.55-2.91,26.94-7.72,6.5-3.73,11.75-8.82,16.93-14.07,3.24-3.28,6.54-6.51,9.78-9.8,2.03-2.06,2.04-5.11.09-6.98-1.57-1.5-4.76-1.51-6.33.04-4.54,4.5-9.12,8.96-13.55,13.56-5.91,6.13-12.82,10.66-20.87,13.35-4.22,1.41-8.62,2.26-13.1,2.26-27.76.03-55.53.04-83.3-.01-3.14,0-6.18.62-9.24,1.11-1.48.24-2.39-.07-3.37-1.07-2.62-2.7-5.27-5.37-7.98-7.98-1.22-1.17-2.52-2.15-4.4-2.32-2.35-.21-3.71,1.19-4.58,2.82-.81,1.53-.4,3.29.96,4.69,2.27,2.33,4.43,4.76,6.72,7.06,1.01,1.01,1.04,1.5-.23,2.39-2.36,1.67-4.65,3.47-6.63,5.62-.73.8-1.44,1.56-1.54,2.71-.03.39.06.96-.55.94-.49-.02-.61-.49-.7-.93-.73-3.46-.99-6.98-1.28-10.49-.17-2.07-1.35-3.25-3.19-3.66-4.2-.94-8.48-.25-12.72-.45-.99-.05-1.97.06-2.95-.24-1.75-.52-1.99-1.08-.99-2.65,4.26-6.64,9.87-11.9,17.04-15.16,4.13-1.88,8.53-3.18,13.24-3.31,33.64-.88,67.29-.13,100.93-.33,2.39-.01,3.78-1.11,4.64-2.98.89-1.93.28-3.78-1.25-5.2-1.4-1.3-3.29-1.18-5.01-1.21-6.11-.09-12.21-.03-18.32-.03-3.18,0-3.08.02-2.19-3.03,1.08-3.72,1.96-7.5,2.94-11.26,1.03-3.96,2.17-7.89,3.07-11.87.47-2.07.66-4.33-1.49-5.76-2.79-1.86-6.07-.71-7.2,2.56-.81,2.33-1.45,4.73-2.09,7.12-1.84,6.87-3.69,13.74-5.43,20.64-.33,1.32-.93,1.63-2.18,1.63-8.24-.05-16.48-.04-24.71,0-1.16,0-1.72-.26-2.05-1.51-1.71-6.55-3.55-13.08-5.34-19.61-.73-2.65-1.43-5.29-2.16-7.94-.75-2.73-3.4-4.37-5.82-3.61-2.78.88-3.98,3.35-3.21,6.2,2.21,8.17,4.3,16.37,6.55,24.53.46,1.67-.05,1.93-1.54,1.93-7.6-.05-15.2-.03-22.8,0-1.18,0-1.83-.22-2.27-1.59-2-6.33-4.16-12.6-6.35-18.87-.99-2.84-3.67-4.15-6.23-3.23-2.03.73-3.57,3.51-2.94,5.5.85,2.69,1.67,5.4,2.72,8.02,1.26,3.14,1.89,6.5,3.36,9.58.51,1.06-.11,1.64-1.27,1.89-4.17.88-8.08,2.47-11.85,4.45-5.71,3-10.58,7.06-14.71,11.97-2.36,2.8-4.5,5.82-5.94,9.23-.67,1.58-1.69.85-2.62.52-1.07-.37-1.71-1.05-1.14-2.27,2.17-4.69,5-8.95,8.18-13.02,2.74-3.5,6.3-6.11,9.33-9.27,4.82-5.03,6.25-13.19,3.12-19.89-1.63-3.48-4.38-5.86-6.92-8.5-1.63-1.69-3.26-3.37-4.98-4.96-2.3-2.14-4.85-2.08-6.92.07-1.69,1.75-1.5,4.66.47,6.65,2.3,2.32,4.5,4.75,6.95,6.9,5.36,4.69,4.89,10.99-.63,15.41-5.89,4.71-10.37,10.59-14.11,17.08-.95,1.65-1.84,3.33-2.72,5.02-.46.87-.88,1.07-1.81.45-3.89-2.59-6.87-6.1-9.86-9.6-.69-.81-.22-1.34.65-1.78,1.46-.75,2.79-1.63,2.85-3.59.1-3.41-.83-4.75-4.22-5.52-1.99-.45-4.02-.75-6.03-1.11-.14-.14-.29-.28-.43-.43-.4-2.38-1.64-4.5-1.98-6.91-.18-1.26-.08-1.66,1.37-1.36,6.35,1.34,12.71,2.56,19.08,3.84,1.82.36,3.55.34,4.88-1.22,1.01-1.19,2.22-2.39,1.55-4.12-.76-1.98-1.95-3.61-4.34-3.88-1.11-.13-2.21-.44-3.31-.71-3.22-.8-3.2-.93-1.86-3.86,1.16-2.55,2.35-5.1,2.96-7.86,1.05-4.75-.43-8.76-3.63-12.23-1.15-1.25-2.53-2.31-3.58-3.64-1.95-2.49-4.32-3.49-7.68-2.34.66-2.95,2.28-5.12,3.51-7.4,3.21-5.95,6.91-11.59,11.06-16.95,1.21-1.57,1.85-1.19,2.94-.1,6.2,6.25,12.43,12.46,18.67,18.67,2.38,2.36,4.66,2.57,6.95.71,2.06-1.66,2.31-4.61.44-6.49-3.44-3.44-6.69-7.07-10.22-10.45-3.46-3.32-6.79-6.83-10.12-10.32-.4-.41-.88-.84-.33-1.45,3.58-3.89,6.96-8.05,12.32-9.67,4.12-1.25,7.63.34,10.96,2.54.39.26.63.81,1.25.62.45-.59-.02-1.07-.22-1.57-1.22-2.99-.96-5.93.24-8.86.29-.71.44-1.48.64-2.23.67-.22,1.33-.45,1.99-.66,8.94-2.84,18.14-4.7,27.46-5.05,12.69-.47,25.41-.19,38.12-.09,2.59.02,4.9,1.21,6.68,3.21-.7.6-.51,1.43-.52,2.18,0,8.5-.02,17,0,25.49,0,3.51,1.82,5.34,5.11,5.27,2.14-.05,4.21-1.97,4.23-4.19.05-9.14.02-18.27.03-27.4,0-.52-.09-.99-.51-1.34,2.01-2.21,4.6-3.27,7.51-3.27,9.69.01,19.36-.29,29.02,1.17,9.96,1.51,19.68,3.85,29.09,7.35,9.63,3.58,18.76,8.2,27.32,13.95,3.75,2.51,6.07,5.63,6.08,10.25-.86.08-1.36.71-1.9,1.26-7.68,7.67-15.37,15.33-23.02,23.03-3.56,3.58-1.49,7.1,1.59,8.26,1.6.6,3.11.19,4.28-.97,8.6-8.55,17.17-17.14,25.75-25.71.52-.52,1-1.02.84-1.83,3.64.44,6.81,1.76,9.27,4.6,1.44,1.66,2.95,3.25,4.44,4.86,5.9,6.35,10.88,13.4,15.32,20.8,6.33,10.54,11.1,21.81,14.37,33.65,3.37,12.2,5.02,24.64,4.81,37.32-.13,7.54-7.57,13.31-14.98,11.65-1.05-.24-2.04-.9-3.61-.67,5.31,4.94,7.99,10.79,7.29,17.77-.7,7.03-4.86,12.03-10.33,16.1-1.27-.97-2.59-.06-3.84.05h.02ZM1267.64,213.67c2.48.74,4.84,1.95,7.21,3.03.97.44,1.7.93.84,2.37-1.5,2.53-2.62,5.29-3.97,7.92-1.07,2.08-.97,4.46.35,5.91,1.42,1.56,3.4,1.94,5.44,1.14,1.39-.55,2.07-1.76,2.65-2.93,3.07-6.18,6.01-12.43,9.05-18.63,2.75-5.62,5.5-11.26,8.4-16.8.92-1.76,1.12-3.51.87-5.33-.21-1.55-1.3-2.55-2.88-2.71-2.08-.2-4.3-.32-5.42,1.94-2.82,5.67-5.54,11.38-8.27,17.09-.74,1.54-1.37,2.53-3.46,1.49-3.22-1.6-6.75-2.58-9.98-4.16-3.19-1.55-4.9-4.35-5.28-7.91-.38-3.61,1.16-6.93,1.57-10.42.23-2,.47-4.06-1.24-5.54-1.44-1.25-3.18-1.32-5-.71-1.27.43-2.15,1.28-2.42,2.47-.99,4.39-2.12,8.77-2.26,11.14-.15,10.81,5.81,18.24,13.79,20.62h0ZM1153.48,190.46c3.71,8.05,7.62,16,11.42,24.01,1.27,2.67,2.45,5.38,3.63,8.09,1.64,3.78,5.73,4.48,8.28,1.31,1.34-1.67.95-3.58.15-5.39-.59-1.34-1.22-2.68-1.92-3.97-.94-1.73-.06-2.71,1.41-3.27,2.97-1.12,6-2.08,8.98-3.16,5.52-2,9.12-5.85,11.29-11.28,2.13-5.35.76-10.56-.15-15.83-.1-.55-.21-1.11-.28-1.66-.36-2.7-2.69-4.73-5.07-4.4-2.97.41-4.75,2.8-4.24,5.78.41,2.43.6,4.94,1.34,7.26,1.42,4.43-1.81,10.44-7.34,11.91-3.28.87-6.41,2.11-9.47,3.49-1.18.53-1.59.03-1.97-.76-2.77-5.85-5.59-11.67-8.22-17.58-1.84-4.13-5.67-5.01-8.57-1.82-.77.85-.79,1.76-.76,2.88-.48,1.69.85,2.99,1.5,4.4ZM1340.97,245.25c-.95,1.58-.71,3.19.2,4.82,1.64,2.96,3.88,5.56,5.27,8.67,2.19,4.94,2.61,10.01,1.41,15.29-1.32,5.77-4.71,10.15-8.93,14.06-1.92,1.78-3.74,3.69-5.58,5.56-1.87,1.91-2.1,4.51-.6,6.31,1.83,2.2,3.93,2.54,6.33.76,3.49-2.58,6.35-5.86,9.3-9.01,3.39-3.61,6.17-7.68,7.71-12.5,2.72-8.51,2.35-16.79-1.54-24.9-1.4-2.94-3.35-5.53-4.91-8.36-1.09-1.97-2.68-2.94-4.37-2.95-1.84-.03-3.36.69-4.3,2.26h0ZM1306.38,311.54c-2.43-.22-3.87,1.22-4.65,3-.8,1.82-.17,3.78,1.39,5.21,1.37,1.26,3.18,1.04,4.81,1.16,2.4.18,4.82.07,7.24.04,10.45-.14,19.24,3.66,26.59,11.01,2,2,3.79,4.24,6.23,5.77,2.13,1.34,4.06.92,6-1.26,1.2-1.35,1.31-4.07-.07-5.47-4.71-4.78-9.19-9.84-15.17-13.19-8.15-4.56-16.81-6.85-25.28-6.23-2.96,0-5.03.15-7.07-.04h0ZM1231.21,210.42c-.02-2.3-1.34-4.27-3.22-4.76-2.01-.52-3.82-.11-5.13,1.63-.79,1.06-.99,2.33-1,3.6-.02,8.37-.04,16.74,0,25.1.02,2.89.9,4.04,3.2,4.9,2.08.78,3.74.23,5.13-1.37.89-1.02,1.04-2.28,1.03-3.58-.01-4.25,0-8.51,0-12.76s.02-8.51-.01-12.76h0ZM1307.96,241.23c-1.58-.69-3.21-.7-4.72.61-5.74,4.99-10.78,10.68-16.27,15.93-1.08,1.03-2.04,2.13-2.74,3.49-.96,1.87-.45,4.17,1.39,5.63,1.51,1.2,4.17,1.22,5.48-.07,6.2-6.15,12.35-12.35,18.55-18.49.89-.88.85-1.88.82-3.16.52-1.98-.82-3.2-2.51-3.93h0Z" style="fill:#f8b0b0;"/><path d="M1301.48,343.98c-.79,0-1.94-.4-2.22.65-.22.82.88,1.19,1.44,1.63,3.58,2.82,6.49,6.32,9.79,9.42.41.39.85.77.82,1.42-10.86.02-21.72.03-32.58.05-.92,0-1.84.04-2.77.07-3.12,0-6.23-.01-9.35-.02-4.4,0-8.79,0-13.19,0-12.45,0-24.9,0-37.34,0-12.97-.02-25.95-.04-38.92-.07-3.04,0-6.05-.17-9.08-.66-8.76-1.41-16.28-5.28-22.63-11.27-9.44-8.9-14.01-19.99-13.9-32.99,0-1.19.23-2.42-.61-3.47,1.74-.84,1.51-2.67,1.71-4.04.38-2.65,1.4-4.99,2.53-7.34.93-1.94.74-2.3-1.37-2.38-2.02-.09-3.8-1.05-5.71-1.54-1.04-.26-1.61-.04-2,.94-1.81,4.62-3.05,9.37-3.5,14.31-.57.44-1.24.33-1.85.26-4.69-.49-9.4-.37-14.09-1.44-9.57-2.2-17.69-6.84-24.48-13.7-7.06-7.14-11.73-15.73-13.66-25.69,6.06,1.2,12.12,2.39,18.18,3.6,4.34.87,8.72,1.56,13,2.71.69.18,1.71.48,2.15-.27.38-.65-.44-1.22-.79-1.81-1.55-2.58-3.16-5.13-4.03-8.05,2.01.36,4.04.66,6.03,1.11,3.39.77,4.33,2.1,4.22,5.52-.06,1.95-1.39,2.84-2.85,3.59-.87.44-1.34.97-.65,1.78,2.99,3.49,5.97,7.01,9.86,9.6.93.61,1.35.42,1.81-.45.88-1.68,1.77-3.38,2.72-5.02,3.74-6.49,8.22-12.37,14.11-17.08,5.53-4.42,5.98-10.71.63-15.41-2.45-2.15-4.65-4.58-6.95-6.9-1.98-2-2.17-4.9-.47-6.65,2.07-2.15,4.62-2.21,6.92-.07,1.72,1.6,3.35,3.27,4.98,4.96,2.53,2.64,5.29,5.02,6.92,8.5,3.13,6.7,1.69,14.86-3.12,19.89-3.03,3.17-6.6,5.77-9.33,9.27-3.18,4.08-6.01,8.33-8.18,13.02-.57,1.22.07,1.9,1.14,2.27.94.32,1.96,1.06,2.62-.52,1.44-3.41,3.58-6.43,5.94-9.23,4.14-4.91,9-8.96,14.71-11.97,3.77-1.98,7.68-3.57,11.85-4.45,1.16-.25,1.78-.83,1.27-1.89-1.48-3.07-2.1-6.43-3.36-9.58-1.05-2.62-1.87-5.33-2.72-8.02-.63-1.99.91-4.77,2.94-5.5,2.55-.92,5.23.39,6.23,3.23,2.19,6.26,4.35,12.54,6.35,18.87.43,1.36,1.09,1.59,2.27,1.59,7.6-.02,15.2-.03,22.8,0,1.49,0,2-.25,1.54-1.92-2.25-8.16-4.34-16.36-6.55-24.53-.77-2.86.43-5.33,3.2-6.2,2.41-.76,5.07.87,5.82,3.61.72,2.65,1.43,5.29,2.16,7.94,1.79,6.53,3.63,13.05,5.34,19.61.32,1.25.89,1.51,2.05,1.51,8.24-.04,16.48-.04,24.71,0,1.25,0,1.85-.3,2.18-1.63,1.74-6.9,3.59-13.77,5.43-20.64.64-2.39,1.29-4.78,2.09-7.12,1.13-3.26,4.4-4.42,7.19-2.56,2.15,1.43,1.96,3.69,1.49,5.76-.9,3.99-2.04,7.92-3.07,11.87-.98,3.75-1.86,7.53-2.94,11.26-.89,3.06-.99,3.03,2.19,3.03,6.11,0,12.21-.05,18.32.04,1.71.03,3.6-.1,5.01,1.21,1.53,1.42,2.15,3.26,1.25,5.2-.86,1.87-2.25,2.96-4.64,2.98-33.64.2-67.29-.55-100.93.33-4.72.12-9.12,1.42-13.24,3.31-7.16,3.26-12.77,8.52-17.04,15.16-1,1.57-.77,2.12.99,2.65.99.29,1.97.19,2.95.24,4.24.2,8.52-.49,12.72.45,1.85.41,3.02,1.6,3.19,3.66.29,3.51.55,7.03,1.28,10.49.09.43.21.91.7.93.61.02.52-.55.55-.94.09-1.15.81-1.91,1.54-2.71,1.98-2.15,4.26-3.96,6.63-5.62,1.26-.89,1.23-1.38.23-2.39-2.29-2.3-4.46-4.73-6.72-7.06-1.35-1.39-1.77-3.15-.96-4.69.87-1.64,2.22-3.03,4.58-2.82,1.87.17,3.18,1.15,4.4,2.32,2.71,2.61,5.36,5.28,7.98,7.98.97,1.01,1.89,1.31,3.37,1.07,3.06-.49,6.09-1.12,9.24-1.11,27.76.05,55.53.04,83.3.01,4.48,0,8.88-.86,13.1-2.26,8.05-2.68,14.97-7.22,20.87-13.35,4.43-4.6,9.01-9.06,13.55-13.57,1.57-1.55,4.76-1.54,6.33-.04,1.95,1.87,1.94,4.92-.09,6.98-3.24,3.28-6.54,6.51-9.78,9.8-5.18,5.25-10.43,10.34-16.93,14.07-8.39,4.81-17.3,7.68-26.94,7.72-27.91.13-55.81.03-83.72.07-3.46,0-6.88.61-10.17,1.78-4.56,1.62-8.38,4.34-11.75,7.8-2.52,2.58-4.21,2.57-6.96.21-.26-.22-.52-.43-.95-.77,0,.49-.06.77,0,1,1.72,5.4,4.55,10.16,8.32,14.36,4.44,4.94,9.56,8.97,15.78,11.5,4.4,1.8,8.91,3.24,13.69,3.25,32.52.06,65.05.03,97.57.02.57,0,1.21.21,1.84-.29-4.81-3.88-10.36-5.93-15.99-7.8-6.03-2.01-12.34-2.45-18.61-2.5-19.1-.15-38.21-.05-57.31-.06-3.89,0-6.2-3.55-4.41-6.88,1.15-2.14,3.29-2.53,5.51-2.48,22.4.46,44.83-.98,67.22.81,3.76.3,7.37,1.23,10.93,2.33,4.58,1.41,8.96,3.3,13.13,5.74,5.28,3.09,10.26,6.5,14.31,11.14-3.43,0-6.85-.02-10.28.02h0ZM1120.58,293.8c.86-.36,1.71-.91,1.87-1.86.17-1.03-.96-1.05-1.55-1.44-1.46-.95-3-1.78-4.46-2.73-1.42-.92-2.09-.32-2.36,1.08-.54,2.79,1.79,5.29,5.27,5.27.16-.04.72-.11,1.22-.32h0Z" style="fill:#f79595;"/><path d="M1083.74,261.62c-5.39-.96-10.73-2.17-16.09-3.27-.44-5.17.38-10.23,2.04-15.05,6.76-19.61,17.97-36.35,33.08-50.53,2.69-2.52,5.85-3.91,9.38-4.6.71-.14,1.6-.32,2.08.59-.66.35-1.79-.31-2.04.58-.21.76.84,1.16,1.3,1.75.04.06.1.1.15.15,2.59,2.59,3.24,2.43,4.74-1.17,1.23.17,1.91,1.38,3.04,1.71.44-.58.13-1.02-.03-1.47-1.78-5.14.31-11.5,5.02-14.3,6.82-4.05,14.06-7.21,21.72-9.37-.21.75-.35,1.52-.64,2.23-1.19,2.93-1.46,5.87-.24,8.86.2.5.67.97.22,1.57-.62.2-.86-.36-1.25-.62-3.34-2.2-6.84-3.79-10.96-2.54-5.35,1.62-8.73,5.78-12.32,9.67-.55.6-.06,1.03.33,1.45,3.32,3.49,6.66,7,10.12,10.32,3.52,3.38,6.78,7.01,10.22,10.45,1.88,1.88,1.62,4.82-.44,6.49-2.3,1.86-4.57,1.66-6.95-.71-6.24-6.21-12.47-12.43-18.67-18.67-1.09-1.1-1.73-1.47-2.94.1-4.14,5.36-7.84,11.01-11.06,16.95-1.23,2.28-2.85,4.45-3.51,7.4,3.35-1.16,5.72-.16,7.68,2.34,1.05,1.33,2.42,2.39,3.58,3.64,3.2,3.48,4.68,7.49,3.63,12.23-.61,2.76-1.8,5.31-2.96,7.86-1.34,2.94-1.36,3.06,1.86,3.86,1.09.27,2.19.58,3.31.71,2.39.27,3.58,1.9,4.34,3.88.67,1.72-.54,2.93-1.55,4.12-1.33,1.56-3.06,1.59-4.88,1.22-6.36-1.27-12.73-2.49-19.08-3.84-1.45-.31-1.55.1-1.37,1.36.35,2.4,1.59,4.53,1.98,6.91-4.38-.19-8.56-1.49-12.84-2.25h0ZM1100.23,246.8c.79.14,1.27-.12,1.59-.96,1.19-3.07,2.48-6.1,3.73-9.14.73-1.78.28-3.27-.96-4.66-2.01-2.25-4.59-3.99-6.08-6.75-.54-1-.85-.25-1.22.38-1.89,3.16-2.35,6.76-3.19,10.23-.76,3.15-.98,6.39-.93,9.64-2.54-.53-5.07-1.17-7.63-1.57-2.15-.33-4.54,1.78-4.93,4.12-.33,1.97,1.14,4.39,3.15,4.87,2.94.7,5.91,1.25,8.87,1.86.86.17,1.2.08,1.13-1.06-.17-2.74-.8-5.45-.58-8.22,2.35.42,4.7.84,7.05,1.25h0Z" style="fill:#f79595;"/><path d="M1266.6,357.19c-4.4,0-8.79,0-13.19,0-.14,1.57.18,3.09.39,4.64.78,5.93,2.83,11.35,6.24,16.28,1.97,2.86,4.31,5.34,7.03,7.49,6.39,5.31,13.74,7.99,22.03,8.37,10.91.49,21.53-.4,31.38-5.72,11.92-6.43,20.14-15.89,23.82-29.07.25-.88.35-1.81.52-2.71-.22-.41-.19-.76.25-1,.03-.32.05-.64.08-.95-4.07.51-7.96,1.97-12.08,2.22-.21.35-.52.42-.89.31-2.53,0-5.06.01-7.59.02-4.43.01-8.86.03-13.28.04-10.86.02-21.72.03-32.58.05-.92,0-1.84.04-2.77.07.12,7.09,4.33,12.59,11.27,13.97,5.15,1.02,10.41.72,15.61-.16,1.66-.28,3.25-1.11,4.95-.88,2.22.3,3.88,1.99,3.98,3.77.15,2.87-.93,4.42-3.51,5.25-2.91.93-5.87,1.35-8.91,1.57-5.94.45-11.81.64-17.52-1.5-8.73-3.27-15.46-12.18-15.21-22.05h0Z" style="fill:#e94645;"/><path d="M1267.06,385.59c-2.71-2.15-5.06-4.63-7.03-7.49-3.4-4.93-5.46-10.35-6.24-16.28-.2-1.54-.53-3.07-.39-4.64-12.45,0-24.89,0-37.34.01,1.32,3.85,3.62,7.21,5.54,10.76,7.41,13.72,14.93,27.39,22.42,41.07,1.91,3.48,3.79,6.98,5.8,10.4,3.2,5.46,9.86,7.66,15.7,5.29,5.68-2.3,8.92-8.79,7.32-14.87-1.95-7.4-3.98-14.77-5.97-22.16-.19-.71-.74-1.48.19-2.1Z" style="fill:#f27c7d;"/><path d="M1324.58,357.05c2.53,0,5.06-.01,7.59-.02.16-.49.35-.92.89-.31,4.11-.25,8.01-1.71,12.08-2.22,2.98-1.39,6.01-2.68,8.92-4.19,3.53-1.82,6.98-3.82,9.81-6.69-1.27-.97-2.59-.06-3.84.05-1.33.12-2.67.28-4.01.28-14.49.03-28.97.04-43.46.06.1.87.79,1.31,1.33,1.86,3,3.02,6.02,6.01,9.01,9.03.64.64,1.48,1.14,1.66,2.14h0Z" style="fill:#f79595;"/><path d="M1329.74,193.51c-.86.08-1.36.71-1.9,1.26-7.68,7.67-15.37,15.33-23.02,23.03-3.56,3.58-1.49,7.1,1.59,8.26,1.6.6,3.11.19,4.28-.97,8.6-8.55,17.17-17.14,25.75-25.71.52-.52,1-1.02.85-1.83-2.4-.28-4.49.71-6.59,1.63-.63.28-1.14.84-1.9.78-.05.04-.1.08-.15.12.06-.03.12-.06.18-.09.83-2.08,1.11-4.25.92-6.47h0Z" style="fill:#f79595;"/><path d="M1096.58,263.87c-4.38-.19-8.56-1.49-12.84-2.25-5.39-.96-10.73-2.17-16.09-3.27-.12,1.98-.16,3.96.08,5.93.55.15.92.36.28.88.13.99.03,2.03.5,2.96,6.06,1.2,12.12,2.39,18.17,3.6,4.34.87,8.72,1.56,13,2.71.69.18,1.71.48,2.15-.27.38-.65-.44-1.22-.79-1.81-1.55-2.58-3.16-5.13-4.03-8.05-.14-.14-.29-.28-.43-.43h0Z" style="fill:#f27c7d;"/><path d="M1222.38,164.04c-.7.6-.51,1.43-.52,2.18,0,8.5-.02,17,0,25.49,0,3.51,1.82,5.34,5.11,5.27,2.14-.05,4.21-1.97,4.22-4.19.05-9.14.02-18.27.03-27.4,0-.52-.09-.99-.51-1.34-2.3,1.16-2.67,3.78-4.14,5.71-1.48-2-1.9-4.56-4.19-5.73h0Z" style="fill:#f79595;"/><path d="M1130.93,308.74c1.74-.84,1.52-2.68,1.71-4.05.38-2.65,1.4-4.99,2.53-7.34.93-1.94.74-2.3-1.37-2.38-2.02-.09-3.8-1.05-5.71-1.54-1.04-.26-1.61-.04-2,.94-1.81,4.62-3.05,9.37-3.5,14.31,2.78.02,5.56.03,8.35.06h0Z" style="fill:#f27c7d;"/><path d="M1114.21,188.76c-.66.35-1.79-.31-2.04.58-.21.76.85,1.16,1.3,1.75.04.06.1.1.15.15,2.59,2.59,3.24,2.43,4.74-1.17-1.17-1.14-2.65-1.26-4.16-1.31h0Z" style="fill:#f27c7d;"/><path d="M1068,265.16c.64-.53.27-.73-.28-.88-.11.36-.06.67.28.88Z" style="fill:#f79595;"/><path d="M1345.06,355.46c-.44.24-.47.59-.25,1,.43-.25.71-.53.25-1Z" style="fill:#f79595;"/><path d="M1253.84,193.05c-.15,10.81,5.81,18.24,13.79,20.62,2.48.74,4.84,1.95,7.21,3.03.97.44,1.7.93.84,2.37-1.5,2.53-2.62,5.29-3.97,7.92-1.07,2.08-.97,4.46.35,5.91,1.42,1.56,3.4,1.94,5.44,1.14,1.39-.55,2.07-1.76,2.65-2.93,3.07-6.18,6.01-12.43,9.05-18.63,2.75-5.62,5.5-11.26,8.4-16.8.92-1.76,1.12-3.51.87-5.33-.21-1.55-1.3-2.55-2.88-2.71-2.08-.2-4.3-.32-5.42,1.94-2.82,5.67-5.54,11.38-8.27,17.09-.74,1.54-1.37,2.53-3.46,1.49-3.22-1.6-6.75-2.58-9.98-4.16-3.19-1.55-4.9-4.35-5.28-7.91-.38-3.61,1.16-6.93,1.57-10.42.24-2,.47-4.06-1.24-5.54-1.44-1.25-3.18-1.32-5-.71-1.27.43-2.15,1.28-2.42,2.47-.99,4.39-2.12,8.77-2.26,11.14h0Z" style="fill:#f79595;"/><path d="M1151.98,186.07c-.48,1.69.85,2.99,1.5,4.4,3.71,8.05,7.62,16,11.42,24.01,1.27,2.67,2.45,5.38,3.63,8.09,1.64,3.78,5.73,4.48,8.28,1.31,1.34-1.67.95-3.58.15-5.39-.59-1.34-1.22-2.68-1.92-3.97-.94-1.73-.06-2.71,1.41-3.27,2.97-1.12,6-2.08,8.98-3.16,5.52-2,9.12-5.85,11.29-11.28,2.13-5.35.76-10.56-.15-15.83-.1-.55-.21-1.11-.28-1.66-.36-2.7-2.69-4.73-5.07-4.4-2.97.41-4.75,2.8-4.24,5.78.41,2.43.6,4.94,1.34,7.26,1.42,4.43-1.81,10.44-7.34,11.91-3.28.87-6.4,2.11-9.47,3.49-1.18.53-1.59.03-1.97-.76-2.77-5.85-5.59-11.67-8.22-17.58-1.84-4.13-5.67-5.01-8.57-1.82-.77.85-.79,1.76-.76,2.88Z" style="fill:#f79595;"/><path d="M1345.27,242.99c-1.84-.03-3.36.7-4.3,2.26-.95,1.58-.71,3.19.2,4.82,1.64,2.96,3.88,5.56,5.27,8.67,2.19,4.94,2.61,10.01,1.41,15.29-1.32,5.77-4.71,10.15-8.93,14.06-1.92,1.78-3.74,3.69-5.58,5.56-1.87,1.91-2.1,4.51-.6,6.31,1.83,2.2,3.93,2.54,6.33.76,3.5-2.58,6.35-5.86,9.3-9.01,3.39-3.61,6.17-7.68,7.71-12.5,2.72-8.51,2.35-16.79-1.54-24.9-1.4-2.94-3.35-5.53-4.91-8.36-1.09-1.97-2.68-2.94-4.37-2.96h0Z" style="fill:#f79595;"/><path d="M1313.45,311.58c-2.96,0-5.03.15-7.07-.04-2.43-.22-3.87,1.22-4.65,3-.8,1.82-.17,3.78,1.39,5.21,1.37,1.26,3.18,1.04,4.81,1.16,2.4.18,4.82.07,7.24.04,10.45-.14,19.24,3.66,26.59,11.01,2,2,3.79,4.24,6.23,5.77,2.13,1.34,4.06.92,6-1.26,1.2-1.35,1.31-4.07-.07-5.47-4.71-4.78-9.19-9.84-15.17-13.19-8.15-4.56-16.81-6.85-25.28-6.23h0Z" style="fill:#f79595;"/><path d="M1231.23,223.18c0-4.25.03-8.51-.01-12.76-.02-2.3-1.34-4.27-3.22-4.76-2.01-.52-3.82-.11-5.12,1.63-.79,1.06-1,2.33-1,3.6-.02,8.37-.04,16.74,0,25.1.02,2.89.9,4.04,3.2,4.9,2.08.78,3.74.23,5.13-1.37.89-1.02,1.04-2.28,1.03-3.58-.01-4.25,0-8.51,0-12.76h0Z" style="fill:#f79595;"/><path d="M1310.48,245.17c.52-1.98-.82-3.2-2.51-3.93-1.58-.69-3.21-.7-4.72.61-5.74,4.99-10.78,10.68-16.27,15.93-1.08,1.03-2.04,2.13-2.74,3.49-.96,1.87-.45,4.17,1.39,5.63,1.51,1.2,4.17,1.22,5.48-.07,6.2-6.15,12.35-12.35,18.55-18.49.89-.88.85-1.88.82-3.16h0Z" style="fill:#f79595;"/><path d="M1324.58,357.05c-.18-1-1.03-1.5-1.66-2.14-2.99-3.02-6.01-6.02-9.01-9.03-.54-.54-1.23-.99-1.33-1.86-.27-.02-.54-.04-.82-.06-3.43,0-6.85-.02-10.28.02-.79,0-1.94-.4-2.22.65-.22.82.88,1.19,1.44,1.63,3.58,2.82,6.49,6.32,9.79,9.42.41.39.85.77.82,1.42,4.43-.01,8.86-.03,13.28-.04Z" style="fill:#f27c7d;"/><path d="M1266.6,357.19c-.25,9.87,6.48,18.78,15.21,22.05,5.71,2.14,11.58,1.94,17.52,1.5,3.05-.23,6.01-.64,8.91-1.57,2.59-.83,3.67-2.38,3.51-5.25-.09-1.77-1.76-3.47-3.98-3.77-1.7-.23-3.29.61-4.95.88-5.2.88-10.46,1.19-15.61.16-6.93-1.38-11.15-6.89-11.27-13.97-3.12,0-6.23-.01-9.35-.02h0Z" style="fill:#d83231;"/><path d="M1119.36,294.12c.16-.04.72-.11,1.22-.32.86-.36,1.71-.91,1.87-1.86.17-1.03-.96-1.05-1.55-1.44-1.46-.95-3-1.78-4.46-2.73-1.42-.92-2.09-.32-2.36,1.08-.54,2.79,1.79,5.29,5.27,5.27h0Z" style="fill:#f27c7d;"/><path d="M1093.18,245.54c2.35.42,4.7.84,7.05,1.25.79.14,1.27-.12,1.59-.96,1.19-3.07,2.48-6.1,3.73-9.14.73-1.78.28-3.27-.96-4.66-2.01-2.25-4.59-3.99-6.08-6.75-.54-1-.85-.25-1.22.38-1.89,3.16-2.35,6.76-3.19,10.23-.76,3.15-.98,6.39-.93,9.64h0Z" style="fill:#f8b0b0;"/><path d="M1093.17,245.55c-2.54-.53-5.07-1.17-7.63-1.57-2.15-.33-4.54,1.78-4.93,4.12-.33,1.97,1.14,4.39,3.15,4.87,2.94.7,5.91,1.25,8.87,1.86.86.18,1.2.08,1.13-1.06-.17-2.74-.8-5.45-.58-8.22h0Z" style="fill:#f27c7d;"/><path d="M1333.06,356.73c-.55-.61-.73-.18-.89.31.37.11.68.05.89-.31Z" style="fill:#f27c7d;"/><path d="M1328.82,199.98c-.06.03-.12.06-.18.09.05-.04.1-.08.15-.12l.03.03h0Z" style="fill:#f6f6f6;"/><path d="M76.02,63.51v-24.5c0-.9,0-1.83.03-2.78.02-.96.05-1.94.09-2.96-1.33,1.21-2.81,2.27-4.45,3.16-1.64.9-3.32,1.52-5.04,1.88l-1.05-6.8c.9-.08,1.9-.34,3.02-.79,1.11-.45,2.25-1,3.4-1.64,1.15-.64,2.21-1.33,3.16-2.05.96-.72,1.69-1.45,2.2-2.2h6.56v38.68h-7.91Z"/><path d="M100.4,63.51v-24.5c0-.9,0-1.83.03-2.78.02-.96.05-1.94.09-2.96-1.33,1.21-2.81,2.27-4.45,3.16-1.64.9-3.32,1.52-5.04,1.88l-1.05-6.8c.9-.08,1.9-.34,3.02-.79,1.11-.45,2.25-1,3.4-1.64,1.15-.64,2.21-1.33,3.16-2.05.96-.72,1.69-1.45,2.2-2.2h6.56v38.68h-7.91Z"/><path d="M135.39,63.51v-29.3h7.21l.29,5.27c.98-1.95,2.31-3.42,4.01-4.4,1.7-.98,3.58-1.47,5.66-1.47s4.01.49,5.71,1.47c1.7.98,2.98,2.42,3.84,4.34.62-1.29,1.47-2.36,2.52-3.22,1.06-.86,2.23-1.5,3.52-1.93,1.29-.43,2.6-.64,3.93-.64,1.91,0,3.66.39,5.24,1.17,1.58.78,2.84,1.95,3.78,3.52.94,1.56,1.41,3.56,1.41,5.98v19.22h-8.03v-17.64c0-2.15-.47-3.67-1.41-4.57-.94-.9-2.15-1.35-3.63-1.35-1.17,0-2.26.29-3.25.88-1,.59-1.78,1.46-2.34,2.61-.57,1.15-.85,2.59-.85,4.31v15.77h-8.03v-17.64c0-2.15-.48-3.67-1.44-4.57-.96-.9-2.18-1.35-3.66-1.35-1.02,0-2.02.27-3.02.82-1,.55-1.82,1.41-2.46,2.58-.64,1.17-.97,2.72-.97,4.63v15.53h-8.03Z"/><path d="M194.82,29.99c-1.68,0-2.93-.36-3.75-1.08-.82-.72-1.23-1.79-1.23-3.19s.41-2.53,1.23-3.25c.82-.72,2.07-1.08,3.75-1.08s2.93.36,3.75,1.08c.82.72,1.23,1.81,1.23,3.25s-.41,2.47-1.23,3.19c-.82.72-2.07,1.08-3.75,1.08ZM198.8,34.21v29.3h-8.03v-29.3h8.03Z"/><path d="M215.21,21.38v33.11c0,1.37.23,2.33.7,2.87.47.55,1.25.82,2.34.82.66,0,1.21-.05,1.64-.15.43-.1.98-.24,1.64-.44l-.7,5.27c-.66.39-1.49.69-2.49.91-1,.21-1.98.32-2.96.32-2.85,0-4.93-.69-6.24-2.08-1.31-1.39-1.96-3.6-1.96-6.65V21.38h8.03Z"/><path d="M233.91,21.38v33.11c0,1.37.23,2.33.7,2.87.47.55,1.25.82,2.34.82.66,0,1.21-.05,1.64-.15.43-.1.98-.24,1.64-.44l-.7,5.27c-.66.39-1.49.69-2.49.91-1,.21-1.98.32-2.96.32-2.85,0-4.93-.69-6.24-2.08-1.31-1.39-1.96-3.6-1.96-6.65V21.38h8.03Z"/><path d="M258.06,33.62c2.97,0,5.58.61,7.82,1.82,2.25,1.21,4,2.95,5.27,5.22,1.27,2.27,1.9,5,1.9,8.2s-.64,5.89-1.9,8.18c-1.27,2.29-3.03,4.03-5.27,5.25-2.25,1.21-4.85,1.82-7.82,1.82s-5.53-.61-7.79-1.82c-2.27-1.21-4.03-2.96-5.3-5.25-1.27-2.29-1.9-5.01-1.9-8.18s.63-5.94,1.9-8.2c1.27-2.27,3.04-4.01,5.3-5.22s4.87-1.82,7.79-1.82ZM258.06,39.6c-1.49,0-2.75.34-3.78,1.03-1.04.68-1.83,1.71-2.37,3.08-.55,1.37-.82,3.09-.82,5.16s.27,3.79.82,5.16c.55,1.37,1.34,2.39,2.37,3.08,1.03.68,2.29,1.03,3.78,1.03s2.69-.34,3.72-1.03c1.03-.68,1.83-1.71,2.37-3.08s.82-3.09.82-5.16-.27-3.79-.82-5.16c-.55-1.37-1.34-2.39-2.37-3.08-1.04-.68-2.28-1.03-3.72-1.03Z"/><path d="M279.8,63.51v-29.3h7.21l.47,8.79-1-.94c.47-1.91,1.21-3.49,2.23-4.72,1.02-1.23,2.26-2.16,3.72-2.78,1.47-.62,3.08-.94,4.84-.94,2.03,0,3.84.39,5.42,1.17,1.58.78,2.83,1.96,3.75,3.55.92,1.58,1.38,3.57,1.38,5.95v19.22h-8.03v-16.94c0-2.5-.49-4.23-1.47-5.19-.98-.96-2.25-1.44-3.81-1.44-1.09,0-2.16.26-3.19.79-1.04.53-1.88,1.38-2.52,2.55-.64,1.17-.97,2.74-.97,4.69v15.53h-8.03Z"/><path d="M329.67,64.1c-3.09,0-5.77-.61-8.06-1.82-2.29-1.21-4.05-2.95-5.3-5.22-1.25-2.27-1.88-5-1.88-8.21s.62-5.94,1.88-8.2c1.25-2.27,3-4.01,5.25-5.22,2.25-1.21,4.82-1.82,7.71-1.82s5.49.6,7.56,1.79c2.07,1.19,3.65,2.81,4.75,4.86,1.09,2.05,1.64,4.39,1.64,7,0,.78-.02,1.52-.06,2.23-.04.7-.1,1.33-.18,1.88h-23.38v-5.57h19.87l-3.87,1.41c0-2.46-.56-4.36-1.67-5.69-1.11-1.33-2.69-1.99-4.72-1.99-1.49,0-2.76.35-3.84,1.06-1.07.7-1.89,1.75-2.43,3.14-.55,1.39-.82,3.14-.82,5.24s.3,3.78.91,5.13c.61,1.35,1.47,2.35,2.58,3.02,1.11.67,2.45,1,4.01,1,1.72,0,3.11-.33,4.16-1,1.05-.66,1.88-1.58,2.46-2.75l6.39,2.46c-.63,1.52-1.57,2.83-2.84,3.93-1.27,1.09-2.77,1.93-4.51,2.49-1.74.57-3.6.85-5.6.85Z"/><path d="M361.73,64.1c-2.97,0-5.68-.53-8.12-1.58-2.44-1.05-4.43-2.54-5.95-4.45l4.63-4.69c.94,1.41,2.19,2.56,3.75,3.46,1.56.9,3.42,1.35,5.57,1.35,1.52,0,2.74-.22,3.66-.67.92-.45,1.38-1.16,1.38-2.14,0-.62-.21-1.16-.64-1.61-.43-.45-1.29-.81-2.58-1.08l-5.16-1.06c-3.4-.7-5.81-1.77-7.24-3.19-1.43-1.43-2.14-3.27-2.14-5.54,0-1.6.48-3.11,1.44-4.51.96-1.41,2.39-2.55,4.31-3.43,1.91-.88,4.3-1.32,7.15-1.32s5.48.46,7.65,1.38c2.17.92,3.88,2.28,5.13,4.07l-4.81,4.69c-.86-1.37-1.98-2.41-3.37-3.14-1.39-.72-2.84-1.08-4.37-1.08-1.09,0-2.03.12-2.81.35-.78.23-1.37.56-1.76.97-.39.41-.59.93-.59,1.55s.27,1.16.82,1.61c.55.45,1.54.83,2.99,1.14l5.98,1.23c2.89.59,4.96,1.57,6.21,2.96,1.25,1.39,1.88,3.06,1.88,5.01s-.5,3.55-1.49,5.01c-1,1.47-2.46,2.62-4.4,3.46-1.93.84-4.31,1.26-7.12,1.26Z"/><path d="M91.41,118.42c-2.42,0-4.58-.61-6.48-1.82-1.9-1.21-3.38-2.95-4.45-5.22-1.08-2.27-1.61-4.98-1.61-8.15s.57-6.01,1.7-8.29,2.67-4.02,4.6-5.22c1.93-1.19,4.11-1.79,6.53-1.79,2.58,0,4.71.74,6.39,2.23,1.68,1.49,2.77,3.4,3.28,5.74l-.76.94v-21.16h8.03v42.14h-7.21l-.53-8.91.94.47c-.23,1.84-.84,3.43-1.82,4.78-.98,1.35-2.21,2.39-3.69,3.14-1.49.74-3.13,1.11-4.92,1.11ZM93.75,112.27c1.41,0,2.62-.36,3.63-1.08,1.02-.72,1.81-1.79,2.37-3.19.57-1.41.85-3.09.85-5.04s-.27-3.47-.82-4.78c-.55-1.31-1.33-2.32-2.34-3.02-1.02-.7-2.21-1.06-3.58-1.06-2.19,0-3.9.77-5.13,2.32-1.23,1.54-1.85,3.8-1.85,6.77s.61,5.23,1.82,6.77c1.21,1.54,2.89,2.32,5.04,2.32Z"/><path d="M130.67,118.42c-3.09,0-5.77-.61-8.06-1.82-2.29-1.21-4.05-2.95-5.3-5.22-1.25-2.27-1.88-5-1.88-8.21s.62-5.94,1.88-8.2c1.25-2.27,3-4.01,5.25-5.22,2.25-1.21,4.82-1.82,7.71-1.82s5.49.6,7.56,1.79c2.07,1.19,3.65,2.81,4.75,4.86,1.09,2.05,1.64,4.39,1.64,7,0,.78-.02,1.52-.06,2.23-.04.7-.1,1.33-.18,1.88h-23.38v-5.57h19.87l-3.87,1.41c0-2.46-.56-4.36-1.67-5.69-1.11-1.33-2.69-1.99-4.72-1.99-1.49,0-2.76.35-3.84,1.06-1.07.7-1.89,1.75-2.43,3.14-.55,1.39-.82,3.14-.82,5.24s.3,3.78.91,5.13c.61,1.35,1.47,2.35,2.58,3.02,1.11.67,2.45,1,4.01,1,1.72,0,3.11-.33,4.16-1,1.05-.66,1.88-1.58,2.46-2.75l6.39,2.46c-.63,1.52-1.57,2.83-2.84,3.93-1.27,1.09-2.77,1.93-4.51,2.49-1.74.57-3.6.85-5.6.85Z"/><path d="M168.94,130.14v-41.61h7.21l.53,9.32-1-1.05c.35-1.72,1.01-3.24,1.96-4.57.96-1.33,2.18-2.37,3.66-3.14,1.48-.76,3.14-1.14,4.98-1.14,2.38,0,4.51.61,6.39,1.82,1.88,1.21,3.35,2.94,4.42,5.19,1.07,2.25,1.61,4.97,1.61,8.18s-.55,5.95-1.64,8.23c-1.09,2.29-2.59,4.03-4.48,5.24-1.9,1.21-4.05,1.82-6.48,1.82-2.58,0-4.72-.72-6.42-2.17s-2.86-3.26-3.49-5.45l.76-1.23v20.57h-8.03ZM183.77,112.27c2.15,0,3.84-.77,5.07-2.32,1.23-1.54,1.85-3.8,1.85-6.77s-.6-5.22-1.79-6.77c-1.19-1.54-2.86-2.32-5.01-2.32-1.37,0-2.57.36-3.6,1.08-1.04.72-1.85,1.76-2.43,3.11-.59,1.35-.88,2.98-.88,4.89s.27,3.45.82,4.84c.55,1.39,1.34,2.44,2.37,3.16,1.03.72,2.24,1.08,3.6,1.08Z"/><path d="M209.74,84.31c-1.68,0-2.93-.36-3.75-1.08-.82-.72-1.23-1.79-1.23-3.19s.41-2.53,1.23-3.25c.82-.72,2.07-1.08,3.75-1.08s2.93.36,3.75,1.08c.82.72,1.23,1.81,1.23,3.25s-.41,2.47-1.23,3.19c-.82.72-2.07,1.08-3.75,1.08ZM213.72,88.53v29.3h-8.03v-29.3h8.03Z"/><path d="M235.82,118.42c-3.09,0-5.77-.61-8.06-1.82-2.29-1.21-4.05-2.95-5.3-5.22-1.25-2.27-1.88-5-1.88-8.21s.62-5.94,1.88-8.2c1.25-2.27,3-4.01,5.25-5.22,2.25-1.21,4.82-1.82,7.71-1.82s5.49.6,7.56,1.79c2.07,1.19,3.65,2.81,4.75,4.86,1.09,2.05,1.64,4.39,1.64,7,0,.78-.02,1.52-.06,2.23-.04.7-.1,1.33-.18,1.88h-23.38v-5.57h19.87l-3.87,1.41c0-2.46-.56-4.36-1.67-5.69-1.11-1.33-2.69-1.99-4.72-1.99-1.49,0-2.76.35-3.84,1.06-1.07.7-1.89,1.75-2.43,3.14-.55,1.39-.82,3.14-.82,5.24s.3,3.78.91,5.13c.61,1.35,1.47,2.35,2.58,3.02,1.11.67,2.45,1,4.01,1,1.72,0,3.11-.33,4.16-1,1.05-.66,1.88-1.58,2.46-2.75l6.39,2.46c-.63,1.52-1.57,2.83-2.84,3.93-1.27,1.09-2.77,1.93-4.51,2.49-1.74.57-3.6.85-5.6.85Z"/><path d="M254.45,117.84v-5.16l13.01-15,3.34-3.34-4.86.12h-11.37v-5.92h25.14v5.16l-12.95,14.94-3.34,3.4,5.33-.12h11.43v5.92h-25.73Z"/><path d="M303.51,99.14c0-1.68-.48-2.99-1.44-3.93-.96-.94-2.22-1.41-3.78-1.41-1.45,0-2.72.37-3.81,1.11-1.09.74-1.9,1.97-2.4,3.69l-6.86-2.11c.66-2.58,2.12-4.65,4.37-6.21,2.25-1.56,5.26-2.34,9.05-2.34,2.58,0,4.83.4,6.74,1.2,1.91.8,3.41,2,4.48,3.6,1.07,1.6,1.61,3.61,1.61,6.04v11.9c0,1.49.7,2.23,2.11,2.23.66,0,1.29-.1,1.88-.29l-.47,4.98c-1.02.51-2.29.76-3.81.76-1.37,0-2.6-.23-3.69-.7-1.09-.47-1.95-1.18-2.58-2.14-.63-.96-.94-2.16-.94-3.6v-.23l1.41-.23c-.23,1.49-.88,2.75-1.93,3.78-1.05,1.04-2.33,1.83-3.84,2.37-1.5.55-3.06.82-4.66.82-1.99,0-3.71-.3-5.16-.91-1.45-.61-2.56-1.49-3.34-2.67-.78-1.17-1.17-2.62-1.17-4.34,0-2.19.7-3.98,2.11-5.36,1.41-1.39,3.42-2.33,6.04-2.84l11.02-2.23-.06,4.98-7.03,1.41c-1.33.27-2.33.64-3.02,1.08-.68.45-1.03,1.18-1.03,2.2s.36,1.72,1.08,2.23c.72.51,1.59.76,2.61.76.82,0,1.62-.1,2.4-.29.78-.2,1.48-.51,2.11-.94.62-.43,1.11-1.02,1.46-1.76.35-.74.53-1.64.53-2.7v-7.91Z"/><path d="M332.17,118.42c-2.97,0-5.68-.53-8.12-1.58-2.44-1.05-4.43-2.54-5.95-4.45l4.63-4.69c.94,1.41,2.19,2.56,3.75,3.46,1.56.9,3.42,1.35,5.57,1.35,1.52,0,2.74-.22,3.66-.67.92-.45,1.38-1.16,1.38-2.14,0-.62-.21-1.16-.64-1.61-.43-.45-1.29-.81-2.58-1.08l-5.16-1.06c-3.4-.7-5.81-1.77-7.24-3.19-1.43-1.43-2.14-3.27-2.14-5.54,0-1.6.48-3.11,1.44-4.51.96-1.41,2.39-2.55,4.31-3.43,1.91-.88,4.3-1.32,7.15-1.32s5.48.46,7.65,1.38c2.17.92,3.88,2.28,5.13,4.07l-4.81,4.69c-.86-1.37-1.98-2.41-3.37-3.14-1.39-.72-2.84-1.08-4.37-1.08-1.09,0-2.03.12-2.81.35-.78.23-1.37.56-1.76.97-.39.41-.59.93-.59,1.55s.27,1.16.82,1.61c.55.45,1.54.83,2.99,1.14l5.98,1.23c2.89.59,4.96,1.57,6.21,2.96,1.25,1.39,1.88,3.06,1.88,5.01s-.5,3.55-1.49,5.01c-1,1.47-2.46,2.62-4.4,3.46-1.93.84-4.31,1.26-7.12,1.26Z"/><path d="M75.9,169.38c-1.76,0-3.38-.44-4.86-1.32-1.48-.88-2.66-2.15-3.54-3.81s-1.32-3.64-1.32-5.94.47-4.36,1.41-6.01c.94-1.65,2.17-2.9,3.71-3.77,1.53-.87,3.18-1.3,4.94-1.3s3.29.45,4.58,1.36c1.29.91,2.15,2.12,2.58,3.62l-.43.3v-14.65h3.41v31.1h-2.98l-.3-5.15.47-.26c-.2,1.25-.67,2.31-1.43,3.17-.75.87-1.68,1.53-2.77,1.98-1.09.45-2.25.68-3.47.68ZM76.24,166.4c1.36,0,2.55-.34,3.56-1.02,1.01-.68,1.79-1.65,2.34-2.92.55-1.26.83-2.75.83-4.45s-.28-3.01-.83-4.17c-.55-1.16-1.32-2.06-2.3-2.68-.98-.62-2.12-.94-3.43-.94-2.16,0-3.83.74-5.03,2.22s-1.79,3.44-1.79,5.88.58,4.4,1.75,5.88c1.16,1.48,2.8,2.22,4.9,2.22Z"/><path d="M103.21,169.38c-2.02,0-3.81-.44-5.39-1.32-1.58-.88-2.8-2.15-3.68-3.81s-1.32-3.64-1.32-5.94.44-4.28,1.32-5.94,2.09-2.93,3.62-3.81c1.53-.88,3.28-1.32,5.24-1.32s3.68.43,5.09,1.28c1.41.85,2.48,2.01,3.22,3.47.74,1.46,1.11,3.1,1.11,4.92,0,.48-.01.92-.04,1.32s-.07.75-.13,1.06h-17.21v-3.02h15.72l-1.75.34c0-2.04-.56-3.62-1.68-4.73s-2.59-1.66-4.41-1.66c-1.39,0-2.59.32-3.6.96-1.01.64-1.79,1.56-2.34,2.77-.55,1.21-.83,2.66-.83,4.37s.28,3.13.85,4.35c.57,1.22,1.37,2.15,2.41,2.79,1.04.64,2.28.96,3.73.96,1.56,0,2.83-.3,3.81-.89s1.77-1.41,2.36-2.43l2.68,1.58c-.54.97-1.23,1.8-2.07,2.51-.84.71-1.82,1.26-2.94,1.64-1.12.38-2.38.58-3.77.58Z"/><path d="M135.11,143.57c-.77,0-1.38-.23-1.85-.7s-.7-1.09-.7-1.85.23-1.38.7-1.85c.47-.47,1.09-.7,1.85-.7s1.38.23,1.85.7.7,1.09.7,1.85-.23,1.38-.7,1.85c-.47.47-1.09.7-1.85.7ZM136.82,147.65v21.3h-3.41v-21.3h3.41Z"/><path d="M144.74,168.95v-21.3h2.98l.3,4.77-.55-.47c.45-1.13,1.07-2.05,1.83-2.75.77-.7,1.65-1.2,2.66-1.51,1.01-.31,2.05-.47,3.13-.47,1.53,0,2.93.29,4.17.87,1.25.58,2.25,1.47,3,2.66.75,1.19,1.13,2.71,1.13,4.56v13.63h-3.41v-12.44c0-2.36-.5-4-1.51-4.92-1.01-.92-2.25-1.38-3.73-1.38-1.02,0-2.04.24-3.07.72-1.02.48-1.87,1.26-2.53,2.34-.67,1.08-1,2.53-1,4.35v11.33h-3.41Z"/><path d="M182.99,147.65v2.94h-14.78v-2.94h14.78ZM179.46,137.64c.74,0,1.43.09,2.09.26.65.17,1.16.41,1.53.72l-.9,2.77c-.34-.23-.71-.39-1.11-.49-.4-.1-.84-.15-1.32-.15-1.22,0-2.17.29-2.85.87-.68.58-1.02,1.51-1.02,2.79v24.54h-3.41v-24.88c0-.94.14-1.8.43-2.6.28-.79.72-1.48,1.3-2.04.58-.57,1.31-1.01,2.19-1.32.88-.31,1.9-.47,3.07-.47Z"/><path d="M195.77,147.23c2.02,0,3.8.44,5.35,1.32,1.55.88,2.76,2.15,3.64,3.81s1.32,3.64,1.32,5.94-.44,4.28-1.32,5.94-2.09,2.93-3.64,3.81c-1.55.88-3.33,1.32-5.35,1.32s-3.76-.44-5.32-1.32c-1.56-.88-2.78-2.15-3.66-3.81s-1.32-3.64-1.32-5.94.44-4.28,1.32-5.94,2.1-2.93,3.66-3.81c1.56-.88,3.34-1.32,5.32-1.32ZM195.77,150.17c-1.45,0-2.68.33-3.71.98s-1.81,1.58-2.36,2.79c-.55,1.21-.83,2.66-.83,4.37s.28,3.13.83,4.35c.55,1.22,1.34,2.16,2.36,2.81,1.02.65,2.26.98,3.71.98s2.68-.33,3.71-.98c1.02-.65,1.81-1.59,2.36-2.81.55-1.22.83-2.67.83-4.35s-.28-3.16-.83-4.37c-.55-1.21-1.34-2.14-2.36-2.79s-2.26-.98-3.71-.98Z"/><path d="M212.52,168.95v-21.3h2.77l.47,3.49c.6-1.31,1.47-2.29,2.62-2.94,1.15-.65,2.55-.98,4.2-.98.37,0,.77.03,1.21.09.44.06.82.17,1.13.34l-.6,3.11c-.31-.11-.65-.2-1.02-.26-.37-.06-.89-.09-1.58-.09-.88,0-1.77.26-2.66.77-.9.51-1.64,1.29-2.24,2.32-.6,1.04-.9,2.35-.9,3.94v11.5h-3.41Z"/><path d="M229.9,168.95v-21.3h2.98l.21,3.32c.77-1.31,1.77-2.26,3-2.85,1.24-.6,2.51-.89,3.81-.89,1.51,0,2.93.34,4.26,1.02,1.33.68,2.36,1.73,3.07,3.15.45-.97,1.09-1.75,1.92-2.36.82-.61,1.73-1.06,2.71-1.36.98-.3,1.91-.45,2.79-.45,1.36,0,2.66.28,3.9.85,1.24.57,2.25,1.45,3.05,2.64.79,1.19,1.19,2.73,1.19,4.6v13.63h-3.41v-13.29c0-1.93-.48-3.32-1.45-4.17-.97-.85-2.16-1.28-3.58-1.28-1.11,0-2.14.27-3.11.81-.97.54-1.74,1.34-2.32,2.39-.58,1.05-.87,2.34-.87,3.88v11.67h-3.41v-13.29c0-1.93-.48-3.32-1.45-4.17-.97-.85-2.16-1.28-3.58-1.28-.94,0-1.9.25-2.88.75-.98.5-1.8,1.29-2.45,2.36-.65,1.08-.98,2.5-.98,4.26v11.37h-3.41Z"/><path d="M282.93,155.19c0-1.59-.43-2.82-1.28-3.68-.85-.87-2.06-1.3-3.62-1.3-1.48,0-2.73.32-3.75.96-1.02.64-1.78,1.67-2.26,3.09l-2.77-1.7c.57-1.59,1.62-2.87,3.15-3.86,1.53-.98,3.44-1.47,5.71-1.47,1.53,0,2.93.26,4.17.79,1.25.53,2.24,1.32,2.96,2.39.72,1.07,1.09,2.44,1.09,4.11v10.31c0,1.02.54,1.53,1.62,1.53.54,0,1.07-.07,1.58-.21l-.17,2.68c-.57.28-1.31.43-2.22.43-.82,0-1.56-.16-2.22-.47-.65-.31-1.16-.79-1.53-1.43-.37-.64-.55-1.44-.55-2.41v-.43l.85.13c-.34,1.11-.92,2.01-1.75,2.7-.82.7-1.75,1.21-2.77,1.53-1.02.33-2.03.49-3.02.49-1.25,0-2.41-.21-3.49-.64-1.08-.43-1.94-1.07-2.58-1.94-.64-.87-.96-1.94-.96-3.22,0-1.59.53-2.9,1.6-3.94,1.07-1.04,2.55-1.74,4.45-2.11l8.43-1.66v2.81l-6.86,1.41c-1.39.28-2.43.68-3.11,1.19s-1.02,1.22-1.02,2.13.35,1.6,1.04,2.15c.7.55,1.68.83,2.96.83.82,0,1.61-.11,2.36-.32.75-.21,1.43-.54,2.02-.98.6-.44,1.07-.99,1.41-1.66s.51-1.46.51-2.36v-5.88Z"/><path d="M303.42,147.23c1.48,0,2.78.23,3.9.68,1.12.45,2.09,1.11,2.92,1.96.82.85,1.49,1.86,2,3.02l-3.24,1.53c-.45-1.36-1.14-2.41-2.07-3.13-.92-.72-2.12-1.09-3.6-1.09s-2.64.32-3.66.96c-1.02.64-1.8,1.56-2.34,2.77-.54,1.21-.81,2.66-.81,4.37s.27,3.13.81,4.35c.54,1.22,1.32,2.15,2.34,2.79,1.02.64,2.24.96,3.66.96,1.11,0,2.07-.17,2.88-.51s1.48-.84,2-1.49.89-1.45,1.09-2.39l3.15,1.11c-.48,1.31-1.14,2.43-1.98,3.37-.84.94-1.85,1.65-3.03,2.15-1.18.5-2.52.75-4.03.75-1.99,0-3.76-.44-5.32-1.32-1.56-.88-2.78-2.15-3.66-3.81s-1.32-3.64-1.32-5.94.44-4.28,1.32-5.94,2.1-2.93,3.66-3.81c1.56-.88,3.34-1.32,5.32-1.32Z"/><path d="M320.16,143.57c-.77,0-1.38-.23-1.85-.7s-.7-1.09-.7-1.85.23-1.38.7-1.85c.47-.47,1.09-.7,1.85-.7s1.38.23,1.85.7.7,1.09.7,1.85-.23,1.38-.7,1.85c-.47.47-1.09.7-1.85.7ZM321.87,147.65v21.3h-3.41v-21.3h3.41Z"/><path d="M338.61,147.23c2.02,0,3.8.44,5.35,1.32,1.55.88,2.76,2.15,3.64,3.81s1.32,3.64,1.32,5.94-.44,4.28-1.32,5.94-2.09,2.93-3.64,3.81c-1.55.88-3.33,1.32-5.35,1.32s-3.76-.44-5.32-1.32c-1.56-.88-2.78-2.15-3.66-3.81s-1.32-3.64-1.32-5.94.44-4.28,1.32-5.94,2.1-2.93,3.66-3.81c1.56-.88,3.34-1.32,5.32-1.32ZM338.61,150.17c-1.45,0-2.68.33-3.71.98s-1.81,1.58-2.36,2.79c-.55,1.21-.83,2.66-.83,4.37s.28,3.13.83,4.35c.55,1.22,1.34,2.16,2.36,2.81,1.02.65,2.26.98,3.71.98s2.68-.33,3.71-.98c1.02-.65,1.81-1.59,2.36-2.81.55-1.22.83-2.67.83-4.35s-.28-3.16-.83-4.37c-.55-1.21-1.34-2.14-2.36-2.79s-2.26-.98-3.71-.98ZM339.76,137h3.71l-4.17,7.11h-2.77l3.24-7.11Z"/><path d="M355.35,168.95v-21.3h2.98l.3,4.77-.55-.47c.45-1.13,1.07-2.05,1.83-2.75.77-.7,1.65-1.2,2.66-1.51,1.01-.31,2.05-.47,3.13-.47,1.53,0,2.93.29,4.17.87,1.25.58,2.25,1.47,3,2.66.75,1.19,1.13,2.71,1.13,4.56v13.63h-3.41v-12.44c0-2.36-.5-4-1.51-4.92-1.01-.92-2.25-1.38-3.73-1.38-1.02,0-2.04.24-3.07.72-1.02.48-1.87,1.26-2.53,2.34-.67,1.08-1,2.53-1,4.35v11.33h-3.41Z"/><path d="M76.8,206.31c0-1.59-.43-2.82-1.28-3.68-.85-.87-2.06-1.3-3.62-1.3-1.48,0-2.73.32-3.75.96-1.02.64-1.78,1.67-2.26,3.09l-2.77-1.7c.57-1.59,1.62-2.87,3.15-3.86,1.53-.98,3.44-1.47,5.71-1.47,1.53,0,2.93.26,4.17.79,1.25.53,2.24,1.32,2.96,2.39.72,1.07,1.09,2.44,1.09,4.11v10.31c0,1.02.54,1.53,1.62,1.53.54,0,1.07-.07,1.58-.21l-.17,2.68c-.57.28-1.31.43-2.22.43-.82,0-1.56-.16-2.22-.47-.65-.31-1.16-.79-1.53-1.43-.37-.64-.55-1.44-.55-2.41v-.43l.85.13c-.34,1.11-.92,2.01-1.75,2.7-.82.7-1.75,1.21-2.77,1.53-1.02.33-2.03.49-3.02.49-1.25,0-2.41-.21-3.49-.64-1.08-.43-1.94-1.07-2.58-1.94-.64-.87-.96-1.94-.96-3.22,0-1.59.53-2.9,1.6-3.94,1.07-1.04,2.55-1.74,4.45-2.11l8.43-1.66v2.81l-6.86,1.41c-1.39.28-2.43.68-3.11,1.19s-1.02,1.22-1.02,2.13.35,1.6,1.04,2.15c.7.55,1.68.83,2.96.83.82,0,1.61-.11,2.36-.32.75-.21,1.43-.54,2.02-.98.6-.44,1.07-.99,1.41-1.66s.51-1.46.51-2.36v-5.88Z"/><path d="M110.83,198.35c1.48,0,2.78.23,3.9.68,1.12.45,2.09,1.11,2.92,1.96.82.85,1.49,1.86,2,3.02l-3.24,1.53c-.45-1.36-1.14-2.41-2.07-3.13-.92-.72-2.12-1.09-3.6-1.09s-2.64.32-3.66.96c-1.02.64-1.8,1.56-2.34,2.77-.54,1.21-.81,2.66-.81,4.37s.27,3.13.81,4.35c.54,1.22,1.32,2.15,2.34,2.79,1.02.64,2.24.96,3.66.96,1.11,0,2.07-.17,2.88-.51s1.48-.84,2-1.49.89-1.45,1.09-2.39l3.15,1.11c-.48,1.31-1.14,2.43-1.98,3.37-.84.94-1.85,1.65-3.03,2.15-1.18.5-2.52.75-4.03.75-1.99,0-3.76-.44-5.32-1.32s-2.78-2.15-3.66-3.81-1.32-3.64-1.32-5.94.44-4.28,1.32-5.94,2.1-2.93,3.66-3.81c1.56-.88,3.34-1.32,5.32-1.32Z"/><path d="M138.31,206.31c0-1.59-.43-2.82-1.28-3.68-.85-.87-2.06-1.3-3.62-1.3-1.48,0-2.73.32-3.75.96-1.02.64-1.78,1.67-2.26,3.09l-2.77-1.7c.57-1.59,1.62-2.87,3.15-3.86,1.53-.98,3.44-1.47,5.71-1.47,1.53,0,2.93.26,4.17.79,1.25.53,2.24,1.32,2.96,2.39.72,1.07,1.09,2.44,1.09,4.11v10.31c0,1.02.54,1.53,1.62,1.53.54,0,1.07-.07,1.58-.21l-.17,2.68c-.57.28-1.31.43-2.22.43-.82,0-1.56-.16-2.22-.47-.65-.31-1.16-.79-1.53-1.43-.37-.64-.55-1.44-.55-2.41v-.43l.85.13c-.34,1.11-.92,2.01-1.75,2.7-.82.7-1.75,1.21-2.77,1.53-1.02.33-2.03.49-3.02.49-1.25,0-2.41-.21-3.49-.64-1.08-.43-1.94-1.07-2.58-1.94-.64-.87-.96-1.94-.96-3.22,0-1.59.53-2.9,1.6-3.94,1.07-1.04,2.55-1.74,4.45-2.11l8.43-1.66v2.81l-6.86,1.41c-1.39.28-2.43.68-3.11,1.19s-1.02,1.22-1.02,2.13.35,1.6,1.04,2.15c.7.55,1.68.83,2.96.83.82,0,1.61-.11,2.36-.32.75-.21,1.43-.54,2.02-.98.6-.44,1.07-.99,1.41-1.66s.51-1.46.51-2.36v-5.88Z"/><path d="M158.29,220.5c-1.76,0-3.38-.44-4.86-1.32-1.48-.88-2.66-2.15-3.54-3.81s-1.32-3.64-1.32-5.94.47-4.36,1.41-6.01c.94-1.65,2.17-2.9,3.71-3.77,1.53-.87,3.18-1.3,4.94-1.3s3.29.45,4.58,1.36c1.29.91,2.15,2.12,2.58,3.62l-.43.3v-14.65h3.41v31.1h-2.98l-.3-5.15.47-.26c-.2,1.25-.67,2.31-1.43,3.17-.75.87-1.68,1.53-2.77,1.98-1.09.45-2.25.68-3.47.68ZM158.63,217.52c1.36,0,2.55-.34,3.56-1.02,1.01-.68,1.79-1.65,2.34-2.92.55-1.26.83-2.75.83-4.45s-.28-3.01-.83-4.17c-.55-1.16-1.32-2.06-2.3-2.68-.98-.62-2.12-.94-3.43-.94-2.16,0-3.83.74-5.03,2.22s-1.79,3.44-1.79,5.88.58,4.4,1.75,5.88c1.16,1.48,2.8,2.22,4.9,2.22Z"/><path d="M189.13,206.31c0-1.59-.43-2.82-1.28-3.68-.85-.87-2.06-1.3-3.62-1.3-1.48,0-2.73.32-3.75.96-1.02.64-1.78,1.67-2.26,3.09l-2.77-1.7c.57-1.59,1.62-2.87,3.15-3.86,1.53-.98,3.44-1.47,5.71-1.47,1.53,0,2.93.26,4.17.79,1.25.53,2.24,1.32,2.96,2.39.72,1.07,1.09,2.44,1.09,4.11v10.31c0,1.02.54,1.53,1.62,1.53.54,0,1.07-.07,1.58-.21l-.17,2.68c-.57.28-1.31.43-2.22.43-.82,0-1.56-.16-2.22-.47-.65-.31-1.16-.79-1.53-1.43-.37-.64-.55-1.44-.55-2.41v-.43l.85.13c-.34,1.11-.92,2.01-1.75,2.7-.82.7-1.75,1.21-2.77,1.53-1.02.33-2.03.49-3.02.49-1.25,0-2.41-.21-3.49-.64-1.08-.43-1.94-1.07-2.58-1.94-.64-.87-.96-1.94-.96-3.22,0-1.59.53-2.9,1.6-3.94,1.07-1.04,2.55-1.74,4.45-2.11l8.43-1.66v2.81l-6.86,1.41c-1.39.28-2.43.68-3.11,1.19s-1.02,1.22-1.02,2.13.35,1.6,1.04,2.15c.7.55,1.68.83,2.96.83.82,0,1.61-.11,2.36-.32.75-.21,1.43-.54,2.02-.98.6-.44,1.07-.99,1.41-1.66s.51-1.46.51-2.36v-5.88Z"/><path d="M216.05,194.68c-.77,0-1.38-.23-1.85-.7s-.7-1.09-.7-1.85.23-1.38.7-1.85c.47-.47,1.09-.7,1.85-.7s1.38.23,1.85.7.7,1.09.7,1.85-.23,1.38-.7,1.85c-.47.47-1.09.7-1.85.7ZM217.76,198.77v21.3h-3.41v-21.3h3.41Z"/><path d="M225.68,220.07v-21.3h2.98l.3,4.77-.55-.47c.45-1.13,1.07-2.05,1.83-2.75.77-.7,1.65-1.2,2.66-1.51,1.01-.31,2.05-.47,3.13-.47,1.53,0,2.93.29,4.17.87,1.25.58,2.25,1.47,3,2.66.75,1.19,1.13,2.71,1.13,4.56v13.63h-3.41v-12.44c0-2.36-.5-4-1.51-4.92-1.01-.92-2.25-1.38-3.73-1.38-1.02,0-2.04.24-3.07.72-1.02.48-1.87,1.26-2.53,2.34-.67,1.08-1,2.53-1,4.35v11.33h-3.41Z"/><path d="M259.71,220.5c-2.07,0-3.98-.44-5.73-1.32s-3.09-2.13-4.03-3.75l2.9-2.09c.62,1.31,1.54,2.33,2.75,3.07,1.21.74,2.66,1.11,4.37,1.11,1.5,0,2.68-.29,3.54-.87.85-.58,1.28-1.34,1.28-2.28,0-.6-.19-1.14-.58-1.64-.38-.5-1.11-.86-2.19-1.09l-5.11-1.06c-2.07-.43-3.56-1.14-4.45-2.13-.89-.99-1.34-2.23-1.34-3.71,0-1.16.33-2.23,1-3.2.67-.96,1.62-1.74,2.85-2.32,1.24-.58,2.69-.87,4.37-.87,2.1,0,3.88.41,5.33,1.24,1.45.82,2.53,1.99,3.24,3.49l-2.85,1.87c-.48-1.25-1.26-2.17-2.34-2.75-1.08-.58-2.2-.87-3.37-.87-1.02,0-1.9.14-2.62.43-.72.28-1.28.67-1.66,1.17-.38.5-.57,1.06-.57,1.68s.21,1.2.64,1.73c.43.53,1.22.9,2.39,1.13l5.32,1.11c1.99.4,3.38,1.05,4.17,1.96.79.91,1.19,2.02,1.19,3.32s-.36,2.51-1.06,3.51c-.71,1.01-1.7,1.78-2.98,2.32-1.28.54-2.76.81-4.43.81Z"/><path d="M287.28,198.77v2.94h-15.42v-2.94h15.42ZM279.52,192.73v21.47c0,1.05.3,1.83.9,2.34s1.36.77,2.3.77c.82,0,1.53-.14,2.13-.43s1.14-.67,1.62-1.15l1.19,2.85c-.65.6-1.43,1.06-2.32,1.41-.89.34-1.92.51-3.09.51-1.08,0-2.09-.19-3.02-.58-.94-.38-1.68-.99-2.24-1.83-.55-.84-.84-1.94-.87-3.3v-21.13l3.41-.94Z"/><path d="M304.78,206.31c0-1.59-.43-2.82-1.28-3.68-.85-.87-2.06-1.3-3.62-1.3-1.48,0-2.73.32-3.75.96-1.02.64-1.78,1.67-2.26,3.09l-2.77-1.7c.57-1.59,1.62-2.87,3.15-3.86,1.53-.98,3.44-1.47,5.71-1.47,1.53,0,2.93.26,4.17.79,1.25.53,2.24,1.32,2.96,2.39.72,1.07,1.09,2.44,1.09,4.11v10.31c0,1.02.54,1.53,1.62,1.53.54,0,1.07-.07,1.58-.21l-.17,2.68c-.57.28-1.31.43-2.22.43-.82,0-1.56-.16-2.22-.47-.65-.31-1.16-.79-1.53-1.43-.37-.64-.55-1.44-.55-2.41v-.43l.85.13c-.34,1.11-.92,2.01-1.75,2.7-.82.7-1.75,1.21-2.77,1.53-1.02.33-2.03.49-3.02.49-1.25,0-2.41-.21-3.49-.64-1.08-.43-1.94-1.07-2.58-1.94-.64-.87-.96-1.94-.96-3.22,0-1.59.53-2.9,1.6-3.94,1.07-1.04,2.55-1.74,4.45-2.11l8.43-1.66v2.81l-6.86,1.41c-1.39.28-2.43.68-3.11,1.19s-1.02,1.22-1.02,2.13.35,1.6,1.04,2.15c.7.55,1.68.83,2.96.83.82,0,1.61-.11,2.36-.32.75-.21,1.43-.54,2.02-.98.6-.44,1.07-.99,1.41-1.66s.51-1.46.51-2.36v-5.88Z"/><path d="M316.46,220.07v-21.3h2.98l.3,4.77-.55-.47c.45-1.13,1.07-2.05,1.83-2.75.77-.7,1.65-1.2,2.66-1.51,1.01-.31,2.05-.47,3.13-.47,1.53,0,2.93.29,4.17.87,1.25.58,2.25,1.47,3,2.66.75,1.19,1.13,2.71,1.13,4.56v13.63h-3.41v-12.44c0-2.36-.5-4-1.51-4.92-1.01-.92-2.25-1.38-3.73-1.38-1.02,0-2.04.24-3.07.72-1.02.48-1.87,1.26-2.53,2.34-.67,1.08-1,2.53-1,4.35v11.33h-3.41Z"/><path d="M355.31,198.77v2.94h-15.42v-2.94h15.42ZM347.55,192.73v21.47c0,1.05.3,1.83.9,2.34s1.36.77,2.3.77c.82,0,1.53-.14,2.13-.43s1.14-.67,1.62-1.15l1.19,2.85c-.65.6-1.43,1.06-2.32,1.41-.89.34-1.92.51-3.09.51-1.08,0-2.09-.19-3.02-.58-.94-.38-1.68-.99-2.24-1.83-.55-.84-.84-1.94-.87-3.3v-21.13l3.41-.94Z"/><path d="M369.28,220.5c-2.02,0-3.81-.44-5.39-1.32-1.58-.88-2.8-2.15-3.68-3.81s-1.32-3.64-1.32-5.94.44-4.28,1.32-5.94,2.09-2.93,3.62-3.81c1.53-.88,3.28-1.32,5.24-1.32s3.68.43,5.09,1.28c1.41.85,2.48,2.01,3.22,3.47.74,1.46,1.11,3.1,1.11,4.92,0,.48-.01.92-.04,1.32s-.07.75-.13,1.06h-17.21v-3.02h15.72l-1.75.34c0-2.04-.56-3.62-1.68-4.73s-2.59-1.66-4.41-1.66c-1.39,0-2.59.32-3.6.96-1.01.64-1.79,1.56-2.34,2.77-.55,1.21-.83,2.66-.83,4.37s.28,3.13.85,4.35c.57,1.22,1.37,2.15,2.41,2.79,1.04.64,2.28.96,3.73.96,1.56,0,2.83-.3,3.81-.89s1.77-1.41,2.36-2.43l2.68,1.58c-.54.97-1.23,1.8-2.07,2.51-.84.71-1.82,1.26-2.94,1.64-1.12.38-2.38.58-3.77.58Z"/><path d="M1079.9,35.7v-7.7h-15.99v-4.47c.17-.33.41-.74.72-1.22.32-.48.67-1.03,1.07-1.66l12.21-17.72h8.19v20.11h5.31v4.96h-5.31v7.7h-6.21ZM1069.77,23.04h10.18v-10.82c0-.69.02-1.44.05-2.23.03-.79.07-1.57.1-2.33h-.1c-.36.73-.8,1.51-1.32,2.36-.51.84-.99,1.6-1.42,2.26l-6.85,9.83c-.1.17-.21.32-.32.47-.12.15-.22.31-.32.47Z"/><path d="M1108.94,36.19c-4.2,0-7.44-1.42-9.71-4.27s-3.4-7.05-3.4-12.61,1.13-9.76,3.4-12.61,5.5-4.27,9.71-4.27,7.44,1.42,9.71,4.27,3.4,7.05,3.4,12.61-1.13,9.76-3.4,12.61-5.5,4.27-9.71,4.27ZM1108.94,30.68c1.42,0,2.59-.4,3.5-1.22.91-.81,1.6-2.05,2.06-3.72.46-1.67.7-3.81.7-6.43s-.23-4.76-.7-6.43-1.15-2.91-2.06-3.72c-.91-.81-2.08-1.22-3.5-1.22s-2.6.41-3.52,1.22c-.93.81-1.61,2.05-2.06,3.72-.45,1.67-.67,3.81-.67,6.43s.22,4.76.67,6.43c.45,1.67,1.13,2.91,2.06,3.72.93.81,2.1,1.22,3.52,1.22Z"/><path d="M1146.43,19.61v5.86h-17.53v-5.86h17.53Z"/><path d="M1164.8,36.19c-2.88,0-5.31-.6-7.27-1.79-1.97-1.19-3.58-3.01-4.84-5.46l6.16-3.08c.43,1.46,1.11,2.63,2.04,3.53.93.89,2.28,1.34,4.07,1.34,1.22,0,2.27-.21,3.13-.65.86-.43,1.53-1.06,2.01-1.89.48-.83.72-1.84.72-3.03s-.22-2.19-.67-3c-.45-.81-1.08-1.42-1.91-1.84-.83-.41-1.87-.62-3.13-.62-.86,0-1.66.08-2.41.25-.74.17-1.41.42-2.01.77s-1.13.8-1.59,1.37l-5.36-.99,2.04-18.17h19.81v5.51h-14.65l-.99,7.99-.15.64h.1c.7-.79,1.65-1.41,2.86-1.84,1.21-.43,2.59-.65,4.15-.65,2.15,0,3.99.43,5.51,1.29,1.52.86,2.7,2.06,3.53,3.6.83,1.54,1.24,3.3,1.24,5.29s-.31,3.55-.94,4.99-1.51,2.63-2.66,3.58c-1.14.94-2.46,1.66-3.95,2.13s-3.09.72-4.82.72Z"/><path d="M1195.28,36.19c-4.2,0-7.44-1.42-9.71-4.27s-3.4-7.05-3.4-12.61,1.13-9.76,3.4-12.61,5.5-4.27,9.71-4.27,7.44,1.42,9.71,4.27,3.4,7.05,3.4,12.61-1.13,9.76-3.4,12.61-5.5,4.27-9.71,4.27ZM1195.28,30.68c1.42,0,2.59-.4,3.5-1.22.91-.81,1.6-2.05,2.06-3.72.46-1.67.7-3.81.7-6.43s-.23-4.76-.7-6.43-1.15-2.91-2.06-3.72c-.91-.81-2.08-1.22-3.5-1.22s-2.6.41-3.52,1.22c-.93.81-1.61,2.05-2.06,3.72-.45,1.67-.67,3.81-.67,6.43s.22,4.76.67,6.43c.45,1.67,1.13,2.91,2.06,3.72.93.81,2.1,1.22,3.52,1.22Z"/><path d="M1229.83,46.12V10.87h6.11l.45,7.89-.84-.89c.3-1.46.85-2.75,1.66-3.87.81-1.13,1.84-2.01,3.1-2.66,1.26-.64,2.66-.97,4.22-.97,2.02,0,3.82.51,5.41,1.54s2.84,2.49,3.75,4.39c.91,1.9,1.37,4.21,1.37,6.93s-.46,5.04-1.39,6.98c-.93,1.94-2.19,3.42-3.8,4.44-1.61,1.03-3.43,1.54-5.49,1.54-2.18,0-4-.61-5.44-1.84s-2.42-2.76-2.95-4.62l.64-1.04v17.43h-6.8ZM1242.4,30.98c1.82,0,3.25-.65,4.29-1.96,1.04-1.31,1.56-3.22,1.56-5.73s-.5-4.43-1.51-5.73c-1.01-1.31-2.42-1.96-4.24-1.96-1.16,0-2.18.31-3.05.92-.88.61-1.56,1.49-2.06,2.63-.5,1.14-.74,2.52-.74,4.15s.23,2.92.7,4.1c.46,1.18,1.13,2.07,2.01,2.68.88.61,1.9.92,3.05.92Z"/><path d="M1264.39,7.3c-1.42,0-2.48-.31-3.18-.92-.7-.61-1.04-1.51-1.04-2.71s.35-2.14,1.04-2.76c.7-.61,1.75-.92,3.18-.92s2.48.31,3.18.92c.7.61,1.04,1.53,1.04,2.76s-.35,2.09-1.04,2.71c-.69.61-1.75.92-3.18.92ZM1267.76,10.87v24.82h-6.8V10.87h6.8Z"/><path d="M1286.48,36.19c-2.62,0-4.89-.51-6.83-1.54-1.94-1.03-3.43-2.5-4.49-4.42-1.06-1.92-1.59-4.24-1.59-6.95s.53-5.03,1.59-6.95,2.54-3.39,4.44-4.42c1.9-1.03,4.08-1.54,6.53-1.54s4.65.51,6.41,1.51c1.75,1.01,3.09,2.38,4.02,4.12s1.39,3.72,1.39,5.93c0,.66-.02,1.29-.05,1.89-.03.6-.08,1.13-.15,1.59h-19.81v-4.72h16.83l-3.28,1.19c0-2.09-.47-3.69-1.41-4.82-.94-1.12-2.28-1.69-4-1.69-1.26,0-2.34.3-3.25.89-.91.6-1.6,1.48-2.06,2.66-.46,1.18-.7,2.66-.7,4.44s.26,3.2.77,4.34c.51,1.14,1.24,1.99,2.18,2.56.94.56,2.08.84,3.4.84,1.46,0,2.63-.28,3.53-.84.89-.56,1.59-1.34,2.09-2.33l5.41,2.09c-.53,1.29-1.33,2.4-2.41,3.33-1.08.93-2.35,1.63-3.82,2.11s-3.05.72-4.74.72Z"/><path d="M1302.27,35.7v-4.37l11.02-12.71,2.83-2.83-4.12.1h-9.63v-5.01h21.3v4.37l-10.97,12.66-2.83,2.88,4.52-.1h9.68v5.01h-21.8Z"/><path d="M1343.82,19.86c0-1.42-.41-2.53-1.22-3.33-.81-.79-1.88-1.19-3.2-1.19-1.23,0-2.3.32-3.23.94-.93.63-1.61,1.67-2.04,3.13l-5.81-1.79c.56-2.18,1.79-3.94,3.7-5.26,1.9-1.32,4.46-1.99,7.67-1.99,2.18,0,4.09.34,5.71,1.02,1.62.68,2.89,1.7,3.8,3.05.91,1.36,1.37,3.06,1.37,5.11v10.08c0,1.26.6,1.89,1.79,1.89.56,0,1.09-.08,1.59-.25l-.4,4.22c-.86.43-1.94.65-3.23.65-1.16,0-2.2-.2-3.13-.6-.93-.4-1.66-1-2.19-1.81-.53-.81-.79-1.83-.79-3.05v-.2l1.19-.2c-.2,1.26-.74,2.33-1.64,3.2-.89.88-1.98,1.55-3.25,2.01s-2.59.7-3.95.7c-1.69,0-3.15-.26-4.37-.77-1.23-.51-2.17-1.27-2.83-2.26-.66-.99-.99-2.22-.99-3.67,0-1.85.6-3.37,1.79-4.54,1.19-1.17,2.9-1.98,5.11-2.41l9.33-1.89-.05,4.22-5.96,1.19c-1.13.23-1.98.54-2.56.92-.58.38-.87,1-.87,1.86s.31,1.46.92,1.89c.61.43,1.35.65,2.21.65.7,0,1.37-.08,2.04-.25.66-.17,1.26-.43,1.79-.79.53-.36.94-.86,1.24-1.49.3-.63.45-1.39.45-2.28v-6.7Z"/><path d="M1368.1,36.19c-2.52,0-4.81-.45-6.88-1.34-2.07-.89-3.75-2.15-5.04-3.77l3.92-3.97c.79,1.19,1.85,2.17,3.18,2.93s2.9,1.14,4.72,1.14c1.29,0,2.32-.19,3.1-.57.78-.38,1.17-.98,1.17-1.81,0-.53-.18-.98-.55-1.37-.36-.38-1.09-.69-2.18-.92l-4.37-.89c-2.88-.6-4.92-1.5-6.13-2.71-1.21-1.21-1.81-2.77-1.81-4.69,0-1.36.4-2.63,1.22-3.82.81-1.19,2.03-2.16,3.65-2.9,1.62-.74,3.64-1.12,6.06-1.12s4.64.39,6.48,1.17c1.84.78,3.28,1.93,4.34,3.45l-4.07,3.97c-.73-1.16-1.68-2.04-2.86-2.66-1.17-.61-2.41-.92-3.7-.92-.93,0-1.72.1-2.38.3-.66.2-1.16.47-1.49.82s-.5.79-.5,1.32.23.99.7,1.37c.46.38,1.31.7,2.53.97l5.06,1.04c2.45.5,4.2,1.33,5.26,2.51,1.06,1.18,1.59,2.59,1.59,4.24s-.42,3-1.27,4.25c-.84,1.24-2.08,2.22-3.72,2.93-1.64.71-3.65,1.07-6.03,1.07Z"/><path d="M1106.28,79.36c-1.49,0-2.86-.37-4.11-1.12-1.25-.75-2.25-1.82-3-3.23s-1.12-3.09-1.12-5.03.4-3.69,1.19-5.09c.79-1.39,1.84-2.46,3.14-3.19,1.3-.73,2.69-1.1,4.19-1.1s2.78.39,3.88,1.15c1.1.77,1.82,1.79,2.18,3.07l-.36.25v-12.41h2.89v26.34h-2.53l-.25-4.37.4-.22c-.17,1.06-.57,1.95-1.21,2.69-.64.73-1.42,1.29-2.35,1.68-.93.38-1.91.58-2.94.58ZM1106.57,76.84c1.15,0,2.16-.29,3.01-.87s1.52-1.4,1.99-2.47c.47-1.07.7-2.33.7-3.77s-.23-2.55-.7-3.54c-.47-.99-1.12-1.74-1.95-2.27-.83-.53-1.8-.79-2.9-.79-1.83,0-3.25.63-4.26,1.88s-1.52,2.91-1.52,4.98.49,3.73,1.48,4.98c.99,1.25,2.37,1.88,4.15,1.88Z"/><path d="M1129.41,79.36c-1.71,0-3.23-.37-4.56-1.12-1.33-.75-2.38-1.82-3.12-3.23s-1.12-3.09-1.12-5.03.37-3.63,1.12-5.03,1.77-2.48,3.07-3.23c1.3-.74,2.78-1.12,4.44-1.12s3.12.36,4.31,1.08c1.19.72,2.1,1.7,2.73,2.94.63,1.24.94,2.63.94,4.17,0,.41-.01.78-.04,1.12s-.06.64-.11.9h-14.58v-2.56h13.32l-1.48.29c0-1.73-.48-3.07-1.42-4.01-.95-.94-2.2-1.41-3.73-1.41-1.18,0-2.2.27-3.05.81-.85.54-1.52,1.32-1.99,2.35-.47,1.02-.7,2.26-.7,3.7s.24,2.65.72,3.68c.48,1.03,1.16,1.82,2.04,2.36.88.54,1.93.81,3.16.81,1.32,0,2.4-.25,3.23-.76.83-.51,1.5-1.19,2-2.06l2.27,1.34c-.46.82-1.04,1.53-1.75,2.13-.71.6-1.54,1.06-2.49,1.39-.95.33-2.02.49-3.19.49Z"/><path d="M1156.44,57.49c-.65,0-1.17-.2-1.57-.6-.4-.4-.6-.92-.6-1.57s.2-1.17.6-1.57c.4-.4.92-.6,1.57-.6s1.17.2,1.57.6c.4.4.59.92.59,1.57s-.2,1.17-.59,1.57c-.4.4-.92.6-1.57.6ZM1157.89,60.96v18.04h-2.89v-18.04h2.89Z"/><path d="M1164.6,79v-18.04h2.53l.25,4.04-.47-.4c.39-.96.9-1.74,1.55-2.33.65-.59,1.4-1.02,2.26-1.28.85-.26,1.74-.4,2.65-.4,1.3,0,2.48.25,3.54.74,1.06.49,1.91,1.24,2.54,2.26s.96,2.3.96,3.86v11.55h-2.89v-10.54c0-2-.43-3.39-1.28-4.17-.85-.78-1.91-1.17-3.16-1.17-.87,0-1.73.2-2.6.61-.87.41-1.58,1.07-2.15,1.99-.57.91-.85,2.14-.85,3.68v9.6h-2.89Z"/><path d="M1197,60.96v2.49h-12.52v-2.49h12.52ZM1194.01,52.48c.63,0,1.22.07,1.77.22.55.14.99.35,1.3.61l-.76,2.35c-.29-.19-.6-.33-.94-.42-.34-.08-.71-.13-1.12-.13-1.03,0-1.84.25-2.42.74-.58.49-.87,1.28-.87,2.36v20.79h-2.89v-21.07c0-.79.12-1.53.36-2.2.24-.67.61-1.25,1.1-1.73.49-.48,1.11-.85,1.86-1.12.74-.26,1.61-.4,2.6-.4Z"/><path d="M1207.83,60.6c1.71,0,3.22.37,4.53,1.12,1.31.75,2.34,1.82,3.08,3.23s1.12,3.09,1.12,5.03-.37,3.63-1.12,5.03-1.77,2.48-3.08,3.23c-1.31.75-2.82,1.12-4.53,1.12s-3.19-.37-4.51-1.12-2.36-1.82-3.1-3.23-1.12-3.09-1.12-5.03.37-3.63,1.12-5.03,1.78-2.48,3.1-3.23c1.32-.74,2.83-1.12,4.51-1.12ZM1207.83,63.09c-1.23,0-2.27.28-3.14.83s-1.53,1.34-2,2.36c-.47,1.02-.7,2.26-.7,3.7s.23,2.65.7,3.68c.47,1.03,1.14,1.83,2,2.38.87.55,1.91.83,3.14.83s2.27-.28,3.14-.83c.87-.55,1.53-1.35,2-2.38.47-1.03.7-2.26.7-3.68s-.23-2.68-.7-3.7c-.47-1.02-1.14-1.81-2-2.36s-1.91-.83-3.14-.83Z"/><path d="M1222.01,79v-18.04h2.35l.4,2.96c.51-1.11,1.24-1.94,2.22-2.49.97-.55,2.16-.83,3.55-.83.31,0,.66.02,1.03.07.37.05.69.14.96.29l-.51,2.63c-.26-.1-.55-.17-.87-.22-.31-.05-.76-.07-1.33-.07-.75,0-1.5.22-2.26.65s-1.39,1.09-1.89,1.97c-.51.88-.76,1.99-.76,3.34v9.74h-2.89Z"/><path d="M1236.74,79v-18.04h2.53l.18,2.81c.65-1.11,1.5-1.91,2.54-2.42,1.05-.5,2.12-.76,3.23-.76,1.28,0,2.48.29,3.61.87s2,1.47,2.6,2.67c.39-.82.93-1.49,1.62-2,.7-.52,1.46-.9,2.29-1.15.83-.25,1.62-.38,2.36-.38,1.15,0,2.26.24,3.3.72,1.05.48,1.91,1.23,2.58,2.24s1.01,2.31,1.01,3.9v11.55h-2.89v-11.26c0-1.64-.41-2.81-1.23-3.54-.82-.72-1.83-1.08-3.03-1.08-.94,0-1.82.23-2.63.69-.82.46-1.47,1.13-1.97,2.02-.49.89-.74,1.99-.74,3.28v9.89h-2.89v-11.26c0-1.64-.41-2.81-1.23-3.54-.82-.72-1.83-1.08-3.03-1.08-.79,0-1.61.21-2.44.63-.83.42-1.52,1.09-2.07,2-.55.91-.83,2.12-.83,3.61v9.64h-2.89Z"/><path d="M1281.66,67.35c0-1.35-.36-2.39-1.08-3.12-.72-.73-1.74-1.1-3.07-1.1-1.25,0-2.31.27-3.18.81-.87.54-1.5,1.41-1.91,2.62l-2.35-1.44c.48-1.35,1.37-2.44,2.67-3.27,1.3-.83,2.91-1.24,4.84-1.24,1.3,0,2.48.22,3.54.67,1.06.45,1.89,1.12,2.51,2.02.61.9.92,2.06.92,3.48v8.73c0,.87.46,1.3,1.37,1.3.46,0,.9-.06,1.33-.18l-.14,2.27c-.48.24-1.11.36-1.88.36-.7,0-1.32-.13-1.88-.4s-.99-.67-1.3-1.21c-.31-.54-.47-1.22-.47-2.04v-.36l.72.11c-.29.94-.78,1.7-1.48,2.29-.7.59-1.48,1.02-2.35,1.3-.87.28-1.72.42-2.56.42-1.06,0-2.04-.18-2.96-.54-.92-.36-1.64-.91-2.18-1.64-.54-.73-.81-1.64-.81-2.72,0-1.35.45-2.46,1.35-3.34.9-.88,2.16-1.47,3.77-1.79l7.15-1.41v2.38l-5.81,1.19c-1.18.24-2.06.58-2.64,1.01s-.87,1.03-.87,1.8.3,1.35.88,1.82c.59.47,1.42.7,2.51.7.7,0,1.37-.09,2-.27.64-.18,1.21-.46,1.71-.83.51-.37.9-.84,1.19-1.41s.43-1.23.43-2v-4.98Z"/><path d="M1299.02,60.6c1.25,0,2.35.19,3.3.58.95.39,1.77.94,2.47,1.66.7.72,1.26,1.58,1.7,2.56l-2.74,1.3c-.39-1.15-.97-2.04-1.75-2.65-.78-.61-1.8-.92-3.05-.92s-2.24.27-3.1.81c-.87.54-1.53,1.32-1.99,2.35-.46,1.02-.68,2.26-.68,3.7s.23,2.65.68,3.68c.46,1.03,1.12,1.82,1.99,2.36.87.54,1.9.81,3.1.81.94,0,1.75-.14,2.44-.43.68-.29,1.25-.71,1.7-1.26s.75-1.23.92-2.02l2.67.94c-.41,1.11-.97,2.06-1.68,2.85-.71.79-1.56,1.4-2.56,1.82-1,.42-2.13.63-3.41.63-1.68,0-3.19-.37-4.51-1.12s-2.36-1.82-3.1-3.23-1.12-3.09-1.12-5.03.37-3.63,1.12-5.03,1.78-2.48,3.1-3.23c1.32-.74,2.83-1.12,4.51-1.12Z"/><path d="M1313.2,57.49c-.65,0-1.17-.2-1.57-.6-.4-.4-.6-.92-.6-1.57s.2-1.17.6-1.57c.4-.4.92-.6,1.57-.6s1.17.2,1.57.6c.4.4.6.92.6,1.57s-.2,1.17-.6,1.57c-.4.4-.92.6-1.57.6ZM1314.65,60.96v18.04h-2.89v-18.04h2.89Z"/><path d="M1328.83,60.6c1.71,0,3.22.37,4.53,1.12,1.31.75,2.34,1.82,3.09,3.23s1.12,3.09,1.12,5.03-.37,3.63-1.12,5.03-1.77,2.48-3.09,3.23-2.82,1.12-4.53,1.12-3.19-.37-4.51-1.12-2.36-1.82-3.1-3.23-1.12-3.09-1.12-5.03.37-3.63,1.12-5.03,1.78-2.48,3.1-3.23c1.32-.74,2.83-1.12,4.51-1.12ZM1328.83,63.09c-1.23,0-2.27.28-3.14.83s-1.53,1.34-2,2.36c-.47,1.02-.7,2.26-.7,3.7s.23,2.65.7,3.68c.47,1.03,1.14,1.83,2,2.38.87.55,1.91.83,3.14.83s2.27-.28,3.14-.83c.87-.55,1.53-1.35,2-2.38.47-1.03.7-2.26.7-3.68s-.23-2.68-.7-3.7c-.47-1.02-1.14-1.81-2-2.36s-1.91-.83-3.14-.83ZM1329.8,51.94h3.14l-3.54,6.03h-2.35l2.74-6.03Z"/><path d="M1343.01,79v-18.04h2.53l.25,4.04-.47-.4c.38-.96.9-1.74,1.55-2.33.65-.59,1.4-1.02,2.26-1.28.85-.26,1.74-.4,2.65-.4,1.3,0,2.48.25,3.54.74,1.06.49,1.91,1.24,2.54,2.26.64,1.01.96,2.3.96,3.86v11.55h-2.89v-10.54c0-2-.43-3.39-1.28-4.17-.85-.78-1.91-1.17-3.16-1.17-.87,0-1.73.2-2.6.61-.86.41-1.58,1.07-2.15,1.99s-.85,2.14-.85,3.68v9.6h-2.89Z"/><path d="M1104.77,122.67c-1.76,0-3.37-.37-4.85-1.12s-2.62-1.8-3.41-3.18l2.45-1.77c.53,1.11,1.3,1.97,2.33,2.6,1.02.63,2.26.94,3.7.94,1.27,0,2.27-.25,2.99-.74.72-.49,1.08-1.14,1.08-1.93,0-.51-.16-.97-.49-1.39-.32-.42-.94-.73-1.86-.92l-4.33-.9c-1.76-.36-3.01-.96-3.77-1.8-.76-.84-1.14-1.89-1.14-3.14,0-.99.28-1.89.85-2.71.57-.82,1.37-1.47,2.42-1.97,1.05-.49,2.28-.74,3.7-.74,1.78,0,3.28.35,4.51,1.05,1.23.7,2.14,1.68,2.74,2.96l-2.42,1.59c-.41-1.06-1.07-1.83-1.98-2.33-.92-.49-1.86-.74-2.85-.74-.87,0-1.61.12-2.22.36s-1.08.57-1.41.99c-.32.42-.49.9-.49,1.42s.18,1.02.54,1.46c.36.45,1.03.76,2.02.96l4.51.94c1.68.34,2.86.89,3.54,1.66.67.77,1.01,1.71,1.01,2.81s-.3,2.12-.9,2.98c-.6.85-1.44,1.51-2.53,1.97-1.08.46-2.33.69-3.75.69Z"/><path d="M1124.76,103.9c1.71,0,3.22.37,4.53,1.12,1.31.75,2.34,1.82,3.08,3.23s1.12,3.09,1.12,5.03-.37,3.63-1.12,5.03-1.77,2.48-3.08,3.23c-1.31.75-2.82,1.12-4.53,1.12s-3.19-.37-4.51-1.12-2.36-1.82-3.1-3.23-1.12-3.09-1.12-5.03.37-3.63,1.12-5.03,1.78-2.48,3.1-3.23c1.32-.74,2.83-1.12,4.51-1.12ZM1124.76,106.39c-1.23,0-2.27.28-3.14.83s-1.53,1.34-2,2.36c-.47,1.02-.7,2.26-.7,3.7s.23,2.65.7,3.68c.47,1.03,1.14,1.83,2,2.38.87.55,1.91.83,3.14.83s2.27-.28,3.14-.83c.87-.55,1.53-1.35,2-2.38.47-1.03.7-2.26.7-3.68s-.23-2.68-.7-3.7c-.47-1.02-1.14-1.81-2-2.36s-1.91-.83-3.14-.83Z"/><path d="M1138.94,122.31v-18.04h2.53l.25,4.04-.47-.4c.39-.96.9-1.74,1.55-2.33.65-.59,1.4-1.02,2.26-1.28.85-.26,1.74-.4,2.65-.4,1.3,0,2.48.25,3.54.74,1.06.49,1.91,1.24,2.54,2.26s.96,2.3.96,3.86v11.55h-2.89v-10.54c0-2-.43-3.39-1.28-4.17-.85-.78-1.91-1.17-3.16-1.17-.87,0-1.73.2-2.6.61-.87.41-1.58,1.07-2.15,1.99-.57.91-.85,2.14-.85,3.68v9.6h-2.89Z"/><path d="M1184.12,110.65c0-1.35-.36-2.39-1.08-3.12-.72-.73-1.74-1.1-3.07-1.1-1.25,0-2.31.27-3.18.81-.87.54-1.5,1.41-1.91,2.62l-2.35-1.44c.48-1.35,1.37-2.44,2.67-3.27,1.3-.83,2.91-1.24,4.84-1.24,1.3,0,2.48.22,3.54.67,1.06.45,1.89,1.12,2.51,2.02.61.9.92,2.06.92,3.48v8.73c0,.87.46,1.3,1.37,1.3.46,0,.9-.06,1.33-.18l-.14,2.27c-.48.24-1.11.36-1.88.36-.7,0-1.32-.13-1.88-.4s-.99-.67-1.3-1.21c-.31-.54-.47-1.22-.47-2.04v-.36l.72.11c-.29.94-.78,1.7-1.48,2.29-.7.59-1.48,1.02-2.35,1.3-.87.28-1.72.42-2.56.42-1.06,0-2.04-.18-2.96-.54-.92-.36-1.64-.91-2.18-1.64-.54-.73-.81-1.64-.81-2.72,0-1.35.45-2.46,1.35-3.34.9-.88,2.16-1.47,3.77-1.79l7.15-1.41v2.38l-5.81,1.19c-1.18.24-2.06.58-2.64,1.01s-.87,1.03-.87,1.8.3,1.35.88,1.82c.59.47,1.42.7,2.51.7.7,0,1.37-.09,2-.27.64-.18,1.21-.46,1.71-.83.51-.37.9-.84,1.19-1.41s.43-1.23.43-2v-4.98Z"/><path d="M1202.85,122.67c-1.01,0-1.95-.18-2.82-.54-.86-.36-1.61-.87-2.24-1.52-.63-.65-1.1-1.38-1.41-2.2l.4-.51-.25,4.4h-2.53v-26.34h2.89v12.38l-.36-.54c.48-1.13,1.29-2.06,2.44-2.8,1.14-.73,2.45-1.1,3.91-1.1s2.86.37,4.11,1.12c1.25.75,2.25,1.82,2.99,3.21s1.12,3.08,1.12,5.05-.38,3.63-1.14,5.03c-.76,1.41-1.76,2.48-3.01,3.23-1.25.75-2.62,1.12-4.11,1.12ZM1202.56,120.14c1.78,0,3.17-.63,4.17-1.88,1-1.25,1.5-2.91,1.5-4.98s-.49-3.73-1.48-4.98c-.99-1.25-2.37-1.88-4.15-1.88-1.13,0-2.12.29-2.98.87s-1.52,1.38-2,2.42c-.48,1.03-.72,2.25-.72,3.64s.23,2.57.7,3.59c.47,1.02,1.13,1.81,1.99,2.36.85.55,1.85.83,2.98.83Z"/><path d="M1223.13,122.67c-1.76,0-3.37-.37-4.85-1.12s-2.62-1.8-3.41-3.18l2.45-1.77c.53,1.11,1.3,1.97,2.33,2.6,1.02.63,2.26.94,3.7.94,1.28,0,2.27-.25,3-.74.72-.49,1.08-1.14,1.08-1.93,0-.51-.16-.97-.49-1.39-.32-.42-.94-.73-1.86-.92l-4.33-.9c-1.76-.36-3.01-.96-3.77-1.8-.76-.84-1.14-1.89-1.14-3.14,0-.99.28-1.89.85-2.71.56-.82,1.37-1.47,2.42-1.97,1.05-.49,2.28-.74,3.7-.74,1.78,0,3.28.35,4.51,1.05,1.23.7,2.14,1.68,2.74,2.96l-2.42,1.59c-.41-1.06-1.07-1.83-1.99-2.33-.91-.49-1.86-.74-2.85-.74-.86,0-1.61.12-2.22.36-.61.24-1.08.57-1.41.99s-.49.9-.49,1.42.18,1.02.54,1.46c.36.45,1.03.76,2.02.96l4.51.94c1.68.34,2.86.89,3.54,1.66.67.77,1.01,1.71,1.01,2.81s-.3,2.12-.9,2.98c-.6.85-1.44,1.51-2.53,1.97-1.08.46-2.33.69-3.75.69Z"/><path d="M1243.12,103.9c1.71,0,3.22.37,4.53,1.12,1.31.75,2.34,1.82,3.09,3.23s1.12,3.09,1.12,5.03-.37,3.63-1.12,5.03-1.77,2.48-3.09,3.23-2.82,1.12-4.53,1.12-3.19-.37-4.51-1.12-2.36-1.82-3.1-3.23-1.12-3.09-1.12-5.03.37-3.63,1.12-5.03,1.78-2.48,3.1-3.23c1.32-.74,2.83-1.12,4.51-1.12ZM1243.12,106.39c-1.23,0-2.27.28-3.14.83s-1.53,1.34-2,2.36c-.47,1.02-.7,2.26-.7,3.7s.23,2.65.7,3.68c.47,1.03,1.14,1.83,2,2.38.87.55,1.91.83,3.14.83s2.27-.28,3.14-.83c.87-.55,1.53-1.35,2-2.38.47-1.03.7-2.26.7-3.68s-.23-2.68-.7-3.7c-.47-1.02-1.14-1.81-2-2.36s-1.91-.83-3.14-.83Z"/><path d="M1257.3,122.31v-18.04h2.35l.4,2.96c.5-1.11,1.24-1.94,2.22-2.49.97-.55,2.16-.83,3.55-.83.31,0,.65.02,1.03.07.37.05.69.14.96.29l-.5,2.63c-.26-.1-.55-.17-.87-.22-.31-.05-.76-.07-1.33-.07-.75,0-1.5.22-2.26.65-.76.43-1.39,1.09-1.9,1.97-.5.88-.76,1.99-.76,3.34v9.74h-2.89Z"/><path d="M1280.87,122.67c-1.01,0-1.95-.18-2.81-.54-.87-.36-1.61-.87-2.24-1.52-.63-.65-1.1-1.38-1.41-2.2l.4-.51-.25,4.4h-2.53v-26.34h2.89v12.38l-.36-.54c.48-1.13,1.29-2.06,2.44-2.8,1.14-.73,2.45-1.1,3.92-1.1s2.86.37,4.11,1.12c1.25.75,2.25,1.82,3,3.21.75,1.4,1.12,3.08,1.12,5.05s-.38,3.63-1.14,5.03-1.76,2.48-3.01,3.23c-1.25.75-2.62,1.12-4.11,1.12ZM1280.58,120.14c1.78,0,3.17-.63,4.17-1.88,1-1.25,1.5-2.91,1.5-4.98s-.49-3.73-1.48-4.98-2.37-1.88-4.15-1.88c-1.13,0-2.12.29-2.98.87-.85.58-1.52,1.38-2,2.42-.48,1.03-.72,2.25-.72,3.64s.23,2.57.7,3.59c.47,1.02,1.13,1.81,1.98,2.36s1.85.83,2.98.83Z"/><path d="M1296.1,100.8c-.65,0-1.17-.2-1.57-.6-.4-.4-.6-.92-.6-1.57s.2-1.17.6-1.57c.4-.4.92-.6,1.57-.6s1.17.2,1.57.6c.4.4.59.92.59,1.57s-.2,1.17-.59,1.57c-.4.4-.92.6-1.57.6ZM1297.54,104.26v18.04h-2.89v-18.04h2.89Z"/><path d="M1311.29,122.67c-1.49,0-2.86-.37-4.11-1.12-1.25-.75-2.25-1.82-3-3.23s-1.12-3.09-1.12-5.03.4-3.69,1.19-5.09c.79-1.39,1.84-2.46,3.14-3.19,1.3-.73,2.69-1.1,4.19-1.1s2.78.39,3.88,1.15c1.1.77,1.82,1.79,2.18,3.07l-.36.25v-12.41h2.89v26.34h-2.53l-.25-4.37.4-.22c-.17,1.06-.57,1.95-1.21,2.69-.64.73-1.42,1.29-2.35,1.68-.93.38-1.91.58-2.94.58ZM1311.58,120.14c1.15,0,2.16-.29,3.01-.87s1.52-1.4,1.99-2.47c.47-1.07.7-2.33.7-3.77s-.23-2.55-.7-3.54c-.47-.99-1.12-1.74-1.95-2.27-.83-.53-1.8-.79-2.9-.79-1.83,0-3.25.63-4.26,1.88s-1.52,2.91-1.52,4.98.49,3.73,1.48,4.98c.99,1.25,2.37,1.88,4.15,1.88Z"/><path d="M1337.42,110.65c0-1.35-.36-2.39-1.08-3.12-.72-.73-1.75-1.1-3.07-1.1-1.25,0-2.31.27-3.17.81-.87.54-1.5,1.41-1.91,2.62l-2.35-1.44c.48-1.35,1.37-2.44,2.67-3.27,1.3-.83,2.91-1.24,4.84-1.24,1.3,0,2.48.22,3.54.67,1.06.45,1.9,1.12,2.51,2.02.61.9.92,2.06.92,3.48v8.73c0,.87.46,1.3,1.37,1.3.46,0,.9-.06,1.34-.18l-.14,2.27c-.48.24-1.11.36-1.88.36-.7,0-1.32-.13-1.88-.4-.55-.26-.99-.67-1.3-1.21-.31-.54-.47-1.22-.47-2.04v-.36l.72.11c-.29.94-.78,1.7-1.48,2.29-.7.59-1.48,1.02-2.35,1.3-.87.28-1.72.42-2.56.42-1.06,0-2.05-.18-2.96-.54-.91-.36-1.64-.91-2.18-1.64-.54-.73-.81-1.64-.81-2.72,0-1.35.45-2.46,1.35-3.34.9-.88,2.16-1.47,3.77-1.79l7.14-1.41v2.38l-5.81,1.19c-1.18.24-2.06.58-2.63,1.01s-.87,1.03-.87,1.8.29,1.35.88,1.82c.59.47,1.43.7,2.51.7.7,0,1.37-.09,2-.27.64-.18,1.21-.46,1.71-.83.5-.37.9-.84,1.19-1.41s.43-1.23.43-2v-4.98Z"/><path d="M1353.8,122.67c-1.76,0-3.37-.37-4.85-1.12s-2.62-1.8-3.41-3.18l2.45-1.77c.53,1.11,1.3,1.97,2.33,2.6,1.02.63,2.26.94,3.7.94,1.27,0,2.27-.25,2.99-.74.72-.49,1.08-1.14,1.08-1.93,0-.51-.16-.97-.49-1.39-.32-.42-.94-.73-1.86-.92l-4.33-.9c-1.76-.36-3.01-.96-3.77-1.8-.76-.84-1.14-1.89-1.14-3.14,0-.99.28-1.89.85-2.71.57-.82,1.37-1.47,2.42-1.97,1.05-.49,2.28-.74,3.7-.74,1.78,0,3.28.35,4.51,1.05,1.23.7,2.14,1.68,2.74,2.96l-2.42,1.59c-.41-1.06-1.07-1.83-1.98-2.33-.92-.49-1.86-.74-2.85-.74-.87,0-1.61.12-2.22.36s-1.08.57-1.41.99c-.32.42-.49.9-.49,1.42s.18,1.02.54,1.46c.36.45,1.03.76,2.02.96l4.51.94c1.68.34,2.86.89,3.54,1.66.67.77,1.01,1.71,1.01,2.81s-.3,2.12-.9,2.98c-.6.85-1.44,1.51-2.53,1.97-1.08.46-2.33.69-3.75.69Z"/><g id="d"><path d="M56.9,425.94c-4.22,2.75-6.03,2.67-10.08-.35-13.59-10.15-26.51-21.07-38.52-33.06C2.94,387.17-.19,380.81,0,373.08c.18-7.16,3.18-13.08,8.18-18.06,24.71-24.59,52.5-45.05,83.21-61.53,20.87-11.2,42.69-20.08,65.62-26.12,25.83-6.81,52.12-9.68,78.79-7.94,30.63,1.99,59.94,9.65,88.15,21.66,28.5,12.13,54.6,28.27,79.09,47.13,2.57,1.98,3.86,4.39,3.47,7.64-3.18,5.64-6.46,6.3-11.83,2.38-.85-.62-1.69-1.26-2.52-1.9-9.62-7.42-19.61-14.32-29.97-20.68-20.01-12.3-40.95-22.64-63.29-30.05-2.97-.99-2.99-.94-5-.53,26.9,23.61,41.59,53.1,41.48,89.03-.12,35.86-15.01,65.24-42.14,88.62,1.67,1.18,2.85.39,3.91.02,17.2-5.9,33.81-13.13,49.75-21.91,28.32-15.6,54.02-34.69,76.98-57.47,6.02-5.97,6.14-13.16.19-19.18-1.61-1.63-3.32-3.18-4.9-4.84-3.36-3.51-3.44-6.65-.33-10.34,1.19-.47,2.39-.94,3.58-1.4.38,0,.77.01,1.15.02,5.02,1.26,7.84,5.39,10.92,8.9,9.99,11.4,8.99,25.72-1.81,36.38-24.45,24.15-51.83,44.32-82.04,60.65-21.25,11.49-43.51,20.57-66.92,26.65-28.02,7.27-56.48,9.91-85.36,7.11-22.38-2.16-44.09-7.29-65.23-14.91-17.47-6.29-34.25-14.08-50.33-23.37-2.45-1.41-5-2.65-7.5-3.98-4.58-2.44-5.8-5.91-3.62-10.33,3.98-3.35,5.87-3.51,10.56-.89,6.26,3.49,12.44,7.13,18.8,10.42,13.17,6.8,26.68,12.81,40.78,17.46,2.12.7,4.16,1.58,6.62,1.77-27.35-23.93-42.59-53.63-42.45-90.08.14-36.46,15.36-66.19,43.57-90.03-1.08.2-1.54.24-1.97.37-17.66,5.52-34.56,12.84-50.8,21.67-28.82,15.66-55.15,34.72-78.52,57.81-7.03,6.95-7.2,13.83-.16,20.81,11.36,11.27,23.59,21.53,36.37,31.15,4.53,3.41,5.08,6.07,2.4,10.75ZM270.18,462.31c11.61-5.76,21.17-14.15,29.18-24.1,20.14-25.01,27.16-53.58,21.09-85.02-3.86-20.01-13.55-37.23-28.03-51.63-2.61-2.6-5.1-5.45-8.49-7.17-.31-.35-.57-.76-.93-1.03-13.26-10.21-28.07-16.87-44.62-19.75-22.78-3.96-44.38-.55-64.86,9.98-5.75,2.96-11.39,6.22-16.09,10.8-2.8,1.38-4.77,3.7-6.82,5.94-.94.15-1.44.91-2.02,1.51-14.84,15.29-24.49,33.23-28.17,54.35-3.4,19.57-1.63,38.64,6.37,56.73,14.8,33.47,40.29,54.04,76.47,60.92,16.91,3.21,33.54,1.71,49.82-3.7,5.96-1.98,11.85-4.22,17.09-7.82Z" style="fill:#2e516d;"/><path d="M424.07,364.19c-1.61-1.63-3.32-3.18-4.9-4.84-2.57-2.68-3.21-5.14-1.99-7.8-4.42-4.12-8.87-8.19-13.55-12.01-2.41,1.94-5.16,1.47-8.94-1.3-.85-.62-1.69-1.26-2.52-1.9-9.62-7.42-19.61-14.32-29.97-20.68-20.01-12.3-40.95-22.64-63.29-30.05-2.97-.99-2.99-.94-5-.53,26.9,23.61,41.59,53.1,41.48,89.03-.12,35.86-15.01,65.24-42.14,88.62,1.67,1.18,2.85.39,3.91.02,17.2-5.9,33.81-13.13,49.75-21.91,28.32-15.6,54.02-34.69,76.98-57.47,6.02-5.97,6.14-13.16.19-19.18Z" style="fill:#cfecef;"/><path d="M106,373.41c.14-36.46,15.36-66.19,43.57-90.03-1.08.2-1.54.24-1.97.37-17.66,5.52-34.56,12.84-50.8,21.67-28.82,15.66-55.15,34.72-78.52,57.81-7.03,6.95-7.2,13.83-.16,20.81,11.36,11.27,23.59,21.53,36.37,31.15,3.91,2.94,4.85,5.33,3.31,8.93.67.55,1.33,1.11,2.04,1.63,1.75,1.29,3.55,2.52,5.3,3.82,2.31,1.72,4.89,2.98,7.25,4.56,3.5-2.76,5.43-2.75,9.83-.3,6.26,3.49,12.44,7.13,18.8,10.42,13.17,6.8,26.68,12.81,40.78,17.46,2.12.7,4.16,1.58,6.62,1.77-27.35-23.93-42.59-53.63-42.45-90.08Z" style="fill:#cfecef;"/><path d="M423.57,347.63c-.38,0-.77-.01-1.15-.02" style="fill:#cfecef;"/><path d="M320.45,353.19c-3.86-20.01-13.55-37.23-28.03-51.63-2.61-2.6-5.1-5.45-8.49-7.17-1.66.6-3.26.01-4.87-.3-4.29-.83-8.58-1.66-12.88-2.45-.62-.11-1.3.05-2.56.12,5.83,5.18,1.71,9.68-.31,14.29-.42.96-1.03,1.83-1.53,2.75-1.83,3.37-5.5,4.61-8.78,2.94-2.78-1.41-4.32-5.44-2.7-8.41,2.33-4.28,3.9-9.13,8.45-12.27-2.75-1.21-5.4-1.42-7.95-1.71-13.08-1.49-26.23-2.38-39.38-1.7-10.24.53-20.45,1.47-30.62,3.04-7.43,1.15-14.74,2.81-22.14,4.05-.52.09-.92.12-1.23-.37-2.8,1.38-4.77,3.7-6.82,5.94-.42,4.5-3.52,7.93-4.8,12.12-1.46,4.77-3.14,9.47-4.49,14.29-2.54,9.1-3.6,18.43-4.41,27.76-.57,6.54-.31,13.15.68,19.69.54,3.56.38,7.21,1.41,10.72.24.83.34,1.68,1.14,2.43,1.81.39,3.6-.46,5.43-.8,3.08-.57,6.38,1.41,7.65,4.7.88,2.29-.72,5.31-3.58,6.74-1.94.97-3.97,1.69-6.64,1.97,3.9,12.59,10.12,23.54,18.54,33.16,11.84,13.52,26.85,22.03,44.15,26.85,1.12-2.08,1.39-4.06,1.16-6.04-.29-2.57.54-4.9,1.29-7.24.61-1.92,4.01-3.7,6.16-3.4,3.21.44,5.07,2.26,5.22,5.12.24,4.57-.24,9.13-.69,13.32.76,1.16,1.54,1.53,2.43,1.54,6.39.04,12.68,1.43,19.1,1.22,9.33-.31,18.62-.96,27.82-2.57.78-.14,1.48-.48,1.98.43,11.61-5.76,21.17-14.15,29.18-24.1,20.14-25.01,27.16-53.58,21.09-85.02ZM168.96,301.26c0-3.43,1.61-5.6,4.82-6.59,2.03-.62,5.14.78,6.57,3.05,1.63,2.57,3.15,5.2,4.79,7.76,2.58,4.03.43,7.69-1.87,9.28-2.63,1.81-6.44.75-8.68-2.42-1.85-2.63-3.49-5.41-5.23-8.11-.62-.97-.3-2.04-.4-2.96ZM233.45,418.31c-19.76,5.84-41.15-2.4-52.24-20.16-11.48-18.38-9.31-41.12,6.51-57.14,15.02-15.22,37.16-18.07,55.38-7.87-5.52,21.94,2.5,36.41,23.81,43.68-.53,16.68-12.89,35.4-33.46,41.48ZM293.24,430.06c-1.12,2.36-2.79,4.42-5.84,3.91-4.09.49-5.88-2.96-8.46-4.84-1.64-1.19-3.61-2.24-4.63-4.16-1.55-2.92-.82-6.04,1.83-8.17,2.18-1.75,5.94-1.63,8.5.49,2.41,2.01,4.69,4.18,6.99,6.32,1.91,1.78,2.76,4.06,1.63,6.45ZM309.02,400.35c-.73,2.99-2.75,4.36-7.6,4.35-3.17-.63-7.39-1.75-11.35-3.6-2.24-1.05-3.32-4.55-2.53-7.02.91-2.84,4.09-4.91,7.27-4.23,3.6.77,7.17,1.81,10.63,3.06,2.68.97,4.25,4.69,3.58,7.43Z" style="fill:#74b5e9;"/><path d="M268.2,461.88c-9.2,1.61-18.49,2.26-27.82,2.57-6.42.22-12.71-1.18-19.1-1.22-.89,0-1.67-.37-2.43-1.54.45-4.19.93-8.74.69-13.32-.15-2.86-2.02-4.68-5.22-5.12-2.15-.3-5.55,1.48-6.16,3.4-.75,2.34-1.58,4.67-1.29,7.24.23,1.99-.05,3.96-1.16,6.04-17.29-4.83-32.3-13.33-44.15-26.85-8.42-9.62-14.64-20.57-18.54-33.16,2.68-.28,4.7-1,6.64-1.97,2.86-1.43,4.47-4.45,3.58-6.74-1.27-3.29-4.57-5.27-7.65-4.7-1.83.34-3.62,1.18-5.43.8-.81-.75-.9-1.6-1.14-2.43-1.03-3.51-.87-7.16-1.41-10.72-.99-6.54-1.25-13.14-.68-19.69.81-9.34,1.87-18.66,4.41-27.76,1.35-4.82,3.03-9.52,4.49-14.29,1.28-4.18,4.37-7.62,4.8-12.12-.94.15-1.44.91-2.02,1.51-14.84,15.29-24.49,33.23-28.17,54.35-3.4,19.57-1.63,38.64,6.37,56.73,14.8,33.47,40.29,54.04,76.47,60.92,16.91,3.21,33.54,1.71,49.82-3.7,5.96-1.98,11.85-4.22,17.09-7.82-.5-.91-1.2-.57-1.98-.43Z" style="fill:#68a2d0;"/><path d="M158.67,294.75c7.4-1.24,14.71-2.9,22.14-4.05,10.17-1.57,20.38-2.52,30.62-3.04,13.16-.68,26.3.21,39.38,1.7,2.55.29,5.2.5,7.95,1.71-4.56,3.15-6.12,7.99-8.45,12.27-1.61,2.96-.08,6.99,2.7,8.41,3.28,1.66,6.95.43,8.78-2.94.5-.92,1.11-1.79,1.53-2.75,2.02-4.61,6.14-9.1.31-14.29,1.26-.07,1.93-.24,2.56-.12,4.3.78,8.59,1.62,12.88,2.45,1.61.31,3.2.9,4.87.3-.31-.35-.57-.76-.93-1.03-13.26-10.21-28.07-16.87-44.62-19.75-22.78-3.96-44.38-.55-64.86,9.98-5.75,2.96-11.39,6.22-16.09,10.8.3.48.7.45,1.23.37Z" style="fill:#68a2d0;"/><path d="M169.36,304.22c1.74,2.71,3.38,5.49,5.23,8.11,2.24,3.17,6.05,4.23,8.68,2.42,2.3-1.58,4.45-5.24,1.87-9.28-1.64-2.56-3.17-5.19-4.79-7.76-1.43-2.27-4.54-3.67-6.57-3.05-3.21.98-4.82,3.16-4.82,6.59.1.92-.22,1.99.4,2.96Z" style="fill:#68a2d0;"/><path d="M291.61,423.61c-2.29-2.15-4.57-4.32-6.99-6.32-2.55-2.12-6.32-2.24-8.5-.49-2.65,2.13-3.38,5.26-1.83,8.17,1.02,1.93,3,2.97,4.63,4.16,2.58,1.88,4.37,5.33,8.46,4.84,3.05.5,4.72-1.55,5.84-3.91,1.13-2.4.28-4.67-1.63-6.45Z" style="fill:#68a2d0;"/><path d="M305.44,392.92c-3.46-1.26-7.03-2.3-10.63-3.06-3.18-.68-6.37,1.39-7.27,4.23-.79,2.47.29,5.97,2.53,7.02,3.96,1.85,8.18,2.97,11.35,3.6,4.85,0,6.86-1.36,7.6-4.35.67-2.75-.9-6.46-3.58-7.43Z" style="fill:#68a2d0;"/><path d="M243.1,333.14c-5.52,21.94,2.5,36.41,23.81,43.68-.53,16.68-12.89,35.4-33.46,41.48-19.76,5.84-41.15-2.4-52.24-20.16-11.48-18.38-9.31-41.12,6.51-57.14,15.02-15.22,37.16-18.07,55.38-7.87Z" style="fill:#37638a;"/><path d="M240.86,345.25c.02-17.65,14.43-31.97,32.04-31.83,17.42.14,31.72,14.37,31.82,31.68.1,17.46-14.42,32.09-31.92,32.14-17.55.06-31.96-14.38-31.94-31.99Z" style="fill:#f5f5f5;"/></g><path d="M645.88,84.48v330.19l-163.49,47.32V38.62l163.49,45.86Z" style="fill:#90bcec;"/><path d="M1136.34,222.07l-163.49-45.87v143.83l163.49-47.32,88.87-25.72-88.87-24.93Z" style="fill:#2b5b92;"/><path d="M973.02,176.2v143.83l-163.49,47.32v-237.01l163.49,45.86Z" style="fill:#578bc7;"/><path d="M809.2,130.35v237.01l-163.49,47.32V84.48l163.49,45.87Z" style="fill:#62a2eb;"/><path d="M1014.3,246.17h-3.9l-1.01-3.28h-4.97l-1.03,3.28h-3.81l5.1-14.52h4.54l5.08,14.52ZM1005.12,240.32h3.57l-1.78-5.87-1.79,5.87ZM1020.24,231.67v10.58c0,.53.13.91.38,1.14.26.22.62.33,1.07.33.36,0,.66-.04.91-.11.26-.09.49-.21.7-.37l.4,2.31c-.37.26-.83.47-1.39.62-.56.15-1.13.22-1.72.22-.83,0-1.56-.12-2.17-.35-.61-.24-1.08-.61-1.41-1.12-.33-.51-.49-1.2-.51-2.05v-10.16l3.74-1.03ZM1023.52,235.17v2.66h-8.91v-2.66h8.91ZM1031.11,246.39c-1.21,0-2.27-.23-3.16-.68-.88-.46-1.57-1.11-2.05-1.96-.48-.85-.73-1.88-.73-3.08s.25-2.23.73-3.08c.48-.85,1.16-1.5,2.02-1.96.88-.46,1.89-.68,3.02-.68s2.14.23,2.95.68c.82.44,1.44,1.06,1.87,1.85.42.78.63,1.67.63,2.68,0,.26,0,.53-.02.79-.01.26-.03.48-.06.66h-8.72v-2h7.07l-1.79.68c0-.88-.16-1.56-.48-2.02-.31-.47-.79-.7-1.45-.7-.47,0-.87.11-1.21.33-.32.22-.57.57-.75,1.03-.16.47-.24,1.07-.24,1.8s.09,1.31.28,1.76c.2.44.47.76.82.97.35.19.78.29,1.27.29.56,0,1-.11,1.32-.33.34-.22.59-.53.75-.92l2.99.99c-.2.63-.56,1.17-1.07,1.61-.5.43-1.1.75-1.81.97-.69.22-1.41.33-2.18.33ZM1038.99,246.17v-11h3.34l.2,3.78-.42-.42c.15-.79.4-1.45.77-1.98.38-.53.85-.92,1.41-1.19.57-.28,1.21-.42,1.91-.42.77,0,1.43.15,1.98.44.57.29,1.02.73,1.34,1.3.33.57.49,1.29.49,2.16v7.33h-3.74v-6.34c0-.76-.15-1.29-.44-1.58s-.67-.44-1.12-.44c-.36,0-.69.09-.99.26-.31.16-.55.42-.73.79-.18.37-.26.86-.26,1.47v5.83h-3.74ZM1058.34,234.95c1.12,0,2.04.16,2.78.48.74.31,1.32.73,1.73,1.25.43.51.69,1.07.8,1.67l-3.46,1.14c-.1-.63-.29-1.1-.57-1.41-.26-.32-.65-.48-1.17-.48-.47,0-.86.11-1.18.33-.31.21-.55.54-.71,1.01-.16.46-.24,1.04-.24,1.76s.09,1.3.26,1.76c.18.44.43.76.75.97.32.19.71.29,1.15.29.36,0,.66-.07.9-.2.25-.15.45-.35.61-.62.16-.26.27-.59.31-.97l3.37,1.08c-.11.64-.38,1.22-.84,1.74-.44.5-1.03.9-1.76,1.19s-1.59.44-2.57.44c-1.21,0-2.25-.22-3.15-.66-.89-.46-1.58-1.11-2.07-1.96-.48-.87-.72-1.9-.72-3.1s.24-2.23.72-3.08c.49-.87,1.16-1.52,2.03-1.96.88-.46,1.89-.68,3.03-.68ZM1067.98,233.89c-.76,0-1.32-.14-1.67-.42-.34-.29-.51-.75-.51-1.36s.17-1.09.51-1.36c.35-.29.91-.44,1.67-.44s1.3.15,1.65.44c.35.28.53.73.53,1.36s-.18,1.07-.53,1.36c-.35.28-.9.42-1.65.42ZM1069.85,235.17v11h-3.74v-11h3.74ZM1078.25,234.95c1.16,0,2.17.23,3.04.68.88.44,1.56,1.09,2.04,1.96.5.85.75,1.88.75,3.08s-.25,2.24-.75,3.1c-.48.85-1.16,1.5-2.04,1.96-.87.44-1.88.66-3.04.66s-2.13-.22-3.01-.66c-.88-.46-1.57-1.11-2.07-1.96-.49-.87-.73-1.9-.73-3.1s.24-2.23.73-3.08c.5-.87,1.19-1.52,2.07-1.96.88-.46,1.88-.68,3.01-.68ZM1078.25,237.61c-.43,0-.79.1-1.1.31-.31.21-.54.54-.7.99-.17.46-.25,1.04-.25,1.76s.08,1.3.25,1.76c.16.44.39.77.7.99.31.21.67.31,1.1.31s.81-.1,1.12-.31c.31-.22.54-.55.71-.99.16-.46.24-1.04.24-1.76s-.08-1.3-.24-1.76c-.17-.46-.4-.79-.71-.99-.31-.21-.68-.31-1.12-.31ZM1078.03,229.93h3.48l-2.23,3.81h-2.72l1.47-3.81ZM1086.68,246.17v-11h3.35l.2,3.78-.42-.42c.14-.79.4-1.45.77-1.98.38-.53.85-.92,1.41-1.19.57-.28,1.21-.42,1.91-.42.76,0,1.42.15,1.98.44.57.29,1.02.73,1.34,1.3.32.57.49,1.29.49,2.16v7.33h-3.74v-6.34c0-.76-.15-1.29-.44-1.58-.3-.29-.67-.44-1.13-.44-.35,0-.68.09-.99.26-.3.16-.55.42-.72.79-.18.37-.27.86-.27,1.47v5.83h-3.74ZM1004.93,267.76c-1.1,0-2.13-.18-3.08-.53-.94-.37-1.71-.89-2.33-1.56l1.76-2.07c.37.47.85.87,1.45,1.19.62.31,1.3.46,2.05.46.45,0,.83-.07,1.12-.2.29-.13.44-.34.44-.62,0-.21-.07-.37-.22-.48-.15-.13-.44-.24-.88-.33l-1.54-.31c-1.38-.28-2.36-.69-2.95-1.23-.57-.56-.86-1.28-.86-2.18,0-.6.19-1.17.55-1.72.37-.56.93-1,1.7-1.34.76-.35,1.74-.53,2.92-.53s2.1.16,2.95.48c.85.32,1.53.79,2.03,1.41l-1.79,2.02c-.35-.44-.8-.79-1.36-1.03-.56-.25-1.12-.37-1.67-.37-.35,0-.66.04-.9.11-.24.06-.42.15-.53.26-.12.12-.18.26-.18.44,0,.19.09.36.27.51.19.13.53.25,1.03.35l2,.4c1.13.21,1.94.58,2.44,1.12s.75,1.2.75,1.96c0,.72-.19,1.36-.57,1.94-.38.57-.95,1.03-1.72,1.36-.76.32-1.72.48-2.88.48ZM1017.85,267.76c-1.22,0-2.28-.23-3.17-.68-.88-.46-1.56-1.11-2.05-1.96-.48-.85-.72-1.88-.72-3.08s.24-2.23.72-3.08c.49-.85,1.16-1.5,2.03-1.96.88-.46,1.88-.68,3.01-.68s2.14.23,2.95.68c.82.44,1.44,1.06,1.87,1.85.42.78.64,1.67.64,2.68,0,.26-.01.53-.03.79,0,.26-.03.48-.06.66h-8.71v-2h7.06l-1.78.68c0-.88-.17-1.56-.49-2.02-.31-.47-.79-.7-1.45-.7-.47,0-.87.11-1.21.33-.32.22-.57.57-.75,1.03-.16.47-.24,1.07-.24,1.8s.09,1.31.29,1.76c.19.44.46.76.81.97.35.19.78.29,1.28.29.55,0,.99-.11,1.32-.33s.58-.53.74-.92l3,.99c-.21.63-.57,1.17-1.08,1.61-.5.43-1.1.75-1.81.97-.69.22-1.41.33-2.17.33ZM1029.41,251.88v11.92c0,.48.08.83.25,1.03.16.2.43.31.81.31.22,0,.4-.01.55-.04.15-.03.32-.07.53-.13l-.24,2.24c-.27.16-.61.29-1.04.4-.42.1-.84.15-1.25.15-1.18,0-2.03-.27-2.55-.81-.53-.54-.8-1.43-.8-2.66v-12.41h3.74ZM1038.78,267.76c-1.21,0-2.27-.23-3.16-.68-.88-.46-1.57-1.11-2.05-1.96s-.73-1.88-.73-3.08.25-2.23.73-3.08,1.16-1.5,2.02-1.96c.88-.46,1.89-.68,3.02-.68s2.14.23,2.95.68c.82.44,1.44,1.06,1.87,1.85.42.78.63,1.67.63,2.68,0,.26,0,.53-.02.79-.01.26-.04.48-.06.66h-8.72v-2h7.07l-1.79.68c0-.88-.16-1.56-.48-2.02-.31-.47-.79-.7-1.45-.7-.47,0-.88.11-1.21.33s-.57.57-.75,1.03c-.16.47-.24,1.07-.24,1.8s.09,1.31.28,1.76c.19.44.47.76.82.97.35.19.77.29,1.27.29.56,0,1-.11,1.32-.33.34-.22.59-.53.75-.92l2.99.99c-.2.63-.56,1.17-1.07,1.61-.5.43-1.1.75-1.81.97-.69.22-1.41.33-2.18.33ZM1051.87,256.32c1.11,0,2.04.16,2.77.48.75.31,1.33.73,1.74,1.25.42.51.69,1.07.79,1.67l-3.45,1.14c-.11-.63-.3-1.1-.57-1.41-.27-.32-.66-.48-1.17-.48-.47,0-.87.11-1.19.33-.31.21-.54.54-.7,1.01-.16.46-.24,1.04-.24,1.76s.08,1.3.26,1.76c.18.44.42.76.75.97.32.19.7.29,1.14.29.37,0,.67-.07.9-.2.25-.15.46-.35.62-.62.16-.26.26-.59.31-.97l3.36,1.08c-.1.64-.38,1.22-.83,1.74-.44.5-1.03.9-1.76,1.19-.74.29-1.59.44-2.58.44-1.2,0-2.25-.22-3.14-.66-.9-.46-1.59-1.11-2.07-1.96-.48-.87-.73-1.9-.73-3.1s.25-2.23.73-3.08c.48-.87,1.16-1.52,2.02-1.96.88-.46,1.9-.68,3.04-.68ZM1064.24,253.05v10.58c0,.53.12.91.37,1.14.26.22.62.33,1.08.33.35,0,.65-.04.9-.11.26-.09.5-.21.7-.37l.4,2.31c-.37.26-.83.47-1.39.62-.55.15-1.13.22-1.71.22-.84,0-1.56-.12-2.18-.35-.6-.24-1.07-.61-1.41-1.12-.32-.51-.49-1.2-.5-2.05v-10.16l3.74-1.03ZM1067.51,256.54v2.66h-8.91v-2.66h8.91ZM1071.61,255.27c-.76,0-1.32-.14-1.67-.42-.34-.29-.51-.75-.51-1.36s.17-1.09.51-1.36c.35-.29.91-.44,1.67-.44s1.3.15,1.65.44c.35.28.53.73.53,1.36s-.18,1.07-.53,1.36c-.35.28-.9.42-1.65.42ZM1073.48,256.54v11h-3.74v-11h3.74ZM1083.79,256.54h3.88l-3.96,11h-4.47l-3.96-11h3.94l2.26,8.38,2.31-8.38ZM1095.38,260.57c0-.51-.15-.92-.44-1.21-.28-.31-.66-.46-1.15-.46s-.9.12-1.25.37c-.34.24-.57.66-.7,1.28l-3.17-.75c.2-1.06.75-1.9,1.63-2.53s2.11-.95,3.71-.95c1.07,0,1.98.16,2.73.48.76.31,1.34.78,1.74,1.41.41.62.62,1.38.62,2.29v4.03c0,.57.25.86.77.86.26,0,.47-.03.63-.09l-.22,2.13c-.44.21-.97.31-1.6.31-.57,0-1.08-.09-1.52-.26-.44-.19-.79-.47-1.03-.84-.25-.38-.38-.86-.38-1.43v-.13l.42-.15c0,.63-.19,1.16-.57,1.58-.37.43-.85.74-1.45.95-.59.21-1.21.31-1.85.31-.75,0-1.4-.12-1.96-.35-.56-.24-.99-.57-1.3-1.01-.29-.46-.44-1.01-.44-1.67,0-.79.24-1.45.71-1.96.48-.53,1.23-.9,2.26-1.1l4.16-.86-.02,1.98-2.11.44c-.44.09-.77.22-.99.4-.21.16-.31.41-.31.75s.11.57.35.73c.23.16.51.24.84.24.24,0,.48-.04.7-.11.23-.07.44-.18.62-.33.17-.16.31-.36.41-.59.11-.24.16-.51.16-.84v-2.9Z" style="fill:#fff;"/><path d="M870.96,327.11c0-1.46.23-2.7.7-3.73s1.14-1.81,2.03-2.35c.88-.54,1.95-.81,3.21-.81s2.33.27,3.21.81c.88.54,1.56,1.32,2.03,2.35s.7,2.27.7,3.73v3.54h5.94v4.65h-17.82v-8.18ZM879.36,327.84c0-.97-.2-1.7-.59-2.19-.41-.5-1.03-.76-1.86-.76s-1.44.25-1.84.76c-.41.49-.62,1.22-.62,2.19v2.81h4.92v-2.81ZM888.79,316.96h-13.5v-4.05l2.92-.19c-1.01-.34-1.79-.85-2.35-1.51-.56-.68-.84-1.55-.84-2.59,0-.34.03-.63.08-.86.05-.25.13-.45.22-.59l3.78.46c-.07.18-.13.41-.16.7-.05.27-.08.6-.08,1,0,.54.12,1.04.35,1.51.23.47.59.85,1.05,1.13.45.27,1.03.41,1.73.41h6.81v4.59ZM889.06,298.31c0,1.49-.28,2.79-.84,3.89-.56,1.08-1.36,1.92-2.4,2.51s-2.3.89-3.78.89-2.74-.3-3.78-.89-1.84-1.42-2.4-2.48c-.56-1.08-.84-2.31-.84-3.7s.28-2.63.84-3.62c.54-1.01,1.3-1.77,2.27-2.3.95-.52,2.05-.78,3.29-.78.32,0,.65,0,.97.03.32.02.59.05.81.08v10.69h-2.46v-8.67l.84,2.19c-1.08,0-1.91.2-2.48.59-.58.38-.86.97-.86,1.78,0,.58.14,1.07.41,1.49.27.4.69.7,1.27.92.58.2,1.31.3,2.21.3s1.6-.12,2.16-.35c.54-.23.94-.57,1.19-1,.23-.43.35-.95.35-1.57,0-.68-.14-1.22-.41-1.62-.27-.41-.65-.72-1.13-.92l1.22-3.67c.77.25,1.43.69,1.97,1.32.52.61.92,1.35,1.19,2.21.27.85.41,1.74.41,2.67ZM869.18,282.41c0-.74.08-1.39.24-1.94.14-.56.32-.97.51-1.24l2.86.46c-.13.2-.22.42-.3.68-.07.25-.11.57-.11.95,0,.63.14,1.15.43,1.57.29.4.79.59,1.51.59h1.76l.76-.27h11.94v4.59h-14.75c-.86,0-1.6-.14-2.21-.41-.61-.29-1.12-.68-1.51-1.19-.4-.5-.68-1.08-.86-1.73-.18-.65-.27-1.33-.27-2.05ZM875.29,279.36h3.27v10.59h-3.27v-10.59ZM889.06,270.42c0,1.5-.28,2.79-.84,3.89-.56,1.08-1.36,1.92-2.4,2.51-1.04.59-2.3.89-3.78.89s-2.74-.3-3.78-.89c-1.04-.59-1.84-1.42-2.4-2.48-.56-1.08-.84-2.31-.84-3.7s.28-2.63.84-3.62c.54-1.01,1.3-1.77,2.27-2.3.95-.52,2.05-.78,3.29-.78.32,0,.65,0,.97.03.32.02.59.05.81.08v10.69h-2.46v-8.67l.84,2.19c-1.08,0-1.91.2-2.48.59-.58.38-.86.97-.86,1.78,0,.58.14,1.07.41,1.49.27.4.69.7,1.27.92.58.2,1.31.3,2.21.3s1.6-.12,2.16-.35c.54-.23.94-.57,1.19-1,.23-.43.35-.95.35-1.57,0-.68-.14-1.22-.41-1.62-.27-.41-.65-.72-1.13-.92l1.22-3.67c.77.25,1.43.69,1.97,1.32.52.61.92,1.35,1.19,2.21.27.85.41,1.74.41,2.67ZM888.79,260.76h-13.5v-4.05l2.92-.19c-1.01-.34-1.79-.85-2.35-1.51-.56-.68-.84-1.55-.84-2.59,0-.34.03-.63.08-.86.05-.25.13-.45.22-.59l3.78.46c-.07.18-.13.41-.16.7-.05.27-.08.6-.08,1,0,.54.12,1.04.35,1.51.23.47.59.85,1.05,1.13.45.27,1.03.41,1.73.41h6.81v4.59ZM889.06,242.11c0,1.49-.28,2.79-.84,3.89-.56,1.08-1.36,1.92-2.4,2.51s-2.3.89-3.78.89-2.74-.3-3.78-.89-1.84-1.42-2.4-2.48c-.56-1.08-.84-2.31-.84-3.7s.28-2.63.84-3.62c.54-1.01,1.3-1.77,2.27-2.3.95-.52,2.05-.78,3.29-.78.32,0,.65,0,.97.03.32.02.59.04.81.08v10.69h-2.46v-8.67l.84,2.19c-1.08,0-1.91.2-2.48.59-.58.38-.86.97-.86,1.78,0,.58.14,1.07.41,1.49.27.4.69.7,1.27.92.58.2,1.31.3,2.21.3s1.6-.12,2.16-.35c.54-.23.94-.57,1.19-1,.23-.43.35-.96.35-1.57,0-.69-.14-1.23-.41-1.62-.27-.41-.65-.72-1.13-.92l1.22-3.67c.77.25,1.43.69,1.97,1.32.52.61.92,1.35,1.19,2.21.27.85.41,1.74.41,2.67ZM888.79,232.45h-13.5v-4.1l4.65-.24-.51.51c-.97-.18-1.78-.5-2.43-.95-.65-.47-1.13-1.04-1.46-1.73-.34-.7-.51-1.49-.51-2.35,0-.94.18-1.75.54-2.43.36-.7.89-1.25,1.59-1.65.7-.4,1.58-.59,2.65-.59h8.99v4.59h-7.78c-.94,0-1.58.18-1.94.54-.36.36-.54.82-.54,1.38,0,.43.11.84.32,1.22.2.38.52.68.97.89.45.22,1.05.32,1.81.32h7.16v4.59ZM875.02,208.69c0-1.37.2-2.5.59-3.4.38-.92.89-1.63,1.54-2.13.63-.52,1.31-.85,2.05-.97l1.4,4.24c-.77.13-1.35.36-1.73.7-.4.32-.59.8-.59,1.43,0,.58.14,1.06.41,1.46.25.38.67.67,1.24.86.56.2,1.28.3,2.16.3s1.6-.11,2.16-.32c.54-.22.94-.52,1.19-.92.23-.4.35-.86.35-1.4,0-.45-.08-.82-.24-1.11-.18-.31-.43-.56-.76-.76-.32-.2-.72-.32-1.19-.38l1.32-4.13c.79.13,1.5.47,2.13,1.03.61.54,1.1,1.26,1.46,2.16.36.9.54,1.95.54,3.16,0,1.48-.27,2.76-.81,3.86-.56,1.1-1.36,1.94-2.4,2.54-1.06.59-2.33.89-3.81.89s-2.74-.3-3.78-.89c-1.06-.59-1.86-1.42-2.4-2.48-.56-1.08-.84-2.32-.84-3.73ZM873.72,196.85c0,.94-.17,1.62-.51,2.05-.36.41-.92.62-1.67.62s-1.33-.21-1.67-.62c-.36-.43-.54-1.12-.54-2.05s.18-1.59.54-2.03c.34-.43.9-.65,1.67-.65s1.31.22,1.67.65c.34.43.51,1.11.51,2.03ZM875.29,194.56h13.5v4.59h-13.5v-4.59ZM880.23,183.14c-.63,0-1.13.18-1.49.54-.38.34-.57.81-.57,1.4s.15,1.11.46,1.54c.29.41.81.7,1.57.86l-.92,3.89c-1.3-.25-2.33-.92-3.11-2s-1.16-2.6-1.16-4.56c0-1.31.2-2.43.59-3.35.38-.94.95-1.65,1.73-2.13.76-.5,1.69-.76,2.81-.76h4.94c.7,0,1.05-.31,1.05-.95,0-.32-.04-.58-.11-.78l2.62.27c.25.54.38,1.2.38,1.97,0,.7-.11,1.32-.32,1.86-.23.54-.58.96-1.03,1.27-.47.31-1.05.46-1.76.46h-.16l-.19-.51c.77,0,1.42.23,1.94.7.52.45.91,1.04,1.16,1.78.25.72.38,1.48.38,2.27,0,.92-.14,1.72-.43,2.4-.29.68-.7,1.22-1.24,1.59-.56.36-1.24.54-2.05.54-.97,0-1.77-.29-2.4-.86-.65-.59-1.1-1.52-1.35-2.78l-1.05-5.1,2.43.03.54,2.59c.11.54.27.95.49,1.22.2.25.5.38.92.38s.69-.14.89-.43c.2-.29.3-.63.3-1.03,0-.31-.05-.59-.14-.86-.09-.29-.22-.54-.41-.76-.2-.22-.44-.39-.73-.51-.29-.13-.63-.19-1.03-.19h-3.56ZM889.06,168.75c0,1.35-.22,2.61-.65,3.78-.45,1.15-1.09,2.11-1.92,2.86l-2.54-2.16c.58-.45,1.06-1.04,1.46-1.78.38-.76.57-1.59.57-2.51,0-.56-.08-1.02-.24-1.38-.16-.36-.41-.54-.76-.54-.25,0-.45.09-.59.27-.16.18-.3.54-.41,1.08l-.38,1.89c-.34,1.69-.85,2.9-1.51,3.62-.68.7-1.57,1.05-2.67,1.05-.74,0-1.44-.22-2.11-.68-.68-.45-1.23-1.14-1.65-2.08-.43-.94-.65-2.13-.65-3.59,0-1.37.2-2.57.59-3.62.4-1.04.97-1.87,1.73-2.48l2.48,2.19c-.54.43-.96.99-1.27,1.67-.31.68-.46,1.37-.46,2.05,0,.43.05.8.14,1.11.07.29.18.5.32.65s.32.22.54.22c.23,0,.44-.11.62-.32.16-.23.31-.66.43-1.27l.49-2.46c.25-1.39.71-2.39,1.38-3,.67-.61,1.47-.92,2.4-.92.88,0,1.67.23,2.38.7.7.47,1.26,1.17,1.67,2.11.4.94.59,2.12.59,3.54Z"/><path d="M714.47,342.3h17.82v4.65h-17.82v-4.65ZM732.3,338.11h-13.5v-4.1l4.65-.24-.51.51c-.97-.18-1.78-.5-2.43-.95-.65-.47-1.13-1.04-1.46-1.73-.34-.7-.51-1.49-.51-2.35,0-.94.18-1.75.54-2.43.36-.7.89-1.25,1.59-1.65.7-.4,1.58-.59,2.65-.59h8.99v4.59h-7.78c-.94,0-1.58.18-1.94.54-.36.36-.54.82-.54,1.38,0,.43.11.84.32,1.22.2.38.52.68.97.89.45.22,1.05.32,1.81.32h7.16v4.59ZM714.5,315.19h12.99c.65,0,1.12-.15,1.4-.46.27-.32.41-.76.41-1.32,0-.43-.05-.8-.14-1.11-.11-.32-.26-.61-.46-.86l2.84-.49c.32.45.58,1.02.76,1.7.18.68.27,1.39.27,2.11,0,1.03-.14,1.92-.43,2.67-.29.74-.75,1.31-1.38,1.73-.63.4-1.47.6-2.51.62h-12.48l-1.27-4.59ZM718.79,311.16h3.27v10.94h-3.27v-10.94ZM732.57,301.84c0,1.49-.28,2.79-.84,3.89-.56,1.08-1.36,1.92-2.4,2.51-1.04.59-2.3.89-3.78.89s-2.74-.3-3.78-.89c-1.04-.59-1.84-1.42-2.4-2.48-.56-1.08-.84-2.31-.84-3.7s.28-2.63.84-3.62c.54-1.01,1.3-1.77,2.27-2.3.95-.52,2.05-.78,3.29-.78.32,0,.65,0,.97.03.32.02.59.05.81.08v10.69h-2.46v-8.67l.84,2.19c-1.08,0-1.91.2-2.48.59-.58.38-.86.97-.86,1.78,0,.58.14,1.07.41,1.49.27.4.69.7,1.27.92.58.2,1.31.3,2.21.3s1.6-.12,2.16-.35c.54-.23.94-.57,1.19-1,.23-.43.35-.95.35-1.57,0-.68-.14-1.22-.41-1.62-.27-.41-.65-.72-1.13-.92l1.22-3.67c.77.25,1.43.69,1.97,1.32.52.61.92,1.35,1.19,2.21.27.85.41,1.74.41,2.67ZM732.3,292.18h-13.5v-4.05l2.92-.19c-1.01-.34-1.79-.85-2.35-1.51-.56-.68-.84-1.55-.84-2.59,0-.34.03-.63.08-.86.05-.25.13-.45.22-.59l3.78.46c-.07.18-.13.41-.16.7-.05.27-.08.6-.08,1,0,.54.12,1.04.35,1.51.23.47.59.85,1.05,1.13.45.27,1.03.41,1.73.41h6.81v4.59ZM737.97,279.96h-19.17v-4.13l4.89-.24-.57.54c-.9-.13-1.69-.41-2.38-.84-.68-.43-1.22-.99-1.62-1.67-.4-.68-.59-1.47-.59-2.35,0-1.12.28-2.09.84-2.92.54-.83,1.33-1.47,2.38-1.92,1.03-.47,2.28-.7,3.75-.7s2.75.23,3.81.7c1.06.47,1.87,1.12,2.43,1.97.56.83.84,1.8.84,2.92,0,1.22-.36,2.21-1.08,2.97-.74.76-1.67,1.26-2.78,1.51l-.65-.43h9.91v4.59ZM729.19,272.88c0-.79-.29-1.41-.86-1.86-.59-.45-1.52-.68-2.78-.68s-2.18.22-2.75.68c-.59.43-.89,1.04-.89,1.84,0,.5.14.95.43,1.32.27.38.68.68,1.22.89.54.2,1.21.3,2,.3s1.41-.09,1.97-.27c.54-.2.95-.49,1.24-.86.29-.38.43-.83.43-1.35ZM732.3,262.41h-13.5v-4.05l2.92-.19c-1.01-.34-1.79-.85-2.35-1.51-.56-.68-.84-1.55-.84-2.59,0-.34.03-.63.08-.86.05-.25.13-.45.22-.59l3.78.46c-.07.18-.13.41-.16.7-.05.27-.08.6-.08,1,0,.54.12,1.04.35,1.51.23.47.59.85,1.05,1.13.45.27,1.03.41,1.73.41h6.81v4.59ZM732.57,243.76c0,1.5-.28,2.79-.84,3.89-.56,1.08-1.36,1.92-2.4,2.51-1.04.59-2.3.89-3.78.89s-2.74-.3-3.78-.89c-1.04-.59-1.84-1.42-2.4-2.48-.56-1.08-.84-2.31-.84-3.7s.28-2.63.84-3.62c.54-1.01,1.3-1.77,2.27-2.3.95-.52,2.05-.78,3.29-.78.32,0,.65,0,.97.03.32.02.59.05.81.08v10.69h-2.46v-8.67l.84,2.19c-1.08,0-1.91.2-2.48.59-.58.38-.86.97-.86,1.78,0,.58.14,1.07.41,1.49.27.4.69.7,1.27.92.58.2,1.31.3,2.21.3s1.6-.12,2.16-.35c.54-.23.94-.57,1.19-1,.23-.43.35-.95.35-1.57,0-.68-.14-1.22-.41-1.62-.27-.41-.65-.72-1.13-.92l1.22-3.67c.77.25,1.43.69,1.97,1.32.52.61.92,1.35,1.19,2.21.27.85.41,1.74.41,2.67ZM714.5,228.61h12.99c.65,0,1.12-.15,1.4-.46.27-.32.41-.76.41-1.32,0-.43-.05-.8-.14-1.11-.11-.32-.26-.61-.46-.86l2.84-.49c.32.45.58,1.02.76,1.7s.27,1.39.27,2.11c0,1.03-.14,1.92-.43,2.67-.29.74-.75,1.31-1.38,1.73-.63.4-1.47.6-2.51.62h-12.48l-1.27-4.59ZM718.79,224.59h3.27v10.94h-3.27v-10.94ZM723.73,214.08c-.63,0-1.13.18-1.49.54-.38.34-.57.81-.57,1.4s.15,1.11.46,1.54c.29.41.81.7,1.57.86l-.92,3.89c-1.3-.25-2.33-.92-3.11-2s-1.16-2.6-1.16-4.56c0-1.31.2-2.43.59-3.35.38-.94.95-1.65,1.73-2.13.76-.5,1.69-.76,2.81-.76h4.94c.7,0,1.05-.32,1.05-.95,0-.32-.04-.59-.11-.78l2.62.27c.25.54.38,1.2.38,1.97,0,.7-.11,1.32-.32,1.86-.23.54-.58.96-1.03,1.27-.47.31-1.05.46-1.76.46h-.16l-.19-.51c.77,0,1.42.23,1.94.7.52.45.91,1.04,1.16,1.78.25.72.38,1.48.38,2.27,0,.92-.14,1.72-.43,2.4s-.7,1.22-1.24,1.59c-.56.36-1.24.54-2.05.54-.97,0-1.77-.29-2.4-.86-.65-.59-1.1-1.52-1.35-2.78l-1.05-5.1,2.43.03.54,2.59c.11.54.27.95.49,1.22.2.25.5.38.92.38s.69-.14.89-.43c.2-.29.3-.63.3-1.03,0-.31-.05-.59-.14-.86-.09-.29-.22-.54-.41-.76-.2-.22-.44-.39-.73-.51-.29-.13-.63-.19-1.03-.19h-3.56ZM718.52,199.07c0-1.37.2-2.5.59-3.4.38-.92.89-1.63,1.54-2.13.63-.52,1.31-.85,2.05-.97l1.4,4.24c-.77.13-1.35.36-1.73.7-.4.32-.59.8-.59,1.43,0,.58.14,1.06.41,1.46.25.38.67.67,1.24.86.56.2,1.28.3,2.16.3s1.6-.11,2.16-.32c.54-.22.94-.52,1.19-.92.23-.4.35-.86.35-1.4,0-.45-.08-.82-.24-1.11-.18-.31-.43-.56-.76-.76-.32-.2-.72-.32-1.19-.38l1.32-4.13c.79.13,1.5.47,2.13,1.03.61.54,1.1,1.26,1.46,2.16.36.9.54,1.95.54,3.16,0,1.48-.27,2.76-.81,3.86-.56,1.1-1.36,1.94-2.4,2.54-1.06.59-2.33.89-3.81.89s-2.74-.3-3.78-.89c-1.06-.59-1.86-1.42-2.4-2.48-.56-1.08-.84-2.32-.84-3.73ZM717.23,187.24c0,.94-.17,1.62-.51,2.05-.36.41-.92.62-1.67.62s-1.33-.21-1.67-.62c-.36-.43-.54-1.12-.54-2.05s.18-1.59.54-2.03c.34-.43.9-.65,1.67-.65s1.31.22,1.67.65c.34.43.51,1.11.51,2.03ZM718.79,184.94h13.5v4.59h-13.5v-4.59ZM718.52,174.63c0-1.42.28-2.67.84-3.73.54-1.08,1.34-1.92,2.4-2.51,1.04-.61,2.3-.92,3.78-.92s2.75.31,3.81.92c1.04.59,1.84,1.43,2.4,2.51.54,1.06.81,2.3.81,3.73s-.27,2.62-.81,3.7c-.56,1.08-1.36,1.93-2.4,2.54-1.06.59-2.33.89-3.81.89s-2.74-.3-3.78-.89c-1.06-.61-1.86-1.46-2.4-2.54-.56-1.08-.84-2.31-.84-3.7ZM721.79,174.63c0,.52.13.97.38,1.35.25.38.66.67,1.22.86s1.28.3,2.16.3,1.6-.1,2.16-.3c.54-.2.95-.49,1.22-.86.25-.38.38-.83.38-1.35s-.13-1-.38-1.38c-.27-.38-.68-.67-1.22-.86-.56-.2-1.28-.3-2.16-.3s-1.6.1-2.16.3-.96.49-1.22.86c-.25.38-.38.84-.38,1.38ZM712.36,174.9v-4.27l4.67,2.73v3.35l-4.67-1.81ZM732.3,164.28h-13.5v-4.1l4.65-.24-.51.51c-.97-.18-1.78-.49-2.43-.95-.65-.47-1.13-1.04-1.46-1.73-.34-.7-.51-1.49-.51-2.35,0-.94.18-1.75.54-2.43.36-.7.89-1.25,1.59-1.65.7-.4,1.58-.59,2.65-.59h8.99v4.59h-7.78c-.94,0-1.58.18-1.94.54-.36.36-.54.82-.54,1.38,0,.43.11.84.32,1.22.2.38.52.68.97.89s1.05.32,1.81.32h7.16v4.59Z"/><path d="M551.81,316c0-1.46.23-2.7.7-3.73.47-1.03,1.14-1.81,2.03-2.35.88-.54,1.95-.81,3.21-.81s2.33.27,3.21.81c.88.54,1.56,1.32,2.03,2.35.47,1.03.7,2.27.7,3.73v3.54h5.94v4.65h-17.82v-8.18ZM560.21,316.73c0-.97-.2-1.7-.59-2.19-.41-.5-1.03-.76-1.86-.76s-1.44.25-1.84.76c-.41.49-.62,1.22-.62,2.19v2.81h4.92v-2.81ZM569.9,299.69c0,1.49-.28,2.79-.84,3.89-.56,1.08-1.36,1.92-2.4,2.51-1.04.59-2.3.89-3.78.89s-2.74-.3-3.78-.89c-1.04-.59-1.84-1.42-2.4-2.48-.56-1.08-.84-2.31-.84-3.7s.28-2.63.84-3.62c.54-1.01,1.3-1.77,2.27-2.3.95-.52,2.05-.78,3.29-.78.32,0,.65,0,.97.03.32.02.59.05.81.08v10.69h-2.46v-8.67l.84,2.19c-1.08,0-1.91.2-2.48.59-.58.38-.86.97-.86,1.78,0,.58.14,1.07.41,1.49.27.4.69.7,1.27.92.58.2,1.31.3,2.21.3s1.6-.12,2.16-.35c.54-.23.94-.57,1.19-1,.23-.43.35-.95.35-1.57,0-.68-.14-1.22-.41-1.62-.27-.41-.65-.72-1.13-.92l1.22-3.67c.77.25,1.43.69,1.97,1.32.52.61.92,1.35,1.19,2.21.27.85.41,1.74.41,2.67ZM569.63,290.03h-13.5v-4.05l2.92-.19c-1.01-.34-1.79-.85-2.35-1.51-.56-.68-.84-1.55-.84-2.59,0-.34.03-.63.08-.86.05-.25.13-.45.22-.59l3.78.46c-.07.18-.13.41-.16.7-.05.27-.08.6-.08,1,0,.54.12,1.04.35,1.51.23.47.59.85,1.05,1.13.45.27,1.03.41,1.73.41h6.81v4.59ZM555.86,271.57c0-1.37.2-2.5.59-3.4.38-.92.89-1.63,1.54-2.13.63-.52,1.31-.85,2.05-.97l1.4,4.24c-.77.13-1.35.36-1.73.7-.4.32-.59.8-.59,1.43,0,.58.14,1.06.41,1.46.25.38.67.67,1.24.86.56.2,1.28.3,2.16.3s1.6-.11,2.16-.32c.54-.22.94-.52,1.19-.92.23-.4.35-.86.35-1.4,0-.45-.08-.82-.24-1.11-.18-.31-.43-.56-.76-.76-.32-.2-.72-.32-1.19-.38l1.32-4.13c.79.13,1.5.47,2.13,1.03.61.54,1.1,1.26,1.46,2.16.36.9.54,1.95.54,3.16,0,1.48-.27,2.76-.81,3.86-.56,1.1-1.36,1.94-2.4,2.54-1.06.59-2.33.89-3.81.89s-2.74-.3-3.78-.89c-1.06-.59-1.86-1.42-2.4-2.48-.56-1.08-.84-2.32-.84-3.73ZM569.9,255.44c0,1.49-.28,2.79-.84,3.89-.56,1.08-1.36,1.92-2.4,2.51-1.04.59-2.3.89-3.78.89s-2.74-.3-3.78-.89c-1.04-.59-1.84-1.42-2.4-2.48-.56-1.08-.84-2.31-.84-3.7s.28-2.63.84-3.62c.54-1.01,1.3-1.77,2.27-2.3.95-.52,2.05-.78,3.29-.78.32,0,.65,0,.97.03.32.02.59.05.81.08v10.69h-2.46v-8.67l.84,2.19c-1.08,0-1.91.2-2.48.59-.58.38-.86.97-.86,1.78,0,.58.14,1.07.41,1.49.27.4.69.7,1.27.92.58.2,1.31.3,2.21.3s1.6-.12,2.16-.35c.54-.23.94-.57,1.19-1,.23-.43.35-.95.35-1.57,0-.68-.14-1.22-.41-1.62-.27-.41-.65-.72-1.13-.92l1.22-3.67c.77.25,1.43.69,1.97,1.32.52.61.92,1.35,1.19,2.21.27.85.41,1.74.41,2.67ZM575.31,245.78h-19.17v-4.13l4.89-.24-.57.54c-.9-.13-1.69-.41-2.38-.84s-1.22-.99-1.62-1.67c-.4-.68-.59-1.47-.59-2.35,0-1.12.28-2.09.84-2.92.54-.83,1.33-1.47,2.38-1.92,1.03-.47,2.28-.7,3.75-.7s2.75.23,3.81.7c1.06.47,1.87,1.12,2.43,1.97.56.83.84,1.8.84,2.92,0,1.22-.36,2.21-1.08,2.97-.74.76-1.67,1.26-2.78,1.51l-.65-.43h9.91v4.59ZM566.53,238.7c0-.79-.29-1.41-.86-1.86-.59-.45-1.52-.68-2.78-.68s-2.18.22-2.75.68c-.59.43-.89,1.04-.89,1.84,0,.5.14.95.43,1.32.27.38.68.68,1.22.89.54.2,1.21.3,2,.3s1.41-.09,1.97-.27c.54-.2.95-.49,1.24-.86s.43-.83.43-1.35ZM555.86,221.83c0-1.37.2-2.5.59-3.4.38-.92.89-1.63,1.54-2.13.63-.52,1.31-.85,2.05-.97l1.4,4.24c-.77.13-1.35.36-1.73.7-.4.32-.59.8-.59,1.43,0,.58.14,1.06.41,1.46.25.38.67.67,1.24.86.56.2,1.28.3,2.16.3s1.6-.11,2.16-.32c.54-.22.94-.52,1.19-.92.23-.4.35-.86.35-1.4,0-.45-.08-.82-.24-1.11-.18-.31-.43-.56-.76-.76-.32-.2-.72-.32-1.19-.38l1.32-4.13c.79.13,1.5.47,2.13,1.03.61.54,1.1,1.26,1.46,2.16.36.9.54,1.95.54,3.16,0,1.48-.27,2.76-.81,3.86-.56,1.1-1.36,1.94-2.4,2.54-1.06.59-2.33.89-3.81.89s-2.74-.3-3.78-.89c-1.06-.59-1.86-1.42-2.4-2.48-.56-1.08-.84-2.32-.84-3.73ZM554.57,210c0,.94-.17,1.62-.51,2.05-.36.41-.92.62-1.67.62s-1.33-.21-1.67-.62c-.36-.43-.54-1.12-.54-2.05s.18-1.59.54-2.03c.34-.43.9-.65,1.67-.65s1.31.22,1.67.65c.34.43.51,1.11.51,2.03ZM556.13,207.7h13.5v4.59h-13.5v-4.59ZM555.86,197.39c0-1.42.28-2.67.84-3.73.54-1.08,1.34-1.92,2.4-2.51,1.04-.61,2.3-.92,3.78-.92s2.75.31,3.81.92c1.04.59,1.84,1.43,2.4,2.51.54,1.06.81,2.3.81,3.73s-.27,2.62-.81,3.7c-.56,1.08-1.36,1.93-2.4,2.54-1.06.59-2.33.89-3.81.89s-2.74-.3-3.78-.89c-1.06-.61-1.86-1.46-2.4-2.54-.56-1.08-.84-2.31-.84-3.7ZM559.13,197.39c0,.52.13.97.38,1.35s.66.67,1.22.86,1.28.3,2.16.3,1.6-.1,2.16-.3c.54-.2.95-.49,1.22-.86.25-.38.38-.83.38-1.35s-.13-1-.38-1.38c-.27-.38-.68-.67-1.22-.86-.56-.2-1.28-.3-2.16-.3s-1.6.1-2.16.3c-.56.2-.96.49-1.22.86s-.38.84-.38,1.38ZM549.7,197.66v-4.27l4.67,2.73v3.35l-4.67-1.81ZM569.63,187.04h-13.5v-4.1l4.65-.24-.51.51c-.97-.18-1.78-.49-2.43-.95-.65-.47-1.13-1.04-1.46-1.73-.34-.7-.51-1.49-.51-2.35,0-.94.18-1.75.54-2.43.36-.7.89-1.25,1.59-1.65.7-.4,1.58-.59,2.65-.59h8.99v4.59h-7.78c-.94,0-1.58.18-1.94.54s-.54.82-.54,1.38c0,.43.11.84.32,1.22.2.38.52.68.97.89.45.22,1.05.32,1.81.32h7.16v4.59Z"/></g></svg>