<?xml version="1.0" encoding="UTF-8"?>
<svg id="Layer_2" xmlns="http://www.w3.org/2000/svg" viewBox="0 0 160 35.52">
  <defs>
    <style>
      .cls-1 {
        fill: #0076b4;
      }
    </style>
  </defs>
  <g id="Layer_1-2" data-name="Layer_1">
    <g>
      <g>
        <g id="_x35_">
          <path class="cls-1" d="M8.05,11.43L.45,19.03c-.6.6-.6,1.57,0,2.17.6.6,1.57.6,2.17,0l6.51-6.51,6.51,6.51c.6.6,1.57.6,2.17,0,.6-.6.6-1.57,0-2.17l-7.6-7.6c-.6-.6-1.57-.6-2.17,0ZM7.59,20.57l-6.36,6.03c-.64.61-.64,1.59,0,2.19.64.61,1.67.61,2.31,0l5.2-4.94,5.2,4.94c.64.61,1.67.61,2.31,0,.64-.61.64-1.59,0-2.19l-6.36-6.03c-.64-.61-1.67-.61-2.31,0Z"/>
        </g>
        <circle class="cls-1" cx="9.16" cy="4.44" r="4.34"/>
      </g>
      <g>
        <path class="cls-1" d="M25.28,29.1V10.02h4.05v19.08h-4.05Z"/>
        <path class="cls-1" d="M47.29,29.1h-3.98v-8.52c0-1.05-.19-1.84-.56-2.37-.37-.53-.97-.79-1.79-.79-1.11,0-1.92.37-2.41,1.12s-.74,1.98-.74,3.7v6.87h-3.98v-14.59h3.04l.54,1.87h.22c.44-.7,1.06-1.24,1.83-1.6.78-.36,1.66-.54,2.66-.54,1.7,0,2.98.46,3.86,1.38.88.92,1.32,2.24,1.32,3.97v9.52Z"/>
        <path class="cls-1" d="M57.53,26.19c.7,0,1.53-.15,2.51-.46v2.96c-.99.44-2.21.67-3.65.67-1.59,0-2.75-.4-3.48-1.21-.73-.8-1.09-2.01-1.09-3.62v-7.04h-1.91v-1.68l2.19-1.33,1.15-3.08h2.55v3.11h4.09v2.99h-4.09v7.04c0,.57.16.98.48,1.25.32.27.74.4,1.26.4Z"/>
        <path class="cls-1" d="M69.59,29.36c-2.35,0-4.19-.65-5.51-1.94-1.32-1.3-1.98-3.13-1.98-5.51s.61-4.34,1.83-5.67c1.22-1.34,2.91-2,5.07-2s3.67.59,4.82,1.76,1.72,2.8,1.72,4.87v1.93h-9.41c.04,1.13.38,2.01,1.01,2.65.63.64,1.51.95,2.64.95.88,0,1.71-.09,2.49-.27s1.6-.47,2.45-.87v3.08c-.7.35-1.44.61-2.23.78-.79.17-1.76.25-2.9.25ZM69.03,17.06c-.84,0-1.51.27-1.98.8-.48.54-.75,1.29-.82,2.28h5.59c-.02-.98-.27-1.74-.77-2.28s-1.17-.8-2.01-.8Z"/>
        <path class="cls-1" d="M91.48,14.51v2.02l-2.28.59c.42.65.63,1.38.63,2.19,0,1.57-.55,2.79-1.64,3.66-1.09.87-2.61,1.31-4.55,1.31l-.72-.04-.59-.07c-.41.31-.61.66-.61,1.04,0,.57.73.86,2.19.86h2.48c1.6,0,2.82.34,3.66,1.03.84.69,1.26,1.7,1.26,3.03,0,1.71-.71,3.03-2.13,3.97s-3.47,1.41-6.13,1.41c-2.04,0-3.59-.35-4.67-1.06-1.07-.71-1.61-1.7-1.61-2.98,0-.88.27-1.61.82-2.21s1.35-1.01,2.41-1.27c-.41-.17-.77-.46-1.07-.85-.3-.4-.46-.82-.46-1.26,0-.56.16-1.02.48-1.39.32-.37.79-.73,1.4-1.09-.77-.33-1.37-.86-1.82-1.59-.45-.73-.67-1.59-.67-2.58,0-1.59.52-2.82,1.55-3.69,1.04-.87,2.51-1.31,4.44-1.31.41,0,.89.04,1.46.11.56.07.92.13,1.08.16h5.09ZM80.22,31.16c0,.55.26.98.79,1.29.53.31,1.26.47,2.21.47,1.43,0,2.55-.2,3.35-.59s1.21-.93,1.21-1.61c0-.55-.24-.93-.72-1.14-.48-.21-1.22-.31-2.22-.31h-2.06c-.73,0-1.34.17-1.83.52-.49.34-.74.8-.74,1.36ZM81.67,19.28c0,.79.18,1.42.54,1.88.36.46.91.69,1.65.69s1.3-.23,1.64-.69c.35-.46.52-1.09.52-1.88,0-1.76-.72-2.64-2.17-2.64s-2.19.88-2.19,2.64Z"/>
        <path class="cls-1" d="M102.03,14.23c.54,0,.99.04,1.34.12l-.3,3.73c-.32-.09-.71-.13-1.17-.13-1.27,0-2.26.33-2.97.98-.71.65-1.06,1.57-1.06,2.74v7.43h-3.98v-14.59h3.02l.59,2.45h.2c.45-.82,1.06-1.48,1.83-1.98.77-.5,1.61-.75,2.51-.75Z"/>
        <path class="cls-1" d="M105.86,10.73c0-1.3.72-1.94,2.17-1.94s2.17.65,2.17,1.94c0,.62-.18,1.1-.54,1.44-.36.34-.9.52-1.63.52-1.44,0-2.17-.65-2.17-1.96ZM110.01,29.1h-3.98v-14.59h3.98v14.59Z"/>
        <path class="cls-1" d="M118.8,29.36c-1.71,0-3.06-.67-4.04-2s-1.47-3.18-1.47-5.53.5-4.26,1.49-5.59c1-1.34,2.37-2,4.12-2,1.84,0,3.24.71,4.2,2.14h.13c-.2-1.09-.3-2.06-.3-2.91v-4.67h3.99v20.31h-3.05l-.77-1.89h-.17c-.91,1.44-2.28,2.15-4.14,2.15ZM120.2,26.19c1.02,0,1.76-.3,2.24-.89.47-.59.73-1.6.78-3.02v-.43c0-1.57-.24-2.69-.72-3.37s-1.27-1.02-2.36-1.02c-.89,0-1.58.38-2.07,1.13-.49.75-.74,1.85-.74,3.28s.25,2.51.74,3.23,1.21,1.08,2.13,1.08Z"/>
        <path class="cls-1" d="M140.37,29.1l-.77-1.98h-.1c-.67.84-1.36,1.43-2.07,1.76-.71.33-1.63.49-2.77.49-1.4,0-2.5-.4-3.31-1.2-.81-.8-1.21-1.94-1.21-3.42s.54-2.69,1.63-3.43c1.08-.74,2.72-1.14,4.9-1.22l2.53-.08v-.64c0-1.48-.76-2.22-2.27-2.22-1.17,0-2.54.35-4.11,1.06l-1.32-2.69c1.68-.88,3.54-1.32,5.59-1.32s3.46.43,4.5,1.28c1.04.85,1.57,2.15,1.57,3.89v9.72h-2.78ZM139.19,22.34l-1.54.05c-1.16.03-2.02.24-2.58.63-.57.38-.85.97-.85,1.75,0,1.12.64,1.68,1.93,1.68.92,0,1.66-.27,2.21-.8.55-.53.83-1.24.83-2.11v-1.2Z"/>
        <path class="cls-1" d="M151.87,29.36c-1.71,0-3.06-.67-4.04-2s-1.47-3.18-1.47-5.53.5-4.26,1.49-5.59c1-1.34,2.37-2,4.12-2,1.84,0,3.24.71,4.2,2.14h.13c-.2-1.09-.3-2.06-.3-2.91v-4.67h3.99v20.31h-3.05l-.77-1.89h-.17c-.91,1.44-2.28,2.15-4.14,2.15ZM153.26,26.19c1.02,0,1.76-.3,2.24-.89.47-.59.73-1.6.78-3.02v-.43c0-1.57-.24-2.69-.72-3.37s-1.27-1.02-2.36-1.02c-.89,0-1.58.38-2.07,1.13-.49.75-.74,1.85-.74,3.28s.25,2.51.74,3.23,1.21,1.08,2.13,1.08Z"/>
      </g>
      <g>
        <path class="cls-1" d="M28.04,1.56c0,.45-.15.79-.46,1.03-.3.24-.74.36-1.3.36h-.52v1.73h-.51V.28h1.14c1.1,0,1.65.43,1.65,1.28ZM25.76,2.51h.46c.45,0,.78-.07.98-.22.2-.15.3-.38.3-.7,0-.29-.1-.51-.29-.65-.19-.14-.49-.21-.89-.21h-.57v1.79Z"/>
        <path class="cls-1" d="M30.39,1.32c.15,0,.28.01.39.04l-.07.46c-.14-.03-.26-.05-.36-.05-.27,0-.49.11-.68.32s-.28.49-.28.81v1.77h-.5V1.38h.41l.06.61h.02c.12-.21.27-.38.44-.5.17-.12.36-.17.57-.17Z"/>
        <path class="cls-1" d="M34.24,3.03c0,.54-.14.96-.41,1.26-.27.3-.64.45-1.12.45-.29,0-.56-.07-.79-.21s-.41-.34-.53-.6c-.12-.26-.19-.56-.19-.91,0-.54.13-.96.4-1.26.27-.3.64-.45,1.12-.45s.83.15,1.1.46c.27.31.41.72.41,1.25ZM31.73,3.03c0,.42.08.74.25.96.17.22.42.33.74.33s.58-.11.74-.33c.17-.22.25-.54.25-.96s-.08-.74-.25-.96c-.17-.22-.42-.33-.75-.33s-.57.11-.74.32c-.17.21-.25.53-.25.96Z"/>
        <path class="cls-1" d="M37.82,1.38v.32l-.61.07c.06.07.11.16.15.28.04.11.07.24.07.38,0,.32-.11.58-.33.77-.22.19-.52.29-.91.29-.1,0-.19,0-.28-.02-.21.11-.32.25-.32.42,0,.09.04.16.11.2.07.04.2.06.38.06h.58c.36,0,.63.08.82.23.19.15.29.37.29.66,0,.37-.15.64-.44.83-.29.19-.72.29-1.28.29-.43,0-.76-.08-1-.24-.23-.16-.35-.39-.35-.68,0-.2.06-.37.19-.52.13-.15.31-.25.54-.3-.08-.04-.15-.1-.21-.18-.06-.08-.09-.17-.09-.28,0-.12.03-.23.1-.32.06-.09.17-.18.3-.26-.17-.07-.31-.19-.42-.36-.11-.17-.16-.36-.16-.58,0-.36.11-.64.32-.83s.52-.29.92-.29c.17,0,.33.02.47.06h1.14ZM35.19,5.24c0,.18.08.31.23.41.15.09.37.14.65.14.42,0,.73-.06.93-.19.2-.13.3-.3.3-.51,0-.18-.06-.3-.17-.37-.11-.07-.32-.1-.62-.1h-.6c-.23,0-.4.05-.53.16s-.19.26-.19.47ZM35.46,2.44c0,.23.07.41.2.52.13.12.31.18.54.18.49,0,.73-.24.73-.71s-.25-.74-.74-.74c-.23,0-.42.06-.54.19s-.19.31-.19.56Z"/>
        <path class="cls-1" d="M40,1.32c.15,0,.28.01.39.04l-.07.46c-.14-.03-.26-.05-.36-.05-.27,0-.49.11-.68.32s-.28.49-.28.81v1.77h-.5V1.38h.41l.06.61h.02c.12-.21.27-.38.44-.5.17-.12.36-.17.57-.17Z"/>
        <path class="cls-1" d="M43.04,4.68l-.1-.47h-.02c-.16.21-.33.35-.49.42-.16.07-.37.11-.61.11-.33,0-.58-.08-.77-.25-.19-.17-.28-.41-.28-.72,0-.67.53-1.01,1.6-1.05l.56-.02v-.2c0-.26-.06-.45-.17-.57s-.29-.19-.53-.19c-.27,0-.59.08-.93.25l-.15-.38c.16-.09.34-.16.53-.21.19-.05.39-.08.58-.08.39,0,.68.09.87.26s.28.45.28.84v2.25h-.37ZM41.91,4.33c.31,0,.56-.09.73-.26.18-.17.27-.41.27-.72v-.3l-.5.02c-.4.01-.68.08-.86.19-.18.11-.26.28-.26.51,0,.18.05.32.16.41.11.09.26.14.46.14Z"/>
        <path class="cls-1" d="M48.64,4.68v-2.15c0-.26-.06-.46-.17-.59-.11-.13-.29-.2-.52-.2-.31,0-.54.09-.69.27-.15.18-.22.45-.22.82v1.84h-.5v-2.15c0-.26-.06-.46-.17-.59-.11-.13-.29-.2-.53-.2-.31,0-.54.09-.69.28-.15.19-.22.49-.22.92v1.73h-.5V1.38h.41l.08.45h.02c.09-.16.23-.29.4-.38s.36-.14.58-.14c.52,0,.85.19,1.01.56h.02c.1-.17.24-.31.43-.41.19-.1.4-.15.64-.15.37,0,.65.1.84.29.19.19.28.5.28.92v2.15h-.5Z"/>
        <path class="cls-1" d="M52.2,4.68l-.1-.47h-.02c-.16.21-.33.35-.49.42-.16.07-.37.11-.61.11-.33,0-.58-.08-.77-.25-.19-.17-.28-.41-.28-.72,0-.67.53-1.01,1.6-1.05l.56-.02v-.2c0-.26-.06-.45-.17-.57s-.29-.19-.53-.19c-.27,0-.59.08-.93.25l-.15-.38c.16-.09.34-.16.53-.21.19-.05.39-.08.58-.08.39,0,.68.09.87.26s.28.45.28.84v2.25h-.37ZM51.07,4.33c.31,0,.56-.09.73-.26.18-.17.27-.41.27-.72v-.3l-.5.02c-.4.01-.68.08-.86.19-.18.11-.26.28-.26.51,0,.18.05.32.16.41.11.09.26.14.46.14Z"/>
        <path class="cls-1" d="M57.2,2.38h1.5v2.14c-.23.07-.47.13-.71.17s-.52.06-.84.06c-.67,0-1.18-.2-1.56-.59-.37-.4-.56-.95-.56-1.67,0-.46.09-.86.28-1.2.18-.34.45-.61.79-.79.34-.18.75-.27,1.21-.27s.91.09,1.31.26l-.2.45c-.4-.17-.78-.25-1.15-.25-.54,0-.95.16-1.25.48s-.45.76-.45,1.33c0,.59.14,1.04.43,1.35.29.31.72.46,1.28.46.3,0,.6-.04.89-.11v-1.35h-.98v-.46Z"/>
        <path class="cls-1" d="M60.18,4.68h-.5V0h.5v4.68Z"/>
        <path class="cls-1" d="M64.09,3.03c0,.54-.14.96-.41,1.26-.27.3-.64.45-1.12.45-.29,0-.56-.07-.79-.21s-.41-.34-.53-.6c-.12-.26-.19-.56-.19-.91,0-.54.13-.96.4-1.26.27-.3.64-.45,1.12-.45s.83.15,1.1.46c.27.31.41.72.41,1.25ZM61.57,3.03c0,.42.08.74.25.96.17.22.42.33.74.33s.58-.11.74-.33c.17-.22.25-.54.25-.96s-.08-.74-.25-.96c-.17-.22-.42-.33-.75-.33s-.57.11-.74.32c-.17.21-.25.53-.25.96Z"/>
        <path class="cls-1" d="M66.5,1.33c.43,0,.77.15,1.01.44.24.3.36.71.36,1.26s-.12.96-.36,1.26c-.24.3-.58.45-1.01.45-.21,0-.41-.04-.59-.12s-.33-.2-.45-.37h-.04l-.11.42h-.36V0h.5v1.14c0,.25,0,.48-.02.69h.02c.23-.33.58-.49,1.03-.49ZM66.42,1.75c-.34,0-.59.1-.74.29s-.23.53-.23.99.08.79.23.99c.15.2.4.3.74.3.31,0,.54-.11.69-.34.15-.22.23-.55.23-.96s-.08-.75-.23-.96-.38-.32-.7-.32Z"/>
        <path class="cls-1" d="M70.76,4.68l-.1-.47h-.02c-.16.21-.33.35-.49.42-.16.07-.37.11-.61.11-.33,0-.58-.08-.77-.25-.19-.17-.28-.41-.28-.72,0-.67.53-1.01,1.6-1.05l.56-.02v-.2c0-.26-.06-.45-.17-.57s-.29-.19-.53-.19c-.27,0-.59.08-.93.25l-.15-.38c.16-.09.34-.16.53-.21.19-.05.39-.08.58-.08.39,0,.68.09.87.26s.28.45.28.84v2.25h-.37ZM69.64,4.33c.31,0,.56-.09.73-.26.18-.17.27-.41.27-.72v-.3l-.5.02c-.4.01-.68.08-.86.19-.18.11-.26.28-.26.51,0,.18.05.32.16.41.11.09.26.14.46.14Z"/>
        <path class="cls-1" d="M72.66,4.68h-.5V0h.5v4.68Z"/>
        <path class="cls-1" d="M77.57,4.24h-.03c-.23.33-.58.5-1.03.5-.43,0-.77-.15-1.01-.44-.24-.29-.36-.71-.36-1.26s.12-.97.36-1.27.58-.45,1-.45.79.16,1.03.49h.04l-.02-.24v-.23s-.01-1.34-.01-1.34h.5v4.68h-.41l-.07-.44ZM76.57,4.32c.34,0,.59-.09.74-.28.15-.19.23-.48.23-.9v-.11c0-.47-.08-.8-.23-1-.16-.2-.4-.3-.74-.3-.29,0-.52.11-.67.34-.16.23-.23.55-.23.96s.08.74.23.95c.15.21.38.32.68.32Z"/>
        <path class="cls-1" d="M80.49,4.74c-.49,0-.87-.15-1.15-.45-.28-.3-.42-.71-.42-1.24s.13-.95.39-1.27.61-.47,1.05-.47c.41,0,.74.14.98.41.24.27.36.63.36,1.08v.32h-2.27c0,.39.11.68.29.88.19.2.45.3.78.3.36,0,.71-.07,1.05-.22v.45c-.18.08-.34.13-.5.16-.16.03-.35.05-.57.05ZM80.36,1.74c-.26,0-.48.09-.63.26-.16.17-.25.41-.28.72h1.72c0-.31-.07-.56-.21-.72-.14-.17-.34-.25-.6-.25Z"/>
        <path class="cls-1" d="M84.23,4.68V.28h.51v4.4h-.51Z"/>
        <path class="cls-1" d="M88.13,4.68v-2.13c0-.27-.06-.47-.18-.6-.12-.13-.31-.2-.57-.2-.35,0-.6.09-.76.28-.16.19-.24.49-.24.92v1.73h-.5V1.38h.41l.08.45h.02c.1-.16.25-.29.43-.38.18-.09.39-.13.62-.13.4,0,.7.1.9.29.2.19.3.5.3.92v2.15h-.5Z"/>
        <path class="cls-1" d="M90.72,4.33c.09,0,.17,0,.26-.02.08-.01.15-.03.2-.04v.38c-.05.03-.13.05-.24.06-.11.02-.2.03-.28.03-.64,0-.96-.34-.96-1.01v-1.96h-.47v-.24l.47-.21.21-.7h.29v.76h.96v.39h-.96v1.94c0,.2.05.35.14.46.09.11.22.16.39.16Z"/>
        <path class="cls-1" d="M93.22,4.74c-.49,0-.87-.15-1.15-.45-.28-.3-.42-.71-.42-1.24s.13-.95.39-1.27.61-.47,1.05-.47c.41,0,.74.14.98.41.24.27.36.63.36,1.08v.32h-2.27c0,.39.11.68.29.88.19.2.45.3.78.3.36,0,.71-.07,1.05-.22v.45c-.18.08-.34.13-.5.16-.16.03-.35.05-.57.05ZM93.09,1.74c-.26,0-.48.09-.63.26-.16.17-.25.41-.28.72h1.72c0-.31-.07-.56-.21-.72-.14-.17-.34-.25-.6-.25Z"/>
        <path class="cls-1" d="M97.99,1.38v.32l-.61.07c.06.07.11.16.15.28.04.11.07.24.07.38,0,.32-.11.58-.33.77-.22.19-.52.29-.91.29-.1,0-.19,0-.28-.02-.21.11-.32.25-.32.42,0,.09.04.16.11.2.07.04.2.06.38.06h.58c.36,0,.63.08.82.23.19.15.29.37.29.66,0,.37-.15.64-.44.83-.29.19-.72.29-1.28.29-.43,0-.76-.08-1-.24-.23-.16-.35-.39-.35-.68,0-.2.06-.37.19-.52.13-.15.31-.25.54-.3-.08-.04-.15-.1-.21-.18-.06-.08-.09-.17-.09-.28,0-.12.03-.23.1-.32.06-.09.17-.18.3-.26-.17-.07-.31-.19-.42-.36-.11-.17-.16-.36-.16-.58,0-.36.11-.64.32-.83s.52-.29.92-.29c.17,0,.33.02.47.06h1.14ZM95.36,5.24c0,.18.08.31.23.41.15.09.37.14.65.14.42,0,.73-.06.93-.19.2-.13.3-.3.3-.51,0-.18-.06-.3-.17-.37-.11-.07-.32-.1-.62-.1h-.6c-.23,0-.4.05-.53.16s-.19.26-.19.47ZM95.63,2.44c0,.23.07.41.2.52.13.12.31.18.54.18.49,0,.73-.24.73-.71s-.25-.74-.74-.74c-.23,0-.42.06-.54.19s-.19.31-.19.56Z"/>
        <path class="cls-1" d="M100.17,1.32c.15,0,.28.01.39.04l-.07.46c-.14-.03-.26-.05-.36-.05-.27,0-.49.11-.68.32s-.28.49-.28.81v1.77h-.5V1.38h.41l.06.61h.02c.12-.21.27-.38.44-.5.17-.12.36-.17.57-.17Z"/>
        <path class="cls-1" d="M101.14.49c0-.11.03-.2.08-.25.06-.05.13-.08.21-.08s.15.03.21.08c.06.05.09.14.09.25s-.03.2-.09.25c-.06.06-.13.08-.21.08-.08,0-.15-.03-.21-.08-.06-.06-.08-.14-.08-.25ZM101.68,4.68h-.5V1.38h.5v3.3Z"/>
        <path class="cls-1" d="M104.98,4.24h-.03c-.23.33-.58.5-1.03.5-.43,0-.77-.15-1.01-.44-.24-.29-.36-.71-.36-1.26s.12-.97.36-1.27.58-.45,1-.45.79.16,1.03.49h.04l-.02-.24v-.23s-.01-1.34-.01-1.34h.5v4.68h-.41l-.07-.44ZM103.98,4.32c.34,0,.59-.09.74-.28.15-.19.23-.48.23-.9v-.11c0-.47-.08-.8-.23-1-.16-.2-.4-.3-.74-.3-.29,0-.52.11-.67.34-.16.23-.23.55-.23.96s.08.74.23.95c.15.21.38.32.68.32Z"/>
        <path class="cls-1" d="M108.54,4.68l-.1-.47h-.02c-.16.21-.33.35-.49.42-.16.07-.37.11-.61.11-.33,0-.58-.08-.77-.25-.19-.17-.28-.41-.28-.72,0-.67.53-1.01,1.6-1.05l.56-.02v-.2c0-.26-.06-.45-.17-.57s-.29-.19-.53-.19c-.27,0-.59.08-.93.25l-.15-.38c.16-.09.34-.16.53-.21.19-.05.39-.08.58-.08.39,0,.68.09.87.26s.28.45.28.84v2.25h-.37ZM107.41,4.33c.31,0,.56-.09.73-.26.18-.17.27-.41.27-.72v-.3l-.5.02c-.4.01-.68.08-.86.19-.18.11-.26.28-.26.51,0,.18.05.32.16.41.11.09.26.14.46.14Z"/>
        <path class="cls-1" d="M112.18,4.24h-.03c-.23.33-.58.5-1.03.5-.43,0-.77-.15-1.01-.44-.24-.29-.36-.71-.36-1.26s.12-.97.36-1.27.58-.45,1-.45.79.16,1.03.49h.04l-.02-.24v-.23s-.01-1.34-.01-1.34h.5v4.68h-.41l-.07-.44ZM111.19,4.32c.34,0,.59-.09.74-.28.15-.19.23-.48.23-.9v-.11c0-.47-.08-.8-.23-1-.16-.2-.4-.3-.74-.3-.29,0-.52.11-.67.34-.16.23-.23.55-.23.96s.08.74.23.95c.15.21.38.32.68.32Z"/>
        <path class="cls-1" d="M114.79,1.38h.54l.72,1.88c.16.43.26.74.29.93h.02c.03-.1.08-.28.16-.53.08-.25.36-1.01.82-2.29h.54l-1.42,3.75c-.14.37-.3.63-.49.79-.19.16-.42.23-.69.23-.15,0-.3-.02-.45-.05v-.4c.11.02.23.04.37.04.34,0,.59-.19.73-.58l.18-.47-1.33-3.32Z"/>
        <path class="cls-1" d="M121.98.68c-.48,0-.86.16-1.14.48s-.42.76-.42,1.32.13,1.02.4,1.33c.27.31.65.47,1.15.47.31,0,.66-.06,1.05-.17v.45c-.3.11-.68.17-1.13.17-.65,0-1.15-.2-1.5-.59-.35-.39-.53-.95-.53-1.68,0-.45.08-.85.25-1.19.17-.34.41-.6.73-.79.32-.18.7-.28,1.13-.28.46,0,.86.08,1.21.25l-.22.44c-.33-.16-.67-.23-1-.23Z"/>
        <path class="cls-1" d="M124.38,1.38v2.14c0,.27.06.47.18.6.12.13.31.2.57.2.34,0,.6-.09.76-.28.16-.19.24-.5.24-.92v-1.73h.5v3.3h-.41l-.07-.44h-.03c-.1.16-.24.29-.43.37-.18.09-.39.13-.62.13-.4,0-.7-.1-.9-.29-.2-.19-.3-.5-.3-.91V1.38h.51Z"/>
        <path class="cls-1" d="M131.89,4.68v-2.15c0-.26-.06-.46-.17-.59-.11-.13-.29-.2-.52-.2-.31,0-.54.09-.69.27-.15.18-.22.45-.22.82v1.84h-.5v-2.15c0-.26-.06-.46-.17-.59-.11-.13-.29-.2-.53-.2-.31,0-.54.09-.69.28-.15.19-.22.49-.22.92v1.73h-.5V1.38h.41l.08.45h.02c.09-.16.23-.29.4-.38s.36-.14.58-.14c.52,0,.85.19,1.01.56h.02c.1-.17.24-.31.43-.41.19-.1.4-.15.64-.15.37,0,.65.1.84.29.19.19.28.5.28.92v2.15h-.5Z"/>
        <path class="cls-1" d="M134.96,4.74c-.21,0-.41-.04-.59-.12s-.33-.2-.45-.37h-.04c.02.19.04.38.04.55v1.36h-.5V1.38h.41l.07.45h.02c.13-.18.28-.31.45-.39.17-.08.37-.12.59-.12.44,0,.77.15,1.01.45.24.3.36.72.36,1.26s-.12.96-.36,1.26c-.24.3-.58.45-1.01.45ZM134.88,1.75c-.34,0-.58.09-.73.28s-.23.48-.23.89v.11c0,.46.08.79.23.99.15.2.4.3.74.3.28,0,.51-.12.67-.35.16-.23.24-.55.24-.95s-.08-.73-.24-.95c-.16-.22-.39-.33-.68-.33Z"/>
        <path class="cls-1" d="M137.7,4.68h-.5V0h.5v4.68Z"/>
        <path class="cls-1" d="M138.71.49c0-.11.03-.2.08-.25.06-.05.13-.08.21-.08s.15.03.21.08c.06.05.09.14.09.25s-.03.2-.09.25c-.06.06-.13.08-.21.08-.08,0-.15-.03-.21-.08-.06-.06-.08-.14-.08-.25ZM139.26,4.68h-.5V1.38h.5v3.3Z"/>
        <path class="cls-1" d="M144.52,4.68v-2.15c0-.26-.06-.46-.17-.59-.11-.13-.29-.2-.52-.2-.31,0-.54.09-.69.27-.15.18-.22.45-.22.82v1.84h-.5v-2.15c0-.26-.06-.46-.17-.59-.11-.13-.29-.2-.53-.2-.31,0-.54.09-.69.28-.15.19-.22.49-.22.92v1.73h-.5V1.38h.41l.08.45h.02c.09-.16.23-.29.4-.38s.36-.14.58-.14c.52,0,.85.19,1.01.56h.02c.1-.17.24-.31.43-.41.19-.1.4-.15.64-.15.37,0,.65.1.84.29.19.19.28.5.28.92v2.15h-.5Z"/>
        <path class="cls-1" d="M146,.49c0-.11.03-.2.08-.25.06-.05.13-.08.21-.08s.15.03.21.08c.06.05.09.14.09.25s-.03.2-.09.25c-.06.06-.13.08-.21.08-.08,0-.15-.03-.21-.08-.06-.06-.08-.14-.08-.25ZM146.55,4.68h-.5V1.38h.5v3.3Z"/>
        <path class="cls-1" d="M149,4.74c-.49,0-.87-.15-1.15-.45-.28-.3-.42-.71-.42-1.24s.13-.95.39-1.27.61-.47,1.05-.47c.41,0,.74.14.98.41.24.27.36.63.36,1.08v.32h-2.27c0,.39.11.68.29.88.19.2.45.3.78.3.36,0,.71-.07,1.05-.22v.45c-.18.08-.34.13-.5.16-.16.03-.35.05-.57.05ZM148.86,1.74c-.26,0-.48.09-.63.26-.16.17-.25.41-.28.72h1.72c0-.31-.07-.56-.21-.72-.14-.17-.34-.25-.6-.25Z"/>
        <path class="cls-1" d="M153.32,4.68v-2.13c0-.27-.06-.47-.18-.6-.12-.13-.31-.2-.57-.2-.35,0-.6.09-.76.28-.16.19-.24.49-.24.92v1.73h-.5V1.38h.41l.08.45h.02c.1-.16.25-.29.43-.38.18-.09.39-.13.62-.13.4,0,.7.1.9.29.2.19.3.5.3.92v2.15h-.5Z"/>
        <path class="cls-1" d="M155.91,4.33c.09,0,.17,0,.26-.02.08-.01.15-.03.2-.04v.38c-.05.03-.13.05-.24.06-.11.02-.2.03-.28.03-.64,0-.96-.34-.96-1.01v-1.96h-.47v-.24l.47-.21.21-.7h.29v.76h.96v.39h-.96v1.94c0,.2.05.35.14.46.09.11.22.16.39.16Z"/>
        <path class="cls-1" d="M159.87,3.03c0,.54-.14.96-.41,1.26-.27.3-.64.45-1.12.45-.29,0-.56-.07-.79-.21s-.41-.34-.53-.6c-.12-.26-.19-.56-.19-.91,0-.54.13-.96.4-1.26.27-.3.64-.45,1.12-.45s.83.15,1.1.46c.27.31.41.72.41,1.25ZM157.35,3.03c0,.42.08.74.25.96.17.22.42.33.74.33s.58-.11.74-.33c.17-.22.25-.54.25-.96s-.08-.74-.25-.96c-.17-.22-.42-.33-.75-.33s-.57.11-.74.32c-.17.21-.25.53-.25.96Z"/>
      </g>
    </g>
  </g>
</svg>