<svg width="23" height="8" viewBox="0 0 23 8" fill="none" xmlns="http://www.w3.org/2000/svg">
<path opacity="0.56" d="M22.0614 1.845C21.3786 2.37 20.8476 2.985 20.3621 3.555C19.3152 4.8 18.6021 5.55 17.1759 5.55C15.7497 5.55 15.0366 4.785 13.9897 3.555C12.9276 2.31 11.6228 0.75 9.05865 0.75C6.49451 0.75 5.17451 2.31 4.12761 3.555C3.08072 4.8 2.36761 5.55 0.941406 5.55V7.8C3.50554 7.8 4.82554 6.24 5.87244 4.995C6.91934 3.75 7.63244 3 9.05865 3C10.4849 3 11.198 3.765 12.2449 4.995C13.3069 6.24 14.6118 7.8 17.1759 7.8C19.74 7.8 21.06 6.24 22.1069 4.995C22.1221 4.98 22.1373 4.965 22.1524 4.95C22.0917 3.915 22.0614 2.88 22.0462 1.845H22.0614Z" fill="white"/>
</svg>
