<svg width="484" height="635" viewBox="0 0 484 635" fill="none" xmlns="http://www.w3.org/2000/svg">
<g clip-path="url(#clip0_542_2794)">
<path d="M250.432 108.031H224.684V634.78H250.432V108.031Z" fill="#595959"/>
<path d="M258.898 108.031H233.15V634.78H258.898V108.031Z" fill="#767676"/>
<path d="M224.081 475.486L8.50475 259.89C-1.9656 249.4 -2.89976 233.345 6.44182 224.003L224.003 6.44148C233.345 -2.9001 249.401 -1.96594 259.871 8.52388L475.428 224.12C485.898 234.61 486.833 250.665 477.491 260.007L259.929 477.588C250.588 486.93 234.532 485.995 224.062 475.506L224.081 475.486Z" fill="#FFA41A"/>
<path d="M232.002 468.168L15.822 251.969C9.90562 246.053 9.38016 236.945 14.6543 231.671L231.651 14.6541C236.925 9.38004 246.033 9.9055 251.95 15.8218L468.13 232.04C474.046 237.957 474.571 247.065 469.297 252.339L252.3 469.356C247.026 474.63 237.918 474.104 232.002 468.188V468.168ZM248.641 19.1303C244.768 15.2574 238.794 14.9071 235.349 18.3518L18.352 235.368C14.8878 238.833 15.2381 244.788 19.111 248.68L235.291 464.899C239.164 468.772 245.138 469.122 248.583 465.677L465.58 248.661C469.044 245.197 468.694 239.241 464.821 235.349L248.641 19.1303Z" fill="white"/>
</g>
<defs>
<clipPath id="clip0_542_2794">
<rect width="483.952" height="634.78" fill="white"/>
</clipPath>
</defs>
</svg>
