<svg width="398" height="628" viewBox="0 0 398 628" fill="none" xmlns="http://www.w3.org/2000/svg">
<path d="M207.409 108.307H182.032V627.976H207.409V108.307Z" fill="#595959"/>
<path d="M215.753 108.307H190.376V627.976H215.753V108.307Z" fill="#767676"/>
<path d="M184.18 391.22L7.00106 213.831C-1.61142 205.21 -2.37868 191.981 5.29391 184.301L184.123 5.29904C191.795 -2.38099 204.992 -1.61299 213.605 7.00785L390.784 184.397C399.396 193.018 400.163 206.247 392.491 213.927L213.662 392.929C205.989 400.609 192.793 399.841 184.18 391.22Z" fill="#FFA41A"/>
<path d="M190.702 385.191L13.0048 207.303C8.13274 202.426 7.71074 194.938 12.0458 190.599L190.395 12.0572C194.73 7.71796 202.211 8.15956 207.083 13.0172L384.78 190.906C389.652 195.783 390.074 203.271 385.739 207.61L207.371 386.151C203.036 390.491 195.555 390.049 190.683 385.191H190.702ZM204.378 15.7244C201.194 12.5372 196.284 12.2492 193.445 15.0908L15.0764 193.651C12.2376 196.493 12.5253 201.408 15.7094 204.595L193.406 382.484C196.591 385.671 201.501 385.959 204.34 383.118L382.708 204.576C385.547 201.735 385.259 196.819 382.075 193.632L204.378 15.7244Z" fill="white"/>
</svg>
