<svg width="292" height="629" viewBox="0 0 292 629" fill="none" xmlns="http://www.w3.org/2000/svg">
<g clip-path="url(#clip0_542_2803)">
<path d="M154.322 108.375H128.886V628.473H154.322V108.375Z" fill="#595959"/>
<path d="M162.684 108.375H137.249V628.473H162.684V108.375Z" fill="#767676"/>
<path d="M131.04 283.336L7.78633 160.162C-0.845825 151.534 -1.61484 138.294 6.07528 130.607L130.963 5.79999C138.653 -1.88638 151.899 -1.11774 160.531 7.51021L283.766 130.684C292.398 139.312 293.167 152.552 285.477 160.238L160.589 285.046C152.899 292.732 139.672 291.964 131.021 283.336H131.04Z" fill="#FFA41A"/>
<path d="M137.557 277.321L13.8231 153.628C8.93984 148.747 8.51688 141.253 12.8618 136.91L137.269 12.5636C141.614 8.22075 149.112 8.66272 153.995 13.5243L277.729 137.198C282.612 142.079 283.035 149.573 278.69 153.916L154.283 278.262C149.938 282.605 142.44 282.163 137.557 277.301V277.321ZM151.284 16.2338C148.093 13.0439 143.171 12.7557 140.326 15.5997L15.8994 139.965C13.0541 142.809 13.3424 147.728 16.5338 150.918L140.268 274.592C143.459 277.782 148.381 278.07 151.226 275.226L275.633 150.88C278.479 148.036 278.19 143.117 274.999 139.927L151.284 16.2338Z" fill="white"/>
<path d="M269.443 403.896H22.1092C9.90115 403.896 0.00012207 395.076 0.00012207 384.219V334.527C0.00012207 323.651 9.90115 314.85 22.1092 314.85H269.443C281.651 314.85 291.552 323.67 291.552 334.527V384.219C291.552 395.095 281.651 403.896 269.443 403.896Z" fill="#FFA41A"/>
<path d="M269.808 395.018H21.7442C14.8423 395.018 9.22852 390.022 9.22852 383.873V334.834C9.22852 328.685 14.8423 323.689 21.7442 323.689H269.808C276.71 323.689 282.324 328.685 282.324 334.834V383.873C282.324 390.022 276.71 395.018 269.808 395.018ZM21.7442 327.532C17.2262 327.532 13.5542 330.799 13.5542 334.834V383.873C13.5542 387.889 17.2262 391.175 21.7442 391.175H269.808C274.326 391.175 277.998 387.909 277.998 383.873V334.834C277.998 330.818 274.326 327.532 269.808 327.532H21.7442Z" fill="white"/>
</g>
<defs>
<clipPath id="clip0_542_2803">
<rect width="291.552" height="627.957" fill="white" transform="translate(0 0.496094)"/>
</clipPath>
</defs>
</svg>
