<svg width="13" height="13" viewBox="0 0 13 13" fill="none" xmlns="http://www.w3.org/2000/svg">
<g clip-path="url(#clip0_27_4559)">
<path d="M1.55405 12.9277C1.19923 12.9277 0.817115 12.7913 0.544175 12.5183C-0.00170432 11.9725 -0.00170432 11.0718 0.544175 10.5259L2.48205 8.588C3.02793 8.04212 3.92863 8.04212 4.47451 8.588C5.02039 9.13388 5.02039 10.0346 4.47451 10.5805L2.53664 12.5183C2.2637 12.7913 1.90887 12.9277 1.52676 12.9277H1.55405Z" fill="#02A5A5"/>
<path d="M9.63315 4.8487C9.27833 4.8487 8.89622 4.71223 8.62328 4.43929C8.0774 3.89341 8.0774 2.99271 8.62328 2.44683L10.5612 0.508958C11.107 -0.0369216 12.0077 -0.0369216 12.5536 0.508958C13.0995 1.05484 13.0995 1.95554 12.5536 2.50142L10.6157 4.43929C10.3428 4.71223 9.98798 4.8487 9.60586 4.8487H9.63315Z" fill="#02A5A5"/>
<path d="M3.49193 4.84871C3.1371 4.84871 2.75499 4.71224 2.48205 4.4393L0.544175 2.50143C-0.00170431 1.92826 -0.00170431 1.02756 0.544175 0.481675C1.11735 -0.0642043 1.99076 -0.0642043 2.56393 0.481675L4.5018 2.41955C5.04768 2.96543 5.04768 3.86613 4.5018 4.41201C4.22886 4.68495 3.87404 4.82142 3.49193 4.82142V4.84871Z" fill="#02A5A5"/>
<path d="M11.571 12.9277C11.2162 12.9277 10.8341 12.7913 10.5612 12.5183L8.62328 10.5805C8.0774 10.0346 8.0774 9.13388 8.62328 8.588C9.16916 8.04212 10.0699 8.04212 10.6157 8.588L12.5536 10.5259C13.0995 11.0718 13.0995 11.9725 12.5536 12.5183C12.2807 12.7913 11.9258 12.9277 11.5437 12.9277H11.571Z" fill="#02A5A5"/>
</g>
<defs>
<clipPath id="clip0_27_4559">
<rect width="12.8555" height="12.8555" fill="white" transform="translate(0.134766 0.0722656)"/>
</clipPath>
</defs>
</svg>
