<svg width="464" height="255" viewBox="0 0 464 255" fill="none" xmlns="http://www.w3.org/2000/svg">
<path fill-rule="evenodd" clip-rule="evenodd" d="M12.81 95C12.81 95 14.35 107.69 15.52 109.79C16.89 112.23 25.62 113.31 25.62 113.31C25.62 113.31 17.12 114.62 15.83 116.92C14.56 119.18 12.81 131.62 12.81 131.62C12.81 131.62 11.13 118.85 9.78999 116.46C8.57999 114.3 0 113.31 0 113.31C0 113.31 8.68 112.05 10 109.7C11.24 107.49 12.82 95 12.82 95H12.81Z" fill="#E1251B"/>
<path fill-rule="evenodd" clip-rule="evenodd" d="M53.89 199C53.89 199 54.6 204.82 55.14 205.78C55.77 206.9 59.78 207.39 59.78 207.39C59.78 207.39 55.87 207.99 55.28 209.05C54.7 210.09 53.89 215.79 53.89 215.79C53.89 215.79 53.12 209.93 52.5 208.84C51.94 207.85 48 207.4 48 207.4C48 207.4 51.99 206.82 52.59 205.74C53.16 204.73 53.88 199 53.88 199H53.89Z" fill="#E1251B"/>
<path fill-rule="evenodd" clip-rule="evenodd" d="M43.14 123.4C43.14 123.4 43.85 129.22 44.39 130.19C45.02 131.31 49.03 131.8 49.03 131.8C49.03 131.8 45.12 132.4 44.53 133.46C43.95 134.5 43.14 140.2 43.14 140.2C43.14 140.2 42.37 134.34 41.75 133.25C41.19 132.26 37.25 131.8 37.25 131.8C37.25 131.8 41.24 131.22 41.85 130.15C42.42 129.14 43.14 123.41 43.14 123.41V123.4Z" fill="#E1251B"/>
<path fill-rule="evenodd" clip-rule="evenodd" d="M16.81 166.78C16.81 166.78 18.35 179.47 19.52 181.57C20.89 184.01 29.62 185.08 29.62 185.08C29.62 185.08 21.12 186.39 19.83 188.69C18.56 190.96 16.81 203.39 16.81 203.39C16.81 203.39 15.13 190.63 13.79 188.24C12.58 186.08 4 185.09 4 185.09C4 185.09 12.68 183.83 14 181.49C15.24 179.28 16.82 166.79 16.82 166.79L16.81 166.78Z" fill="#E1251B"/>
<path fill-rule="evenodd" clip-rule="evenodd" d="M450.97 95C450.97 95 449.43 107.69 448.26 109.79C446.89 112.23 438.16 113.31 438.16 113.31C438.16 113.31 446.66 114.62 447.95 116.92C449.22 119.18 450.97 131.62 450.97 131.62C450.97 131.62 452.65 118.85 453.99 116.46C455.2 114.3 463.78 113.31 463.78 113.31C463.78 113.31 455.1 112.05 453.78 109.7C452.54 107.49 450.96 95 450.96 95H450.97Z" fill="#E1251B"/>
<path fill-rule="evenodd" clip-rule="evenodd" d="M409.89 199C409.89 199 409.18 204.82 408.64 205.78C408.01 206.9 404 207.39 404 207.39C404 207.39 407.91 207.99 408.5 209.05C409.08 210.09 409.89 215.79 409.89 215.79C409.89 215.79 410.66 209.93 411.28 208.84C411.84 207.85 415.78 207.4 415.78 207.4C415.78 207.4 411.79 206.82 411.19 205.74C410.62 204.73 409.9 199 409.9 199H409.89Z" fill="#E1251B"/>
<path fill-rule="evenodd" clip-rule="evenodd" d="M420.64 123.4C420.64 123.4 419.93 129.22 419.39 130.19C418.76 131.31 414.75 131.8 414.75 131.8C414.75 131.8 418.66 132.4 419.25 133.46C419.83 134.5 420.64 140.2 420.64 140.2C420.64 140.2 421.41 134.34 422.03 133.25C422.59 132.26 426.53 131.8 426.53 131.8C426.53 131.8 422.54 131.22 421.93 130.15C421.36 129.14 420.64 123.41 420.64 123.41V123.4Z" fill="#E1251B"/>
<path fill-rule="evenodd" clip-rule="evenodd" d="M446.97 166.78C446.97 166.78 445.43 179.47 444.26 181.57C442.89 184.01 434.16 185.08 434.16 185.08C434.16 185.08 442.66 186.39 443.95 188.69C445.22 190.96 446.97 203.39 446.97 203.39C446.97 203.39 448.65 190.63 449.99 188.24C451.2 186.08 459.78 185.09 459.78 185.09C459.78 185.09 451.1 183.83 449.78 181.49C448.54 179.28 446.96 166.79 446.96 166.79L446.97 166.78Z" fill="#E1251B"/>
<g clip-path="url(#clip0_195_5796)">
<path d="M84.9297 96.2345L160.517 7.07129L236.104 96.2345V247.621L84.9297 96.2345Z" fill="#EFEFEF"/>
<path d="M113.001 96.2345L171.052 19.4452L160.517 7.07129L84.9297 96.2345L236.104 247.621V229.095L113.001 96.2345Z" fill="white"/>
<path d="M311.691 7.07129L387.207 96.2345H236.104L311.691 7.07129Z" fill="#C7C7C7" stroke="black" stroke-width="0.22" stroke-miterlimit="10"/>
<path d="M311.691 7.07129L236.104 96.2345L160.517 7.07129H311.691Z" fill="#C7C7C7" stroke="black" stroke-width="0.22" stroke-miterlimit="10"/>
<path d="M387.207 96.2344L236.104 247.621V96.2344H387.207Z" fill="#C7C7C7" stroke="black" stroke-width="0.22" stroke-miterlimit="10"/>
<path d="M231.649 101.538C228.75 99.0629 228.396 94.679 230.871 91.78L306.388 2.6168C308.863 -0.28224 313.247 -0.635782 316.146 1.83901C319.045 4.3138 319.398 8.69771 316.923 11.5968L241.336 100.76C238.861 103.659 234.477 104.013 231.578 101.538H231.649Z" fill="black"/>
<path d="M230.801 100.689L155.214 11.5255C152.739 8.62642 153.093 4.24251 155.992 1.76772C158.891 -0.707071 163.275 -0.35353 165.75 2.54551L241.337 91.7087C243.812 94.6077 243.458 98.9916 240.559 101.466C237.66 103.941 233.276 103.588 230.801 100.689Z" fill="black"/>
<path d="M236.104 254.55C232.286 254.55 229.175 251.439 229.175 247.621V96.2341C229.175 92.4159 232.286 89.3047 236.104 89.3047C239.922 89.3047 243.034 92.4159 243.034 96.2341V247.621C243.034 251.439 239.922 254.55 236.104 254.55Z" fill="black"/>
<path d="M231.212 252.502L80.0374 101.116C77.4919 98.5703 77.3505 94.4692 79.6839 91.7823C161.211 -4.45177 155.908 0.144268 160.504 0.144268C322.85 0.144268 313.941 -0.916358 316.911 2.61906L392.498 91.7823C394.831 94.5399 394.69 98.5703 392.144 101.116L240.97 252.502C238.283 255.189 233.899 255.189 231.212 252.502ZM94.3205 95.8834L236.091 237.866L377.861 95.8834L308.426 14.0031H163.686L94.3205 95.8834Z" fill="black"/>
<path d="M387.208 103.164H84.9294C81.1112 103.164 78 100.052 78 96.2341C78 92.4159 81.1112 89.3047 84.9294 89.3047H387.208C391.026 89.3047 394.137 92.4159 394.137 96.2341C394.137 100.052 391.026 103.164 387.208 103.164Z" fill="black"/>
</g>
<defs>
<clipPath id="clip0_195_5796">
<rect width="316.137" height="254.55" fill="white" transform="translate(78)"/>
</clipPath>
</defs>
</svg>
