<svg width="464" height="255" viewBox="0 0 464 255" fill="none" xmlns="http://www.w3.org/2000/svg">
<g clip-path="url(#clip0_195_5794)">
<path d="M374.53 247.479H96.8584L184.678 196.781H286.71L374.53 247.479Z" fill="#828282"/>
<path d="M235.659 7L374.53 247.479L286.711 196.781L235.659 108.396V7Z" fill="#828282"/>
<path d="M235.659 108.396L286.711 196.781H184.679L235.659 108.396Z" fill="#DADADA"/>
<path d="M184.678 196.781L96.8584 247.479L235.659 7V108.396L184.678 196.781Z" fill="#DADADA"/>
<path d="M235.659 117.235C231.911 117.235 228.8 114.194 228.8 110.376V7.0003C228.8 3.25277 231.84 0.141602 235.659 0.141602C239.477 0.141602 242.517 3.18206 242.517 7.0003V110.447C242.517 114.194 239.477 117.305 235.659 117.305V117.235Z" fill="black"/>
<path d="M90.919 250.873C89.0099 247.621 90.1412 243.449 93.3938 241.54L181.213 190.842C184.466 188.933 188.638 190.064 190.547 193.317C192.456 196.569 191.325 200.741 188.072 202.65L100.253 253.419C96.9999 255.328 92.8281 254.197 90.919 250.944V250.873Z" fill="black"/>
<path d="M371.136 253.418L283.317 202.72C280.064 200.811 278.933 196.64 280.842 193.387C282.751 190.134 286.923 189.003 290.175 190.912L377.995 241.61C381.248 243.519 382.379 247.691 380.47 250.944C378.561 254.196 374.389 255.327 371.136 253.418Z" fill="black"/>
<path d="M374.532 254.335C75.1531 254.335 93.7494 255.89 90.9211 250.941C89.719 248.819 89.719 246.203 90.9211 244.082C240.611 -15.2055 229.934 0.13815 235.661 0.13815C238.065 0.13815 240.328 1.4109 241.6 3.53215C390.441 261.405 381.391 244.789 381.391 247.476C381.391 252.001 377.148 254.617 374.532 254.335ZM108.669 240.688H362.724L235.661 20.6436L108.669 240.688Z" fill="black"/>
<path d="M286.71 203.64H184.678C179.445 203.64 176.122 197.913 178.738 193.388L207.022 144.387C208.931 141.134 213.102 140.003 216.355 141.912C219.608 143.821 220.739 147.993 218.83 151.246L196.415 189.994H274.831L235.588 122.114L226.183 138.377C224.274 141.629 220.103 142.761 216.85 140.852C213.597 138.942 212.466 134.771 214.375 131.518L229.719 105.002C232.335 100.477 238.911 100.477 241.527 105.002L292.579 193.388C295.195 197.913 291.942 203.64 286.639 203.64H286.71Z" fill="black"/>
</g>
<path fill-rule="evenodd" clip-rule="evenodd" d="M12.81 95C12.81 95 14.35 107.69 15.52 109.79C16.89 112.23 25.62 113.31 25.62 113.31C25.62 113.31 17.12 114.62 15.83 116.92C14.56 119.18 12.81 131.62 12.81 131.62C12.81 131.62 11.13 118.85 9.78999 116.46C8.57999 114.3 0 113.31 0 113.31C0 113.31 8.68 112.05 10 109.7C11.24 107.49 12.82 95 12.82 95H12.81Z" fill="#E1251B"/>
<path fill-rule="evenodd" clip-rule="evenodd" d="M53.89 199C53.89 199 54.6 204.82 55.14 205.78C55.77 206.9 59.78 207.39 59.78 207.39C59.78 207.39 55.87 207.99 55.28 209.05C54.7 210.09 53.89 215.79 53.89 215.79C53.89 215.79 53.12 209.93 52.5 208.84C51.94 207.85 48 207.4 48 207.4C48 207.4 51.99 206.82 52.59 205.74C53.16 204.73 53.88 199 53.88 199H53.89Z" fill="#E1251B"/>
<path fill-rule="evenodd" clip-rule="evenodd" d="M43.14 123.4C43.14 123.4 43.85 129.22 44.39 130.19C45.02 131.31 49.03 131.8 49.03 131.8C49.03 131.8 45.12 132.4 44.53 133.46C43.95 134.5 43.14 140.2 43.14 140.2C43.14 140.2 42.37 134.34 41.75 133.25C41.19 132.26 37.25 131.8 37.25 131.8C37.25 131.8 41.24 131.22 41.85 130.15C42.42 129.14 43.14 123.41 43.14 123.41V123.4Z" fill="#E1251B"/>
<path fill-rule="evenodd" clip-rule="evenodd" d="M16.81 166.78C16.81 166.78 18.35 179.47 19.52 181.57C20.89 184.01 29.62 185.08 29.62 185.08C29.62 185.08 21.12 186.39 19.83 188.69C18.56 190.96 16.81 203.39 16.81 203.39C16.81 203.39 15.13 190.63 13.79 188.24C12.58 186.08 4 185.09 4 185.09C4 185.09 12.68 183.83 14 181.49C15.24 179.28 16.82 166.79 16.82 166.79L16.81 166.78Z" fill="#E1251B"/>
<path fill-rule="evenodd" clip-rule="evenodd" d="M450.97 95C450.97 95 449.43 107.69 448.26 109.79C446.89 112.23 438.16 113.31 438.16 113.31C438.16 113.31 446.66 114.62 447.95 116.92C449.22 119.18 450.97 131.62 450.97 131.62C450.97 131.62 452.65 118.85 453.99 116.46C455.2 114.3 463.78 113.31 463.78 113.31C463.78 113.31 455.1 112.05 453.78 109.7C452.54 107.49 450.96 95 450.96 95H450.97Z" fill="#E1251B"/>
<path fill-rule="evenodd" clip-rule="evenodd" d="M409.89 199C409.89 199 409.18 204.82 408.64 205.78C408.01 206.9 404 207.39 404 207.39C404 207.39 407.91 207.99 408.5 209.05C409.08 210.09 409.89 215.79 409.89 215.79C409.89 215.79 410.66 209.93 411.28 208.84C411.84 207.85 415.78 207.4 415.78 207.4C415.78 207.4 411.79 206.82 411.19 205.74C410.62 204.73 409.9 199 409.9 199H409.89Z" fill="#E1251B"/>
<path fill-rule="evenodd" clip-rule="evenodd" d="M420.64 123.4C420.64 123.4 419.93 129.22 419.39 130.19C418.76 131.31 414.75 131.8 414.75 131.8C414.75 131.8 418.66 132.4 419.25 133.46C419.83 134.5 420.64 140.2 420.64 140.2C420.64 140.2 421.41 134.34 422.03 133.25C422.59 132.26 426.53 131.8 426.53 131.8C426.53 131.8 422.54 131.22 421.93 130.15C421.36 129.14 420.64 123.41 420.64 123.41V123.4Z" fill="#E1251B"/>
<path fill-rule="evenodd" clip-rule="evenodd" d="M446.97 166.78C446.97 166.78 445.43 179.47 444.26 181.57C442.89 184.01 434.16 185.08 434.16 185.08C434.16 185.08 442.66 186.39 443.95 188.69C445.22 190.96 446.97 203.39 446.97 203.39C446.97 203.39 448.65 190.63 449.99 188.24C451.2 186.08 459.78 185.09 459.78 185.09C459.78 185.09 451.1 183.83 449.78 181.49C448.54 179.28 446.96 166.79 446.96 166.79L446.97 166.78Z" fill="#E1251B"/>
<defs>
<clipPath id="clip0_195_5794">
<rect width="291.53" height="254.55" fill="white" transform="translate(90)"/>
</clipPath>
</defs>
</svg>
