<?xml version="1.0" encoding="UTF-8"?><svg id="Layer_1" xmlns="http://www.w3.org/2000/svg" viewBox="0 0 80 80"><defs><style>.cls-1{fill:#03111a;}.cls-2{fill:#ff575d;}</style></defs><path class="cls-1" d="m4.96,9.97h62.02v18.3c1.79.26,3.44.86,4.96,1.69V7.49c0-1.39-1.09-2.48-2.48-2.48H2.48c-1.36,0-2.48,1.09-2.48,2.48v56.56c0,1.39,1.12,2.48,2.48,2.48h42.46l.56-4.63c0-.1.03-.23.07-.33H4.96V9.97Z"/><path class="cls-1" d="m64.73,53.12c5.54,0,10.02-4.49,10.02-10.02s-4.49-10.02-10.02-10.02-10.02,4.49-10.02,10.02,4.49,10.02,10.02,10.02Z"/><path class="cls-1" d="m79.02,62.49c-.39-3.31-2.29-6.11-4.95-7.77-2.57,2.07-5.79,3.36-9.33,3.36s-6.76-1.29-9.33-3.36c-2.66,1.65-4.56,4.45-4.95,7.76l-.96,7.99c-.18,1.51.8,2.96,2.3,3.26,4.1.83,8.44,1.26,12.95,1.26s8.85-.44,12.95-1.26c1.5-.3,2.48-1.74,2.3-3.26l-.96-7.98Z"/><path class="cls-2" d="m59.54,22.36c0-1.37-1.11-2.48-2.48-2.48h-25.49c-1.37,0-2.48,1.11-2.48,2.48s1.11,2.48,2.48,2.48h25.49c1.37,0,2.48-1.11,2.48-2.48Z"/><path class="cls-2" d="m46.33,33.29h-14.76c-1.37,0-2.48,1.11-2.48,2.48s1.11,2.48,2.48,2.48h14.76c1.37,0,2.48-1.11,2.48-2.48s-1.11-2.48-2.48-2.48Z"/><path class="cls-2" d="m44.12,46.69h-12.55c-1.37,0-2.48,1.11-2.48,2.48s1.11,2.48,2.48,2.48h12.55c1.37,0,2.48-1.11,2.48-2.48s-1.11-2.48-2.48-2.48Z"/><path class="cls-2" d="m16.31,27.04c.47.47,1.1.73,1.76.73s1.29-.26,1.75-.73l5.85-5.85c.97-.97.97-2.54,0-3.51-.97-.97-2.54-.97-3.51,0l-4.09,4.09-1.41-1.41c-.97-.97-2.54-.97-3.51,0-.97.97-.97,2.54,0,3.51l3.16,3.17Z"/><path class="cls-2" d="m13.14,37.28l3.16,3.17c.47.47,1.1.73,1.76.73s1.29-.26,1.75-.73l5.85-5.85c.97-.97.97-2.54,0-3.51s-2.54-.97-3.51,0l-4.09,4.09-1.41-1.41c-.97-.97-2.54-.97-3.51,0s-.97,2.54,0,3.51Z"/><path class="cls-2" d="m13.14,50.69l3.16,3.17c.47.47,1.1.73,1.76.73s1.29-.26,1.76-.73l5.85-5.85c.97-.97.97-2.54,0-3.51-.97-.97-2.54-.97-3.51,0l-4.09,4.09-1.41-1.41c-.97-.97-2.54-.97-3.51,0-.97.97-.97,2.54,0,3.51Z"/></svg>