<?xml version="1.0" encoding="UTF-8"?><svg id="Layer_1" xmlns="http://www.w3.org/2000/svg" viewBox="0 0 80 80"><defs><style>.cls-1{fill:#03111a;}.cls-2{fill:#ff575d;}.cls-3{fill:#fff;}</style></defs><circle class="cls-3" cx="40" cy="40" r="38.5"/><path class="cls-1" d="m40,3c20.4,0,37,16.6,37,37s-16.6,37-37,37S3,60.4,3,40,19.6,3,40,3m0-3C17.91,0,0,17.91,0,40s17.91,40,40,40,40-17.91,40-40S62.09,0,40,0h0Z"/><path class="cls-1" d="m23.95,43.8l-2.61,11.34c-.04.18-.06.36-.06.54h5.11l2.39-10.34-4.68-1.48c-.05-.02-.09-.03-.15-.05Z"/><path class="cls-1" d="m42.59,31.95c-.29-1.12-1.43-1.8-2.56-1.51l-3.46.89-2.64-3.41c-.08-.11-.17-.2-.27-.29-.7-.62-1.56-1.05-2.47-1.24l-3.94-.83c-1.17-.25-2.4-.1-3.48.42l-4.68,2.25c-.54.26-.94.74-1.11,1.31l-1.42,4.93c-.32,1.12.32,2.28,1.44,2.6.19.06.39.08.58.08.91,0,1.75-.6,2.02-1.52l1.16-4.03,2.24-1.08-.82,8.07c-.13,1.19.6,2.29,1.74,2.66l6.96,2.21.1,7.2c0,.13.01.25.03.37h4.98c.02-.15.03-.29.03-.44l-.14-9.02c-.01-1.08-.73-2.04-1.75-2.36l-4.41-1.4,1.26-5.55,2.11,2.73c.51.66,1.37.96,2.19.75l4.79-1.23c1.12-.29,1.8-1.43,1.51-2.56Z"/><rect class="cls-1" x="20.1" y="57.79" width="7.39" height="6.21" rx=".68" ry=".68"/><rect class="cls-1" x="30.82" y="53.13" width="7.39" height="10.87" rx=".68" ry=".68"/><rect class="cls-1" x="41.53" y="48.48" width="7.39" height="15.52" rx=".68" ry=".68"/><path class="cls-2" d="m56.82,32.27c-.44-.57-1.3-.57-1.74,0l-6.47,8.45c-.55.72-.04,1.76.87,1.76h2.78v20.83c0,.38.31.68.68.68h6.02c.38,0,.68-.31.68-.68v-20.83h2.78c.91,0,1.42-1.04.87-1.76l-6.47-8.45Z"/><circle class="cls-1" cx="30.93" cy="20.42" r="4.42"/></svg>