<?xml version="1.0" encoding="UTF-8"?><svg id="Layer_1" xmlns="http://www.w3.org/2000/svg" viewBox="0 0 200 300"><defs><style>.cls-1{fill:#ff575d;}.cls-2{fill:#fff;}.cls-3{fill:#07b9b1;}.cls-4{fill:#51555a;}</style></defs><circle class="cls-3" cx="100" cy="102.12" r="99"/><polygon class="cls-2" points="27.97 270.26 28.52 280.42 35.31 281.56 35.92 269.59 27.97 270.26"/><path d="m35.31,282.19s-.07,0-.1,0l-6.79-1.14c-.29-.05-.5-.29-.52-.58l-.55-10.15c-.02-.34.23-.63.57-.65l7.94-.68c.18-.02.36.05.49.17.13.12.2.3.19.48l-.6,11.98c0,.18-.09.34-.23.45-.11.09-.25.14-.39.14Zm-6.19-2.3l5.61.95.53-10.57-6.63.57.49,9.05Z"/><path class="cls-4" d="m35.5,299.2c-2.87.26-7.55.37-12.99-.66-1.78-.34-2.89-2.14-2.36-3.88,1.45-4.84,4-14.04,7.79-18.17l.77,2.38,1.33-2.14c.18-.29.49-.48.84-.51l2.7-.2c.56-.04,1.07.35,1.15.91l.32,2.05,1.07-2.62,2.14,19.54c.13,1.67-1.09,3.14-2.76,3.29Z"/><path d="m31.45,300c-2.58,0-5.67-.21-9.05-.85-1.03-.2-1.92-.82-2.47-1.71-.54-.89-.68-1.97-.38-2.96l.31-1.04c1.49-5.02,3.99-13.41,7.61-17.37.15-.16.38-.23.59-.19s.39.21.46.42l.36,1.11.63-1c.29-.46.78-.76,1.32-.8l2.7-.2c.82-.06,1.59.5,1.79,1.3l.23-.56c.11-.26.38-.42.66-.38.28.04.5.27.53.55l2.14,19.54c.16,2.02-1.33,3.8-3.32,3.98-1.14.1-2.53.18-4.11.18Zm4.06-.8h0,0Zm-7.81-21.44c-3.06,4.03-5.27,11.46-6.63,16.03l-.31,1.05c-.2.67-.11,1.36.25,1.96.36.59.95,1,1.63,1.13,5.32,1.01,9.91.91,12.82.65,1.32-.12,2.3-1.29,2.19-2.62l-1.87-17.09-.14.35c-.11.26-.37.41-.65.38-.28-.03-.5-.25-.54-.52l-.32-2.05c-.04-.24-.25-.41-.49-.39l-2.7.2c-.15.01-.28.09-.36.22l-1.34,2.14c-.13.21-.36.32-.6.29-.24-.03-.44-.2-.52-.43l-.42-1.31Z"/><path d="m29.33,296.66c-2.26,0-4.85-.23-7.4-.95-.33-.09-.52-.44-.43-.77.09-.33.44-.52.77-.43,6.56,1.85,13.61.25,13.68.24.33-.08.67.13.75.47.08.33-.13.67-.47.75-.19.04-3.07.7-6.89.7Z"/><path d="m32.89,289.14s0,0-.01,0l-6.41-.11c-.34,0-.62-.29-.61-.63,0-.34.28-.61.62-.61,0,0,0,0,.01,0l6.41.11c.34,0,.62.29.61.63,0,.34-.28.61-.62.61Z"/><polygon class="cls-2" points="60.23 266.5 60.51 281.29 68.73 281.71 69.85 266.99 60.23 266.5"/><path d="m68.73,282.33s-.02,0-.03,0l-8.22-.41c-.33-.02-.58-.28-.59-.61l-.28-14.79c0-.17.07-.34.19-.46.12-.12.3-.18.46-.17l9.62.49c.17,0,.32.08.44.21.11.13.17.29.15.46l-1.13,14.72c-.03.33-.3.57-.62.57Zm-7.61-1.63l7.03.35,1.03-13.48-8.32-.42.26,13.54Z"/><path class="cls-4" d="m57.95,289.5c-.09,1.39.8,2.67,2.14,3.05,4.67,1.34,15.19,4.32,18.2,4.93,3.91.79,8.81-.18,11.01-2.38,2.2-2.2-4.27-8.04-7.37-10.21-4.6-3.21-8.87-9.32-10.78-9.68-1.9-.36-5.76,5.01-5.76,5.01l-5.72-2.75s-1.27,4.96-1.73,12.02Z"/><path d="m81.11,298.37c-1,0-2-.09-2.95-.28-3.05-.61-13.78-3.66-18.25-4.94-1.61-.46-2.7-2.01-2.59-3.69.46-7.04,1.74-12.09,1.75-12.14.05-.18.17-.33.34-.41.17-.08.36-.08.53,0l5.25,2.52c1.23-1.65,4.13-5.21,6.07-4.84,1.1.21,2.44,1.57,4.72,3.97,1.9,1.99,4.05,4.25,6.29,5.82,2,1.4,7.78,6.11,8.07,9.34.06.72-.15,1.34-.62,1.81-1.76,1.76-5.2,2.83-8.63,2.83Zm-21.01-20c-.36,1.63-1.19,5.8-1.54,11.17h0c-.07,1.1.64,2.11,1.69,2.41,4.45,1.28,15.14,4.31,18.15,4.92,3.79.76,8.47-.23,10.45-2.21.13-.13.3-.36.26-.82-.19-2.2-4.51-6.31-7.54-8.43-2.35-1.64-4.54-3.94-6.48-5.98-1.62-1.7-3.3-3.46-4.05-3.6-.94-.18-3.39,2.34-5.14,4.77-.18.25-.5.33-.78.2l-5.02-2.41Zm-2.16,11.13h0,0Z"/><path d="m81.47,295.67c-8.72,0-20.96-5.67-21.62-5.99-.31-.15-.45-.52-.3-.83.15-.31.52-.45.83-.3.2.1,20.46,9.49,26.75,4.36.27-.22.66-.18.88.09.22.27.18.66-.09.88-1.58,1.29-3.86,1.78-6.44,1.78Z"/><path d="m71.74,286.26c-.18,0-.36-.08-.48-.23-.22-.27-.18-.66.09-.88l4.37-3.56c.27-.22.66-.18.88.09.22.27.18.66-.09.88l-4.37,3.56c-.12.09-.25.14-.39.14Z"/><path d="m33.46,168.06s-7.57,46.57-9.7,62.41c-2.13,15.84,1.02,41.63,1.02,41.63l12.72-.03s2.44-31.04,3.81-39.63c0,0,5.95-11.43,8.06-21.79,2.11-10.36,8.36-26.57,8.36-26.57,0,0,.24,82.51.34,89,0,0,9.92.94,13.6-1.12,0,0,7.83-29.69,7.75-46.06-.08-16.37-.26-57.34-.26-57.34l-45.7-.51Z"/><path class="cls-2" d="m38.98,232.95s-.02,0-.03,0l-3.88-.2c-.34-.02-.61-.31-.59-.65.02-.34.32-.61.65-.59l3.88.2c.34.02.61.31.59.65-.02.33-.29.59-.62.59Z"/><path class="cls-2" d="m65.39,258.27s-.03,0-.04,0c-.34-.02-.6-.32-.58-.66.53-7.66,9.6-20.93,9.98-21.49.2-.28.58-.35.87-.16.28.19.35.58.16.87-.09.13-9.26,13.55-9.77,20.87-.02.33-.3.58-.62.58Z"/><path class="cls-2" d="m68,99.89c14.55,27.25,13.16,39.26,33.66,11.15l2.21,11.1s-39.1,59.73-32.17,1.76l-3.69-24.02Z"/><path d="m76.61,149.83c-.57,0-1.1-.09-1.61-.27-4.5-1.64-5.79-10.03-3.93-25.64l-3.68-23.93c-.05-.3.13-.59.42-.69.29-.1.6.03.75.3,2.53,4.74,4.56,8.98,6.35,12.71,4,8.34,6.64,13.86,9.94,14.16,3.25.3,7.81-4.13,16.31-15.79.15-.2.39-.29.64-.24.24.05.43.24.48.49l2.21,11.1c.03.16,0,.33-.09.46-.77,1.18-18.02,27.35-27.77,27.35Zm-7.43-46.33l3.12,20.31c0,.06,0,.11,0,.17-2.2,18.43.48,23.45,3.11,24.41,6.91,2.51,22.25-17.98,27.78-26.37l-1.88-9.46c-8.48,11.51-12.88,15.5-16.59,15.16-4.01-.37-6.62-5.82-10.95-14.86-1.35-2.83-2.85-5.94-4.59-9.35Z"/><path class="cls-1" d="m33.67,170.03l45.99,2.07-4.28-49.11h7.39l-5.14-14.04c-2.76-7.55-9.63-12.83-17.63-13.53-6.71-.59-15.68-1.04-26.26-.76-5.75.16-11.22,2.54-15.25,6.65-5.6,5.71-13.23,14.43-15.31,21.5l25.12,9.48,2.39-3.52s4.03,21.88,2.98,41.27Z"/><path d="m30.69,129.38c-.09,0-.18-.02-.26-.06-.31-.15-.45-.52-.3-.83l4.43-9.48c.15-.31.52-.45.83-.3.31.15.45.52.3.83l-4.43,9.48c-.11.23-.33.36-.56.36Z"/><path d="m64.36,77.9c-.91,0-1.96-.88-2.7-2.34h0c-.91-1.78-.84-3.44.16-3.95,1-.51,2.38.42,3.29,2.2.91,1.78.84,3.44-.16,3.95-.18.09-.38.14-.58.14Zm-1.59-2.9c.64,1.25,1.45,1.72,1.61,1.65.15-.09.25-1.03-.38-2.28-.64-1.25-1.45-1.72-1.61-1.65-.15.09-.25,1.03.38,2.28Z"/><path class="cls-2" d="m54.17,98.57c-1.81,0-3.55-.29-5.19-.83-1.48-.48-2.86-1.15-4.13-2,5.5-1.93,3.56-10.31,3.56-10.31-4.16-9.16-.92-14.99,3.99-16.2,6.97-1.72,7.86,2.33,7.86,2.33.53,1.09,1.76,3.62,2.24,3.92.59.36,1.98.72,2.21,1.01s.1,1.24-.78,2.05c0,0,2.54,5.3,1.69,6.89-.85,1.59-6.86,2.93-6.86,2.93,0,0-1.41,6.44,2.5,8.64-1.49.69-3.09,1.18-4.77,1.41-.76.1-1.53.16-2.31.16Z"/><path d="m54.17,99.2c-1.82,0-3.63-.29-5.38-.86-1.53-.5-2.97-1.2-4.28-2.07-.2-.13-.3-.36-.27-.6s.19-.43.41-.51c4.7-1.65,3.33-8.82,3.18-9.53-2.19-4.86-2.53-9.35-.94-12.63,1.08-2.23,2.99-3.79,5.37-4.38,2.89-.71,5.17-.57,6.77.43,1.32.82,1.73,1.96,1.82,2.29,1.31,2.7,1.81,3.46,2,3.62.19.11.6.27.97.41.73.28,1.16.45,1.38.73.41.53.3,1.6-.53,2.55.67,1.47,2.35,5.46,1.5,7.06-.84,1.59-5.26,2.77-6.87,3.15-.21,1.35-.69,5.92,2.26,7.59.2.11.32.33.32.57,0,.23-.15.44-.36.54-1.58.74-3.24,1.23-4.95,1.47-.81.11-1.62.17-2.4.17Zm-8-3.37c.95.54,1.96.99,3.01,1.33,1.62.53,3.3.8,4.99.8.73,0,1.47-.05,2.23-.16,1.23-.17,2.44-.48,3.6-.94-3.09-2.78-1.9-8.38-1.85-8.64.05-.24.24-.42.47-.47,2.38-.53,5.96-1.69,6.45-2.61.48-.91-.71-4.25-1.7-6.33-.12-.25-.06-.54.14-.73.54-.5.68-1.01.68-1.21-.17-.09-.55-.23-.81-.33-.44-.17-.89-.34-1.21-.53-.4-.25-.93-1.01-2.47-4.17-.02-.04-.04-.09-.05-.14,0-.03-.24-.95-1.31-1.6-1.29-.78-3.29-.87-5.78-.26-2.01.5-3.63,1.82-4.55,3.71-1.43,2.96-1.08,7.09.98,11.63.02.04.03.08.04.12.08.34,1.75,7.82-2.86,10.53Zm18.1-18.91h0s0,0,0,0Zm-.08-.11h0Z"/><path d="m48.49,66.73c1.75-.51,3.81-.4,4.65-.77,1.36-.6,1.19-2.21,3.15-2.54,1.72-.29,3.37-.11,4.36,1.15.17.21.31.45.44.72,1.69,3.64-.04,5.61-.83,6.28,0,0-5.07,3-5.92,3.81-.8.76-1.66,2.47-.91,4.78.1.29-.01.62-.27.79h-.01c-.31.22-.72.16-.95-.12-.74-.89-2.34-2.6-3.37-2.08-1.26.63-1.37,4.06,1.34,4.4.49.06.78.58.58,1.03-.31.71-.97,1.49-2.33,1.27,0,0-6.04-3.57-7.18-8.86-1.14-5.29,4.93-9.17,7.26-9.85Z"/><path d="m60.31,79.4c-.41,0-.85-.13-1.28-.39-.63-.39-1.2-1.02-1.59-1.8-.39-.77-.58-1.61-.52-2.35.07-.84.46-1.49,1.06-1.8.61-.31,1.36-.23,2.08.2.63.39,1.2,1.02,1.59,1.8.39.77.58,1.61.52,2.35-.07.84-.46,1.49-1.06,1.8-.25.13-.52.19-.8.19Zm-1.51-5.28c-.09,0-.17.02-.24.05-.21.11-.35.4-.39.79-.04.5.1,1.12.38,1.68h0c.29.56.7,1.04,1.13,1.3.34.21.66.26.87.16.21-.11.35-.4.39-.79.04-.5-.1-1.12-.38-1.68-.29-.56-.7-1.04-1.13-1.3-.23-.14-.44-.21-.62-.21Z"/><path d="m61.05,75.76c-.08,0-.17-.02-.25-.05-.31-.14-.45-.51-.31-.82.17-.38.67-1,1.43-.97.34.01.61.3.6.65-.01.34-.31.61-.65.6-.07,0-.22.19-.24.24-.1.23-.33.37-.57.37Z"/><path d="m51.7,79.07c-.24,0-.46-.13-.57-.36-.14-.31,0-.68.3-.83l5.86-2.7c.31-.14.68,0,.83.3.14.31,0,.68-.3.83l-5.86,2.7c-.08.04-.17.06-.26.06Z"/><path d="m101.91,61.85c-6.39,26.06,9.36,52.31,35.18,58.64,25.81,6.33,51.92-9.67,58.3-35.73,6.39-26.06-9.36-52.31-35.18-58.64-25.81-6.33-51.92,9.67-58.3,35.73Zm6.16,1.51c5.54-22.62,28.21-36.51,50.62-31.02,22.41,5.49,36.09,28.29,30.54,50.91-5.54,22.62-28.21,36.51-50.62,31.02-22.41-5.49-36.09-28.29-30.54-50.91Z"/><path d="m14.13,181.95l2.08,2.62c2.13,2.6,6.54-.14,12.58-5.22l85.98-72.43-5.65-10.82L21.06,169.95c-6.03,5.08-9.07,9.4-6.93,12Z"/><path class="cls-2" d="m145.56,94.19c-.22,0-.44-.02-.67-.05-1.66-.24-3.07-1.34-3.7-2.89l-8.52-19.14c-.51-1.15,0-2.5,1.16-3.01,1.15-.51,2.5,0,3.01,1.16l8.58,19.28s.03.05.04.06l18.36-32.06c.63-1.09,2.02-1.47,3.11-.85,1.09.63,1.47,2.02.85,3.11l-18.64,32.56-.1.12c-.85,1.1-2.12,1.71-3.49,1.71Z"/><path class="cls-2" d="m7.8,124.01l18.66,6.89s-3.15,29.15,17,39.18c0,0,10.92-1.35,14.7,5.14,0,0-7.65-.35-14.05,1.42-6.4,1.76-44.53-9.23-36.32-52.62Z"/><path d="m42.5,177.42c-4.93,0-15.32-3.11-23.58-10.73-7.7-7.1-15.99-20.28-11.73-42.8.06-.34.39-.56.73-.5.34.06.56.39.5.73-4.15,21.95,3.88,34.77,11.35,41.65,9.78,9.02,21.42,11.01,24.19,10.25,4.96-1.37,10.57-1.49,13.01-1.47-4.02-4.97-13.33-3.88-13.42-3.87-.12.01-.24,0-.35-.06-8.42-4.19-14.08-12.23-16.39-23.25-1.73-8.28-.98-15.21-.95-15.5.04-.34.35-.59.69-.55.34.04.59.35.55.69-.03.28-2.85,27.63,16.49,37.41,1.55-.16,11.42-.9,15.13,5.46.11.2.11.44,0,.64-.12.19-.34.31-.56.3-.08,0-7.63-.32-13.85,1.39-.46.13-1.06.19-1.78.19Z"/><path class="cls-2" d="m101.17,122.54c3.88-.52,10.99-2.62,6.97-10.94-.39-.8-1.36-1.12-2.16-.74-2.46,1.19-6.29,5.31-7.05,9.33-.26,1.34.89,2.54,2.24,2.35Z"/><path d="m100.91,123.18c-.72,0-1.41-.3-1.92-.83-.59-.62-.83-1.45-.67-2.29.84-4.38,4.9-8.56,7.39-9.77.54-.26,1.15-.3,1.72-.1.56.19,1.01.59,1.27,1.13,1.46,3.01,1.65,5.55.57,7.56-1.53,2.84-5.2,3.89-8.01,4.28-.12.02-.23.02-.35.02Zm.27-.64h0,0Zm5.52-11.22c-.15,0-.3.03-.44.1-2.31,1.12-5.98,5.05-6.71,8.88-.08.43.05.87.35,1.2.31.33.75.49,1.19.42,2.07-.28,5.74-1.12,7.08-3.63.88-1.63.68-3.79-.6-6.43-.11-.23-.31-.41-.56-.49-.11-.04-.22-.06-.33-.06Z"/></svg>