<?xml version="1.0" encoding="UTF-8"?><svg id="Layer_1" xmlns="http://www.w3.org/2000/svg" viewBox="0 0 100 100"><defs><style>.cls-1{fill:#03111a;}.cls-2{fill:#ff575d;}</style></defs><path class="cls-1" d="m40.46,45.52c.55-1.7-.38-3.52-2.07-4.07l-5.76-1.87-4.71-5.81c-1.68-2.07-4.17-3.26-6.84-3.26h-6.28C7.39,30.52,1.77,43.19.23,47.08c-.66,1.66.15,3.53,1.81,4.19.39.16.8.23,1.19.23,1.28,0,2.5-.77,3-2.03,1.32-3.32,3.13-6.6,4.8-8.97l-.45,12.61-5.09,23.69c-.42,1.94.82,3.85,2.75,4.26.25.05.51.08.76.08,1.66,0,3.14-1.15,3.5-2.84l5.03-23.4h1.41v22.65c0,1.98,1.61,3.59,3.59,3.59s3.59-1.61,3.59-3.59v-24.13s-.43-12.14-.43-12.14l2.52,3.11c.39.49.92.84,1.51,1.04l6.67,2.16c1.7.56,3.52-.38,4.07-2.07Z"/><circle class="cls-1" cx="18.35" cy="21.39" r="7.18" transform="translate(-8.43 30.16) rotate(-67.5)"/><path class="cls-2" d="m44.99,46.99c-.8,2.45-2.69,4.3-5.01,5.09v3.96c0,1.11.9,2,2.01,2h49.74c1.11,0,2-.9,2-2V10.19c0-1.1-.9-2-2-2h-49.74c-1.12,0-2.01.9-2.01,2v26.78c4.1,1.41,6.35,5.86,5.01,10.02Zm8.68-29.2h26.39c1.41,0,2.56,1.15,2.56,2.56s-1.15,2.55-2.56,2.55h-26.39c-1.4,0-2.55-1.15-2.55-2.55s1.15-2.56,2.55-2.56Zm0,12.78h26.39c1.41,0,2.56,1.15,2.56,2.56s-1.15,2.55-2.56,2.55h-26.39c-1.4,0-2.55-1.15-2.55-2.55s1.15-2.56,2.55-2.56Zm0,12.78h26.39c1.41,0,2.56,1.15,2.56,2.56s-1.15,2.55-2.56,2.55h-26.39c-1.4,0-2.55-1.15-2.55-2.55s1.15-2.56,2.55-2.56Z"/><path class="cls-1" d="m53.5,80.23c-.81-.85-1.8-1.47-2.92-1.87-1.66,1.14-3.69,1.82-5.85,1.82s-4.21-.68-5.89-1.82c-2.98,1.06-5.12,3.86-5.12,7.21v4.73c0,.83.66,1.49,1.49,1.49h17.12c-.12-.48-.21-.97-.21-1.47v-4.75c0-1.91.48-3.73,1.37-5.35Z"/><path class="cls-1" d="m44.72,76.46c3.67,0,6.64-2.97,6.64-6.64s-2.97-6.64-6.64-6.64-6.64,2.97-6.64,6.64,2.97,6.64,6.64,6.64Z"/><path class="cls-1" d="m94.86,78.37c-1.66,1.14-3.69,1.82-5.85,1.82s-4.21-.68-5.87-1.82c-1.12.39-2.11,1.04-2.9,1.87.87,1.62,1.35,3.44,1.35,5.35v4.75c0,.5-.08.99-.21,1.47h17.14c.81,0,1.47-.66,1.47-1.49v-4.73c0-3.36-2.16-6.16-5.14-7.21Z"/><path class="cls-1" d="m89,76.46c3.67,0,6.64-2.97,6.64-6.64s-2.97-6.64-6.64-6.64-6.64,2.97-6.64,6.64,2.97,6.64,6.64,6.64Z"/><path class="cls-1" d="m72.73,78.38c-1.67,1.15-3.69,1.83-5.87,1.83s-4.2-.68-5.87-1.83c-2.98,1.05-5.13,3.86-5.13,7.2v4.75c0,.82.66,1.48,1.48,1.48h19.02c.82,0,1.48-.66,1.48-1.48v-4.75c0-3.34-2.15-6.15-5.13-7.2Z"/><path class="cls-1" d="m66.86,76.47c3.67,0,6.64-2.97,6.64-6.64s-2.97-6.64-6.64-6.64-6.64,2.97-6.64,6.64,2.97,6.64,6.64,6.64Z"/></svg>