<?xml version="1.0" encoding="UTF-8"?><svg id="Layer_1" xmlns="http://www.w3.org/2000/svg" viewBox="0 0 80 80"><defs><style>.cls-1{fill:#03111a;}.cls-2{fill:#ff575d;}.cls-3{fill:#fff;}</style></defs><circle class="cls-3" cx="40" cy="40" r="38.5"/><path class="cls-1" d="m40,3c20.4,0,37,16.6,37,37s-16.6,37-37,37S3,60.4,3,40,19.6,3,40,3m0-3C17.91,0,0,17.91,0,40s17.91,40,40,40,40-17.91,40-40S62.09,0,40,0h0Z"/><path class="cls-1" d="m52.69,17.5h-25.39c-.79,0-1.43.65-1.43,1.43v16.75c0,.79.65,1.43,1.43,1.43h10.27l-.33,2.16c-.04.29-.29.5-.59.5h-1.28c-.33,0-.59.27-.59.59v.59c0,.33.27.59.59.59h9.26c.33,0,.59-.27.59-.59v-.59c0-.33-.27-.59-.59-.59h-1.28c-.29,0-.54-.21-.59-.5l-.33-2.16h10.27c.79,0,1.43-.65,1.43-1.43v-16.75c0-.79-.65-1.43-1.43-1.43Zm-12.69,18.64c-.46,0-.83-.37-.83-.83s.37-.83.83-.83.83.37.83.83-.37.83-.83.83Zm11.63-2.62h-23.25c-.28,0-.5-.22-.5-.5v-13.02c0-.28.22-.5.5-.5h23.25c.28,0,.5.22.5.5v13.02c0,.28-.22.5-.5.5Z"/><path class="cls-2" d="m40,28.75c.37,0,.75-.06,1.11-.18l3.87-1.33v2.58c0,.31-.18.59-.47.71-.98.42-2.55.94-4.52.93-1.96,0-3.53-.51-4.51-.93-.29-.12-.47-.4-.47-.71v-2.58l3.87,1.33c.36.12.73.18,1.11.18Z"/><path class="cls-2" d="m31.71,24.26l7.53-2.58c.5-.17,1.04-.17,1.54,0l7.53,2.58c.36.12.36.63,0,.75l-1.2.41v2.12c.34.13.58.47.58.85,0,.51-.41.92-.92.92s-.92-.41-.92-.92c0-.39.24-.72.58-.85v-1.89l-5.65,1.94c-.5.17-1.04.17-1.54,0l-7.53-2.58c-.36-.12-.36-.63,0-.75Z"/><path class="cls-1" d="m33.44,54.06c.15-.1.31-.2.48-.28-1.59-.67-4.09-.73-4.91-.73-.93,0-4.09.08-5.55,1.06-1.86,1.26-2.04,5.24-2.06,6.03,0,.24.09.47.26.65.17.17.4.27.64.27h8.31c.1-1.89.58-5.48,2.83-7Z"/><path class="cls-1" d="m29.01,51.61c2.55,0,4.61-2.06,4.61-4.61s-2.06-4.61-4.61-4.61-4.61,2.06-4.61,4.61,2.06,4.61,4.61,4.61Z"/><path class="cls-1" d="m58.59,60.02c-.04-1.01-.28-4.71-2.06-5.91-1.46-.98-4.62-1.06-5.55-1.06-.81,0-3.31.06-4.91.73.17.09.33.18.49.29,2.2,1.49,2.72,4.89,2.83,7h8.31c.5,0,.9-.4.9-.9,0-.05,0-.09-.01-.14Z"/><path class="cls-1" d="m50.98,51.61c2.55,0,4.61-2.06,4.61-4.61s-2.06-4.61-4.61-4.61-4.61,2.06-4.61,4.61,2.06,4.61,4.61,4.61Z"/><path class="cls-1" d="m45.54,55.55c-1.46-.99-4.62-1.06-5.55-1.06s-4.09.08-5.55,1.06c-1.86,1.26-2.04,5.24-2.06,6.03,0,.24.09.48.26.65.17.17.4.27.64.27h13.43s0,0,0,0c.5,0,.9-.4.9-.9,0-.05,0-.09-.01-.14-.03-1.01-.28-4.71-2.06-5.91Z"/><path class="cls-1" d="m40,53.05c2.55,0,4.61-2.06,4.61-4.61s-2.06-4.61-4.61-4.61-4.61,2.06-4.61,4.61,2.06,4.61,4.61,4.61Z"/></svg>