<?xml version="1.0" encoding="UTF-8"?><svg id="Layer_1" xmlns="http://www.w3.org/2000/svg" viewBox="0 0 80 80"><defs><style>.cls-1{fill:#07b9b1;}</style></defs><circle class="cls-1" cx="40" cy="40" r="40"/><path d="m47.36,53.03h-17.67l.93-4.5,8.49-7.66c2.91-2.59,4.36-4.71,4.36-6.35,0-.57-.15-1-.46-1.29s-.69-.43-1.16-.43c-1.41,0-3.05.86-4.94,2.58l-3.27-4.54c2.74-2.59,5.91-3.88,9.51-3.88,2.14,0,3.87.58,5.19,1.75s1.97,2.75,1.97,4.74c0,1.78-.51,3.45-1.53,5.01s-2.77,3.4-5.24,5.54l-3.6,3.09v.21h8.61l-1.2,5.73Z"/></svg>