<?xml version="1.0" encoding="UTF-8"?><svg id="Layer_1" xmlns="http://www.w3.org/2000/svg" viewBox="0 0 200 200"><defs><style>.cls-1{fill:#eaeae8;}.cls-2{fill:#ff575d;}.cls-3{fill:#fff;}.cls-4{fill:#07b9b1;}</style></defs><circle class="cls-4" cx="99.77" cy="75.62" r="91.38"/><path d="m98.84,184.13s17.33,51,17.42,84.59c.08,33.59-47.43,78.12-47.43,78.12l-9.82-8.51s17.48-18.53,20.83-43.6c3.34-25.07-6.81-72.42-6.81-72.42l-3.79-33.44,29.6-4.74Z"/><path d="m45.66,184.13s-10.98,73.6,14.77,170.91l15.53-2.23s-8.38-85.06,11.69-130.03l4.47-40.65-46.45,1.99Z"/><path class="cls-3" d="m197.36,29.9l-14.81,5.33s-8.06,2.32-11.91,10.05c-3.86,7.74-24.35,49.17-78.59,45.46l10.27,30.27s58.98-3.22,71.74-63.53c.68-3.21,3.59-5.51,6.48-7.03,2.73-1.44,5.7-4.05,6.08-8.66.48-5.84,4.71-4.83,6.55-5.85,1.84-1.02,4.78-2.15,4.18-6.04Z"/><path d="m101.44,121.32l-10.27-30.27c-.1-.29-.05-.62.14-.87.19-.25.49-.38.8-.36,46.51,3.18,68.63-26.76,77.66-44.89l.03-.06c3.99-8.01,12.14-10.43,12.43-10.51l14.81-5.33c.26-.09.55-.07.79.08.24.14.4.38.44.66.64,4.18-2.23,5.7-4.12,6.71-.18.1-.36.19-.53.28-.58.32-1.27.47-1.99.62-1.95.41-3.79.8-4.09,4.49-.33,4.07-2.6,7.33-6.57,9.41-2.39,1.26-5.37,3.39-6.01,6.4-6.67,31.51-26.05,47.31-41.14,55.02-16.33,8.34-31.31,9.24-31.46,9.25-.02,0-.03,0-.05,0-.4,0-.75-.25-.88-.63Zm81.37-85.2c-.08.02-7.72,2.31-11.34,9.57l-.03.06c-8.78,17.62-29.64,46.15-72.54,46.15-1.8,0-3.64-.05-5.52-.15l9.59,28.28c3.09-.28,16.02-1.85,30.01-8.99,14.73-7.52,33.65-22.95,40.17-53.75.62-2.95,3.03-5.6,6.96-7.66,3.42-1.8,5.3-4.46,5.58-7.92.41-5.07,3.51-5.73,5.56-6.16.58-.12,1.13-.24,1.47-.43.18-.1.36-.2.56-.3,1.51-.8,3.06-1.63,3.21-3.63l-13.68,4.93Z"/><path d="m178.37,50.49c.14,0,.28-.03.42-.1,4.09-2.04,4.36-4.84,4.55-6.69.06-.55.12-1.18.29-1.34,1.46-1.36,2.32-4.21,2.41-4.53.11-.37-.02-.77-.33-1-.31-.23-.72-.25-1.05-.05l-9.91,6.15c-.44.27-.57.84-.3,1.28.27.44.84.57,1.28.3l7.45-4.62c-.25.44-.53.84-.82,1.12-.68.64-.77,1.55-.87,2.51-.17,1.7-.36,3.62-3.53,5.21-.46.23-.65.79-.42,1.25.16.33.49.51.83.51Z"/><path class="cls-1" d="m114.94,215.4c-10.33-.89-18.65-.5-24.24,0-17.46,1.56-27.61,5.91-34.33.08-3.93-3.41-5.1-8.94-7.23-8.49-2.15.45-1.46,6.13-5.7,9.38-1.91,1.47-4.1,1.88-5.68,2-1.4-7.15-2.57-17.59-.49-29.69,2.23-13.02,6.83-19.87,9.4-27.21,4.03-11.52,4.86-29.42-9.86-57.15,4.07-2.79,30.8-12.47,52.2-15.11,3.89-.48,7.68,1.42,9.62,4.83,5.73,10.08,10.45,19.13,11.17,25.95,1.85,17.62,4.14,51.43,5.15,95.42Z"/><path d="m55.76,216.18c-1.96-1.7-3.25-3.86-4.28-5.6-.72-1.2-1.61-2.69-2.1-2.69-.02,0-.03,0-.05,0-.42.09-.82,1.31-1.16,2.38-.66,2.04-1.57,4.84-4.16,6.83-1.66,1.28-3.74,2.01-6.18,2.19-.48.03-.89-.29-.98-.75-2-10.2-2.16-20.3-.5-30.02,1.57-9.15,4.28-15.26,6.67-20.64,1.03-2.32,2-4.51,2.77-6.72,5.31-15.18,2.01-34.15-9.8-56.41-.22-.42-.09-.94.3-1.2,4.54-3.11,31.64-12.68,52.61-15.26,4.28-.53,8.41,1.55,10.54,5.29,6.45,11.35,10.59,19.71,11.28,26.31,1.83,17.42,4.15,51.66,5.16,95.49,0,.26-.1.52-.29.7-.19.18-.45.27-.72.25-8.14-.7-16.24-.7-24.08,0-5.01.45-9.43,1.13-13.33,1.73-4.48.69-8.38,1.29-11.79,1.29-3.92,0-7.18-.8-9.91-3.17Zm58.23-1.79c-1.02-43.29-3.31-77.06-5.13-94.31-.73-6.95-5.86-16.45-11.05-25.58-1.75-3.09-5.17-4.8-8.7-4.36-20.72,2.55-45.46,11.43-51.08,14.53,11.73,22.4,14.93,41.61,9.51,57.12-.8,2.28-1.79,4.51-2.83,6.86-2.34,5.29-5,11.28-6.53,20.2-1.58,9.23-1.47,18.82.33,28.52,1.71-.23,3.18-.81,4.36-1.72,2.13-1.64,2.9-4.02,3.52-5.93.58-1.78,1.07-3.32,2.55-3.63,1.78-.38,2.87,1.44,4.13,3.55.97,1.62,2.17,3.64,3.91,5.15,4.45,3.87,10.71,2.9,20.19,1.44,3.93-.6,8.38-1.29,13.44-1.74,3.98-.36,8.01-.53,12.09-.53,3.74,0,7.5.15,11.28.45Z"/><path class="cls-3" d="m2.69,144.22c.03-.3.12-.6.18-.91,6.17-29.18,33.93-39,33.93-39,0,0,11.96,5.02,12.51,24.56.05,1.97-1.22,3.73-3.1,4.32-5.77,1.81-17.51,11.99-19.12,19.11-.56,2.47,3.22,4.36,8.5,4.14,6.32-.27,24.35,2.3,32.85,2.07,0,0,1.04,8.67-1.84,9.42-52.84,13.78-65.48-7.81-63.91-23.7Z"/><path d="m10.01,165.33c-6.06-5.17-9.06-12.9-8.25-21.2.03-.28.09-.53.14-.76.02-.08.04-.17.06-.25,6.21-29.35,34.25-39.58,34.53-39.69.22-.08.46-.07.67.02.51.21,12.52,5.48,13.08,25.4.07,2.36-1.48,4.51-3.75,5.23-5.53,1.74-16.97,11.69-18.49,18.43-.09.4.02.77.32,1.13.88,1.05,3.46,2.03,7.23,1.87,3.1-.14,8.85.39,14.95.95,6.66.61,13.55,1.24,17.92,1.12,0,0,.02,0,.03,0,.47,0,.87.35.92.82.19,1.58.96,9.52-2.53,10.43-12.13,3.16-21.96,4.41-29.91,4.41-13.94,0-22.14-3.83-26.91-7.91Zm40.31-7.02c-6.03-.55-11.73-1.07-14.7-.94-3.95.17-7.29-.8-8.74-2.53-.68-.82-.93-1.76-.71-2.74,1.67-7.39,13.71-17.89,19.75-19.79,1.49-.47,2.5-1.87,2.45-3.4-.48-17.1-9.72-22.63-11.61-23.58-3.2,1.26-27.37,11.63-32.98,38.18-.02.1-.04.2-.07.3-.04.18-.08.36-.1.51h0c-.76,7.68,2.01,14.83,7.6,19.6,7.16,6.12,22.54,11.62,55.15,3.11,1.16-.3,1.55-4.01,1.24-7.58-4.47.03-10.98-.57-17.28-1.14Z"/><path class="cls-2" d="m127.82,180.98l-61.15-.08c-1.55,0-2.31-.95-1.83-2.31l13.81-38.82c.67-1.91,3.43-3.76,5.62-3.76l61.15.08c1.55,0,2.31.95,1.83,2.31l-13.81,38.82c-.67,1.91-3.43,3.76-5.62,3.76Z"/><path d="m127.82,181.91v-.93s0,.93,0,.93l-61.15-.08c-1.1,0-1.98-.39-2.48-1.1-.47-.66-.55-1.53-.23-2.45l13.81-38.82c.8-2.3,3.9-4.38,6.5-4.38h0l61.15.08c1.1,0,1.98.39,2.48,1.1.47.66.55,1.53.23,2.45l-13.81,38.82c-.8,2.3-3.9,4.38-6.5,4.38h0Zm-48.3-41.83l-13.81,38.82c-.07.19-.16.54,0,.76.14.2.5.31.96.31l61.15.08c1.8-.01,4.2-1.58,4.75-3.14l13.81-38.82c.07-.19.16-.54,0-.76-.14-.2-.5-.31-.96-.31l-61.15-.08h0c-1.81,0-4.2,1.58-4.74,3.14Z"/><path class="cls-3" d="m100.21,159.22c-.85,2.34.69,3.83,3.43,3.32,2.74-.51,5.66-2.82,6.51-5.17.85-2.34-.69-3.83-3.43-3.32-2.74.51-5.66,2.82-6.51,5.17Z"/><path class="cls-3" d="m73.02,154.54l-.96,2.79c-.41,1.18.66,1.79,2.2,1.27l13.1-4.41c1.74-.59,3,.03,2.67,1.33-.68,2.65-3.74,12.13-20.61,12.16-5.12.01-5.22-5.01-.88-9.86,1.92-2.15,4.48-3.28,4.48-3.28Z"/><path d="m64.88,166.17c-1.04-2.32.1-5.76,2.97-8.97,2.03-2.27,4.68-3.46,4.79-3.51.34-.15.73-.08,1.01.17.27.25.37.64.25.99l-.96,2.79c-.03.1-.04.16-.05.16,0,0,0,0,0,0,.06.04.41.15,1.08-.07l13.1-4.41c1.35-.46,2.6-.32,3.32.35.55.51.75,1.27.54,2.09-1.23,4.79-5.66,12.83-21.51,12.86h-.02c-2.99,0-4.12-1.53-4.53-2.44Zm22.78-11.1l-13.1,4.41c-1.23.41-2.35.27-2.99-.38-.52-.52-.66-1.28-.38-2.07l.14-.42c-.68.48-1.43,1.09-2.09,1.83-2.66,2.98-3.26,5.65-2.66,6.97.5,1.11,1.8,1.34,2.85,1.34,14.6-.03,18.62-7.2,19.71-11.47.01-.05.05-.22,0-.27-.07-.07-.25-.13-.53-.13-.24,0-.56.05-.94.17Z"/><path d="m66.95,46.27c5.71,2.11,4.58,6.72,13.95,15.54,5.34,5.03,7.92,5.6,9.04,7.47.28.46.39.82.51,1.31,1.17,4.6-3.82,10.6-8.69,13.53-9.03,5.44-15.99-.62-21.62,4.73-4.08,3.87-2.21,8.75-6.16,10.58-3.97,1.85-9.63-1.36-12.66-4.31-6.58-6.41-5.76-16.44-5.33-21.07.7-7.58,3.52-12.67,4.42-14.2.99-1.69,2.84-4.78,6.21-7.62.7-.59,11.29-9.28,20.33-5.94Z"/><path class="cls-3" d="m55.89,95.62c1.6-1.68,2.35-2.55,2.29-4.87l-.57-17.56s-3.65.08-4.82-4.33c-.91-3.41,3-3.4,3-3.4l-.77-6.42c2.83,1.13,2.34,5.28,4.92,3.68l11.42-7.09s3-.93,3.69,8.64c.34,3.26,2.72,4.22,3.45,5.01.51.56.41,1.44-.23,1.86l-.88.58c-1.69,8.73-3.5,10.33-6.56,9.96l.1,3.54c.1,3.47,3.19,6.08,6.63,5.6l9.57-1.35s-7.15,13.57-41.09,11.13l9.85-4.98Z"/><path d="m45.98,101.52c-.42-.03-.76-.33-.85-.74-.08-.41.12-.82.49-1.01l9.7-4.9c1.5-1.58,1.98-2.21,1.92-4.08l-.54-16.75c-1.63-.32-3.93-1.59-4.82-4.93-.41-1.55.02-2.54.45-3.1.65-.84,1.65-1.2,2.41-1.35l-.66-5.49c-.04-.33.1-.65.36-.85.26-.2.61-.25.91-.13,1.56.63,2.3,1.96,2.83,2.94.19.35.54.99.71,1.03,0,0,.15.03.55-.22l11.42-7.09c.07-.04.14-.07.22-.1.15-.05.94-.25,1.88.39,1.65,1.12,2.66,4.18,3.01,9.04.22,2.15,1.43,3.06,2.41,3.8.31.24.59.44.8.68.43.47.63,1.09.56,1.72-.08.63-.42,1.19-.95,1.54l-.55.37c-1.48,7.42-3.19,10.26-6.44,10.37l.07,2.54c.04,1.39.67,2.7,1.73,3.6,1.06.9,2.46,1.3,3.84,1.11l9.57-1.35c.35-.05.69.1.89.39.2.29.23.66.06.97-.28.53-6.63,11.93-34.02,11.92-2.48,0-5.13-.09-7.96-.3Zm31.72-9.79c-1.9.27-3.83-.29-5.3-1.53-1.47-1.24-2.34-3.05-2.39-4.97l-.1-3.54c0-.27.1-.53.3-.71.2-.18.46-.27.74-.24,2.07.25,3.8-.27,5.53-9.22.05-.24.19-.46.4-.6l.88-.58c.1-.07.13-.16.13-.21,0-.05,0-.15-.08-.24-.1-.11-.32-.28-.56-.45-1.06-.8-2.83-2.14-3.14-5.12-.4-5.6-1.6-7.17-2.1-7.59-.17-.14-.29-.19-.37-.21l-11.22,6.97c-.74.46-1.39.6-2,.44-.94-.25-1.41-1.11-1.86-1.94-.11-.19-.21-.39-.32-.57l.47,3.91c.03.26-.05.53-.23.73-.18.2-.43.31-.69.31-.39,0-1.51.14-1.97.75-.1.12-.39.5-.12,1.49.95,3.59,3.77,3.63,3.9,3.63h0c.48,0,.93.39.95.9l.57,17.57c.07,2.65-.87,3.78-2.55,5.53-.07.08-.16.14-.25.19l-6.76,3.42c22.93.96,32.3-5.88,35.42-9.16l-7.28,1.03Z"/><path d="m70.84,82.6c.5,0,.91-.39.93-.89.02-.51-.38-.95-.89-.97-5.63-.22-8.37-2.87-8.4-2.9-.37-.36-.95-.36-1.31,0-.36.36-.36.95,0,1.31.13.13,3.29,3.19,9.63,3.44.01,0,.02,0,.04,0Z"/><path d="m54.91,49.69c-.37-.27,1.51-12-7.34-12.23-8.85-.23-10.93,16.52-2.28,18.69,8.65,2.17,9.62-6.46,9.62-6.46Z"/><path d="m67.87,70.65c-.94-.49-1.63-1.32-1.94-2.33-.31-1.01-.21-2.08.28-3.02.49-.94,1.32-1.63,2.33-1.94,2.09-.65,4.31.53,4.96,2.61h0c.65,2.09-.53,4.31-2.61,4.96-.39.12-.78.18-1.18.18-.64,0-1.27-.15-1.84-.46Zm1.23-5.52c-.54.17-.98.53-1.24,1.03-.26.5-.31,1.07-.15,1.6.17.54.53.98,1.03,1.24.5.26,1.07.31,1.6.15,1.11-.34,1.73-1.52,1.39-2.63-.34-1.11-1.53-1.73-2.63-1.39Z"/><path class="cls-3" d="m76.85,68.31c.3,0,.6-.15.78-.42.64-.99.81-2.21.46-3.33-.35-1.13-1.18-2.04-2.28-2.49-.47-.2-1.02.03-1.21.51-.2.47.03,1.02.51,1.21.58.24,1.02.72,1.21,1.32.19.6.1,1.24-.25,1.77-.28.43-.16,1.01.27,1.29.16.1.33.15.51.15Z"/><path d="m66.59,68.31c.43,0,.82-.31.91-.75.1-.5-.23-.99-.73-1.09l-11.25-2.25c-.5-.1-.99.23-1.09.73-.1.5.23.99.73,1.09l11.25,2.25c.06.01.12.02.18.02Z"/><path d="m72.7,67.19c.4,0,.77-.26.89-.66.05-.16.26-.65.59-.81.1-.05.28-.11.63.02.48.18,1.02-.07,1.19-.55.18-.48-.07-1.02-.55-1.19-.95-.35-1.67-.16-2.11.07-1.1.56-1.5,1.8-1.54,1.94-.14.49.14,1.01.63,1.15.09.03.17.04.26.04Z"/></svg>