<?xml version="1.0" encoding="UTF-8"?><svg id="Layer_1" xmlns="http://www.w3.org/2000/svg" viewBox="0 0 200 300"><defs><style>.cls-1{fill:#ff575d;}.cls-2{fill:#fff;}.cls-3{fill:#07b9b1;}.cls-4{fill:#51555a;}</style></defs><circle class="cls-3" cx="100" cy="100" r="99"/><polygon class="cls-2" points="87.09 267.6 87.74 280.43 81.55 280.37 79.71 267.97 87.09 267.6"/><path d="m87.73,281.09l-6.18-.06c-.33,0-.6-.24-.65-.56l-1.84-12.39c-.03-.18.02-.37.14-.52.12-.14.29-.23.48-.24l7.38-.37c.18,0,.35.05.48.17.13.12.21.28.22.46l.65,12.83c0,.18-.06.36-.18.49-.12.13-.3.2-.48.2h0Zm-7.26-12.49l1.65,11.11,4.92.05-.58-11.47-5.99.3Z"/><path class="cls-2" d="m81.45,296.79c2.52.14,9.46,0,11.39-.96,1.7-.85,3.05-4.48,2.1-5.77-2.36-3.22-4.14-8.91-5.66-13.36-.09-.25-.43-.29-.56-.06l-1.22,2.05-1.08-2.29c-.17-.25-.45-.41-.75-.42l-2.16.07c-.5-.02-1.01.48-1.28.95l-1.46,2.03-.95-1.55c-.16-.26-.56-.16-.58.14l-1.06,15.05c.07,2.4,1.8,4.02,3.27,4.1Z"/><path d="m81.42,297.45c-1.82-.1-3.81-2.03-3.89-4.74,0-.02,0-.04,0-.07l1.06-15.05c.03-.42.33-.78.74-.88.41-.1.84.08,1.06.44l.43.7.86-1.19c.35-.59,1.03-1.25,1.8-1.25,0,0,.02,0,.03,0l2.14-.07s.03,0,.05,0c.51.02.99.29,1.27.71.02.03.03.06.05.09l.55,1.16.58-.98c.2-.33.55-.51.94-.47.38.04.7.29.82.65.15.45.31.92.47,1.39,1.42,4.21,3.03,8.98,5.1,11.79.47.64.57,1.65.27,2.86-.35,1.46-1.3,3.24-2.62,3.89-1.67.83-6.37,1.08-9.53,1.08-.88,0-1.65-.02-2.19-.05Zm6.65-18.41c-.12.21-.36.34-.6.32-.24-.01-.46-.16-.57-.38l-1.05-2.23c-.05-.06-.12-.09-.19-.1l-2.13.07s-.03,0-.05,0c-.14,0-.45.24-.68.62-.01.02-.02.04-.03.05l-1.46,2.03c-.13.18-.33.28-.56.27-.22,0-.42-.13-.54-.32l-.38-.62-.98,13.93c.08,2.11,1.61,3.37,2.64,3.43,2.86.16,9.39-.06,11.05-.89.77-.38,1.59-1.68,1.92-3.02.23-.94.12-1.53-.05-1.77-2.18-2.97-3.83-7.85-5.28-12.15-.08-.23-.15-.45-.23-.67l-.83,1.4Z"/><path d="m85.36,294.59c1.88,0,4.18-.23,6.64-1.02.35-.11.54-.48.43-.83-.11-.35-.48-.54-.83-.43-5.64,1.79-10.53.48-10.58.47-.35-.1-.72.11-.81.46-.1.35.11.72.46.81.13.04,1.97.53,4.7.53Z"/><path d="m83.43,287.98s.02,0,.03,0l5.63-.28c.37-.02.65-.33.63-.69-.02-.36-.33-.65-.69-.63l-5.63.28c-.37.02-.65.33-.63.69.02.35.31.63.66.63Z"/><polygon class="cls-2" points="41.4 263.1 40.36 278.66 34.57 278.75 33.8 263.48 41.4 263.1"/><path d="m33.91,278.78l-.77-15.27c-.02-.36.26-.68.63-.69l7.6-.38c.19,0,.37.06.5.2.13.13.2.32.19.51l-1.04,15.56c-.02.34-.31.61-.65.62l-5.79.09s0,0-.01,0c-.35,0-.64-.28-.66-.63Zm6.78-14.99l-6.2.31.7,13.97,4.54-.07.95-14.21Z"/><path class="cls-2" d="m42.06,274.89s.57,6.85.48,9.62c-.06,1.99-2.47,8.09-3.84,11.41-.56,1.36-1.81,2.46-3.1,2.82-2.41.68-3.6.71-5.86.46-3.05-.34-4.13-3.07-3.37-5.77.7-2.49,1.94-5.25,4.03-8.68,1.52-2.48,2.66-9.67,2.66-9.67l4.71-.24,1.53,3.88,2.76-3.83Z"/><path d="m29.67,299.85c-1.47-.16-2.64-.83-3.38-1.93-.84-1.24-1.04-2.95-.56-4.67.76-2.7,2.06-5.51,4.11-8.85,1.43-2.34,2.56-9.36,2.57-9.43.05-.31.31-.54.62-.56l4.71-.24c.29-.01.54.15.65.42l1.09,2.75,2.05-2.84c.16-.22.45-.32.71-.25.27.07.46.31.48.58.02.28.58,6.92.49,9.7-.06,1.97-2.15,7.42-3.89,11.64-.62,1.52-2.01,2.77-3.53,3.2-1.6.45-2.7.63-3.9.63-.67,0-1.38-.06-2.22-.15Zm10.17-20.75c-.14.2-.37.3-.62.27-.24-.03-.44-.19-.53-.41l-1.35-3.44-3.7.19c-.3,1.74-1.32,7.19-2.66,9.39-1.98,3.23-3.23,5.94-3.96,8.52-.38,1.35-.24,2.65.38,3.57.52.77,1.36,1.24,2.43,1.36,2.19.24,3.3.22,5.61-.44,1.13-.32,2.2-1.3,2.67-2.43,2.36-5.74,3.74-9.81,3.79-11.18.06-1.83-.18-5.53-.34-7.75l-1.7,2.36Z"/><path d="m28.77,296.89c-.35-.12-.53-.49-.42-.84.12-.35.49-.53.84-.42,1.06.35,2.72.23,3.36.11,1.1-.2,2.09-.78,2.8-1.63.61-.73,1.04-1.4,1.29-1.98.52-1.19,1.04-2.56,1.42-3.55.63-1.64.69-1.77.86-1.92.27-.24.69-.22.93.05.21.24.22.59.04.83-.09.18-.35.86-.6,1.52-.39,1.01-.92,2.38-1.45,3.6-.3.69-.8,1.47-1.49,2.29-.91,1.09-2.18,1.84-3.58,2.09-.33.06-1,.14-1.78.14-.73,0-1.55-.07-2.23-.3Zm11.04-9.24s0,0,0,0c0,0,0,0,0,0Z"/><path d="m30.25,290.85s.02,0,.03,0l5.15-.26c.37-.02.65-.33.63-.69-.02-.36-.34-.65-.69-.63l-5.15.26c-.37.02-.65.33-.63.69.02.35.31.63.66.63Z"/><path d="m90.53,138.84s1.77,47.24,1.34,78.07c-.37,26.51-2.44,47.75-3.01,53.18-.09.82-.7,1.49-1.51,1.65-1.6.3-4.37.66-7.08.29-.75-.1-1.37-.63-1.57-1.36-1.43-5.23-7.32-27.09-7.74-35.53-.46-9.15,1.06-11.53.87-18.99-.14-5.59-3.01-25.35-4.45-34.94-.19-1.26-1.95-1.38-2.31-.16-2.6,8.88-8.12,28.08-13.2,47.76-.26,1.01-1.37,9.55-1.63,10.54-3.14,12.29-6.19,22.17-7.2,27.92-.16.93-.88,1.67-1.8,1.87-1.78.38-4.79.8-7.51.09-.98-.26-1.66-1.14-1.71-2.15-.26-6.26-1.21-29.54-.87-33.47.71-8.44,6.83-17.02,7.56-25.98.73-8.96.28-31.33,2.84-44.89,2.56-13.56,8.14-28.93,8.14-28.93l40.83,5.05Z"/><path d="m65.67,48.73c3.24-2.14,8.66-.99,10.74,4.39,1.7,4.4-2.11,7.79-3.07,11.03-3.12,10.49,6.97,32.87.12,44.3-5.47,9.12-20.69,15.84-33.82,10.16-12.48-5.41-20.97-18.42-15.9-29.07,4.55-9.58,13.15-5.05,18.37-14.49,5.15-9.31.42-13.69,4.19-18.35,5.15-6.37,10.18-1.91,19.37-7.98Z"/><path class="cls-2" d="m48.2,158.74c.09,0,.19-.02.28-.06,8.54-4.02,10.62-12.44,10.71-12.8.08-.36-.13-.71-.49-.8-.35-.08-.71.13-.8.49-.02.08-2.04,8.17-9.99,11.91-.33.16-.47.55-.32.88.11.24.35.38.6.38Z"/><path class="cls-1" d="m94.92,85.01c.14-.34.59-.41.82-.12,3.47,4.42,10.27,17.99,21.75,17.02,12.09-1.02,17.09-8.44,17.09-8.44l8.94,4.73s-3.9,13.09-18.71,21.15c-15.12,8.23-40.81-6.54-40.81-6.54l10.92-27.79Z"/><path class="cls-1" d="m95.73,84.91c-9.81-5.91-27.39-5.41-36.12-1.42-15.5,7.09-24.38,63.42-19.43,75.57,4.53,11.09,43.05,13.45,53.75,3.96,4.56-4.04,3.04-28.16,2.24-37.8-.24-2.93-.37-5.87-.37-8.81l-.06-31.51Z"/><path class="cls-4" d="m147.66,79.29l-13.51-12.04L21.41,194.27c-1.2,1.35-.94,3.74.68,5.82,1.95,2.5,4.27,4.57,6.98,6.22,2.26,1.37,4.65,1.35,5.85,0l112.74-127.02Z"/><path d="m47.32,173.56c.18,0,.36-.08.5-.22l47.65-53.69c.24-.27.22-.69-.06-.93-.27-.24-.69-.22-.93.06l-47.65,53.69c-.24.27-.22.69.06.93.13.11.28.17.44.17Z"/><path d="m105.87,107.6c.18,0,.36-.08.5-.22l20.68-23.3c.24-.27.22-.69-.06-.93-.27-.24-.69-.22-.93.06l-20.68,23.3c-.24.27-.22.69.06.93.13.11.28.17.44.17Z"/><path d="m38.34,193.61c.18,0,.36-.08.5-.22l79.23-89.26c.24-.27.22-.69-.06-.93-.27-.24-.69-.22-.93.06l-79.23,89.26c-.24.27-.22.69.06.93.13.11.28.17.44.17Z"/><path class="cls-2" d="m167.2,50.91v.02c-1.43-.74-3.21-2.17-4.45-3.27-1.24-1.1-1.87-1.82-2.76-3.14l-25.82,22.72c3.21,5.47,7.71,9.49,13.51,12.04l19.52-28.36Z"/><path d="m161.87,48.64c.63.56,2.01,1.75,3.43,2.69l-18.08,26.27c-4.72-2.28-8.53-5.68-11.34-10.11l23.89-21.03c.6.76,1.21,1.38,2.1,2.18Zm-27.7,18.59c3.21,5.47,7.71,9.49,13.51,12.04l19.52-28.36v.02c-1.43-.74-3.21-2.17-4.45-3.27-1.24-1.1-1.87-1.82-2.76-3.14l-25.82,22.72Z"/><path d="m163.18,48.17c1.24,1.1,2.58,2.02,4,2.75l11.93-17.33c1.05-1.53-1.95-4.2-3.34-2.98l-15.79,13.9c.9,1.33,1.96,2.56,3.2,3.66Z"/><path class="cls-2" d="m74.7,141.89s6.19.36,9.48,2.98c0,0-.42,2.57.75,4.29,1.18,1.72,4.92,3.86,4.73,6.42s-8.99,1.39-11.33-.93-3.69-6.23-6.42-7.22c-2.73-.99,2.79-5.54,2.79-5.54Z"/><path d="m77.86,155.11c-.94-.93-1.71-2.08-2.45-3.19-1.15-1.71-2.24-3.33-3.73-3.88-.84-.3-1.1-.86-1.17-1.28-.32-1.86,2.8-4.6,3.77-5.39.13-.11.29-.16.46-.15.26.02,6.44.4,9.86,3.12.19.15.28.39.24.62,0,.02-.36,2.33.64,3.81.34.5.97,1.08,1.64,1.69,1.57,1.45,3.36,3.1,3.2,5.15-.04.53-.33,1.26-1.49,1.69-.67.25-1.55.36-2.52.36-3.01,0-6.95-1.08-8.44-2.57Zm-2.94-12.55c-1.63,1.39-3.23,3.26-3.1,3.98,0,.04.03.15.32.26,1.9.69,3.16,2.57,4.37,4.38.71,1.06,1.44,2.15,2.29,2.99,1.65,1.64,7.28,2.76,9.57,1.9.41-.15.62-.34.63-.55.11-1.41-1.43-2.83-2.78-4.08-.72-.67-1.41-1.3-1.83-1.92-1.03-1.5-.98-3.51-.91-4.36-2.77-1.99-7.43-2.5-8.56-2.6Z"/><path class="cls-1" d="m58.6,83.84l-8.16,29.98c.04,3.54,1.6,6.9,4.29,9.21l20.83,17.87-3.57,8.16c-.19.45-.73.62-1.15.38-4.81-2.74-30.1-17.31-33.52-23.04-2.1-3.52-2.31-13.38-2.4-19.73-.06-4.7,3.95-14.57,7.78-17.29,4.76-3.25,12.16-6.33,15.91-5.53Z"/><path d="m75.56,141.55c.19,0,.37-.08.5-.23.24-.28.21-.69-.07-.93l-20.83-17.87c-2.54-2.18-4.02-5.36-4.06-8.71l-.17-17.14c0-.36-.3-.65-.66-.65h0c-.37,0-.66.3-.65.67l.17,17.14c.04,3.73,1.68,7.27,4.52,9.7l20.83,17.87c.12.11.28.16.43.16Z"/><path d="m64.41,145.77c.23,0,.45-.12.58-.34.18-.32.07-.72-.25-.9-15.44-8.76-24.97-15.32-26.86-18.48-1.04-1.74-1.78-5.01-2.22-9.72-.03-.36-.36-.63-.72-.6-.36.03-.63.36-.6.72.45,4.9,1.26,8.36,2.4,10.27,2.56,4.3,16.28,12.68,27.34,18.95.1.06.22.09.33.09Z"/><path class="cls-2" d="m62.19,67.28c.34.01.61-.27.57-.61-.17-1.61-.69-4.62.85-5.97,1.97-1.73,5.25-4.37,6.52-2.76,1.11,1.41,2.24,4.28,4.93,5.35.26.1.28.48.17.73l-.56,1.43c-.13.28-.02.94.1,1.23.37.89,1.24,2.75,1.07,3.14-.33.76-3.27,2.12-3.27,2.12l1.95,9.09c.07.34.3.92.64.83l3.59.27s-.22,4.93-7.86,6.29c-9.98,1.78-11.29-4.92-11.29-4.92,0,0,9.76-.15,5.51-10.79-.09-.23-.31-.4-.55-.44-.95-.14-3.57-.66-4.07-2.35-.53-1.79.54-2.69,1.7-2.64Z"/><path d="m58.96,83.62c-.04-.19.01-.39.13-.54.12-.15.31-.24.5-.25.04,0,3.54-.08,5.14-2.47,1.13-1.7,1.05-4.19-.23-7.41,0-.01-.02-.03-.04-.03-1.48-.22-4.04-.89-4.61-2.82-.3-1.02-.18-1.95.33-2.6.44-.57,1.13-.88,1.9-.89l-.04-.32c-.22-1.84-.54-4.63,1.12-6.1,2.83-2.49,4.7-3.54,6.09-3.41.56.05,1.04.31,1.39.74.3.38.6.85.91,1.34.86,1.37,1.94,3.08,3.75,3.8.26.1.46.3.57.57.13.32.11.71-.02,1.01l-.57,1.43c-.03.13.03.54.1.73.06.14.13.3.2.47.84,1.95,1.08,2.68.87,3.19-.32.76-1.93,1.65-3.12,2.23l1.84,8.58c.03.12.07.24.11.32l3.53.26c.36.03.63.33.61.69,0,.22-.34,5.47-8.4,6.91-1.2.21-2.28.31-3.26.31-7.57,0-8.78-5.68-8.79-5.75Zm16.23-1.1c-.21.02-.41-.03-.6-.14-.48-.3-.66-.95-.72-1.22l-1.95-9.09c-.06-.3.09-.61.37-.74,1.31-.61,2.61-1.39,2.9-1.73-.06-.43-.59-1.66-.83-2.2-.08-.18-.15-.34-.21-.48-.13-.32-.35-1.21-.11-1.73l.55-1.39c-2.08-.92-3.23-2.75-4.17-4.23-.29-.46-.57-.9-.82-1.23-.12-.15-.26-.23-.47-.25-.97-.09-2.67.95-5.1,3.09-1.14,1.01-.85,3.47-.68,4.95l.05.46c.04.35-.08.7-.32.96-.24.26-.58.39-.94.38-.38-.02-.73.12-.93.38-.25.32-.28.8-.1,1.41.39,1.31,2.8,1.77,3.54,1.88.48.07.89.4,1.07.85,1.46,3.65,1.49,6.55.11,8.64-1.44,2.16-3.99,2.8-5.33,2.98.67,1.55,3.01,4.98,10.28,3.68,5.43-.97,6.83-3.76,7.19-5.03l-2.78-.21Zm-12.97-15.91s0,0,0,0c0,0,0,0,0,0Z"/><path class="cls-2" d="m152.71,77.64l-1.25,6.81c-.35,2.13-1.71,3.96-3.63,4.93l-3.6,1.86c-.6.31-1,.85-1.32,1.44-.72,1.32-1.59,3.45-1.59,3.45l-4.92-2.49s1.89-2.29,2.6-3.04c.91-.97,1.57-2.2,1.64-3.52.22-4.22,2.47-7.38,2.47-7.38l2.87,2.65s1.96-1.21,3.38-4.39c.35-.78.73-1.31,1.11-1.66.98-.92,2.56.04,2.25,1.34Z"/><path d="m141.01,96.72l-4.92-2.49c-.18-.09-.31-.26-.35-.45-.04-.2,0-.4.14-.56.08-.09,1.91-2.32,2.63-3.08.89-.94,1.4-2.04,1.46-3.1.22-4.36,2.49-7.59,2.59-7.73.11-.15.28-.25.47-.27.19-.02.38.04.52.17l2.47,2.28c.6-.5,1.79-1.69,2.74-3.8.36-.8.78-1.43,1.26-1.88.66-.62,1.59-.72,2.38-.26.78.46,1.17,1.35.97,2.22l-1.25,6.79c-.39,2.33-1.88,4.36-3.98,5.41l-3.6,1.86c-.39.2-.71.56-1.05,1.17-.7,1.27-1.55,3.36-1.56,3.38-.07.17-.21.31-.38.37-.07.03-.15.04-.23.04-.1,0-.21-.02-.3-.07Zm9.9-19.94c-.35.33-.67.82-.96,1.45-1.49,3.32-3.55,4.63-3.64,4.68-.25.16-.58.13-.8-.08l-2.29-2.11c-.63,1.1-1.8,3.5-1.95,6.38-.07,1.37-.72,2.77-1.82,3.94-.46.48-1.43,1.64-2.04,2.38l3.55,1.79c.32-.75.86-1.97,1.35-2.86.29-.53.77-1.28,1.6-1.7l3.6-1.86c1.73-.87,2.96-2.53,3.28-4.46l1.25-6.81s0-.02,0-.03c.09-.38-.12-.66-.35-.79-.06-.03-.19-.1-.36-.1-.14,0-.29.04-.44.19Z"/></svg>