<?xml version="1.0" encoding="UTF-8"?><svg id="Layer_1" xmlns="http://www.w3.org/2000/svg" viewBox="0 0 80 80"><defs><style>.cls-1{fill:#03111a;}.cls-2{fill:#fff;}</style></defs><path class="cls-1" d="m29.54,27.06c-3.63,2.08-6.23,5.79-6.77,10.2l-.71,5.92c-1.76.15-3.55.22-5.37.22-4.71,0-9.24-.48-13.5-1.39-1.09-.23-1.81-1.29-1.68-2.39l1.04-8.58c.47-3.92,3.05-7.11,6.51-8.52,2.09,1.7,4.75,2.71,7.64,2.71s5.56-1.01,7.65-2.7c2.19.88,4.04,2.49,5.21,4.55Z"/><path class="cls-1" d="m16.69,4c-5,0-9.06,4.06-9.06,9.06s4.06,9.06,9.06,9.06,9.06-4.06,9.06-9.06-4.06-9.06-9.06-9.06Z"/><path class="cls-1" d="m76.81,42.01c-4.25.91-8.79,1.39-13.5,1.39-1.82,0-3.62-.07-5.38-.22l-.71-5.91c-.52-4.42-3.12-8.13-6.76-10.21,1.17-2.06,3.01-3.66,5.2-4.55,2.09,1.69,4.75,2.7,7.64,2.7s5.56-1.01,7.65-2.71c3.46,1.4,6.04,4.6,6.51,8.52l1.03,8.58c.14,1.11-.58,2.16-1.68,2.39Z"/><path class="cls-1" d="m63.31,4c-5,0-9.06,4.06-9.06,9.06s4.06,9.06,9.06,9.06,9.06-4.06,9.06-9.06-4.06-9.06-9.06-9.06Z"/><path class="cls-1" d="m53.51,48.62c-4.25.91-8.79,1.39-13.5,1.39s-9.25-.48-13.5-1.39c-1.09-.23-1.81-1.29-1.68-2.39l1.03-8.58c.48-3.92,3.05-7.12,6.52-8.52,2.09,1.7,4.75,2.71,7.64,2.71s5.55-1.01,7.64-2.71c3.46,1.4,6.04,4.6,6.51,8.52l1.04,8.58c.13,1.11-.59,2.16-1.68,2.39Z"/><path class="cls-1" d="m40,10.62c-5,0-9.06,4.06-9.06,9.06s4.06,9.06,9.06,9.06,9.06-4.06,9.06-9.06-4.06-9.06-9.06-9.06Z"/><path class="cls-2" d="m10.73,61.6s0,0,0,0l-1.56,6.57c-.21.88.75,1.58,1.52,1.11l5.76-3.51h0l5.76,3.51c.77.47,1.73-.22,1.52-1.11l-1.56-6.56s0,0,0,0l5.12-4.4c.69-.59.32-1.71-.58-1.79l-6.73-.55s0,0,0,0l-2.6-6.23c-.35-.84-1.53-.84-1.88,0l-2.6,6.23-6.73.55c-.9.07-1.27,1.2-.58,1.79l5.12,4.4Z"/><path class="cls-2" d="m57.83,61.6s0,0,0,0l-1.56,6.57c-.21.88.75,1.58,1.52,1.11l5.76-3.51h0l5.76,3.51c.77.47,1.73-.22,1.52-1.11l-1.56-6.56s0,0,0,0l5.12-4.4c.69-.59.32-1.71-.58-1.79l-6.73-.55s0,0,0,0l-2.6-6.23c-.35-.84-1.53-.84-1.88,0l-2.6,6.23-6.73.55c-.9.07-1.27,1.2-.58,1.79l5.12,4.4Z"/><path class="cls-2" d="m34.28,68.18s0,0,0,0l-1.56,6.57c-.21.88.75,1.58,1.52,1.11l5.76-3.51h0l5.76,3.51c.77.47,1.73-.22,1.52-1.11l-1.56-6.56s0,0,0,0l5.12-4.4c.69-.59.32-1.71-.58-1.79l-6.73-.55s0,0,0,0l-2.6-6.23c-.35-.84-1.53-.84-1.88,0l-2.6,6.23-6.73.55c-.9.07-1.27,1.2-.58,1.79l5.12,4.4Z"/></svg>