<?xml version="1.0" encoding="UTF-8"?><svg id="Layer_1" xmlns="http://www.w3.org/2000/svg" viewBox="0 0 80 80"><defs><style>.cls-1{fill:#03111a;}.cls-2{fill:#fff;}</style></defs><path class="cls-1" d="m70.21,50.43l-3.54-20.15c-.18-.98-.92-1.81-1.89-2.05-.76-.2-1.53-.05-2.15.39-.64.44-1.03,1.15-1.08,1.9l-.89,11.72c.54.23,1.05.56,1.49.98,1.71,1.69,1.89,4.4.41,6.3l-5.79,7.38c-.51.66-1.46.79-2.13.26-.66-.53-.77-1.48-.25-2.13l5.78-7.38c.53-.69.46-1.66-.15-2.26-.33-.33-.75-.49-1.2-.49-.34,0-.71.12-1,.33l-8.45,6.2c-1.61,1.18-2.69,3-2.97,4.99l-1.44,11.31h15.67l7.34-8.81c1.95-2.36,2.77-5.45,2.25-8.48Z"/><path class="cls-1" d="m44.09,70.77h16.74c.89,0,1.61.72,1.61,1.61v6.01c0,.89-.72,1.61-1.61,1.61h-16.74c-.89,0-1.61-.72-1.61-1.61v-6.01c0-.89.72-1.61,1.61-1.61Z"/><path class="cls-1" d="m35.04,67.73l-1.44-11.32c-.28-1.97-1.36-3.79-2.97-4.97l-8.45-6.2c-.67-.49-1.59-.43-2.2.16-.61.61-.67,1.58-.15,2.26l5.79,7.38c.51.66.39,1.61-.26,2.13-.66.52-1.62.39-2.13-.26l-5.78-7.38c-1.49-1.9-1.31-4.61.39-6.3.44-.43.95-.75,1.49-.98l-.89-11.72c-.05-.75-.44-1.46-1.07-1.9-.62-.44-1.41-.59-2.17-.39-.97.25-1.71,1.07-1.89,2.05l-3.54,20.15c-.53,3.04.3,6.12,2.26,8.48l7.32,8.81h15.67Z"/><path class="cls-1" d="m19.17,70.77h16.74c.89,0,1.61.72,1.61,1.61v6.01c0,.89-.72,1.61-1.61,1.61h-16.74c-.89,0-1.61-.72-1.61-1.61v-6.01c0-.89.72-1.61,1.61-1.61Z"/><path class="cls-2" d="m40,6.55c.95,0,1.72-.77,1.72-1.72V1.72c0-.95-.77-1.72-1.72-1.72s-1.72.77-1.72,1.72v3.1c0,.95.77,1.72,1.72,1.72Z"/><path class="cls-2" d="m32.99,7c.3.56.88.92,1.52.92.28,0,.56-.07.81-.2.41-.22.71-.58.84-1.02.13-.44.09-.91-.13-1.31l-1.46-2.74c-.22-.41-.58-.7-1.02-.84-.44-.13-.91-.09-1.31.13-.41.22-.71.58-.84,1.02-.13.44-.09.91.13,1.31l1.45,2.74Z"/><path class="cls-2" d="m44.67,7.71c.25.13.53.2.81.2.64,0,1.22-.35,1.52-.92l1.46-2.74c.22-.41.26-.87.13-1.31-.13-.44-.43-.8-.84-1.02-.41-.22-.87-.26-1.31-.13-.44.13-.8.43-1.02.84l-1.46,2.74c-.22.41-.26.87-.13,1.31.13.44.43.8.84,1.02Z"/><path class="cls-1" d="m59.16,15.29c-1.23-1.06-3.09-.92-4.15.31l-8.97,10.11c-.75.87-1.83,1.36-2.98,1.36h-6.11c-1.14,0-2.23-.5-2.98-1.36l-8.97-10.11c-1.06-1.23-2.92-1.37-4.15-.31-1.23,1.06-1.37,2.92-.31,4.15l9.23,10.46c1.44,1.63,2.23,3.72,2.23,5.9v8.72c0,1.63,1.32,2.94,2.94,2.94h10.13c1.63,0,2.94-1.32,2.94-2.94v-8.72c0-2.17.79-4.27,2.23-5.9l9.23-10.46c1.06-1.23.92-3.09-.31-4.15Z"/><path class="cls-1" d="m40,10.01c-3.96,0-7.17,3.21-7.17,7.17s3.21,7.17,7.17,7.17,7.17-3.21,7.17-7.17-3.21-7.17-7.17-7.17Z"/></svg>