<?xml version="1.0" encoding="UTF-8"?><svg id="Layer_1" xmlns="http://www.w3.org/2000/svg" viewBox="0 0 80 80"><defs><style>.cls-1{fill:#03111a;}.cls-2{fill:#ff575d;}</style></defs><path class="cls-2" d="m40,21.7c3.42,0,6.2-2.78,6.2-6.2s-2.78-6.2-6.2-6.2-6.2,2.78-6.2,6.2,2.78,6.2,6.2,6.2Z"/><path class="cls-2" d="m46.77,49.24c-.59-4.12-.88-8.31-.88-12.47v-8.08h7.06l1.27-2.66c.53-1.1,1.26-2.06,2.15-2.85H23.64c.89.79,1.62,1.75,2.15,2.85l1.27,2.66h7.06v8.08c0,4.16-.3,8.36-.88,12.47l-2.53,17.79c-.25,1.76.97,3.38,2.73,3.63.15.02.31.03.46.03,1.58,0,2.95-1.16,3.18-2.76l2.53-17.79c.15-1.07.28-2.14.4-3.22.12,1.08.25,2.15.4,3.22l2.53,17.79c.23,1.6,1.6,2.76,3.18,2.76.15,0,.3,0,.46-.03,1.76-.25,2.98-1.88,2.73-3.63l-2.53-17.79Z"/><path class="cls-1" d="m79.73,39.66l-6.04-12.66c-1.11-2.33-3.5-3.84-6.08-3.84h-5.25c-2.58,0-4.97,1.51-6.08,3.84l-6.04,12.66c-.66,1.37-.07,3.02,1.3,3.67,1.37.66,3.02.07,3.67-1.3l3.89-8.15v2.88c0,4.16-.3,8.36-.88,12.48l-2.53,17.79c-.25,1.76.97,3.38,2.73,3.63.15.02.31.03.46.03,1.57,0,2.95-1.16,3.18-2.76l2.53-17.79c.15-1.07.29-2.14.4-3.22.12,1.08.25,2.15.4,3.22l2.53,17.79c.23,1.6,1.6,2.76,3.18,2.76.15,0,.3-.01.46-.03,1.76-.25,2.98-1.88,2.73-3.63l-2.53-17.79c-.59-4.12-.88-8.31-.88-12.48v-2.88l3.89,8.15c.47.99,1.46,1.57,2.49,1.57.4,0,.8-.09,1.18-.27,1.37-.65,1.96-2.3,1.3-3.67Z"/><circle class="cls-1" cx="64.99" cy="15.5" r="6.2"/><path class="cls-1" d="m23.72,27.01c-1.11-2.33-3.5-3.84-6.08-3.84h-5.25c-2.58,0-4.97,1.51-6.08,3.84L.27,39.66c-.66,1.37-.07,3.02,1.3,3.67,1.37.66,3.02.07,3.67-1.3l3.89-8.15v2.88c0,4.16-.3,8.36-.88,12.48l-2.53,17.79c-.25,1.76.97,3.38,2.73,3.63.15.02.31.03.46.03,1.57,0,2.95-1.16,3.18-2.76l2.53-17.79c.15-1.07.29-2.14.4-3.22.12,1.08.25,2.15.4,3.22l2.53,17.79c.23,1.6,1.6,2.76,3.18,2.76.15,0,.3-.01.46-.03,1.76-.25,2.98-1.88,2.73-3.63l-2.53-17.79c-.59-4.12-.88-8.32-.88-12.48v-2.88l3.89,8.15c.47.99,1.46,1.57,2.49,1.57.4,0,.8-.09,1.18-.27,1.37-.65,1.96-2.3,1.3-3.67l-6.04-12.66Z"/><path class="cls-1" d="m15.01,21.7c3.42,0,6.2-2.78,6.2-6.2s-2.78-6.2-6.2-6.2-6.2,2.78-6.2,6.2,2.78,6.2,6.2,6.2Z"/></svg>