<?xml version="1.0" encoding="UTF-8"?><svg id="Layer_1" xmlns="http://www.w3.org/2000/svg" viewBox="0 0 200 200"><defs><style>.cls-1{fill:#ff575d;}.cls-2{fill:#fff;}</style></defs><circle class="cls-1" cx="73" cy="73.12" r="127"/><circle class="cls-2" cx="152.15" cy="58.35" r="13.96"/><path d="m163.89,46.6c-3.12-3.12-7.28-4.85-11.7-4.85s-8.57,1.72-11.7,4.85-4.85,7.28-4.85,11.7c0,3.35,1,6.58,2.89,9.34,1.67,2.44,3.95,4.38,6.61,5.63v5.59h13.99l.1-5.58c2.66-1.25,4.95-3.2,6.62-5.64,1.89-2.76,2.89-5.99,2.89-9.34,0-4.42-1.72-8.57-4.85-11.7Zm-7.24,24.94l-.08,4.72h-8.83v-4.71l-.81-.33c-2.54-1.03-4.7-2.78-6.25-5.05-1.59-2.32-2.43-5.04-2.43-7.87,0-3.72,1.45-7.22,4.08-9.86,2.63-2.63,6.13-4.08,9.86-4.08s7.22,1.45,9.86,4.08c2.63,2.63,4.08,6.13,4.08,9.86,0,2.83-.84,5.55-2.43,7.87-1.55,2.27-3.72,4.01-6.25,5.05l-.8.32Z"/><rect x="145.83" y="80.93" width="12.62" height="2.61" rx="1.3" ry="1.3"/><rect x="147.29" y="85.62" width="9.7" height="2.61" rx="1.3" ry="1.3"/><rect x="150.88" y="30.28" width="2.61" height="8" rx="1.3" ry="1.3"/><path d="m137.47,42.53l-3.81-3.81c-.51-.51-1.33-.51-1.84,0h0c-.51.51-.51,1.33,0,1.84l3.81,3.81c.51.51,1.33.51,1.84,0h0c.51-.51.51-1.33,0-1.84Z"/><path d="m124.68,57.79h5.39c.72,0,1.3.58,1.3,1.3h0c0,.72-.58,1.3-1.3,1.3h-5.39c-.72,0-1.3-.58-1.3-1.3h0c0-.72.58-1.3,1.3-1.3Z"/><path d="m131.81,79.46h0c.51.51,1.33.51,1.84,0l3.81-3.81c.51-.51.51-1.33,0-1.84h0c-.51-.51-1.33-.51-1.84,0l-3.81,3.81c-.51.51-.51,1.33,0,1.84Z"/><path d="m169.73,72.64h0c.72,0,1.3.58,1.3,1.3v5.39c0,.72-.58,1.3-1.3,1.3h0c-.72,0-1.3-.58-1.3-1.3v-5.39c0-.72.58-1.3,1.3-1.3Z" transform="translate(-4.48 142.46) rotate(-45)"/><rect x="173" y="57.79" width="8" height="2.61" rx="1.3" ry="1.3"/><path d="m172.56,38.71h0c-.51-.51-1.33-.51-1.84,0l-3.81,3.81c-.51.51-.51,1.33,0,1.84h0c.51.51,1.33.51,1.84,0l3.81-3.81c.51-.51.51-1.33,0-1.84Z"/><path d="m162.42,59.75c.34,0,.61-.27.61-.61h0c0-3.13-1.22-6.07-3.43-8.28-2.21-2.21-5.15-3.43-8.28-3.43h0c-.34,0-.61.27-.61.61v1.38c0,.34.27.61.61.61h0c2.43,0,4.72.95,6.44,2.67,1.72,1.72,2.67,4.01,2.67,6.44h0c0,.34.27.61.61.61h1.38Z"/><path d="m84.91,157.04c-9.29,0-18.3-1.82-26.79-5.41-8.2-3.47-15.55-8.43-21.87-14.75s-11.28-13.68-14.75-21.87c-3.59-8.49-5.41-17.5-5.41-26.79s1.82-18.3,5.41-26.79c3.47-8.2,8.43-15.55,14.75-21.87,6.32-6.32,13.68-11.28,21.87-14.75,8.49-3.59,17.5-5.41,26.79-5.41,12.35,0,24.46,3.31,35.02,9.57.72.43.96,1.36.53,2.08-.43.72-1.36.96-2.08.53-10.1-5.98-21.67-9.14-33.47-9.14-8.88,0-17.5,1.74-25.6,5.17-7.83,3.31-14.87,8.06-20.91,14.1-6.04,6.04-10.79,13.08-14.1,20.91-3.43,8.11-5.17,16.72-5.17,25.6s1.74,17.5,5.17,25.6c3.31,7.83,8.06,14.87,14.1,20.91,6.04,6.04,13.08,10.79,20.91,14.1,8.11,3.43,16.72,5.17,25.6,5.17,5.33,0,10.63-.64,15.76-1.9,4.98-1.22,9.82-3.04,14.38-5.4.3-.15.63-.2.96-.15l33.06,5.84-5.74-33.25c-.06-.32,0-.66.15-.95,2.33-4.54,4.12-9.36,5.33-14.31,1.25-5.1,1.88-10.37,1.88-15.67,0-.84.68-1.52,1.52-1.52s1.52.68,1.52,1.52c0,5.54-.66,11.06-1.96,16.39-1.23,5.02-3.03,9.9-5.35,14.52l6.02,34.88c.08.49-.07.99-.42,1.33-.35.35-.85.51-1.34.42l-34.68-6.12c-4.64,2.35-9.55,4.17-14.59,5.41-5.36,1.32-10.91,1.99-16.49,1.99Z"/><path d="m40.66,79.53v1.01c0,.77-.16,1.41-.47,1.94s-.87,1.04-1.66,1.54c-.45.28-.8.54-1.05.77s-.44.45-.55.65-.16.45-.16.76c0,.33.15.59.44.77s.68.28,1.17.28c1.16,0,2.53-.41,4.12-1.24l1.63,3.19c-1.9,1.1-3.93,1.65-6.09,1.65-1.74,0-3.11-.38-4.1-1.15s-1.49-1.8-1.49-3.12c0-.94.21-1.75.64-2.44s1.14-1.35,2.13-1.98c.78-.5,1.29-.88,1.51-1.14s.34-.56.34-.9v-.6h3.6Zm.5-4.11c0,.73-.21,1.29-.62,1.68s-1.03.59-1.85.59-1.39-.2-1.8-.59-.62-.95-.62-1.68.21-1.25.63-1.64,1.02-.59,1.78-.59,1.4.19,1.83.58.64.94.64,1.65Z"/><path d="m57.17,81.49c0,1.06-.27,2.01-.81,2.83s-1.32,1.46-2.33,1.92-2.21.69-3.57.69c-1.14,0-2.1-.08-2.87-.24s-1.58-.44-2.41-.84v-4.12c.88.45,1.8.81,2.75,1.06s1.83.38,2.62.38c.69,0,1.19-.12,1.51-.36s.48-.54.48-.92c0-.23-.06-.44-.19-.62s-.34-.35-.62-.53-1.04-.55-2.28-1.1c-1.12-.51-1.96-1-2.51-1.48s-.97-1.02-1.24-1.64-.4-1.35-.4-2.19c0-1.58.57-2.81,1.72-3.69s2.73-1.32,4.73-1.32c1.77,0,3.58.41,5.43,1.23l-1.42,3.57c-1.6-.73-2.98-1.1-4.15-1.1-.6,0-1.04.11-1.31.32s-.41.47-.41.79c0,.34.17.64.52.9s1.29.75,2.83,1.45c1.48.66,2.5,1.38,3.08,2.14s.86,1.72.86,2.88Z"/><path d="m68.21,86.7l-.88-1.76h-.09c-.62.77-1.25,1.29-1.89,1.57s-1.47.42-2.48.42c-1.25,0-2.23-.38-2.95-1.12s-1.08-1.8-1.08-3.16.49-2.47,1.48-3.16,2.41-1.08,4.28-1.17l2.21-.07v-.19c0-1.09-.54-1.64-1.62-1.64-.97,0-2.2.33-3.69.98l-1.32-3.02c1.55-.8,3.5-1.2,5.86-1.2,1.7,0,3.02.42,3.96,1.27s1.4,2.02,1.4,3.54v8.71h-3.18Zm-3.4-3c.55,0,1.03-.18,1.42-.53s.59-.81.59-1.37v-1.03l-1.05.05c-1.51.05-2.26.61-2.26,1.66,0,.81.43,1.22,1.3,1.22Z"/><path d="m82.61,73.19c1.45,0,2.59.61,3.44,1.82s1.27,2.89,1.27,5.03-.43,3.85-1.28,5.07-2.04,1.83-3.57,1.83c-.49,0-.93-.05-1.31-.16s-.72-.25-1.03-.44-.65-.5-1.05-.94h-.28l-.73,1.3h-3.57v-18.23h4.58v4.12c0,.49-.05,1.34-.16,2.54h.16c.45-.69.96-1.18,1.54-1.49s1.24-.46,1.99-.46Zm-1.68,3.6c-.64,0-1.11.22-1.41.67s-.45,1.14-.45,2.1v.64c0,1.09.15,1.87.45,2.34s.78.71,1.45.71c.54,0,.95-.28,1.24-.83s.43-1.36.43-2.43c0-2.13-.57-3.2-1.72-3.2Z"/><path d="m89.61,72.15v-.34c1.2-1.29,1.97-2.12,2.29-2.5s.59-.71.8-1.01h5.02v.25c-.62.5-1.48,1.14-2.58,1.91s-1.92,1.34-2.48,1.69h-3.05Zm4.93,14.54h-4.58v-13.28h4.58v13.28Z"/><path d="m106.4,86.7l-.88-1.76h-.09c-.62.77-1.25,1.29-1.89,1.57s-1.47.42-2.48.42c-1.25,0-2.23-.38-2.95-1.12s-1.08-1.8-1.08-3.16.49-2.47,1.48-3.16,2.41-1.08,4.28-1.17l2.21-.07v-.19c0-1.09-.54-1.64-1.62-1.64-.97,0-2.2.33-3.69.98l-1.32-3.02c1.55-.8,3.5-1.2,5.86-1.2,1.7,0,3.02.42,3.96,1.27s1.4,2.02,1.4,3.54v8.71h-3.18Zm-3.4-3c.55,0,1.03-.18,1.42-.53s.59-.81.59-1.37v-1.03l-1.05.05c-1.51.05-2.26.61-2.26,1.66,0,.81.43,1.22,1.3,1.22Z"/><path d="m122.95,82.62c0,1.42-.48,2.5-1.45,3.22s-2.36,1.09-4.17,1.09c-.98,0-1.84-.05-2.57-.16s-1.47-.3-2.23-.58v-3.67c.71.31,1.49.57,2.34.77s1.6.3,2.27.3c.99,0,1.49-.23,1.49-.68,0-.23-.14-.44-.42-.63s-1.08-.54-2.42-1.07c-1.22-.5-2.07-1.07-2.55-1.71s-.73-1.44-.73-2.42c0-1.23.48-2.2,1.43-2.88s2.3-1.03,4.04-1.03c.88,0,1.7.1,2.47.29s1.57.47,2.4.84l-1.24,2.95c-.61-.27-1.25-.51-1.93-.7s-1.23-.29-1.66-.29c-.75,0-1.12.18-1.12.55,0,.23.13.42.39.58s1.02.49,2.27.98c.93.38,1.62.76,2.08,1.12s.79.8,1.01,1.29.32,1.1.32,1.81Z"/><path d="m37.77,115.73c-1.48,0-2.65-.61-3.49-1.83s-1.27-2.89-1.27-5.03.43-3.84,1.29-5.06,2.04-1.83,3.53-1.83c1.6,0,2.81.62,3.62,1.88h.09l.34-1.64h3.96v19.04h-4.58v-5.5c0-.27.05-.91.14-1.95h-.14c-.75,1.27-1.92,1.91-3.5,1.91Zm1.86-3.55c.7,0,1.2-.21,1.52-.64s.47-1.16.47-2.18v-.55c0-1.17-.16-2.01-.48-2.51s-.85-.76-1.58-.76c-1.27,0-1.9,1.14-1.9,3.41,0,1.16.16,1.98.48,2.48s.82.75,1.49.75Z"/><path d="m58.47,115.5l-.57-1.65h-.27c-.38.61-.92,1.08-1.6,1.4s-1.49.49-2.41.49c-1.46,0-2.6-.42-3.41-1.27s-1.22-2.04-1.22-3.59v-8.65h4.58v7.25c0,.87.12,1.52.37,1.97s.65.67,1.21.67c.79,0,1.35-.31,1.69-.93s.5-1.67.5-3.15v-5.81h4.58v13.28h-3.46Z"/><path d="m71.5,115.73c-2.21,0-3.93-.59-5.15-1.76s-1.83-2.85-1.83-5.02.57-3.96,1.7-5.16,2.75-1.8,4.85-1.8,3.54.52,4.63,1.56,1.63,2.54,1.63,4.51v2.04h-8.19c.03.74.3,1.32.81,1.75s1.21.63,2.09.63c.8,0,1.54-.08,2.22-.23s1.41-.41,2.2-.78v3.29c-.72.37-1.46.62-2.23.76s-1.68.21-2.74.21Zm-.27-10.63c-.54,0-.99.17-1.35.51s-.58.87-.64,1.6h3.94c-.02-.64-.2-1.15-.54-1.54s-.81-.57-1.4-.57Z"/><path d="m79.36,113.55c0-.72.21-1.27.64-1.66s1.04-.59,1.86-.59,1.37.2,1.78.59.62.95.62,1.66-.21,1.25-.64,1.65-1.01.59-1.76.59-1.38-.2-1.83-.59-.67-.94-.67-1.65Z"/><path d="m86.29,113.55c0-.72.21-1.27.64-1.66s1.04-.59,1.86-.59,1.37.2,1.78.59.62.95.62,1.66-.21,1.25-.64,1.65-1.01.59-1.76.59-1.38-.2-1.83-.59-.67-.94-.67-1.65Z"/><path d="m93.23,113.55c0-.72.21-1.27.64-1.66s1.04-.59,1.86-.59,1.37.2,1.78.59.62.95.62,1.66-.21,1.25-.64,1.65-1.01.59-1.76.59-1.38-.2-1.83-.59-.67-.94-.67-1.65Z"/><path d="m102.62,109.45v-1.01c0-.77.16-1.41.47-1.94s.87-1.04,1.66-1.54c.63-.4,1.09-.76,1.37-1.08s.42-.69.42-1.1c0-.33-.15-.59-.45-.78s-.68-.29-1.16-.29c-1.18,0-2.56.42-4.14,1.25l-1.63-3.19c1.95-1.11,3.98-1.66,6.09-1.66,1.74,0,3.11.38,4.1,1.15s1.49,1.81,1.49,3.13c0,.95-.22,1.76-.66,2.46s-1.15,1.35-2.12,1.96c-.82.53-1.33.92-1.54,1.17s-.31.54-.31.87v.6h-3.6Zm-.5,4.1c0-.72.21-1.27.63-1.66s1.03-.59,1.85-.59,1.38.2,1.8.59.63.95.63,1.66-.22,1.26-.65,1.65-1.03.59-1.78.59-1.38-.19-1.82-.58-.66-.94-.66-1.66Z"/></svg>