<?xml version="1.0" encoding="UTF-8"?><svg id="Layer_1" xmlns="http://www.w3.org/2000/svg" viewBox="0 0 80 80"><defs><style>.cls-1{fill:#07b9b1;}</style></defs><circle class="cls-1" cx="40" cy="40" r="40"/><path d="m42.08,27.14c2.28,0,4.08.53,5.4,1.58,1.32,1.05,1.98,2.43,1.98,4.13,0,1.46-.44,2.76-1.33,3.9-.88,1.15-2.04,1.95-3.46,2.4,1.05.81,1.85,1.71,2.39,2.7s.82,2.15.82,3.49c0,2.35-.8,4.19-2.41,5.52-1.61,1.33-3.81,2-6.61,2-2.56,0-4.59-.56-6.09-1.69-1.5-1.13-2.25-2.6-2.25-4.43,0-3.43,1.89-5.81,5.67-7.14-1.78-1.38-2.67-3.14-2.67-5.28,0-1.38.34-2.61,1.03-3.7s1.68-1.94,2.97-2.55,2.81-.92,4.54-.92Zm-2.41,14.99c-1.94,1.03-2.91,2.3-2.91,3.81,0,.62.21,1.12.62,1.51.42.39.96.59,1.65.59.8,0,1.44-.24,1.92-.72s.73-1.1.73-1.88c0-1.31-.67-2.42-2.02-3.32Zm2.1-10.15c-.55,0-1.02.23-1.43.67-.4.45-.61,1.01-.61,1.67,0,.43.13.87.4,1.32s.62.78,1.07.99c.66-.25,1.19-.66,1.58-1.21.39-.56.59-1.14.59-1.76,0-.56-.16-.98-.49-1.26-.33-.28-.7-.42-1.12-.42Z"/></svg>