<svg width="124" height="138" viewBox="0 0 124 138" fill="none" xmlns="http://www.w3.org/2000/svg">
<path d="M62.9849 0.00195312C65.4486 0.574668 67.3694 1.94162 69.0821 3.79484C70.4166 5.23743 72.2266 5.39682 74.0691 4.73225C75.8061 4.10551 77.5783 3.95693 79.3559 4.4567C82.8678 5.44004 85.0695 7.75522 85.8178 11.305C86.3446 13.8092 87.7359 15.1789 90.2321 15.7138C95.6026 16.8646 98.5634 21.9839 96.8642 27.214C96.07 29.6616 96.6022 31.5391 98.4716 33.2491C102.575 37.0015 102.583 42.7746 98.4905 46.5215C96.6238 48.2289 96.0646 50.0956 96.8588 52.5485C98.5769 57.8462 95.5594 62.9331 90.1294 64.1217C89.608 64.2352 89.0704 64.3486 88.5895 64.5675C86.7606 65.3968 86.558 66.0263 87.4684 67.7984C90.2942 73.2906 93.1334 78.78 95.9403 84.2802C97.0317 86.4171 96.1483 88.5296 94.0141 89.0753C93.4711 89.2131 92.9578 89.1483 92.4257 89.0213C89.4216 88.3 86.404 87.6273 83.4081 86.8709C82.5463 86.6521 82.1546 86.8385 81.8277 87.6895C80.7309 90.5287 79.5288 93.3248 78.3968 96.1478C77.8647 97.477 76.984 98.3171 75.5144 98.3901C74.0366 98.463 73.0776 97.6931 72.4293 96.4288C69.7089 91.1312 66.9696 85.8471 64.2708 80.5386C63.898 79.8038 63.5441 79.4094 62.6499 79.7147C62.2041 79.866 61.6314 79.8849 61.1857 79.7471C59.7242 79.2906 59.2271 80.1172 58.6571 81.2545C56.1744 86.2199 53.5864 91.1312 51.0632 96.0749C50.3635 97.4445 49.4693 98.4684 47.7809 98.3928C46.0925 98.3171 45.2874 97.2122 44.7201 95.7858C43.6314 93.0411 42.4833 90.318 41.4189 87.5652C41.1298 86.8169 40.7732 86.6629 40.0195 86.8493C36.9777 87.6003 33.9142 88.273 30.8696 89.0213C29.4918 89.359 28.368 89.0105 27.5089 87.9299C26.6364 86.8331 26.6391 85.6201 27.2685 84.3964C30.2212 78.6665 33.1442 72.9205 36.1591 67.223C36.6643 66.2667 36.432 65.7723 35.7215 65.2104C35.0029 64.6377 34.1924 64.3189 33.2955 64.1298C27.6656 62.9412 24.7048 57.9137 26.4662 52.4243C27.2172 50.0875 26.6742 48.2532 24.8939 46.6161C20.6661 42.7233 20.6715 37.0528 24.902 33.16C26.6796 31.5229 27.2145 29.6859 26.4635 27.3491C24.7021 21.8759 27.6521 16.8673 33.3063 15.6517C35.5702 15.1654 36.9101 13.8417 37.4018 11.5724C38.6445 5.82906 43.5693 2.97089 49.2019 4.74036C51.4171 5.43734 53.2946 5.01591 54.7804 3.24374C56.1825 1.56881 58.0357 0.701638 60.0159 0.00195313H62.9795L62.9849 0.00195312ZM46.8003 75.6652C43.3613 75.6787 40.5652 74.3928 38.5337 71.3725C36.2537 75.8083 34.0492 80.101 31.7044 84.6611C34.7922 83.9452 37.4882 83.3563 40.16 82.6809C41.1569 82.4297 42.0943 82.4135 43.0506 82.7512C43.8881 83.3374 44.3797 84.1505 44.7525 85.0934C45.7872 87.7111 46.8786 90.3072 48.0213 93.0952C50.6229 88.0515 53.146 83.1699 55.6584 78.2829C55.7719 78.0641 55.9043 77.8561 55.7503 77.5427C54.8588 75.7057 52.0817 74.3631 50.0393 74.8412C48.9533 75.0952 47.8782 75.3896 46.8003 75.6652ZM77.2649 75.7138C76.341 75.5436 75.3685 75.5058 74.504 75.1762C71.8701 74.1766 69.8196 74.8817 68.042 76.9781C67.5071 77.6075 67.4612 78.0046 67.8232 78.6962C70.1924 83.2185 72.5184 87.7651 74.8633 92.3009C74.9687 92.5062 75.0092 92.7899 75.3685 92.8736C76.4545 90.2127 77.5513 87.5679 78.6103 84.907C79.0074 83.9074 79.5774 83.097 80.5742 82.635C81.3685 82.4027 82.1492 82.4486 82.9569 82.6431C85.7719 83.3266 88.6003 83.9668 91.6044 84.6638C89.2811 80.1604 87.0497 75.8327 84.7426 71.3617C82.9218 74.1631 80.3554 75.4058 77.2676 75.7111L77.2649 75.7138ZM30.9074 29.513C30.8237 32.0362 29.7215 34.3189 27.5981 36.1748C25.2208 38.2523 25.1505 41.4265 27.4576 43.4824C30.7021 46.373 31.6287 49.7741 30.2401 53.9128C29.2757 56.7899 30.9371 59.4968 33.925 60.1154C38.0637 60.9718 40.5517 63.4328 41.4189 67.5715C42.0619 70.635 44.7471 72.264 47.708 71.2807C51.7899 69.9272 55.1695 70.8511 58.0195 74.0551C60.0483 76.3351 63.2145 76.3595 65.2352 74.0902C68.1231 70.8457 71.5216 69.9164 75.6602 71.3077C78.5373 72.2748 81.2361 70.6107 81.8574 67.6174C82.7165 63.4761 85.1803 60.9934 89.3162 60.1235C92.3284 59.4887 94.0276 56.8277 93.0632 53.9614C91.6476 49.7606 92.6013 46.3459 95.889 43.4229C98.0583 41.4968 98.0826 38.3117 95.9241 36.3964C92.6418 33.4815 91.6314 30.0803 93.0497 25.8714C94.0222 22.9916 92.35 20.2874 89.3676 19.6715C85.2316 18.8151 82.7408 16.3567 81.8682 12.2181C81.2334 9.20592 78.5643 7.49317 75.7143 8.46031C71.5162 9.88129 68.1015 8.92226 65.1785 5.63995C63.2037 3.42203 60.0402 3.46256 58.0601 5.69128C55.1749 8.93577 51.7737 9.86778 47.635 8.47922C44.7579 7.51478 42.0429 9.1816 41.4324 12.1586C40.5814 16.3 38.115 18.7854 33.9817 19.658C30.848 20.3198 29.3379 22.9808 30.305 26.074C30.6265 27.106 30.8993 28.1433 30.9101 29.5103L30.9074 29.513Z" fill="#040303"/>
<path d="M123.342 109.969C122.407 113.824 119.273 115.404 116.164 117.136C105.482 123.085 94.8625 129.144 84.2106 135.147C80.9472 136.986 77.4217 137.964 73.6775 137.981C64.0683 138.018 54.4591 137.994 44.8499 137.994C41.1381 137.994 37.7477 136.708 34.3438 135.422C28.695 133.288 23.0273 131.205 17.365 129.101C16.2142 133.091 14.6311 134.279 10.514 134.279C8.98769 134.279 7.46135 134.288 5.93501 134.279C2.35554 134.255 0.0457746 131.986 0.0187597 128.388C-0.0163596 123.628 0.0106552 118.865 0.0106552 114.105C0.0106552 106.379 0.0106552 98.6523 0.0106552 90.9287C0.0106552 86.655 2.20966 84.4614 6.47261 84.456C8.04487 84.456 9.61714 84.4452 11.1867 84.456C14.9499 84.483 17.2596 86.736 17.2002 90.4938C17.1786 91.7932 17.4244 92.2119 18.8454 92.2038C25.718 92.1552 32.2664 93.7545 38.0449 97.442C43.2993 100.797 48.9454 102.224 55.0264 102.71C59.8972 103.099 64.7518 103.736 69.6036 104.35C74.6419 104.987 78.759 108.942 79.5937 114.072C79.8099 115.391 80.2286 115.077 81.0012 114.734C91.0291 110.301 101.057 105.873 111.096 101.465C115.391 99.5789 119.219 100.395 121.634 103.591C122.48 104.709 122.769 106.054 123.344 107.278V109.974L123.342 109.969ZM15.2903 102.694C13.6478 102.27 13.1939 101.735 13.1858 100.084C13.1696 96.8963 13.1912 93.7113 13.175 90.5235C13.1696 89.008 12.6941 88.5244 11.1597 88.492C9.67927 88.4596 8.19886 88.4812 6.71845 88.4839C4.44109 88.4893 4.04397 88.8837 4.04397 91.1422C4.04397 102.902 4.04397 114.661 4.04397 126.421C4.04397 127.094 4.02236 127.769 4.05478 128.442C4.11151 129.606 4.65181 130.262 5.9134 130.235C7.57211 130.2 9.23353 130.23 10.8922 130.227C12.8292 130.222 13.175 129.887 13.1777 127.966C13.1831 122.22 13.1777 116.477 13.1831 110.731C13.1831 108.942 13.6532 108.37 15.3146 108.048C16.7626 108.232 17.2353 109.204 17.2975 110.506C17.2759 114.858 17.2894 119.213 17.2056 123.563C17.1867 124.511 17.5325 124.849 18.3591 125.151C25.0345 127.604 31.6937 130.108 38.3555 132.599C40.5978 133.437 42.9022 133.955 45.3065 133.955C54.686 133.955 64.0656 133.966 73.4452 133.947C76.5519 133.942 79.483 133.164 82.1872 131.64C93.8927 125.046 105.587 118.435 117.282 111.825C118.881 110.92 119.546 109.161 119.019 107.319C118.511 105.541 117.077 104.506 115.213 104.539C114.197 104.555 113.295 104.92 112.39 105.32C101.457 110.136 90.5212 114.945 79.5883 119.759C78.8076 120.102 78.0458 120.44 77.1516 120.426C67.2966 120.272 57.4064 120.937 47.6162 119.194C46.017 118.757 45.3227 117.906 45.5928 116.712C45.8711 115.48 46.8814 114.948 48.4375 115.177C50.1664 115.434 51.8954 115.699 53.6325 115.901C60.659 116.717 67.7153 116.217 74.7554 116.388C75.582 116.406 75.709 116.08 75.6955 115.366C75.6253 112.149 72.6941 108.899 69.2524 108.391C66.9022 108.045 64.533 107.824 62.1718 107.551C57.4037 107 52.6302 106.489 47.8702 105.887C43.8666 105.379 40.4033 103.488 37.0129 101.438C31.3668 98.0228 25.2533 96.2453 18.6347 96.1831C17.5703 96.1723 17.057 96.3425 17.2083 97.5366C17.3164 98.3767 17.1867 99.2439 17.238 100.092C17.3218 101.532 16.7031 102.399 15.2876 102.694H15.2903Z" fill="#040404"/>
<path d="M30.9076 29.5123C30.8968 28.1454 30.624 27.108 30.3025 26.076C29.3353 22.9828 30.8455 20.3219 33.9792 19.66C38.1125 18.7874 40.5789 16.3021 41.4299 12.1607C42.0431 9.18365 44.7581 7.51684 47.6325 8.48127C51.7712 9.86983 55.1724 8.93782 58.0575 5.69333C60.0377 3.46461 63.2012 3.42409 65.176 5.64201C68.1017 8.92431 71.5136 9.88064 75.7118 8.46236C78.5645 7.49793 81.2309 9.21067 81.8657 12.2201C82.7383 16.3561 85.2291 18.8172 89.3651 19.6735C92.3475 20.2895 94.0197 22.9964 93.0472 25.8734C91.6262 30.0796 92.6366 33.4808 95.9216 36.3984C98.0801 38.3138 98.0557 41.4988 95.8865 43.425C92.5987 46.3453 91.6451 49.7627 93.0607 53.9635C94.0278 56.8298 92.3259 59.4907 89.3137 60.1256C85.1778 60.9982 82.714 63.4808 81.8549 67.6195C81.2336 70.6127 78.5348 72.2769 75.6577 71.3097C71.5163 69.9185 68.1206 70.8478 65.2327 74.0923C63.212 76.3615 60.0458 76.3372 58.017 74.0571C55.167 70.8532 51.7901 69.9293 47.7055 71.2827C44.7446 72.2661 42.0566 70.6371 41.4164 67.5736C40.5492 63.4349 38.0611 60.9738 33.9225 60.1175C30.9346 59.4988 29.2732 56.7919 30.2376 53.9149C31.6262 49.7762 30.6996 46.375 27.4551 43.4844C25.148 41.4286 25.2183 38.2543 27.5956 36.1769C29.719 34.321 30.8212 32.0382 30.9049 29.515L30.9076 29.5123ZM36.2917 42.5605C34.5168 43.3439 34.2737 43.9572 34.8275 46.2453C38.2178 60.2282 51.2201 69.0513 65.6325 67.1467C80.8959 65.1287 91.791 49.8707 88.7221 34.8072C85.6829 19.8842 72.3133 10.5047 57.1877 12.6848C46.2953 14.2543 36.6699 23.4556 34.687 34.1913C34.3628 35.9419 34.6573 36.4957 36.289 37.2224C35.9513 39.0027 35.954 40.7802 36.289 42.5605H36.2917Z" fill="#F87E84"/>
<path d="M80.5716 82.6351C79.5748 83.0944 79.0048 83.9075 78.6076 84.9071C77.5487 87.5681 76.4518 90.2128 75.3659 92.8738C75.0066 92.79 74.9687 92.5091 74.8607 92.3011C72.5158 87.7653 70.1898 83.2214 67.8206 78.6964C67.4586 78.0048 67.5072 77.605 68.0394 76.9782C69.8197 74.8819 71.8674 74.1768 74.5014 75.1763C75.3658 75.5032 76.3384 75.541 77.2623 75.7139C77.3001 76.2245 77.6216 76.6 77.8458 77.0296C78.8156 78.8666 79.8719 80.6658 80.5662 82.6378L80.5716 82.6351Z" fill="#E7AE4C"/>
<path d="M46.8004 75.6655C47.881 75.39 48.9562 75.0928 50.0395 74.8416C52.0818 74.3634 54.859 75.706 55.7505 77.543C55.9044 77.8591 55.7694 78.0644 55.6586 78.2833C53.1462 83.1702 50.6257 88.0518 48.0215 93.0955C46.8788 90.3103 45.7901 87.7114 44.7527 85.0937C44.3799 84.1509 43.8882 83.3377 43.0508 82.7515C44.7338 80.62 45.836 78.1779 46.7977 75.6655H46.8004Z" fill="#E4A32D"/>
<path d="M46.8005 75.6657C45.836 78.1781 44.7365 80.6202 43.0535 82.7517C42.0972 82.414 41.1598 82.4302 40.1629 82.6815C37.4912 83.3568 34.7951 83.9458 31.7073 84.6617C34.0495 80.1015 36.2566 75.8116 38.5366 71.373C40.5681 74.3933 43.3642 75.6765 46.8032 75.6657H46.8005Z" fill="#E7AE4C"/>
<path d="M80.5717 82.6346C79.8748 80.6625 78.8212 78.8661 77.8513 77.0263C77.6244 76.5968 77.3056 76.2213 77.2678 75.7107C80.3556 75.4055 82.922 74.1628 84.7428 71.3613C87.0499 75.8323 89.2813 80.1601 91.6046 84.6635C88.6006 83.9638 85.7748 83.3235 82.9572 82.6427C82.1494 82.4482 81.3687 82.4023 80.5744 82.6346H80.5717Z" fill="#E3A22D"/>
<path d="M47.6189 119.191C57.4091 120.934 67.2992 120.272 77.1542 120.423C78.0457 120.437 78.8102 120.099 79.591 119.756C90.5239 114.942 101.459 110.133 112.392 105.317C113.3 104.917 114.202 104.552 115.215 104.536C117.079 104.503 118.511 105.538 119.022 107.316C119.549 109.158 118.884 110.92 117.285 111.822C105.59 118.432 93.8953 125.043 82.1898 131.637C79.4856 133.161 76.5518 133.939 73.4478 133.944C64.0682 133.963 54.6887 133.955 45.3091 133.952C42.9048 133.952 40.6004 133.436 38.3582 132.596C31.6963 130.105 25.0372 127.601 18.3618 125.148C17.5324 124.843 17.1893 124.508 17.2083 123.56C17.292 119.208 17.2785 114.856 17.3001 110.503C17.6081 110.547 17.935 110.536 18.2213 110.641C25.129 113.227 32.007 115.89 38.9498 118.381C41.7242 119.378 44.6527 119.775 47.6243 119.191H47.6189Z" fill="#FDDBCC"/>
<path d="M47.619 119.191C44.6474 119.774 41.7189 119.377 38.9445 118.38C32.0044 115.889 25.1237 113.223 18.216 110.64C17.9324 110.535 17.6028 110.546 17.2948 110.503C17.2327 109.201 16.7599 108.228 15.3119 108.044C15.3038 106.261 15.2957 104.478 15.2876 102.693C16.7032 102.401 17.3218 101.534 17.2381 100.091C17.1894 99.2402 17.3164 98.373 17.2084 97.5356C17.0571 96.3388 17.5704 96.1713 18.6347 96.1821C25.2534 96.2442 31.3668 98.0245 37.0129 101.437C40.4033 103.487 43.8666 105.378 47.8702 105.886C52.6302 106.488 57.4038 106.999 62.1719 107.55C64.533 107.823 66.9022 108.044 69.2525 108.39C72.6942 108.895 75.6253 112.148 75.6955 115.365C75.7117 116.079 75.5821 116.405 74.7554 116.387C67.7153 116.214 60.6564 116.716 53.6325 115.9C51.8954 115.698 50.1665 115.433 48.4375 115.176C46.8842 114.947 45.8738 115.479 45.5929 116.711C45.3227 117.905 46.017 118.758 47.6163 119.193L47.619 119.191Z" fill="#FCEAE1"/>
<path d="M15.2902 102.694C15.2983 104.477 15.3064 106.26 15.3145 108.045C13.6558 108.367 13.1858 108.939 13.183 110.728C13.1749 116.474 13.183 122.217 13.1776 127.963C13.1776 129.884 12.8319 130.222 10.8922 130.224C9.23078 130.227 7.57206 130.197 5.91335 130.233C4.65176 130.26 4.11146 129.603 4.05473 128.439C4.02231 127.766 4.04392 127.093 4.04392 126.418C4.04392 114.659 4.04392 102.899 4.04392 91.1394C4.04392 88.8809 4.44104 88.4892 6.71839 88.4811C8.19881 88.4757 9.67922 88.4568 11.1596 88.4892C12.6941 88.5216 13.1695 89.0052 13.1749 90.5207C13.1885 93.7085 13.1695 96.8935 13.1858 100.081C13.1939 101.732 13.6477 102.264 15.2902 102.691V102.694Z" fill="#7A8994"/>
<path d="M36.2916 37.2223C34.6599 36.4956 34.3655 35.9418 34.6897 34.1912C36.6698 23.4555 46.2952 14.2543 57.1903 12.6847C72.3132 10.5046 85.6856 19.8842 88.7248 34.8072C91.791 49.868 80.8959 65.1287 65.6352 67.1467C51.2227 69.0512 38.2205 60.2309 34.8301 46.2453C34.2763 43.9571 34.5195 43.3439 36.2943 42.5604C37.8531 42.5874 38.4312 43.5708 38.7095 44.9377C39.5334 48.9711 41.3596 52.5235 44.1205 55.5573C47.5514 59.3259 51.6955 61.9085 56.7851 62.8054C59.5541 63.5969 62.361 63.5321 65.1678 63.1187C75.5577 61.5897 83.3542 53.5771 84.9859 42.782C86.4528 33.0863 80.7932 22.845 71.5676 18.5929C66.8319 16.4101 61.9044 15.7509 56.7851 16.9801C56.4339 17.0341 56.0719 17.0449 55.7369 17.1449C46.6897 19.7977 40.9598 25.6626 38.7176 34.8477C38.3853 36.2038 37.8477 37.1899 36.2943 37.2223H36.2916Z" fill="#040302"/>
<path d="M56.7823 62.8058C51.6927 61.9089 47.5486 59.3263 44.1177 55.5577C41.3568 52.5239 39.5279 48.9715 38.7067 44.9381C38.4284 43.5712 37.8503 42.5906 36.2915 42.5608C35.9565 40.7806 35.9565 39.003 36.2915 37.2227C37.8422 37.1876 38.3825 36.2015 38.7148 34.8481C40.957 25.6603 46.6868 19.7981 55.7341 17.1453C56.0718 17.0453 56.4338 17.0345 56.7823 16.9805C57.0038 17.4883 57.5387 17.5667 57.9412 17.8287C59.7566 19.0147 61.6801 20.0656 62.9741 21.8972C60.5428 21.3731 59.5351 21.9215 58.6517 24.2637C57.817 26.4843 56.9579 28.6968 56.1691 30.9336C55.8962 31.7117 55.5315 32.0602 54.6508 32.071C52.1844 32.1034 49.7206 32.2736 47.2542 32.3438C45.8197 32.3843 44.7148 32.8949 44.1691 34.2781C43.6585 35.5694 44.0718 36.758 45.3712 37.8089C47.3244 39.3893 49.2668 40.9859 51.2713 42.496C51.979 43.0282 52.052 43.5226 51.8197 44.3141C51.0849 46.8049 50.4392 49.32 49.7422 51.8215C49.3883 53.0939 49.7422 54.1475 50.7499 54.9336C51.817 55.7657 52.9867 55.7873 54.1348 55.0714C55.1992 54.4069 56.2339 53.6937 57.2875 53.0156C58.7517 52.0728 60.2456 50.3789 61.6855 50.4168C63.2118 50.4573 64.6949 52.1538 66.1943 53.129C66.305 53.202 66.3915 53.3073 66.4914 53.3992C65.4352 55.9548 63.3847 57.6946 61.4478 59.5262C60.0511 60.8472 58.2465 61.582 56.7796 62.8031L56.7823 62.8058Z" fill="#F8E47A"/>
<path d="M56.7823 62.8064C58.2492 61.588 60.0538 60.8532 61.4504 59.5295C63.3874 57.6952 65.4351 55.9581 66.4914 53.4025C67.2073 53.851 67.9286 54.294 68.6391 54.7506C70.1681 55.7339 71.3622 55.8122 72.4833 54.991C73.599 54.1724 73.9016 53 73.418 51.2494C72.7643 48.8802 72.1159 46.5083 71.4189 44.1526C71.2109 43.4502 71.3487 43.0153 71.943 42.5614C73.8638 41.0945 75.717 39.5385 77.6323 38.0635C78.8642 37.1126 79.6585 36.0293 79.1506 34.3922C78.7291 33.0252 77.6864 32.4228 75.7548 32.339C73.5639 32.2472 71.373 32.1256 69.1821 32.0202C68.9498 30.0725 67.9826 28.4111 66.9723 26.8091C66.2807 25.715 65.8241 24.3804 64.5247 23.751L64.5545 23.7861C64.495 23.6754 64.4383 23.5646 64.3789 23.4538C64.0466 22.8082 63.5306 22.3327 62.966 21.8951C61.672 20.0635 59.7485 19.0126 57.9331 17.8266C57.5306 17.5646 56.9984 17.4836 56.7742 16.9784C61.8935 15.7465 66.821 16.4057 71.5567 18.5912C80.7796 22.8433 86.4419 33.0819 84.975 42.7803C83.3433 53.5781 75.5468 61.588 65.1569 63.1171C62.35 63.5304 59.5432 63.5952 56.7742 62.8037L56.7823 62.8064Z" fill="#FCCE63"/>
<path d="M62.9716 21.8987C63.5362 22.3337 64.0522 22.8118 64.3845 23.4575C64.4439 23.5682 64.5006 23.679 64.5601 23.7898L64.5303 23.7546C65.3543 26.0239 66.2593 28.2715 66.9725 30.5759C67.3507 31.797 67.972 32.267 69.185 32.0212C71.3759 32.1292 73.5668 32.2481 75.7577 32.34C77.6893 32.421 78.7294 33.0261 79.1535 34.3931C79.6614 36.0302 78.8671 37.1162 77.6353 38.0644C75.7199 39.5394 73.8667 41.0955 71.9459 42.5624C71.3516 43.0162 71.2138 43.4512 71.4218 44.1536C72.1188 46.5093 72.7645 48.8812 73.4209 51.2504C73.9045 52.9982 73.6019 54.1734 72.4862 54.9919C71.3651 55.8132 70.1683 55.7348 68.642 54.7515C67.9315 54.2949 67.2102 53.8519 66.4943 53.4035C66.3971 53.3116 66.3079 53.2062 66.1972 53.1333C64.6978 52.1554 63.2147 50.4615 61.6884 50.421C60.2458 50.3805 58.7546 52.077 57.2904 53.0198C56.2341 53.6979 55.2021 54.4111 54.1377 55.0757C52.9896 55.7916 51.8199 55.77 50.7528 54.9379C49.7424 54.1518 49.3912 53.0982 49.7451 51.8258C50.4421 49.3242 51.0878 46.8091 51.8226 44.3184C52.0549 43.5268 51.9819 43.0351 51.2742 42.5003C49.2697 40.9901 47.3246 39.3935 45.3741 37.8132C44.0747 36.7623 43.6641 35.5709 44.1719 34.2823C44.7176 32.8992 45.8226 32.3859 47.257 32.3481C49.7235 32.2805 52.1873 32.1076 54.6537 32.0752C55.5344 32.0644 55.8991 31.7159 56.1719 30.9379C56.9581 28.7011 57.8172 26.4885 58.6546 24.2679C59.5353 21.9257 60.5457 21.3773 62.977 21.9014L62.9716 21.8987ZM54.4349 50.032C56.2908 48.8163 57.8469 47.914 59.2705 46.8361C60.9185 45.5881 62.407 45.6259 64.0468 46.8361C65.4921 47.9032 67.0454 48.8271 68.8473 50.0077C68.3151 48.0464 67.891 46.4525 67.4506 44.8641C66.651 41.987 66.8023 41.5034 69.0986 39.6826C70.4061 38.6452 71.7109 37.5998 73.0157 36.557C72.9698 36.3868 72.9266 36.2166 72.8806 36.0437C71.0058 36.0437 69.131 36.0491 67.2588 36.0437C65.4759 36.0356 64.3358 35.2089 63.7631 33.4746C63.1688 31.6727 62.4367 29.9167 61.6398 27.8177C60.8914 29.8141 60.1837 31.4458 59.6677 33.1396C59.0355 35.2143 57.7172 36.1329 55.5857 36.0761C53.8487 36.0302 52.1089 36.0653 50.3719 36.0653C50.3367 36.2274 50.3016 36.3868 50.2665 36.5489C51.7253 37.7105 53.1517 38.9127 54.6483 40.023C56.1422 41.1306 56.5961 42.4678 56.0234 44.2562C55.4534 46.0365 55.0265 47.86 54.4349 50.032Z" fill="#040301"/>
<path d="M69.1876 32.0205C67.9719 32.2663 67.3533 31.7962 66.9751 30.5752C66.2619 28.2708 65.3569 26.0232 64.533 23.7539C65.8297 24.3807 66.2889 25.7179 66.9805 26.812C67.9909 28.4113 68.958 30.0727 69.1903 32.0232L69.1876 32.0205Z" fill="#F3DF77"/>
<path d="M54.4347 50.0307C55.0237 47.8587 55.4532 46.0325 56.0232 44.2549C56.5959 42.4666 56.1421 41.1293 54.6482 40.0217C53.1515 38.9114 51.7252 37.7092 50.2664 36.5476C50.3015 36.3855 50.3366 36.2261 50.3717 36.064C52.1088 36.064 53.8485 36.0262 55.5856 36.0748C57.7171 36.1316 59.0354 35.2131 59.6675 33.1383C60.1835 31.4445 60.8913 29.8128 61.6396 27.8164C62.4338 29.9182 63.1687 31.6714 63.763 33.4733C64.3357 35.2077 65.4757 36.0343 67.2587 36.0424C69.1335 36.0505 71.0084 36.0424 72.8805 36.0424C72.9264 36.2126 72.9696 36.3828 73.0156 36.5557C71.7107 37.5985 70.4059 38.6413 69.0984 39.6813C66.8021 41.5021 66.6509 41.9857 67.4505 44.8628C67.8908 46.4513 68.315 48.0451 68.8472 50.0064C67.0453 48.8259 65.4919 47.902 64.0466 46.8349C62.4095 45.6246 60.9183 45.5868 59.2704 46.8349C57.8467 47.9128 56.2934 48.8151 54.4347 50.0307Z" fill="#E3A22D"/>
</svg>
