<svg width="139" height="138" viewBox="0 0 139 138" fill="none" xmlns="http://www.w3.org/2000/svg">
<path d="M36.1457 82.4852C34.3873 81.221 34.1469 80.4296 34.9248 78.3606C35.7568 76.1403 36.6076 73.928 37.4369 71.7077C37.5557 71.389 37.8339 71.0865 37.6286 70.6813C37.1694 70.4787 37.0155 70.9109 36.794 71.1297C34.8789 73.0232 32.9854 74.9383 31.073 76.8317C28.1531 79.7219 24.5687 79.7435 21.6867 76.8669C15.2364 70.4328 8.79153 63.9906 2.35747 57.5404C-0.516518 54.6583 -0.500312 51.0604 2.39258 48.154C6.98448 43.5405 11.5845 38.9378 16.198 34.3486C19.0909 31.4692 22.6942 31.48 25.5952 34.3567C27.3131 36.0584 29.0094 37.779 30.7867 39.559C32.0778 37.4009 33.9983 36.4203 36.2132 35.7235C42.9174 33.6166 48.5465 29.8377 53.0952 24.4733C55.221 21.9694 57.2657 20.6701 61.0014 19.5006C60.0074 17.7854 59.1781 16.0296 58.8918 14.0416C58.0194 8.01542 61.7685 2.19181 67.6596 0.503613C68.0189 0.40097 68.4835 0.460395 68.6807 0.00390625C70.1177 0.00390625 71.5546 0.00390625 72.9916 0.00390625C73.0754 0.0903419 73.1483 0.233501 73.2455 0.252409C78.6289 1.32475 82.6994 5.5547 83.237 10.6571C83.8528 16.4942 80.9437 21.4913 75.636 23.7197C75.374 23.8304 75.0364 23.8358 74.8689 24.2248C77.5133 26.591 80.5413 27.7417 84.1121 27.3149C87.0563 26.9637 89.3604 25.362 91.551 23.5414C93.5957 21.8424 95.9214 21.2671 98.4713 21.9829C101.291 22.7743 103.096 24.657 103.744 27.531C104.433 30.5913 103.387 33.1115 101.048 35.086C94.2413 40.8232 86.3919 43.5891 77.4755 43.1488C76.549 43.1029 76.1709 43.3298 75.8818 44.2212C75.0175 46.9034 74.0424 49.5505 73.0862 52.2003C72.8593 52.8269 72.8458 53.1538 73.5859 53.5238C79.6634 56.5599 82.1565 62.324 80.3414 68.9229C79.0097 73.7552 77.697 78.5929 76.3734 83.4279C76.3545 83.5413 76.287 83.7358 76.3221 83.7574C76.4869 83.86 76.5004 83.6953 76.5382 83.5872C76.8731 83.3009 77.227 83.0335 77.5403 82.7229C80.7817 79.4896 84.0149 76.2483 87.2562 73.0151C89.1011 71.1756 90.3625 71.1675 92.1831 72.9854C95.1651 75.9674 98.1417 78.9602 101.178 82.0071C104.419 78.7603 107.623 75.5568 110.823 72.3506C111.68 71.4943 113.122 70.6786 113.209 69.744C113.306 68.6798 111.691 67.9586 110.869 67.0402C110.299 66.4027 109.684 65.8274 109.613 64.8901C109.492 63.21 110.421 62.2241 112.606 61.7838C119.764 60.3414 126.922 58.899 134.08 57.4593C136.338 57.0056 137.17 57.3783 138.207 59.2934V61.1788C137.292 63.3262 137.138 65.6545 136.657 67.9019C135.568 72.9799 134.604 78.0878 133.594 83.1821C133.364 84.3435 132.894 85.3186 131.668 85.7076C130.393 86.1101 129.41 85.6158 128.54 84.7028C127.673 83.7952 126.722 82.9606 125.896 82.0179C125.283 81.3183 124.902 81.3048 124.232 81.9936C121.352 84.9513 118.411 87.8496 115.491 90.7695C111.526 94.7374 107.561 98.7054 103.59 102.668C101.845 104.407 100.519 104.402 98.7684 102.657C96.0349 99.9317 93.277 97.2333 90.6002 94.4511C89.8682 93.6894 89.5171 93.7974 88.8391 94.4862C84.8441 98.5487 80.7979 102.565 76.7651 106.593C75.2471 108.108 74.3287 108.232 72.4784 107.192C71.2764 105.331 71.3683 104.383 72.9295 102.819C77.7186 98.022 82.5131 93.2275 87.3103 88.4357C89.1092 86.6395 90.3895 86.6557 92.229 88.487C94.9004 91.1476 97.6015 93.7839 100.213 96.5013C100.991 97.3116 101.391 97.3062 102.183 96.504C109.006 89.6107 115.875 82.7661 122.738 75.9134C124.38 74.2738 125.72 74.2819 127.376 75.8755C127.935 76.4131 128.394 77.0829 129.221 77.5016C130.12 73.0124 130.968 68.6663 131.884 64.3337C132.07 63.4504 131.754 63.4477 131.09 63.5828C128.105 64.1959 125.115 64.7848 122.13 65.3979C120.755 65.6815 119.343 65.8247 117.895 66.3514C118.173 66.6512 118.349 66.8457 118.532 67.0348C120.534 69.0957 120.542 70.2626 118.546 72.2641C113.63 77.191 108.711 82.1124 103.784 87.0285C101.775 89.0354 100.6 89.0111 98.5631 86.9744C95.9619 84.3705 93.3121 81.8099 90.7758 79.1412C89.9303 78.2525 89.5117 78.3579 88.7013 79.1709C73.6156 94.3107 58.4948 109.415 43.3847 124.531C42.4042 125.514 40.7133 126.5 40.6809 127.529C40.6431 128.685 42.4987 129.531 43.3982 130.627C44.0573 131.435 44.4787 131.316 45.1674 130.614C48.9733 126.738 52.8305 122.91 56.6742 119.072C58.2814 117.467 59.0971 117.357 61.0635 118.437C62.1791 120.347 62.0683 121.287 60.5206 122.837C55.8882 127.475 51.2558 132.113 46.6152 136.742C44.9189 138.433 43.6143 138.42 41.8937 136.707C39.6031 134.428 37.3153 132.142 35.0356 129.849C33.4041 128.207 33.4095 126.873 35.0626 125.222C44.5516 115.725 54.0406 106.228 63.5485 96.7525C64.294 96.0097 64.7127 95.6774 63.3649 95.0183C60.3693 93.557 58.8918 90.3319 59.4131 87.0393C60.318 81.3318 61.2148 75.6243 62.1169 69.9142C61.0662 69.5279 60.5071 69.8358 59.9966 70.8515C53.5085 83.7709 46.9772 96.6687 40.4405 109.564C38.4552 113.48 34.5791 115.209 30.5679 114.026C26.2326 112.748 23.834 108.243 25.2224 103.921C25.66 102.56 26.1921 101.228 26.6999 99.8912C27.5292 97.7168 28.2801 97.2684 30.576 97.5385C32.302 98.8593 32.5424 99.6778 31.7888 101.696C31.3647 102.827 30.9056 103.946 30.4977 105.083C30.287 105.669 30.0736 106.266 30.2708 106.917C30.6138 108.054 31.3107 108.775 32.5208 108.934C33.8174 109.105 34.8384 108.654 35.4461 107.492C36.5887 105.31 37.68 103.1 38.7901 100.901C44.53 89.5486 50.2996 78.212 55.9746 66.8268C56.8849 65.0036 58.0437 64.1716 60.0749 64.3499C61.5011 64.4768 62.9462 64.3742 64.3832 64.3742C67.3301 64.3769 68.2971 65.46 67.8406 68.3664C67.0006 73.7255 66.12 79.0764 65.2583 84.4327C65.0882 85.4942 64.9315 86.5585 64.7613 87.6227C64.529 89.0732 65.2259 90.2671 66.4711 90.5372C67.7704 90.8181 68.8373 90.1347 69.256 88.6464C71.2521 81.5317 73.2428 74.4169 75.1958 67.2914C76.6192 62.0999 73.305 57.7457 67.9379 57.7267C61.8792 57.7051 55.8179 57.743 49.7593 57.697C48.8491 57.6889 48.4547 57.959 48.1306 58.818C45.4187 66.0246 42.6554 73.2122 39.8976 80.4026C39.1602 82.3285 38.1878 82.8552 36.1538 82.4879L36.1457 82.4852ZM79.2069 37.8898C85.9003 37.806 92.2668 35.4614 97.38 31.1289C97.5853 30.956 97.8014 30.7858 97.9662 30.5778C98.6901 29.6568 98.8062 28.7033 97.9986 27.7714C97.3017 26.9637 96.1456 26.8746 95.1975 27.5391C94.7572 27.847 94.3575 28.2117 93.9334 28.5439C86.1056 34.6754 77.3945 34.2054 70.2878 27.269C65.3043 22.407 57.5278 24.4706 55.7099 31.191C53.9083 37.8492 52.2228 44.5399 50.4508 51.2063C50.2131 52.1003 50.386 52.3569 51.3395 52.3488C56.3231 52.3083 61.3066 52.3083 66.2902 52.3488C67.114 52.3569 67.449 52.0787 67.7056 51.317C69.0291 47.4166 70.4013 43.5297 71.7842 39.6482C72.4163 37.8708 73.4643 37.3117 75.32 37.5494C76.6084 37.7142 77.9104 37.779 79.2042 37.8898H79.2069ZM23.6963 62.4834C19.7256 62.6806 14.7664 58.1535 16.3952 53.378C16.6302 52.6865 16.5464 52.2597 16.0116 51.7573C14.607 50.4364 13.2484 49.0643 11.914 47.6732C11.4251 47.1654 11.1037 47.0006 10.5337 47.6057C9.11836 49.1048 7.64625 50.5526 6.16334 51.9896C5.48806 52.6432 5.56099 53.1538 6.20386 53.7939C12.6244 60.1875 19.0369 66.5918 25.4277 73.0151C26.1435 73.7336 26.6702 73.6687 27.3347 72.9799C28.7366 71.5267 30.1574 70.0898 31.6214 68.7041C32.2102 68.1477 32.0913 67.8181 31.57 67.3238C30.3329 66.1515 29.1039 64.9657 27.9559 63.707C26.8917 62.5401 25.8788 61.4867 24.1312 62.4375C23.9151 62.5536 23.6017 62.4915 23.6963 62.4834ZM23.4154 46.5684C24.277 46.4982 24.9361 47.0222 25.5546 47.6408C27.2347 49.3263 28.9202 51.0037 30.6003 52.6892C32.5397 54.634 32.5884 55.7009 30.7219 57.6997C30.2195 58.2373 30.3167 58.5209 30.7786 58.9693C32.3561 60.5008 33.9227 62.0458 35.4434 63.6368C35.9593 64.177 36.2538 64.0879 36.7184 63.6017C38.023 62.2403 39.3763 60.9276 40.7079 59.5932C41.8721 58.4263 41.8802 58.2427 40.7403 57.1136C37.7448 54.1424 34.7303 51.1927 31.7483 48.2107C28.4178 44.8775 25.109 41.5228 21.8055 38.1626C21.1572 37.5035 20.6062 37.5467 19.9768 38.1869C18.5317 39.6617 17.0704 41.123 15.5929 42.5654C15.1743 42.9733 15.0122 43.2407 15.5362 43.735C16.9381 45.0585 18.2968 46.4334 19.6311 47.8272C20.1254 48.3458 20.4603 48.3323 20.9141 47.8055C21.5435 47.0762 22.2728 46.4847 23.4154 46.5711V46.5684ZM71.0198 19.1818C74.8797 19.198 77.9536 16.1485 77.9563 12.3048C77.9563 8.52322 74.9256 5.43855 71.1657 5.39533C67.3571 5.35211 64.1833 8.43409 64.1374 12.2292C64.0915 16.0269 67.2005 19.171 71.0198 19.1845V19.1818ZM49.0057 35.4128C45.0297 38.0869 41.0374 39.9372 36.7805 41.231C35.5353 41.6092 34.9545 42.7788 35.3246 43.8565C35.6973 44.9397 36.8426 45.5339 38.0527 45.1801C41.1023 44.2833 44.0384 43.0975 46.8421 41.5957C47.2608 41.3715 47.5525 41.1338 47.6714 40.6341C48.063 38.9918 48.5033 37.3603 49.0057 35.4155V35.4128ZM45.6888 48.1621C44.0384 48.7942 42.6365 49.3317 41.4777 49.7774C42.4312 50.8281 43.3955 51.8896 44.4327 53.0295C44.8433 51.4359 45.2323 49.934 45.6888 48.1621ZM23.3343 57.1514C24.2689 56.7814 24.8416 56.0413 25.4034 55.3147C25.5384 55.1418 23.4586 53.0997 23.2155 53.143C22.8103 53.2132 21.3949 55.004 21.5138 55.3849C21.7947 56.2871 22.4511 56.8354 23.3343 57.1514Z" fill="#030202"/>
<path d="M61.0582 118.438C59.0917 117.357 58.276 117.471 56.6688 119.073C52.8252 122.911 48.968 126.738 45.1621 130.614C44.4733 131.317 44.0519 131.436 43.3929 130.628C42.4961 129.529 40.6404 128.686 40.6755 127.53C40.708 126.503 42.3989 125.515 43.3794 124.531C58.4894 109.416 73.6075 94.3114 88.696 79.1716C89.5063 78.3586 89.925 78.2533 90.7704 79.1419C93.3068 81.8106 95.9539 84.3686 98.5578 86.9752C100.594 89.0145 101.767 89.0361 103.779 87.0292C108.703 82.1131 113.625 77.189 118.541 72.2649C120.539 70.2634 120.529 69.0965 118.527 67.0355C118.343 66.8464 118.168 66.652 117.89 66.3521C119.34 65.8227 120.75 65.6823 122.125 65.3986C125.11 64.7828 128.1 64.1966 131.085 63.5835C131.749 63.4457 132.068 63.4511 131.879 64.3344C130.963 68.667 130.118 73.0131 129.215 77.5023C128.389 77.0837 127.93 76.4138 127.371 75.8763C125.715 74.2853 124.375 74.2745 122.733 75.9141C115.869 82.7668 109 89.6141 102.177 96.5047C101.383 97.3069 100.986 97.3096 100.208 96.502C97.5962 93.782 94.895 91.1484 92.2236 88.4878C90.3842 86.6564 89.1038 86.6402 87.3049 88.4365C82.5077 93.2282 77.7132 98.0227 72.9242 102.82C71.3629 104.384 71.2711 105.335 72.4731 107.193C71.2062 108.406 69.9421 109.619 68.678 110.831C67.0465 109.945 65.8499 109.986 64.8856 110.961C63.8889 111.966 63.8592 113.079 64.783 114.745C63.5405 115.977 62.3007 117.209 61.0582 118.44V118.438Z" fill="#FC6270"/>
<path d="M36.1457 82.4862C38.1797 82.8536 39.1494 82.3269 39.8895 80.401C42.6473 73.2106 45.4133 66.0229 48.1225 58.8164C48.4466 57.9574 48.841 57.69 49.7513 57.6954C55.8099 57.7413 61.8712 57.7035 67.9298 57.7251C73.2969 57.744 76.6112 62.0982 75.1877 67.2898C73.2348 74.4153 71.244 81.53 69.2479 88.6448C68.8292 90.1358 67.7623 90.8165 66.4631 90.5356C65.2179 90.2654 64.5183 89.0716 64.7533 87.6211C64.9234 86.5595 65.0801 85.4953 65.2503 84.431C66.1119 79.0774 66.9925 73.7238 67.8325 68.3648C68.289 65.4584 67.322 64.3753 64.3751 64.3726C62.9381 64.3726 61.493 64.4752 60.0668 64.3482C58.0356 64.17 56.8768 64.9992 55.9665 66.8252C50.2915 78.2104 44.5219 89.5469 38.782 100.9C37.6719 103.098 36.5806 105.308 35.438 107.49C34.8303 108.652 33.8066 109.103 32.5127 108.933C31.3026 108.773 30.6058 108.052 30.2627 106.915C30.0655 106.261 30.2789 105.665 30.4896 105.081C30.8975 103.944 31.3567 102.826 31.7807 101.694C32.537 99.6761 32.2939 98.8577 30.5679 97.5368C31.1676 95.8946 31.7645 94.255 32.3642 92.6127C34.2631 92.8531 35.3273 92.348 35.8513 90.9542C36.351 89.6307 35.8972 88.5826 34.3684 87.5076C34.9599 85.8356 35.5542 84.1636 36.1457 82.4916V82.4862Z" fill="#FBBB51"/>
<path d="M34.3684 87.5041C35.8972 88.5765 36.351 89.6272 35.8513 90.9507C35.3273 92.3418 34.263 92.8469 32.3641 92.6092C30.8083 91.5747 30.3113 90.4105 30.8515 89.0654C31.4052 87.6824 32.591 87.1584 34.3711 87.5068L34.3684 87.5041Z" fill="#070605"/>
<path d="M64.783 114.742C63.8592 113.075 63.8889 111.962 64.8856 110.958C65.8499 109.982 67.0465 109.942 68.678 110.828C70.0124 112.927 69.437 114.939 67.368 115.471C66.3469 115.736 65.5663 115.255 64.783 114.739V114.742Z" fill="#070505"/>
<path d="M79.2068 37.89C77.9103 37.7793 76.6111 37.7144 75.3226 37.5497C73.467 37.312 72.4189 37.8711 71.7869 39.6484C70.4039 43.5299 69.0317 47.4142 67.7082 51.3173C67.4516 52.079 67.1166 52.3545 66.2928 52.3491C61.3092 52.3086 56.3257 52.3059 51.3421 52.3491C50.3859 52.3572 50.2158 52.1006 50.4535 51.2065C52.2227 44.5402 53.9109 37.8495 55.7125 31.1913C57.5304 24.4709 65.3042 22.4072 70.2905 27.2692C77.3998 34.2057 86.1109 34.6757 93.936 28.5442C94.3601 28.2119 94.7599 27.8473 95.2001 27.5393C96.1482 26.8749 97.3043 26.9667 98.0012 27.7716C98.8088 28.7035 98.6927 29.657 97.9688 30.5781C97.804 30.7861 97.5879 30.9563 97.3826 31.1291C92.2694 35.4617 85.9029 37.809 79.2095 37.89H79.2068Z" fill="#00CAF0"/>
<path d="M23.6964 62.4835C23.6018 62.4916 23.9179 62.5537 24.1313 62.4376C25.8789 61.4895 26.8918 62.5402 27.956 63.7071C29.104 64.9658 30.333 66.1516 31.5701 67.3239C32.0915 67.8182 32.2103 68.1477 31.6215 68.7042C30.1548 70.0898 28.734 71.5268 27.3348 72.98C26.6703 73.6688 26.1436 73.7336 25.4278 73.0151C19.0343 66.5919 12.6245 60.1875 6.20396 53.794C5.5638 53.1565 5.48817 52.646 6.16345 51.9897C7.64366 50.5527 9.11576 49.1049 10.5339 47.6057C11.1038 47.0007 11.4252 47.1628 11.9141 47.6733C13.2512 49.0643 14.6071 50.4365 16.0117 51.7574C16.5492 52.2625 16.633 52.6865 16.3953 53.378C14.7638 58.1509 19.7257 62.6807 23.6964 62.4835Z" fill="#FA9055"/>
<path d="M23.4154 46.5685C22.2756 46.4821 21.5436 47.0736 20.9142 47.8029C20.4604 48.3297 20.1255 48.3405 19.6312 47.8246C18.2968 46.4308 16.9382 45.0559 15.5363 43.7324C15.0123 43.2381 15.1716 42.9707 15.593 42.5628C17.0705 41.1204 18.5318 39.6618 19.9769 38.1843C20.6036 37.5414 21.1546 37.5009 21.8056 38.16C25.109 41.5202 28.4179 44.8749 31.7484 48.2081C34.7304 51.1928 37.7476 54.1398 40.7404 57.111C41.8803 58.2401 41.8695 58.4264 40.708 59.5906C39.3763 60.925 38.0231 62.2404 36.7184 63.5991C36.2511 64.0853 35.9594 64.1771 35.4435 63.6342C33.9228 62.0459 32.3561 60.5009 30.7787 58.9667C30.3168 58.5183 30.2195 58.2374 30.722 57.6971C32.5911 55.6983 32.5398 54.6314 30.6004 52.6866C28.9203 51.0011 27.2348 49.321 25.5547 47.6382C24.9362 47.0196 24.2771 46.4956 23.4154 46.5658V46.5685Z" fill="#FA9055"/>
<path d="M71.02 19.1822C67.2006 19.166 64.0889 16.0219 64.1375 12.2268C64.1834 8.43448 67.3573 5.34981 71.1658 5.39303C74.9258 5.43624 77.9564 8.52092 77.9564 12.3025C77.9564 16.1462 74.8799 19.1957 71.02 19.1795V19.1822Z" fill="#FBCFA2"/>
<path d="M49.0057 35.4129C48.5033 37.3577 48.063 38.9891 47.6714 40.6314C47.5525 41.1284 47.2608 41.3688 46.8421 41.593C44.0357 43.0975 41.1023 44.2806 38.0527 45.1774C36.8426 45.5339 35.6946 44.9397 35.3246 43.8538C34.9545 42.7761 35.538 41.6065 36.7805 41.2284C41.0401 39.9345 45.0297 38.0843 49.0057 35.4102V35.4129Z" fill="#00C7EC"/>
<path d="M45.6888 48.1621C45.2296 49.9367 44.8434 51.4386 44.4328 53.0295C43.3983 51.8897 42.4313 50.8254 41.4778 49.7774C42.6393 49.3317 44.0384 48.7942 45.6888 48.1621Z" fill="#F2F2F2"/>
<path d="M23.3342 57.1517C22.4509 56.8357 21.7946 56.2873 21.5137 55.3852C21.3948 55.0043 22.8102 53.2135 23.2154 53.1433C23.4558 53.1 25.5356 55.1421 25.4033 55.3149C24.8414 56.0415 24.2688 56.7817 23.3342 57.1517Z" fill="#F6F6F6"/>
<path d="M76.5382 83.5812C76.5031 83.6893 76.4868 83.8541 76.3221 83.7514C76.2843 83.7271 76.3518 83.5353 76.3734 83.4219C76.4301 83.4732 76.4842 83.5272 76.5382 83.5812Z" fill="#FEFEFE"/>
</svg>
