<svg width="139" height="138" viewBox="0 0 139 138" fill="none" xmlns="http://www.w3.org/2000/svg">
<path d="M121.798 115.445C123.1 115.645 123.603 116.489 123.603 117.715C123.603 123.693 123.611 129.674 123.595 135.653C123.589 137.225 122.859 137.98 121.279 137.982C112.511 138.001 103.744 138.004 94.976 137.982C93.4556 137.98 92.8091 137.257 92.7333 135.723C92.4114 129.185 95.9526 124.556 102.453 123.16C103.327 122.974 103.508 122.676 103.503 121.873C103.473 116.118 103.479 110.364 103.489 104.608C103.495 102.241 103.111 99.9465 102.129 97.7932C98.9364 90.7839 97.8057 83.3958 97.968 75.7562C98.0058 73.9139 97.949 72.069 97.9869 70.2267C98.0004 69.5855 97.8516 69.2826 97.1645 69.1581C92.222 68.2519 87.2931 67.2644 82.3452 66.3798C77.5325 65.5169 74.7759 61.551 76.0906 57.2577C77.1619 53.7599 80.649 51.7553 84.3633 52.4803C88.0641 53.2026 91.7675 53.9032 95.471 54.6039C97.4513 54.9772 97.9653 54.5579 97.9734 52.5695C97.995 47.3998 99.3558 42.736 103.208 38.9757C99.418 36.3218 96.9778 32.8375 95.985 28.3819C95.1545 24.6487 95.3628 20.9777 96.683 17.3851C96.8778 16.8549 97.0374 16.4897 96.5125 15.9757C94.5296 14.036 94.2158 11.8962 95.4764 9.36406C96.7533 6.80219 98.95 5.17093 101.344 3.78584C104.772 1.80289 108.486 0.688334 112.419 0.277136C112.66 0.252789 112.979 0.37723 113.082 0.00390625H116.32C117.592 0.539545 118.988 0.439451 120.3 0.796543C126.543 2.49003 131.521 5.73362 134.013 11.9936C134.905 14.2362 135.016 16.6195 135.038 19.0137C135.073 23.0093 134.454 26.9887 134.9 30.9952C135.281 34.4092 136.591 37.5879 137.229 40.9343C138.206 46.0472 138.644 51.152 137.44 56.3001C136.063 62.1894 132.839 66.7505 127.72 69.9453C126.938 70.4323 126.652 70.9517 126.657 71.8742C126.69 77.8447 126.844 83.8233 126.032 89.7586C125.754 91.7983 125.394 93.8408 124.904 95.84C123.968 99.6598 123.473 103.515 123.606 107.445C123.652 108.844 123.154 109.796 121.715 110.11C120.021 109.84 119.645 109.309 119.526 107.643C119.161 102.565 120.275 97.6822 121.325 92.783C122.18 88.7955 122.391 84.743 122.548 80.6825C122.583 79.806 122.204 79.6166 121.431 79.6437C120.173 79.6869 118.912 79.6491 117.654 79.6491C112.887 79.6464 108.123 79.6409 103.357 79.6437C102.737 79.6437 101.985 79.5138 102.069 80.5201C102.405 84.6375 102.772 88.7847 104.479 92.5937C106.752 97.6525 107.807 102.849 107.504 108.414C107.269 112.761 107.49 117.133 107.431 121.494C107.417 122.576 107.75 122.871 108.805 122.846C111.951 122.776 115.1 122.773 118.246 122.822C119.218 122.838 119.637 122.622 119.561 121.564C119.472 120.312 119.531 119.048 119.545 117.79C119.561 116.113 120.056 115.61 121.793 115.456L121.798 115.445ZM113.493 57.5445C113.726 58.1261 113.972 58.6996 114.186 59.2867C114.37 59.7926 114.584 59.9738 115.168 59.7087C118.06 58.4048 121.003 57.2172 123.871 55.8618C125.759 54.9691 126.338 52.9916 125.507 50.9897C124.552 48.9039 122.615 48.1086 120.408 49.004C117.678 50.1132 114.995 51.3387 112.268 52.4532C111.519 52.7589 111.491 53.1187 111.794 53.7571C112.387 55.007 112.931 56.2784 113.496 57.5391L113.493 57.5445ZM114.697 42.2247C112.314 42.1165 109.944 41.919 107.677 41.0939C107.255 40.9397 106.922 41.0154 106.576 41.3292C103.322 44.259 102.031 47.976 102.058 52.4667C106.644 50.4784 111.078 48.555 115.514 46.6315C117.007 46.0364 118.463 45.3005 120.005 44.8948C121.055 44.6188 121.055 44.1833 120.773 43.4015C120.638 43.0227 120.495 42.6413 120.422 42.2463C120.316 41.6863 120.045 41.478 119.485 41.6349C117.919 42.0705 116.299 42.0651 114.697 42.2247ZM114.44 133.873C115.869 133.895 117.297 133.892 118.725 133.943C119.377 133.968 119.569 133.705 119.559 133.08C119.529 131.292 119.529 129.504 119.559 127.716C119.569 127.083 119.364 126.842 118.717 126.864C117.289 126.915 115.86 126.91 114.429 126.929C110.758 126.91 107.074 126.615 103.419 127.118C99.9103 127.602 97.6001 129.761 96.9778 132.899C96.8669 133.456 96.7263 133.954 97.6271 133.949C103.23 133.905 108.835 133.895 114.438 133.873H114.44ZM109.606 59.0919C109.081 57.8123 108.524 56.5463 108.048 55.2504C107.804 54.5904 107.542 54.4632 106.882 54.7689C104.975 55.6508 103.029 56.4462 101.106 57.2929C98.8823 58.2695 96.7046 59.1514 94.1373 58.5454C90.7423 57.742 87.2931 57.1739 83.8655 56.503C81.3037 56.0025 79.713 57.3822 79.9429 59.9062C80.2378 61.4779 81.3686 62.0595 82.7834 62.3301C86.3895 63.0199 89.9902 63.7476 93.6017 64.4131C96.4097 64.9298 99.1961 65.7468 102.107 65.0245C104.342 64.4699 106.387 63.4555 108.491 62.579C110.904 61.5753 110.896 61.5564 109.709 59.1785C109.69 59.1406 109.641 59.1217 109.606 59.0919ZM117.673 75.5506C118.974 75.5695 120.278 75.5452 121.577 75.6236C122.421 75.6723 122.64 75.3558 122.632 74.547C122.597 70.5946 122.621 66.6395 122.61 62.6872C122.61 62.1651 122.74 61.624 122.418 60.9829C120.83 61.7052 119.25 62.4248 117.673 63.1444C117.335 63.2553 116.991 63.3499 116.661 63.4825C111.962 65.3383 107.52 67.8515 102.564 69.0499C101.977 69.1933 102.029 69.5396 102.029 69.9345C102.026 71.5496 102.053 73.1673 102.015 74.7823C101.999 75.4343 102.231 75.6264 102.864 75.621C107.802 75.5831 112.736 75.5723 117.673 75.5533V75.5506ZM114.981 38.0478C116.207 38.1966 117.394 37.9044 118.59 37.7313C119.191 37.6447 119.51 37.3931 119.502 36.6816C119.469 32.7726 119.569 28.8608 119.469 24.9544C119.366 20.8478 117.419 18.7242 113.328 18.0722C110.082 17.5528 106.79 17.6367 103.516 17.4555C100.803 17.3067 100.8 17.2931 100.116 19.9389C100.073 20.112 100.059 20.2933 100.035 20.4691C97.4296 29.9889 104.899 38.7782 114.981 38.0478ZM126.744 62.8495C126.579 63.726 126.638 64.5971 126.695 65.4384C126.876 65.4682 126.928 65.4925 126.955 65.479C127.109 65.3951 127.271 65.3167 127.409 65.2085C130.369 62.8792 132.308 59.8575 133.309 56.2514C134.976 50.2376 134.107 44.2996 132.425 38.4698C131.178 34.1522 130.396 29.8157 130.712 25.3331C130.904 22.6387 130.945 19.9497 130.937 17.2553C130.921 11.6906 126.892 7.45415 121.993 5.66328C121.842 5.57401 121.698 5.46039 121.536 5.40087C116.726 3.60188 111.924 3.92381 107.169 5.56589C104.298 6.55601 101.639 7.96004 99.6317 10.3325C99.115 10.9439 98.5658 11.6716 98.904 12.5238C99.2611 13.4192 100.178 13.1785 100.914 13.2353C105.21 13.5653 109.538 13.4138 113.813 14.036C118.82 14.7664 122.112 17.6178 123.184 22.0787C123.66 24.0671 123.56 26.0933 123.565 28.1114C123.581 33.5652 123.01 39.0785 125.207 44.3104C125.223 44.351 125.226 44.3997 125.229 44.443C125.269 45.0327 125.597 45.3736 126.089 45.7036C130.829 48.885 131.334 54.3252 127.296 58.4724C127.006 58.77 126.714 59.0297 126.73 59.4869C126.765 60.6068 126.519 61.7268 126.738 62.8468L126.744 62.8495Z" fill="#040302"/>
<path d="M19.9728 0C21.4851 0.267819 23.0162 0.465302 24.5095 0.816984C29.4195 1.97483 33.6668 4.23642 36.6155 8.48636C37.7057 10.0581 38.428 11.7922 38.1521 13.7886C37.9627 15.1548 37.3378 16.2775 36.161 16.9944C35.5605 17.3596 35.436 17.6761 35.6524 18.3551C38.1548 26.203 35.6984 33.6803 29.0489 38.4497C28.3699 38.9366 28.1346 39.1557 28.8569 39.878C32.5576 43.5842 34.3891 48.0803 34.3404 53.3366C34.3242 54.9435 34.9301 55.4413 36.5857 55.141C40.2946 54.4674 43.9981 53.7641 47.6962 53.0363C51.8487 52.2167 55.4927 54.5323 56.3124 58.5469C57.0672 62.2504 54.5702 65.8619 50.6016 66.6627C45.5428 67.6852 40.4759 68.6646 35.3981 69.5708C34.5162 69.7277 34.3242 70.0036 34.3187 70.8288C34.2944 75.0057 34.4621 79.1825 34.0942 83.3567C33.6776 88.0503 32.5685 92.5573 30.6802 96.8613C29.3763 99.8344 28.7919 102.894 28.8542 106.148C28.9515 111.361 28.9028 116.58 28.8596 121.793C28.8514 122.683 29.0084 123.078 29.9931 123.286C36.2773 124.625 39.686 128.97 39.5994 135.387C39.575 137.299 38.9123 137.986 36.9915 137.989C28.4944 138 19.9945 138 11.4973 137.989C9.54681 137.989 8.89755 137.332 8.89485 135.419C8.88944 129.576 8.90567 123.73 8.88132 117.886C8.87591 116.528 9.34933 115.63 10.7696 115.403C12.3792 115.665 12.9203 116.271 12.9419 117.884C12.9581 119.226 12.9662 120.567 12.9365 121.909C12.923 122.553 13.0555 122.905 13.813 122.883C15.869 122.829 17.925 122.834 19.9809 122.815C21.1469 122.829 22.3183 122.788 23.4815 122.875C24.5122 122.953 24.8666 122.648 24.8558 121.549C24.7963 116.385 24.9099 111.215 24.8017 106.051C24.7232 102.342 25.3644 98.828 26.8766 95.4519C28.865 91.0207 29.8172 86.3433 30.2149 81.5253C30.3069 80.4215 30.0472 79.9698 28.8704 80.0807C27.7125 80.1889 26.5385 80.1321 25.3698 80.1483C20.522 80.1321 15.6715 80.1294 10.8237 80.0807C9.96612 80.0726 9.89849 80.4946 9.90932 81.1655C9.97154 85.0286 10.1636 88.8836 10.9941 92.6682C12.0708 97.5809 13.1448 102.483 12.9473 107.563C12.8824 109.213 12.4468 109.773 10.8102 110.12C9.66314 109.901 8.86509 109.284 8.90567 108.053C9.0761 103.105 8.0968 98.3195 7.02011 93.5312C6.09762 89.4354 5.8812 85.2504 5.85145 81.0654C5.80275 74.2779 5.79193 67.4878 5.80005 60.7003C5.80005 59.8752 5.57551 59.3152 4.96142 58.7255C1.27958 55.1816 1.82334 49.3437 6.0868 46.4842C6.66302 46.0974 6.92272 45.6916 7.06069 45.0099C7.46648 42.9891 7.97236 40.9872 8.48636 38.988C8.60809 38.52 8.73253 38.1656 8.26994 37.8085C3.54658 34.1727 1.89367 28.8731 0.478828 23.4382C0.365208 22.9973 0.503176 22.4373 0 22.1316V15.6553C0.503176 15.4064 0.367913 14.8789 0.465302 14.4839C2.30216 7.0634 6.9633 2.49424 14.3351 0.624912C15.3928 0.357092 16.5291 0.486944 17.5435 0C18.3524 0 19.164 0 19.9728 0ZM6.99306 51.5485C6.15443 53.5666 6.7577 55.4521 8.67843 56.4098C10.399 57.2674 12.1709 58.0302 13.9537 58.7579C15.2684 59.2936 16.8672 60.6733 17.8195 60.1403C18.8447 59.5641 19.1044 57.619 19.6942 56.2691C19.7104 56.2312 19.7023 56.1798 19.705 56.1366C20.0296 55.4521 20.3543 54.7704 20.6789 54.086C20.8764 53.6721 20.9061 53.3475 20.3732 53.1256C17.3596 51.8785 14.3892 50.5096 11.3296 49.3843C9.53599 48.7242 7.81004 49.7387 6.99577 51.5512L6.99306 51.5485ZM20.7763 41.5688C18.6202 41.5986 16.4749 41.5147 14.3784 40.9223C12.2548 40.3217 12.2358 40.3244 11.7137 42.4832C11.5162 43.3029 11.1294 44.2308 11.3458 44.9504C11.5514 45.6267 12.7119 45.3291 13.3666 45.716C13.5966 45.8512 13.859 45.927 14.1079 46.0325C17.7735 47.5853 21.4364 49.1381 25.102 50.6909C26.7711 51.4267 28.4375 52.1653 30.2338 52.9579C30.2825 47.8558 27.9181 44.1767 24.3039 41.1279C24.028 40.8952 23.7115 40.9682 23.4058 41.0305C22.5293 41.2036 21.6528 41.3903 20.7763 41.5688ZM20.5896 37.3567L20.4976 37.3243L20.5869 37.3649C29.0435 36.5073 34.5271 28.075 31.9706 19.962C31.535 18.5796 30.9913 17.7789 29.3979 18.0359C28.5214 18.1793 27.607 18.0954 26.7089 18.1116C24.0118 18.0927 21.3146 18.0196 18.6175 18.071C13.7237 18.1657 14.5163 17.0458 12.6551 22.2669C11.6704 25.0289 10.2935 27.5367 7.70454 29.1112C6.88214 29.6116 6.97142 30.0093 7.35827 30.7018C9.89038 35.2169 15.0899 37.9438 20.2406 37.4136C20.357 37.3946 20.4706 37.373 20.5869 37.354L20.5896 37.3567ZM27.5232 127.13C22.9946 127.106 18.4633 127.092 13.9347 127.044C13.1637 127.036 12.9175 127.32 12.9365 128.066C12.9744 129.635 12.9933 131.207 12.9311 132.776C12.8959 133.672 13.2178 133.92 14.0862 133.915C19.5589 133.874 25.0316 133.88 30.5016 133.872C31.7596 133.877 33.0202 133.85 34.2782 133.896C35.179 133.929 35.4685 133.68 35.2385 132.719C34.408 129.23 31.4241 127.033 27.5232 127.133V127.13ZM51.6513 61.5714C52.6143 60.5245 52.5819 59.3747 51.8785 58.2467C51.0832 56.9671 49.836 56.7344 48.4537 57.0022C45.9892 57.4757 43.5112 57.9004 41.0656 58.4604C37.7842 59.2097 34.5676 59.7372 31.4106 57.9383C30.1337 57.2105 28.7216 56.7155 27.3663 56.1311C25.5285 55.3376 24.2552 55.8814 23.5465 57.7624C23.0162 58.9473 22.5049 60.143 21.9422 61.3117C21.6582 61.9041 21.8205 62.1584 22.4076 62.3965C24.4419 63.2189 26.4275 64.163 28.4808 64.9367C30.5206 65.705 32.6712 65.9728 34.83 65.5725C39.8131 64.65 44.7826 63.6626 49.7576 62.7049C50.5232 62.5561 51.2319 62.3126 51.6485 61.5768L51.6513 61.5714ZM25.3617 75.9768C26.7062 75.9985 28.0534 75.9931 29.3979 76.0553C30.1446 76.0905 30.3042 75.7496 30.2906 75.0895C30.2582 73.5638 30.2582 72.0353 30.2906 70.5095C30.3042 69.8765 30.1527 69.4951 29.4601 69.395C28.0291 69.184 26.7089 68.6023 25.3671 68.0992C20.476 65.9918 15.5795 63.8925 10.6965 61.7689C10.0933 61.5065 9.80922 61.4767 9.81463 62.2693C9.83357 66.5761 9.83086 70.8829 9.81463 75.1896C9.81463 75.8253 10.0608 76.0526 10.6938 76.0499C15.5822 76.0147 20.4706 76.0012 25.3617 75.9795V75.9768ZM23.4788 4.86133C19.4291 3.85768 15.4605 3.95507 11.6785 5.89203C4.26076 9.69019 2.71877 18.0278 5.08857 25.1047C5.34557 25.8676 5.72971 25.5619 6.08139 25.2886C7.17161 24.4338 7.85062 23.2841 8.38085 22.0207C9.04364 20.449 9.46295 18.7879 10.2339 17.2541C11.335 15.0628 13.0285 13.9861 15.5092 14.0051C20.0513 14.0402 24.5907 13.9888 29.1328 13.9753C30.0742 13.9888 31.0156 14.024 31.9571 14.0159C34.2024 13.9915 34.7354 13.1908 33.5586 11.2971C31.2429 7.57198 27.7152 5.63503 23.4788 4.86403V4.86133Z" fill="#030303"/>
<path d="M121.798 115.446C120.062 115.598 119.567 116.104 119.55 117.781C119.537 119.039 119.477 120.302 119.567 121.555C119.642 122.613 119.223 122.829 118.252 122.813C115.106 122.764 111.957 122.767 108.81 122.837C107.755 122.861 107.423 122.567 107.436 121.485C107.496 117.124 107.271 112.752 107.509 108.405C107.81 102.84 106.754 97.6459 104.485 92.5844C102.775 88.7781 102.407 84.631 102.074 80.5109C101.993 79.5045 102.745 79.6344 103.362 79.6344C108.129 79.6344 112.893 79.6344 117.659 79.6398C118.917 79.6398 120.178 79.6777 121.436 79.6344C122.21 79.6073 122.588 79.7967 122.553 80.6732C122.396 84.7338 122.185 88.7862 121.33 92.7738C120.281 97.673 119.163 102.556 119.531 107.634C119.65 109.3 120.029 109.83 121.72 110.101C121.679 111.881 121.547 113.666 121.801 115.441L121.798 115.446Z" fill="#4E484E"/>
<path d="M59.6102 104.994C56.9375 104.994 54.2971 104.977 51.6541 105.002C50.6694 105.01 49.7469 104.948 49.1815 103.998C48.5728 102.975 49.0517 102.129 49.6089 101.263C55.8527 91.5161 62.0882 81.7664 68.313 72.0085C68.9866 70.9535 69.7387 70.0608 71.1319 70.5721C72.4412 71.0536 72.5332 72.1411 72.3628 73.3612C71.5728 79.099 70.837 84.8422 70.02 90.5774C69.901 91.4052 70.0877 91.5675 70.8614 91.5539C73.242 91.5134 75.6253 91.5242 78.0086 91.5431C80.3568 91.5621 81.217 93.0743 80.0267 95.1168C73.71 105.967 67.3824 116.813 61.0521 127.655C60.3028 128.938 59.337 129.414 58.309 128.954C57.1458 128.435 56.9537 127.477 57.0998 126.265C57.9627 119.223 58.7689 112.176 59.6102 104.996V104.994ZM66.8901 82.0017C66.7386 82.1586 66.5573 82.2939 66.4437 82.4724C62.6401 88.4077 58.8447 94.3458 55.0492 100.286C54.9329 100.468 54.7543 100.638 54.9383 100.947C57.1431 100.947 59.3857 100.922 61.6284 100.955C63.2136 100.979 64.0658 101.937 63.8899 103.46C63.6032 105.957 63.2704 108.451 62.9756 110.948C62.7375 112.952 62.5292 114.96 62.3074 116.967C66.5844 110.136 70.5989 103.246 74.6216 96.3585C74.9598 95.7795 74.83 95.5712 74.159 95.5793C72.2275 95.601 70.2933 95.5902 68.359 95.5848C66.0081 95.5766 65.3697 94.7515 65.697 92.3845C66.1732 88.965 66.5708 85.5321 67.001 82.1045C67.1633 81.9963 67.1985 81.761 67.0821 81.715C66.9063 81.6446 66.9306 81.8827 66.8873 82.0017H66.8901Z" fill="#040302"/>
<path d="M10.8102 110.125C12.4469 109.779 12.8825 109.216 12.9474 107.569C13.1449 102.491 12.0709 97.5863 10.9942 92.6736C10.1637 88.8889 9.97162 85.0339 9.9094 81.1709C9.89858 80.4999 9.96621 80.0779 10.8238 80.0861C15.6716 80.1347 20.5194 80.1347 25.3699 80.1537C25.4105 81.2331 25.2049 82.2935 25.1345 83.3594C24.8748 87.1927 23.9956 90.861 22.57 94.4157C21.3715 97.405 20.0108 100.37 19.9891 103.668C19.9432 110.049 19.9783 116.434 19.981 122.818C17.925 122.837 15.8664 122.832 13.8131 122.886C13.0556 122.907 12.923 122.556 12.9366 121.912C12.9663 120.57 12.9582 119.228 12.942 117.886C12.923 116.274 12.3793 115.665 10.7697 115.406C10.9563 113.647 10.886 111.886 10.813 110.125H10.8102Z" fill="#AA695D"/>
<path d="M51.3454 30.776C50.2254 30.776 49.1054 30.803 47.9855 30.7706C46.7384 30.7327 45.8997 29.9238 45.8808 28.8012C45.8592 27.6731 46.6707 26.7749 47.907 26.7479C50.2362 26.6965 52.5655 26.6938 54.8947 26.7533C56.0931 26.783 56.9452 27.7732 56.883 28.858C56.8235 29.9265 56.0092 30.7219 54.8379 30.7652C53.6746 30.8057 52.5086 30.7733 51.3454 30.776Z" fill="#030303"/>
<path d="M80.6757 30.7741C79.5503 30.7741 78.4277 30.8012 77.3023 30.766C76.0281 30.7281 75.2219 29.9355 75.2084 28.7831C75.1949 27.6414 76.0038 26.7676 77.2536 26.7406C79.5449 26.6946 81.8417 26.6919 84.133 26.7406C85.3828 26.7676 86.1755 27.6496 86.1538 28.7993C86.1322 29.9517 85.3287 30.7254 84.0465 30.7606C82.9238 30.7931 81.7984 30.766 80.673 30.766L80.6757 30.7741Z" fill="#030303"/>
<path d="M89.1134 18.9816C89.1296 20.5885 87.6228 21.6733 86.3081 20.9402C84.3576 19.8554 82.4882 18.6056 80.6649 17.3152C79.7424 16.6632 79.6261 15.6325 80.2781 14.6857C80.9165 13.7578 81.866 13.4385 82.8616 14.0364C84.7038 15.1374 86.4947 16.3277 88.291 17.5018C88.8483 17.867 89.1269 18.4216 89.108 18.9816H89.1134Z" fill="#030303"/>
<path d="M45.0045 21.1243C44.0009 21.1053 43.3814 20.6455 43.0487 19.8258C42.7051 18.979 42.8944 18.1323 43.6032 17.6453C45.4807 16.3522 47.4068 15.1241 49.3708 13.9662C50.269 13.436 51.14 13.8336 51.7352 14.6236C52.306 15.381 52.398 16.3658 51.7054 16.9717C49.8172 18.6165 47.6503 19.8826 45.4401 21.0594C45.2913 21.1378 45.0884 21.1135 45.0045 21.1243Z" fill="#030303"/>
<path d="M89.1161 38.5496C89.1296 39.1799 88.7644 39.7264 88.1719 40.116C86.4866 41.2197 84.8039 42.3289 83.0888 43.3785C82.0148 44.0359 80.8813 43.768 80.251 42.8104C79.6234 41.8581 79.8425 40.7003 80.8894 39.9969C82.5991 38.8499 84.3197 37.7164 86.097 36.6803C87.5362 35.8417 89.1513 36.8318 89.1134 38.5469L89.1161 38.5496Z" fill="#030303"/>
<path d="M45.3887 36.3906C47.4284 37.6567 50.0417 38.7685 51.9164 40.9192C52.4602 41.5441 52.1842 42.4774 51.5404 43.1186C50.9074 43.7462 50.1012 44.0032 49.3329 43.5433C47.377 42.3692 45.4482 41.1492 43.5789 39.8452C42.8755 39.3556 42.7078 38.5007 43.0649 37.6567C43.4111 36.8424 44.0306 36.3879 45.386 36.3906H45.3887Z" fill="#030303"/>
<path d="M126.744 62.8507C126.527 61.7308 126.773 60.6108 126.735 59.4908C126.722 59.0336 127.011 58.7739 127.301 58.4764C131.34 54.3292 130.834 48.889 126.094 45.7076C125.602 45.3776 125.272 45.0367 125.234 44.447C125.231 44.401 125.229 44.355 125.212 44.3144C123.016 39.0825 123.586 33.5692 123.57 28.1154C123.565 26.0973 123.668 24.071 123.189 22.0827C122.118 17.6217 118.825 14.7677 113.818 14.04C109.544 13.4178 105.215 13.5693 100.919 13.2392C100.183 13.1824 99.2663 13.4232 98.9092 12.5278C98.5684 11.6756 99.1202 10.9452 99.6369 10.3365C101.644 7.96401 104.303 6.55999 107.174 5.56987C111.93 3.92779 116.731 3.60316 121.541 5.40485C121.704 5.46707 121.847 5.57799 121.999 5.66726C121.98 6.11904 122.375 6.24348 122.642 6.4599C127.566 10.4285 128.302 15.839 127.872 21.6444C127.579 25.5752 127.222 29.5383 128.18 33.4014C129.622 39.2177 131.294 44.961 130.937 51.0748C130.728 54.6728 129.965 58.0652 128.207 61.206C127.853 61.8363 127.612 62.6451 126.746 62.8589L126.744 62.8507Z" fill="#AA695D"/>
<path d="M114.981 38.0494C104.901 38.7771 97.4293 29.9905 100.034 20.4707C102.764 20.5032 105.488 20.6168 108.185 21.0577C112.065 21.6908 115.311 24.7315 115.019 29.1572C114.824 32.1087 114.981 35.0844 114.981 38.0494Z" fill="#FCD0A3"/>
<path d="M126.743 62.8518C127.609 62.6408 127.85 61.8319 128.204 61.1989C129.963 58.0581 130.726 54.6684 130.934 51.0677C131.288 44.9566 129.619 39.2133 128.177 33.3943C127.22 29.5312 127.579 25.5708 127.869 21.6373C128.299 15.8319 127.56 10.4214 122.64 6.45279C122.372 6.23637 121.977 6.11464 121.996 5.66016C126.895 7.45103 130.923 11.6874 130.939 17.2521C130.947 19.9466 130.904 22.6356 130.715 25.33C130.396 29.8126 131.18 34.1491 132.427 38.4667C134.11 44.2965 134.978 50.2345 133.312 56.2483C132.314 59.8543 130.374 62.8734 127.412 65.2053C127.274 65.3135 127.111 65.392 126.957 65.4758C126.927 65.4921 126.876 65.465 126.697 65.4353C126.641 64.5939 126.581 63.7229 126.746 62.8463L126.743 62.8518Z" fill="#925A4F"/>
<path d="M117.673 75.5515C112.736 75.5705 107.801 75.5813 102.864 75.6192C102.229 75.6246 101.999 75.4325 102.015 74.7805C102.053 73.1655 102.026 71.5478 102.028 69.9327C102.028 69.5378 101.977 69.1915 102.564 69.0481C107.52 67.8497 111.962 65.3338 116.661 63.4807C116.991 63.3509 117.335 63.2562 117.673 63.1426C117.673 67.2789 117.673 71.4152 117.673 75.5515Z" fill="#F94354"/>
<path d="M114.981 38.0508C114.981 35.0858 114.824 32.1101 115.019 29.1587C115.311 24.7329 112.065 21.6922 108.185 21.0592C105.488 20.6182 102.761 20.5046 100.034 20.4721C100.061 20.2963 100.072 20.115 100.116 19.9419C100.8 17.2935 100.8 17.307 103.516 17.4585C106.789 17.6397 110.082 17.5559 113.328 18.0753C117.418 18.7272 119.366 20.8536 119.469 24.9574C119.569 28.8638 119.469 32.7756 119.501 36.6847C119.507 37.3961 119.188 37.6477 118.59 37.7343C117.394 37.9074 116.206 38.2023 114.981 38.0508Z" fill="#FABA84"/>
<path d="M79.9427 59.9083C79.7127 57.3816 81.3034 56.0019 83.8653 56.5051C87.2901 57.176 90.742 57.7441 94.1371 58.5476C96.7017 59.1535 98.8821 58.2716 101.106 57.295C103.029 56.451 104.977 55.653 106.881 54.771C107.544 54.4654 107.807 54.5925 108.047 55.2526C108.524 56.5484 109.084 57.8144 109.606 59.094C108.629 59.5377 107.65 59.9786 106.673 60.4223C103.354 61.9291 99.9939 63.344 96.2363 62.8597C93.899 62.5594 91.5887 62.0617 89.2676 61.637C86.1593 61.0689 83.051 60.4845 79.9427 59.9083Z" fill="#FCD0A3"/>
<path d="M114.44 133.874C108.837 133.895 103.232 133.906 97.6297 133.949C96.7288 133.957 96.8695 133.457 96.9804 132.9C97.6026 129.759 99.9129 127.603 103.422 127.119C107.076 126.615 110.761 126.91 114.432 126.929C114.435 129.245 114.437 131.558 114.44 133.874Z" fill="#FD636E"/>
<path d="M115.514 46.6338C111.08 48.5573 106.643 50.4807 102.058 52.469C102.031 47.9783 103.321 44.2613 106.576 41.3315C106.922 41.0204 107.255 40.942 107.677 41.0962C109.944 41.9213 112.314 42.1188 114.697 42.227C114.967 43.6959 115.241 45.1649 115.511 46.6338H115.514Z" fill="#F94354"/>
<path d="M79.9429 59.908C83.0512 60.4842 86.1568 61.0686 89.2679 61.6367C91.589 62.0614 93.8992 62.5592 96.2366 62.8595C99.9941 63.341 103.357 61.9288 106.673 60.422C107.65 59.9784 108.629 59.5347 109.606 59.0938C109.641 59.1208 109.69 59.1424 109.709 59.1803C110.896 61.5582 110.904 61.5772 108.491 62.5808C106.387 63.4573 104.339 64.4718 102.107 65.0264C99.1961 65.7487 96.4097 64.9317 93.6017 64.415C89.9902 63.7495 86.3922 63.0218 82.7834 62.3319C81.3685 62.0614 80.2377 61.4798 79.9429 59.908Z" fill="#FABA84"/>
<path d="M117.673 75.5529C117.673 71.4166 117.673 67.2802 117.673 63.1439C119.253 62.4243 120.83 61.7074 122.418 60.9824C122.74 61.6236 122.61 62.1673 122.61 62.6867C122.623 66.6391 122.596 70.5942 122.632 74.5465C122.64 75.3554 122.421 75.6719 121.577 75.6232C120.278 75.5475 118.974 75.5691 117.673 75.5502V75.5529Z" fill="#F5314A"/>
<path d="M113.493 57.5462C112.928 56.2828 112.384 55.0114 111.792 53.7642C111.489 53.1285 111.516 52.7687 112.265 52.4603C114.992 51.3458 117.675 50.1203 120.405 49.0111C122.613 48.113 124.547 48.911 125.504 50.9968C124.528 52.3007 123.329 53.3071 121.806 53.9482C119.023 55.1223 116.261 56.3451 113.49 57.5489L113.493 57.5462Z" fill="#FD636E"/>
<path d="M114.44 133.874C114.437 131.558 114.435 129.245 114.432 126.93C115.86 126.911 117.291 126.916 118.72 126.865C119.366 126.843 119.572 127.084 119.561 127.717C119.529 129.505 119.531 131.293 119.561 133.081C119.572 133.706 119.38 133.966 118.728 133.944C117.299 133.893 115.871 133.893 114.443 133.874H114.44Z" fill="#F94354"/>
<path d="M113.493 57.5462C116.263 56.3424 119.025 55.1196 121.809 53.9456C123.329 53.3044 124.531 52.2981 125.507 50.9941C126.34 52.9933 125.759 54.9736 123.87 55.8663C121.006 57.2216 118.06 58.4092 115.168 59.7131C114.581 59.9783 114.37 59.797 114.186 59.2911C113.972 58.7041 113.726 58.1279 113.493 57.549V57.5462Z" fill="#F94354"/>
<path d="M115.514 46.6332C115.243 45.1643 114.97 43.6953 114.7 42.2264C116.301 42.0668 117.922 42.0722 119.488 41.6366C120.048 41.4797 120.321 41.688 120.424 42.248C120.497 42.6403 120.638 43.0244 120.776 43.4032C121.057 44.185 121.06 44.6205 120.007 44.8965C118.465 45.3022 117.01 46.0381 115.517 46.6332H115.514Z" fill="#F5314A"/>
<path d="M20.2433 37.4199C15.0952 37.9502 9.89299 35.2233 7.36088 30.7082C6.97132 30.0157 6.88476 29.618 7.70715 29.1175C10.2961 27.5431 11.673 25.0353 12.6578 22.2733C14.519 17.0522 13.7263 18.1721 18.6201 18.0774C21.3145 18.026 24.0144 18.0991 26.7115 18.118C26.8143 18.5509 26.8928 18.9891 27.0253 19.4138C28.5781 24.4158 27.6529 28.9877 24.7069 33.2485C23.5761 34.8851 21.9313 35.9699 20.5868 37.3685L20.4976 37.328L20.5895 37.3604C20.4732 37.3794 20.3596 37.401 20.2433 37.4227V37.4199Z" fill="#FCD0A3"/>
<path d="M29.1355 13.977C24.5934 13.9905 20.0513 14.0419 15.5119 14.0067C13.0312 13.9878 11.3377 15.0645 10.2367 17.2557C9.46567 18.7896 9.04636 20.4506 8.38357 22.0224C7.85335 23.2857 7.17433 24.4355 6.08411 25.2903C5.73243 25.5662 5.34558 25.8719 5.09129 25.1064C2.72149 18.0294 4.26348 9.69457 11.6813 5.8937C15.4632 3.95674 19.4291 3.85935 23.4816 4.863C23.487 5.27149 23.7223 5.50144 24.0632 5.6908C25.3401 6.39958 26.341 7.45192 27.2635 8.53943C28.5701 10.0841 29.709 11.7533 29.1382 13.977H29.1355Z" fill="#544D55"/>
<path d="M19.9783 122.819C19.9783 116.434 19.9404 110.053 19.9864 103.668C20.0107 100.371 21.3688 97.4029 22.5672 94.4163C23.9929 90.8616 24.8721 87.1933 25.1318 83.36C25.2048 82.2941 25.4077 81.2336 25.3671 80.1543C26.5331 80.138 27.7072 80.1948 28.8677 80.0866C30.0445 79.9757 30.3015 80.4275 30.2122 81.5312C29.8146 86.3493 28.8623 91.0266 26.874 95.4578C25.359 98.834 24.7206 102.345 24.799 106.057C24.9072 111.221 24.7936 116.388 24.8531 121.555C24.8667 122.651 24.5096 122.957 23.4789 122.881C22.3183 122.794 21.147 122.835 19.9783 122.821V122.819Z" fill="#925A4F"/>
<path d="M25.3615 75.9763C20.4731 75.9979 15.5848 76.0114 10.6937 76.0466C10.0634 76.052 9.81447 75.8248 9.81447 75.1863C9.828 70.8796 9.8307 66.5728 9.81447 62.2661C9.81177 61.4734 10.0931 61.5032 10.6964 61.7656C15.5794 63.8892 20.4758 65.9885 25.3669 68.0959C25.3669 70.7227 25.3615 73.3495 25.3588 75.9763H25.3615Z" fill="#6DD3A0"/>
<path d="M51.6512 61.5722C51.2346 62.308 50.5258 62.5515 49.7602 62.7003C44.7853 63.6607 39.8157 64.6454 34.8327 65.5679C32.6712 65.9682 30.5232 65.7031 28.4834 64.9321C26.4329 64.1584 24.4445 63.2143 22.4102 62.3919C21.8231 62.1538 21.6608 61.8995 21.9449 61.3071C22.5076 60.1357 23.0161 58.9427 23.5491 57.7578C26.3138 58.9238 29.0732 60.1087 31.8488 61.2476C32.6631 61.5803 33.4692 61.8373 34.435 61.6371C38.7174 60.7498 43.0187 59.9491 47.3174 59.1402C48.954 58.8318 50.1903 59.4242 51.075 60.8553C51.2373 61.1177 51.3265 61.4424 51.6539 61.5722H51.6512Z" fill="#FCD0A3"/>
<path d="M30.5016 133.869C25.0289 133.877 19.5562 133.869 14.0862 133.913C13.2151 133.918 12.8959 133.669 12.9311 132.774C12.9933 131.207 12.9743 129.633 12.9365 128.064C12.9175 127.32 13.1664 127.033 13.9347 127.041C18.4633 127.09 22.9946 127.103 27.5232 127.128C27.5313 127.636 27.9289 127.896 28.2319 128.213C29.7442 129.795 30.4665 131.694 30.5016 133.869Z" fill="#544D55"/>
<path d="M20.5869 37.365C21.9341 35.9664 23.5789 34.8816 24.707 33.2449C27.6503 28.9842 28.5755 24.4123 27.0254 19.4103C26.8928 18.9883 26.8144 18.5473 26.7116 18.1145C27.6097 18.0955 28.5214 18.1794 29.4006 18.0387C30.994 17.779 31.5377 18.5825 31.9733 19.9649C34.5298 28.0752 29.0435 36.5102 20.5896 37.3677L20.5869 37.365Z" fill="#FABA84"/>
<path d="M25.1048 50.691C21.4392 49.1382 17.7763 47.5854 14.1107 46.0326C13.8645 45.9271 13.5994 45.8513 13.3695 45.7161C12.7148 45.3292 11.5543 45.6295 11.3487 44.9505C11.1295 44.2282 11.5164 43.303 11.7166 42.4833C12.2414 40.3218 12.2576 40.3191 14.3812 40.9224C16.4778 41.5148 18.6204 41.5987 20.7792 41.5689C21.212 42.1343 21.6584 42.6889 22.0777 43.2651C23.6927 45.4915 25.0237 47.8397 25.1075 50.6937L25.1048 50.691Z" fill="#6DD3A0"/>
<path d="M51.6514 61.572C51.3241 61.4421 51.2375 61.1175 51.0725 60.8551C50.1879 59.424 48.9516 58.8315 47.3149 59.1399C43.0163 59.9488 38.7149 60.7496 34.4325 61.6369C33.4668 61.8371 32.6606 61.5828 31.8463 61.2473C29.0707 60.1084 26.3114 58.9235 23.5466 57.7576C24.2554 55.8801 25.5287 55.3364 27.3664 56.1263C28.7245 56.7106 30.1339 57.2057 31.4108 57.9334C34.5678 59.7324 37.7843 59.2076 41.0658 58.4555C43.5113 57.8955 45.9894 57.4708 48.4538 56.9974C49.8362 56.7323 51.0833 56.9622 51.8787 58.2418C52.5793 59.3726 52.6118 60.5196 51.6514 61.5665V61.572Z" fill="#FABA84"/>
<path d="M19.7049 56.1311C19.7049 56.1771 19.713 56.2257 19.6941 56.2636C19.1043 57.6135 18.8446 59.5613 17.8194 60.1348C16.8644 60.6705 15.2656 59.2908 13.9536 58.7524C12.1735 58.0247 10.4016 57.2619 8.67833 56.4043C6.7576 55.4466 6.15433 53.5638 6.99296 51.543C7.69903 51.589 8.40239 51.5105 9.11117 51.735C12.7741 52.8875 16.1908 54.6215 19.7049 56.1284V56.1311Z" fill="#6DD3A0"/>
<path d="M25.1048 50.691C25.0236 47.8369 23.6926 45.4915 22.0749 43.2623C21.6583 42.6861 21.2119 42.1316 20.7764 41.5662C21.6529 41.3849 22.5267 41.201 23.4059 41.0278C23.7116 40.9683 24.0281 40.8926 24.304 41.1252C27.9182 44.1767 30.2826 47.8532 30.2339 52.9552C28.4376 52.1626 26.7712 51.4241 25.1021 50.6882L25.1048 50.691Z" fill="#3DBFA1"/>
<path d="M19.7051 56.1325C16.191 54.6256 12.7743 52.8916 9.11137 51.7391C8.4026 51.5146 7.69923 51.5931 6.99316 51.5471C7.80744 49.7346 9.53339 48.7201 11.327 49.3802C14.3866 50.5056 17.357 51.8744 20.3706 53.1215C20.9035 53.3407 20.8738 53.668 20.6763 54.0819C20.3517 54.7663 20.027 55.448 19.7024 56.1325H19.7051Z" fill="#3DBFA1"/>
<path d="M29.1354 13.9753C29.7062 11.7543 28.5673 10.0825 27.2607 8.53776C26.3409 7.45025 25.3373 6.39791 24.0604 5.68913C23.7195 5.49977 23.4842 5.26982 23.4788 4.86133C27.7179 5.63232 31.2428 7.56928 33.5585 11.2944C34.7353 13.1881 34.2024 13.9915 31.957 14.0132C31.0156 14.024 30.0741 13.9888 29.1327 13.9726L29.1354 13.9753Z" fill="#423E42"/>
<path d="M25.3616 75.978C25.3616 73.3512 25.367 70.7245 25.3697 68.0977C26.7115 68.6008 28.0317 69.1852 29.4627 69.3935C30.1553 69.4963 30.3068 69.875 30.2932 70.508C30.2581 72.0338 30.2608 73.5623 30.2932 75.088C30.3068 75.7481 30.1472 76.089 29.4005 76.0538C28.056 75.9916 26.7088 75.997 25.3643 75.9753L25.3616 75.978Z" fill="#3DBFA1"/>
<path d="M30.5017 133.87C30.4665 131.695 29.7442 129.796 28.232 128.213C27.929 127.897 27.534 127.64 27.5232 127.128C31.4242 127.028 34.408 129.228 35.2386 132.715C35.4685 133.675 35.179 133.924 34.2782 133.891C33.0203 133.845 31.7596 133.872 30.5017 133.867V133.87Z" fill="#423E42"/>
<path d="M67.0035 82.1028C66.5734 85.5303 66.173 88.9606 65.6969 92.3827C65.3695 94.7498 66.008 95.5749 68.3588 95.583C70.2931 95.5884 72.2246 95.5993 74.1589 95.5776C74.8298 95.5695 74.9623 95.7778 74.6215 96.3567C70.5988 103.244 66.5842 110.135 62.3072 116.965C62.529 114.958 62.74 112.951 62.9754 110.946C63.2703 108.449 63.603 105.955 63.8898 103.458C64.0656 101.935 63.2108 100.977 61.6282 100.953C59.3855 100.918 57.1429 100.945 54.9381 100.945C54.7542 100.636 54.9327 100.466 55.049 100.285C58.8445 94.3467 62.6399 88.406 66.4435 82.4707C66.5571 82.2922 66.7384 82.1569 66.8899 82C66.9278 82.0352 66.9656 82.0676 67.0035 82.1028Z" fill="#FABF43"/>
<path d="M66.8899 82.0012C66.9305 81.8819 66.9061 81.6435 67.085 81.7139C67.2015 81.76 67.169 81.9957 67.0037 82.1041C66.9658 82.0689 66.9278 82.0364 66.8899 82.0012Z" fill="#FABF43"/>
</svg>
