<svg width="1920" height="451" viewBox="0 0 1920 451" fill="none" xmlns="http://www.w3.org/2000/svg">
<mask id="mask0_542_2793" style="mask-type:alpha" maskUnits="userSpaceOnUse" x="0" y="0" width="1920" height="451">
<rect width="1920" height="451" fill="#D9D9D9"/>
</mask>
<g mask="url(#mask0_542_2793)">
<path d="M2036.18 167.032H-121.614V451.047H2036.18V167.032Z" fill="#AEB3BA"/>
<mask id="mask1_542_2793" style="mask-type:luminance" maskUnits="userSpaceOnUse" x="454" y="174" width="1015" height="22">
<path d="M1468.68 174.314H454.951V195.344H1468.68V174.314Z" fill="white"/>
</mask>
<g mask="url(#mask1_542_2793)">
<path d="M770.779 175.948L698.326 225.726H772.143L823.633 175.948H770.779Z" fill="white"/>
<path d="M577.55 175.948L419.692 225.726H476.875L612.216 175.948H577.55Z" fill="white"/>
<path d="M665.07 175.948L550.692 225.726H624.509L717.924 175.948H665.07Z" fill="white"/>
<path d="M876.487 175.948L845.972 225.726H919.789L929.341 175.948H876.487Z" fill="white"/>
<path d="M1491.44 225.726L1333.58 175.948H1299.31L1436.52 225.726H1491.44Z" fill="white"/>
<path d="M1246.46 175.948H1193.6L1288.88 225.726H1362.7L1246.46 175.948Z" fill="white"/>
<path d="M982.196 175.948L993.606 225.726H1067.42L1035.04 175.948H982.196Z" fill="white"/>
<path d="M1087.89 175.948L1141.25 225.726H1215.07L1140.75 175.948H1087.89Z" fill="white"/>
</g>
<path d="M-143.985 392.6V352.99L576.589 154.94V168.184L-143.985 392.6Z" fill="#578BC7"/>
<path d="M576.589 154.94H-143.985V352.99L576.589 154.94Z" fill="#90BCEC"/>
<path d="M2063.54 392.6V352.99L1334.96 154.94V168.184L2063.54 392.6Z" fill="#578BC7"/>
<path d="M1334.96 154.94H2063.54V352.99L1334.96 154.94Z" fill="#90BCEC"/>
<path d="M2002.57 63.9409C2005.61 58.1354 2007.33 51.5244 2007.33 44.5107C2007.33 21.3219 1988.54 2.5293 1965.35 2.5293C1954.95 2.5293 1945.44 6.32139 1938.1 12.5856C1928.51 6.2319 1917.02 2.5293 1904.65 2.5293C1883.36 2.5293 1864.64 13.4917 1853.82 30.0695C1847.97 26.9709 1841.3 25.2147 1834.23 25.2147C1812 25.2147 1793.82 42.486 1792.36 64.3436C1773.81 68.695 1760 85.3287 1760 105.206H2036.89C2036.89 84.6352 2022.09 67.5317 2002.57 63.9409Z" fill="#39B44A"/>
<path d="M1914.19 71.4134C1910.54 71.4134 1907.03 72.0063 1903.73 73.0801C1901.57 56.5023 1887.42 43.6831 1870.25 43.6831C1853.08 43.6831 1839.62 55.8871 1836.95 71.8944C1835.18 71.6036 1833.38 71.4246 1831.52 71.4246C1812.85 71.4246 1797.72 86.5594 1797.72 105.229H1947.97C1947.97 86.5594 1932.83 71.4246 1914.16 71.4246L1914.19 71.4134Z" fill="#61C36E"/>
<path d="M1543.31 141.103C1541.81 137.132 1540.94 132.836 1540.83 128.351C1540.29 106.851 1557.27 88.9868 1578.77 88.4499C1589.48 88.1814 1599.28 92.2532 1606.49 99.0767C1608.36 79.7807 1624.38 64.4558 1644.26 63.9636C1665.76 63.4266 1683.62 80.4071 1684.16 101.907C1684.18 102.802 1684.16 103.697 1684.12 104.58C1690.54 99.4011 1698.66 96.213 1707.55 95.9893C1729.05 95.4524 1746.91 112.433 1747.45 133.933C1747.47 134.682 1747.46 135.42 1747.44 136.147C1751.45 134.615 1755.79 133.72 1760.33 133.608C1781.83 133.071 1799.7 150.052 1800.23 171.551L1517.77 178.666C1517.34 161.529 1528.07 146.707 1543.32 141.125L1543.31 141.103Z" fill="#2B8738"/>
<path d="M1819.92 134.133C1821.22 130.084 1821.88 125.766 1821.77 121.269C1821.23 99.7697 1803.37 82.7892 1781.87 83.3261C1771.16 83.5946 1761.59 88.1585 1754.72 95.3288C1751.88 76.1447 1735.12 61.6587 1715.24 62.1508C1693.74 62.6878 1676.76 80.552 1677.3 102.052C1677.32 102.947 1677.39 103.841 1677.47 104.714C1670.79 99.8592 1662.52 97.085 1653.64 97.3087C1632.14 97.8457 1615.16 115.71 1615.7 137.21C1615.72 137.959 1615.76 138.697 1615.82 139.424C1611.73 138.093 1607.35 137.422 1602.81 137.534C1581.31 138.071 1564.33 155.935 1564.87 177.435L1847.33 170.32C1846.89 153.183 1835.45 138.921 1819.92 134.111V134.133Z" fill="#39B44A"/>
<path d="M1566.23 154.112C1565.28 151.595 1564.73 148.888 1564.66 146.058C1564.31 132.478 1575.05 121.192 1588.63 120.856C1595.38 120.688 1601.58 123.261 1606.13 127.568C1607.32 115.375 1617.43 105.699 1629.98 105.386C1643.56 105.039 1654.85 115.778 1655.18 129.357C1655.2 129.928 1655.18 130.487 1655.16 131.047C1659.22 127.769 1664.35 125.755 1669.96 125.621C1683.54 125.274 1694.83 136.013 1695.16 149.593C1695.18 150.063 1695.16 150.533 1695.16 150.991C1697.7 150.018 1700.44 149.459 1703.32 149.381C1716.9 149.034 1728.19 159.772 1728.52 173.352L1550.08 177.849C1549.81 167.021 1556.58 157.658 1566.22 154.135L1566.23 154.112Z" fill="#61C36E"/>
<path d="M1732.97 135.923C1731.55 131.919 1730.76 127.612 1730.74 123.126C1730.62 101.627 1747.96 84.0981 1769.46 83.9862C1780.17 83.9303 1789.89 88.2034 1796.96 95.1611C1799.22 75.8987 1815.53 60.9093 1835.42 60.8086C1856.91 60.6968 1874.44 78.0352 1874.56 99.5349C1874.56 100.43 1874.52 101.325 1874.47 102.208C1881 97.1634 1889.16 94.132 1898.06 94.0873C1919.56 93.9754 1937.09 111.314 1937.2 132.814C1937.2 133.563 1937.17 134.301 1937.14 135.028C1941.19 133.574 1945.54 132.769 1950.09 132.746C1971.59 132.635 1989.12 149.973 1989.24 171.473L1706.69 172.938C1706.6 155.79 1717.61 141.192 1732.97 135.912V135.923Z" fill="#2B8738"/>
<path d="M2009.67 134.491C2011.05 130.476 2011.8 126.158 2011.77 121.672C2011.66 100.172 1994.15 82.834 1972.63 82.9459C1961.93 83.0018 1952.25 87.3756 1945.25 94.4005C1942.79 75.1604 1926.32 60.3388 1906.45 60.4395C1884.95 60.5513 1867.61 78.0687 1867.72 99.5796C1867.72 100.474 1867.78 101.369 1867.83 102.253C1861.25 97.2753 1853.04 94.3221 1844.15 94.3781C1822.65 94.4899 1805.31 112.007 1805.43 133.518C1805.43 134.268 1805.46 135.006 1805.5 135.733C1801.44 134.324 1797.08 133.563 1792.53 133.585C1771.03 133.697 1753.69 151.215 1753.8 172.725L2036.35 171.26C2036.26 154.112 2025.1 139.626 2009.67 134.514V134.491Z" fill="#39B44A"/>
<path d="M1755.64 149.392C1754.74 146.864 1754.24 144.145 1754.23 141.304C1754.16 127.724 1765.11 116.65 1778.69 116.583C1785.46 116.549 1791.59 119.245 1796.06 123.641C1797.48 111.471 1807.8 102.007 1820.36 101.94C1833.94 101.873 1845.01 112.824 1845.08 126.404C1845.08 126.975 1845.06 127.534 1845.02 128.093C1849.15 124.905 1854.31 122.992 1859.92 122.959C1873.5 122.892 1884.58 133.843 1884.65 147.423C1884.65 147.893 1884.63 148.363 1884.61 148.821C1887.17 147.904 1889.93 147.389 1892.79 147.378C1906.37 147.311 1917.44 158.262 1917.51 171.842L1739.01 172.771C1738.96 161.942 1745.92 152.714 1755.62 149.38L1755.64 149.392Z" fill="#61C36E"/>
<path d="M-108.84 63.9409C-111.882 58.1354 -113.605 51.5244 -113.605 44.5107C-113.605 21.3219 -94.8123 2.5293 -71.6236 2.5293C-61.2205 2.5293 -51.7123 6.32139 -44.3743 12.5856C-34.7766 6.2319 -23.2885 2.5293 -10.9167 2.5293C10.3705 2.5293 29.0848 13.4917 39.9129 30.0695C45.7633 26.9709 52.4302 25.2147 59.4998 25.2147C81.7265 25.2147 99.9039 42.486 101.369 64.3436C119.916 68.695 133.731 85.3287 133.731 105.206H-143.159C-143.159 84.6352 -128.359 67.5317 -108.84 63.9409Z" fill="#39B44A"/>
<path d="M-20.4694 71.4134C-16.8227 71.4134 -13.3103 72.0063 -10.0104 73.0801C-7.85145 56.5023 6.29896 43.6831 23.4696 43.6831C40.6403 43.6831 54.0971 55.8871 56.7706 71.8944C58.538 71.6036 60.339 71.4246 62.1959 71.4246C80.8654 71.4246 96.0002 86.5594 96.0002 105.229H-54.2625C-54.2625 86.5594 -39.1278 71.4246 -20.4582 71.4246L-20.4694 71.4134Z" fill="#61C36E"/>
<path d="M73.807 134.133C72.5095 130.084 71.8495 125.766 71.9613 121.269C72.4983 99.7697 90.3625 82.7892 111.862 83.3261C122.567 83.5946 132.143 88.1585 139.011 95.3288C141.852 76.1447 158.609 61.6587 178.486 62.1508C199.986 62.6878 216.967 80.552 216.43 102.052C216.407 102.947 216.34 103.841 216.262 104.714C222.94 99.8592 231.207 97.085 240.088 97.3087C261.588 97.8457 278.568 115.71 278.032 137.21C278.009 137.959 277.964 138.697 277.908 139.424C282.003 138.093 286.376 137.422 290.918 137.534C312.418 138.071 329.398 155.935 328.861 177.435L46.4011 170.32C46.8374 153.183 58.2808 138.921 73.807 134.111V134.133Z" fill="#2B8738"/>
<path d="M350.417 141.103C351.916 137.132 352.788 132.836 352.9 128.351C353.437 106.851 336.456 88.9868 314.957 88.4499C304.252 88.1814 294.453 92.2532 287.238 99.0767C285.37 79.7807 269.351 64.4558 249.473 63.9636C227.974 63.4266 210.11 80.4071 209.573 101.907C209.55 102.802 209.573 103.697 209.606 104.58C203.185 99.4011 195.064 96.213 186.182 95.9893C164.683 95.4524 146.819 112.433 146.282 133.933C146.259 134.682 146.27 135.42 146.293 136.147C142.277 134.615 137.937 133.72 133.395 133.608C111.896 133.071 94.0315 150.052 93.4945 171.551L375.955 178.666C376.391 161.529 365.663 146.707 350.405 141.125L350.417 141.103Z" fill="#39B44A"/>
<path d="M327.496 154.112C328.447 151.595 328.995 148.888 329.073 146.058C329.42 132.478 318.682 121.192 305.102 120.856C298.345 120.688 292.148 123.261 287.595 127.568C286.41 115.375 276.297 105.699 263.747 105.386C250.167 105.039 238.88 115.778 238.544 129.357C238.533 129.928 238.544 130.487 238.567 131.047C234.506 127.769 229.383 125.755 223.768 125.621C210.188 125.274 198.901 136.013 198.565 149.593C198.554 150.063 198.565 150.533 198.565 150.991C196.026 150.018 193.285 149.459 190.411 149.381C176.831 149.034 165.544 159.772 165.208 173.352L343.649 177.849C343.917 167.021 337.15 157.658 327.507 154.135L327.496 154.112Z" fill="#61C36E"/>
<path d="M-123.538 134.447C-124.959 130.431 -125.73 126.113 -125.708 121.627C-125.596 100.128 -107.553 82.7892 -85.4158 82.9011C-74.3975 82.957 -64.4306 87.3308 -57.2268 94.3668C-54.6987 75.1379 -37.7518 60.3163 -17.2701 60.417C4.86719 60.5289 22.7314 78.0575 22.6195 99.5572C22.6195 100.452 22.5636 101.347 22.4965 102.231C29.2752 97.2528 37.7207 94.3109 46.871 94.3556C69.0082 94.4675 86.8724 111.996 86.7606 133.496C86.7606 134.245 86.727 134.984 86.6823 135.711C90.8659 134.301 95.3627 133.54 100.038 133.563C122.176 133.675 140.04 151.203 139.928 172.703L-151 171.193C-150.91 154.045 -139.422 139.559 -123.538 134.447Z" fill="#2B8738"/>
<path d="M128.406 135.923C129.827 131.919 130.621 127.612 130.644 123.126C130.755 101.627 113.417 84.0981 91.9173 83.9862C81.2122 83.9303 71.4915 88.2034 64.4219 95.1611C62.1623 75.8987 45.853 60.9093 25.9641 60.8086C4.46443 60.6968 -13.0642 78.0352 -13.176 99.5349C-13.176 100.43 -13.1425 101.325 -13.0865 102.208C-19.6192 97.1634 -27.7851 94.132 -36.678 94.0873C-58.1777 93.9754 -75.7063 111.314 -75.8181 132.814C-75.8181 133.563 -75.7958 134.301 -75.7622 135.028C-79.8116 133.574 -84.163 132.769 -88.7157 132.746C-110.215 132.635 -127.744 149.973 -127.856 171.473L154.694 172.938C154.783 155.79 143.765 141.192 128.406 135.912V135.923Z" fill="#39B44A"/>
<path d="M105.755 149.392C106.65 146.864 107.153 144.145 107.164 141.304C107.231 127.724 96.2801 116.65 82.7002 116.583C75.9326 116.549 69.8027 119.245 65.3282 123.641C63.9076 111.471 53.594 102.007 41.032 101.94C27.4521 101.873 16.3779 112.824 16.3108 126.404C16.3108 126.975 16.3331 127.534 16.3667 128.093C12.239 124.905 7.08225 122.992 1.46683 122.959C-12.1131 122.892 -23.1873 133.843 -23.2544 147.423C-23.2544 147.893 -23.2432 148.363 -23.2209 148.821C-25.7825 147.904 -28.5343 147.389 -31.3979 147.378C-44.9778 147.311 -56.0521 158.262 -56.1192 171.842L122.377 172.771C122.433 161.942 115.475 152.714 105.766 149.38L105.755 149.392Z" fill="#61C36E"/>
</g>
</svg>
