<svg width="221" height="221" viewBox="0 0 221 221" fill="none" xmlns="http://www.w3.org/2000/svg">
<path d="M216.118 0C219.64 1.1266 220.837 3.59105 220.802 7.21731C220.661 18.589 220.766 29.9254 220.766 41.2971C220.766 47.1766 219.464 48.4792 213.583 49.0073C191.47 50.9437 170.343 56.4711 150.413 66.2936C111.117 85.6924 82.2784 115.336 64.0387 155.155C56.4681 171.631 51.785 188.953 49.6722 206.978C49.3553 209.654 49.1089 212.33 48.8624 215.041C48.5103 218.878 46.6088 220.744 42.7707 220.744C30.517 220.744 18.2985 220.744 6.04482 220.744C1.99546 220.744 -0.258092 218.35 0.0236029 214.301C2.1011 183.953 9.63643 155.084 23.1225 127.799C35.2354 103.26 51.2216 81.538 71.1515 62.7026C98.335 37.0019 129.85 18.9058 165.801 8.59036C181.188 4.11915 196.822 1.33784 212.773 0.316858C213.266 0.316858 213.759 0.105619 214.217 0C214.851 0 215.485 0 216.083 0H216.118Z" fill="#F7A11E"/>
<path d="M98.7577 220.744C92.6661 220.744 86.5744 220.744 80.4828 220.744C75.9757 220.744 73.7573 218.315 74.2151 213.844C77.8067 179.482 91.0816 149.416 114.497 123.927C134.04 102.627 157.738 87.9105 185.484 79.7426C194.956 76.9613 204.64 75.201 214.464 74.2856C218.161 73.9336 220.696 76.3276 220.696 80.3411C220.696 90.9382 220.696 101.535 220.696 112.168C220.696 113.998 220.696 115.794 220.696 117.625C220.661 121.427 219.006 123.363 215.274 123.821C204.111 125.229 193.372 128.292 183.301 133.256C155.167 147.163 136.294 169.096 127.174 199.163C125.589 204.408 124.779 209.901 123.758 215.322C123.089 218.984 121.293 220.744 117.561 220.744C111.293 220.744 105.025 220.744 98.7225 220.744H98.7577Z" fill="#F7A11E"/>
</svg>
