<svg width="17" height="17" viewBox="0 0 17 17" fill="none" xmlns="http://www.w3.org/2000/svg">
<g clip-path="url(#clip0_96_1508)">
<path d="M2.13914 0.5C0.992043 0.5 0.0625 1.433 0.0625 2.58437C0.0625 3.73573 0.992043 4.66873 2.13914 4.66873C3.28623 4.66873 4.21578 3.73573 4.21578 2.58437C4.21578 1.433 3.28623 0.5 2.13914 0.5Z" fill="#D4EDFC"/>
<path d="M2.13914 12.3114C0.992043 12.3114 0.0625 13.2444 0.0625 14.3958C0.0625 15.5471 0.992043 16.4801 2.13914 16.4801C3.28623 16.4801 4.21578 15.5471 4.21578 14.3958C4.21578 13.2444 3.28623 12.3114 2.13914 12.3114Z" fill="#D4EDFC"/>
<path d="M13.9858 0.5C12.8387 0.5 11.9092 1.433 11.9092 2.58437C11.9092 3.73573 12.8387 4.66873 13.9858 4.66873C15.1329 4.66873 16.0625 3.73573 16.0625 2.58437C16.0625 1.433 15.1329 0.5 13.9858 0.5Z" fill="#D4EDFC"/>
<path d="M13.9858 12.3114C12.8387 12.3114 11.9092 13.2444 11.9092 14.3958C11.9092 15.5471 12.8387 16.4801 13.9858 16.4801C15.1329 16.4801 16.0625 15.5471 16.0625 14.3958C16.0625 13.2444 15.1329 12.3114 13.9858 12.3114Z" fill="#D4EDFC"/>
</g>
<defs>
<clipPath id="clip0_96_1508">
<rect width="16" height="16" fill="white" transform="translate(0.0625 0.5)"/>
</clipPath>
</defs>
</svg>
