<svg width="484" height="485" viewBox="0 0 484 485" fill="none" xmlns="http://www.w3.org/2000/svg">
<path d="M224.08 475.483L8.50341 259.887C-1.96695 249.397 -2.90111 233.342 6.44047 224L224.002 6.43855C233.344 -2.90303 249.399 -1.96887 259.87 8.52095L475.427 224.117C485.897 234.607 486.831 250.662 477.49 260.004L259.928 477.585C250.587 486.927 234.531 485.992 224.06 475.503L224.08 475.483Z" fill="#FFA41A"/>
<path d="M232 468.165L15.8206 251.966C9.90428 246.05 9.37882 236.942 14.6529 231.668L231.65 14.6512C236.924 9.37711 246.032 9.90257 251.948 15.8189L468.128 232.038C474.044 237.954 474.57 247.062 469.296 252.336L252.299 469.353C247.025 474.627 237.917 474.101 232 468.185V468.165ZM248.64 19.1274C244.767 15.2545 238.792 14.9042 235.348 18.3489L18.3506 235.365C14.8865 238.83 15.2368 244.785 19.1096 248.677L235.289 464.896C239.162 468.769 245.137 469.119 248.582 465.674L465.579 248.658C469.043 245.194 468.693 239.238 464.82 235.346L248.64 19.1274Z" fill="white"/>
</svg>
