<svg width="1920" height="1080" viewBox="0 0 1920 1080" fill="none" xmlns="http://www.w3.org/2000/svg">
<g opacity="0.1">
<path d="M375.996 0.334755C385.704 8.29564 395.452 16.2299 405.12 24.2441C428.897 43.9129 450.793 65.5153 471.596 88.3045C487.278 105.48 502.106 123.295 515.841 142.057C534.31 167.287 550.913 193.636 565.888 221.119C584.837 255.883 599.999 292.194 612.601 329.611C622.589 359.255 630.31 389.565 635.537 420.368C638.764 439.397 642.218 458.479 642.471 478.028C642.551 483.949 643.925 490.203 643.978 496.363C644.072 508.418 638.964 514.592 627.136 514.712C590.931 515.045 554.713 514.992 518.495 514.752C507.867 514.685 502.013 507.724 501.479 494.23C500.613 472.627 496.385 451.558 492.425 430.423C488.744 410.727 482.877 391.618 476.93 372.509C469.715 349.307 460.381 326.944 449.606 305.262C432.324 270.485 411.428 237.961 386.971 207.664C369.915 186.542 351.206 167.02 331.39 148.658C300.613 120.135 266.475 96.0921 229.724 75.6498C212.455 66.0487 194.786 57.1011 176.61 49.8469C154.167 40.8726 131.137 32.9917 107.441 27.3378C80.9973 21.0304 54.4072 15.9632 27.3103 13.5229C22.7097 13.1095 18.1091 12.5494 13.4818 12.2294C6.8009 11.7627 3.20042 6.86881 0 1.66824C1.4802 -1.11874 4.05387 0.428099 6.00079 0.428099C129.337 0.334755 252.673 0.34809 375.996 0.34809V0.334755Z" fill="#578BC7"/>
<path d="M32.0046 88.3059C48.34 89.5327 64.3155 92.9331 80.2243 96.6001C119.723 105.721 157.288 120.083 192.852 139.472C218.749 153.593 242.939 170.248 265.742 189.077C282.051 202.545 297.173 217.214 311.441 232.669C335.685 258.911 356.274 287.888 373.636 319.238C387.225 343.774 398.506 369.23 407.094 395.86C416.629 425.423 424.016 455.493 426.763 486.563C427.057 489.844 427.683 493.111 428.137 496.378C429.47 505.899 421.683 514.74 410.868 514.78C374.21 514.913 337.538 515.007 300.88 514.713C290.199 514.633 283.771 507.926 282.758 497.258C281.077 479.589 276.61 462.574 271.489 445.666C259.928 407.568 241.245 373.191 216.069 342.587C179.531 298.156 133.938 266.006 79.7975 246.337C66.1157 241.363 52.0205 237.642 37.672 234.882C30.9778 233.589 24.4702 231.375 17.5493 231.215C9.58827 231.015 3.65415 227.481 0.0136719 220.294V96.3334C5.97446 86.5057 15.5491 86.4923 25.3237 87.0391C27.2573 89.0393 29.7376 88.1325 32.0179 88.3192L32.0046 88.3059Z" fill="#578BC7"/>
<path d="M557.34 1080C549.259 1071.79 539.564 1065.56 530.763 1058.21C505.546 1037.16 481.903 1014.51 459.927 990.071C442.311 970.469 425.949 949.907 410.574 928.531C407.213 923.864 404.186 918.944 401.026 914.143C394.132 903.689 396.332 894.154 407.24 887.847C430.63 874.312 454.073 860.884 477.463 847.349C519.055 823.28 560.594 799.103 602.199 775.061C631.163 758.326 660.18 741.697 689.211 725.109C697.292 720.495 705.933 722.548 711.56 729.989C728.349 752.205 748.018 771.567 770.088 788.502C778.969 795.316 780.316 803.171 774.715 812.785C758.446 840.722 742.431 868.805 726.282 896.821C711.014 923.291 695.705 949.734 680.409 976.19C662.78 1006.67 645.125 1037.13 627.576 1067.64C625.282 1071.63 622.015 1075.19 621.335 1080H557.34Z" fill="#578BC7"/>
<path d="M675.996 1080C690.278 1055.01 704.493 1029.98 718.868 1005.05C734.897 977.23 751.073 949.507 767.141 921.717C783.784 892.981 800.372 864.204 817.001 835.467C821.815 827.147 828.91 824.039 837.631 827.64C859.647 836.694 882.61 842.468 905.64 847.975C909.974 849.016 914.748 848.442 919.322 849.322C929.95 851.376 934.657 856.71 934.657 867.471C934.657 938.306 934.657 1009.15 934.657 1079.99H675.996V1080Z" fill="#578BC7"/>
<path d="M1920 64.3167C1910.04 70.8108 1898.28 72.9443 1887.53 77.5449C1861.54 88.6928 1836.82 101.734 1817.04 122.577C1800.64 139.845 1789.41 160.341 1780.14 181.996C1775.54 192.744 1771.61 203.786 1767.5 214.747C1766.42 217.64 1765.13 220.067 1761.67 220.161C1757.79 220.281 1756.24 217.374 1755.22 214.427C1751.14 202.625 1746.74 190.957 1741.78 179.476C1727.13 145.579 1706.56 116.883 1674.33 97.2537C1654.9 85.4257 1634.12 76.9981 1612.89 69.3439C1611.44 68.8239 1609.92 68.4372 1608.51 67.8104C1605.64 66.5303 1602.58 65.2235 1602.78 61.3431C1602.96 57.8893 1605.77 56.5825 1608.47 55.5157C1619.16 51.2886 1629.96 47.3148 1640.62 42.9943C1663.54 33.6733 1684.76 21.592 1702.41 3.92334C1703.49 2.84322 1704.37 1.54974 1705.33 0.349609C1742.67 0.349609 1779.99 0.349609 1817.33 0.349609C1822.8 3.01657 1826.61 7.7771 1831.23 11.5108C1851.63 27.9927 1875.07 38.6605 1899.21 48.1949C1906.26 50.9819 1914.39 51.6486 1919.99 57.6626V64.3301L1920 64.3167Z" fill="#578BC7"/>
<path d="M1298.66 1080C1293.8 1067.07 1285.81 1055.83 1279.04 1043.93C1261.61 1013.36 1243.86 982.965 1226.24 952.495C1210.95 926.052 1195.65 899.609 1180.36 873.166C1168.06 851.897 1155.73 830.642 1143.51 809.319C1139.9 803.012 1141.63 794.358 1146.99 790.037C1157.38 781.676 1165.13 780.69 1172.67 786.877C1174.22 788.13 1175.54 789.651 1176.95 791.064C1251.55 865.632 1326 940.361 1400.88 1014.66C1415.81 1029.48 1412.39 1038.8 1397.81 1050.44C1385.58 1060.21 1373.49 1070.14 1361.33 1080H1298.66Z" fill="#578BC7"/>
<path d="M1130.67 1080C1127.08 1066.19 1123.66 1052.28 1119.93 1038.56C1116.37 1025.45 1112.67 1012.29 1108.95 999.165C1101.8 973.896 1095.12 948.493 1088.33 923.117C1081.82 898.808 1075.37 874.498 1068.99 850.149C1066.18 839.361 1069.22 833.08 1078.33 828.893C1090.9 823.106 1097.51 826.426 1102.76 835.174C1115.64 856.603 1128.04 878.299 1140.58 899.928C1168.31 947.786 1196.05 995.632 1223.7 1043.54C1230.64 1055.59 1237.24 1067.84 1243.99 1079.99H1130.66L1130.67 1080Z" fill="#578BC7"/>
<path d="M985.329 1080C985.329 1009.65 985.623 939.307 985.116 868.953C984.996 852.791 998.264 846.657 1010.97 849.431C1015.95 850.524 1019.52 853.538 1020.93 858.285C1027.85 881.541 1033.62 905.104 1039.94 928.519C1044.34 944.841 1048.8 961.176 1053.27 977.498C1062.11 1009.76 1070.58 1042.11 1079.25 1074.4C1079.76 1076.31 1080.62 1078.14 1081.33 1079.99H985.329V1080Z" fill="#578BC7"/>
<path d="M1480.01 72.3164C1484.4 72.7431 1486.97 75.9301 1489.78 78.7437C1552.62 141.551 1615.45 204.371 1678.27 267.178C1691.74 280.646 1705.24 294.101 1718.68 307.583C1726.15 315.077 1726.79 322.144 1719.83 330.385C1699.74 354.174 1681.96 379.417 1668.86 407.794C1661.98 422.689 1656.89 438.21 1651.79 453.785C1647.56 466.707 1647 480.402 1642.38 493.19C1641.47 495.71 1642.87 498.99 1642.27 501.711C1640.55 509.485 1633.82 514.459 1625.09 514.806C1621.55 514.952 1617.99 514.832 1614.43 514.832C1510.91 514.832 1407.39 514.832 1303.87 514.832C1286.2 514.832 1278.52 506.845 1281.64 489.456C1284.18 475.281 1284.29 460.946 1286.34 446.745C1289.34 425.969 1293.01 405.367 1297.76 384.964C1310.68 329.372 1330.47 276.286 1357.27 225.893C1376.74 189.276 1399.28 154.659 1425.19 122.189C1436.92 107.48 1449.72 93.7321 1461.78 79.3305C1464.49 76.1035 1467.74 73.4098 1471.99 72.3164C1474.66 71.8763 1477.33 72.6097 1480 72.3164H1480.01Z" fill="#578BC7"/>
<path d="M470.635 565.517C523.522 565.517 576.409 565.517 629.296 565.517C645.218 565.517 650.326 571.438 652.246 587.253C654.793 608.322 660.22 628.871 667.728 648.793C669.608 653.767 671.715 658.648 673.689 663.581C676.369 670.316 673.555 678.743 666.861 682.624C638.137 699.319 609.32 715.867 580.543 732.482C552.913 748.431 525.309 764.393 497.679 780.328C470.648 795.93 443.605 811.505 416.575 827.106C405.64 833.414 394.505 839.414 383.85 846.175C373.782 852.562 362.354 848.309 357.74 838.814C339.204 800.623 324.176 761.179 312.774 720.334C305.853 695.545 300.373 670.382 296.412 644.993C293.558 626.737 291.638 608.269 290.345 589.76C289.731 580.879 289.865 573.478 297.879 568.344C301.893 565.771 306.587 565.504 311.294 565.504C364.408 565.531 417.508 565.531 470.622 565.531L470.635 565.517Z" fill="#578BC7"/>
<path d="M1449.44 565.519C1502.29 565.519 1555.15 565.732 1608 565.386C1622.17 565.292 1632.56 572.613 1629.99 590.255C1627.39 608.057 1626.23 626.179 1623.87 644.088C1622.43 654.996 1620.25 665.837 1617.68 676.531C1615.57 685.252 1606.84 689.933 1597.89 687.586C1578.45 682.492 1559.11 677.038 1539.68 671.891C1522.4 667.317 1504.88 663.543 1487.78 658.356C1461.49 650.368 1434.74 644.021 1408.32 636.487C1392.13 631.873 1375.63 627.819 1359.19 623.805C1333.35 617.485 1307.79 610.031 1282.17 602.803C1272.1 599.963 1266.95 592.882 1268.15 584.708C1270.11 571.213 1275.87 565.612 1288.22 565.546C1306.65 565.452 1325.08 565.519 1343.51 565.519C1378.82 565.519 1414.13 565.519 1449.43 565.519H1449.44Z" fill="#578BC7"/>
<path d="M1246.66 664.115C1249.59 652.394 1257.42 645.713 1272.1 649.954C1298.84 657.661 1325.95 664.115 1352.82 671.343C1378.84 678.33 1404.73 685.811 1430.76 692.772C1475.37 704.706 1520.04 716.374 1564.67 728.242C1572.91 730.429 1581.1 732.856 1589.21 735.483C1596.01 737.697 1599.5 747.644 1596.3 756.699C1589.92 774.714 1583.42 792.703 1575.58 810.158C1571.13 820.066 1566.33 829.827 1561.53 839.575C1556.77 849.242 1547.5 852.389 1538.3 847.136C1517.15 835.081 1496.17 822.746 1475.09 810.571C1447.46 794.623 1419.8 778.755 1392.16 762.819C1365.29 747.338 1338.44 731.816 1311.59 716.308C1292.6 705.346 1273.64 694.332 1254.59 683.451C1250.53 681.13 1247.44 678.25 1246.63 673.449C1246.83 670.329 1246.43 667.222 1246.64 664.102L1246.66 664.115Z" fill="#578BC7"/>
<path d="M1222 722.762C1229.26 721.922 1234.1 727.042 1239.51 730.109C1275.89 750.818 1312.05 771.914 1348.27 792.889C1384.3 813.758 1420.32 834.654 1456.38 855.483C1474.79 866.124 1493.26 876.659 1511.72 887.233C1523.99 894.261 1526.04 902.862 1518.12 914.743C1501.9 939.066 1484.18 962.268 1464.61 983.964C1456.09 993.405 1447.14 993.178 1438.3 984.337C1361.77 907.849 1285.25 831.347 1208.73 754.859C1202.33 748.458 1200.59 742.244 1204.2 735.176C1207.84 728.056 1212.84 722.162 1222 722.775V722.762Z" fill="#578BC7"/>
<path d="M1246.66 664.115C1248.1 667.236 1249.14 670.343 1246.64 673.463C1244.59 670.343 1244.59 667.236 1246.66 664.115Z" fill="#578BC7"/>
<path d="M1480.01 72.3168C1477.34 74.8771 1474.67 73.4903 1472.01 72.3168C1474.67 70.3033 1477.34 70.3033 1480.01 72.3168Z" fill="#578BC7"/>
</g>
</svg>
