<?xml version="1.0" encoding="UTF-8"?><svg id="Layer_1" xmlns="http://www.w3.org/2000/svg" viewBox="0 0 80 80"><defs><style>.cls-1{fill:#03111a;}.cls-2{fill:#ff575d;}.cls-3{fill:#fff;}</style></defs><circle class="cls-3" cx="40" cy="40" r="38.5"/><path class="cls-1" d="m40,3c20.4,0,37,16.6,37,37s-16.6,37-37,37S3,60.4,3,40,19.6,3,40,3m0-3C17.91,0,0,17.91,0,40s17.91,40,40,40,40-17.91,40-40S62.09,0,40,0h0Z"/><path class="cls-1" d="m62.14,58.49l-4.38-8.2c-.18-.34-.53-.54-.9-.54h-3.74l-2.03-3.78c-.17-.34-.53-.54-.9-.54h-20.39c-.37,0-.72.2-.9.54l-2.02,3.78h-3.75c-.37,0-.72.2-.9.54l-4.38,8.2c-.37.68.12,1.5.9,1.5h11.02c.55-5.16,4.93-9.19,10.23-9.19s9.67,4.03,10.22,9.19h11.03c.77,0,1.26-.82.89-1.5Z"/><path class="cls-1" d="m38.47,20.89c1.85,0,3.36-1.5,3.36-3.36s-1.5-3.36-3.36-3.36-3.36,1.5-3.36,3.36,1.5,3.36,3.36,3.36Z"/><path class="cls-1" d="m35.23,24.82l-.19,7.7-2.31,10.82h3.43l2.14-9.98h.66v9.98h3.35v-10.67l-.2-5.68,1.18,1.45c.18.22.42.39.7.48l2.04.66v13.75h1.97v-13.39c.47-.14.86-.49,1.02-.99.26-.79-.17-1.64-.97-1.9h-.05v-6.48c1.22-.14,2.22.14,3.35.47.96.29,2.02.6,3.27.6.58,0,1.18-.07,1.84-.23.44-.11.75-.5.75-.95v-6.18c0-.31-.13-.6-.37-.78-.24-.19-.55-.26-.85-.18-1.58.39-2.75.06-4.09-.34-1.12-.34-2.37-.69-3.9-.56v-.63c0-.54-.44-.98-.98-.98s-.99.44-.99.98v14.61l-.67-.22-2.21-2.71c-.79-.97-1.95-1.53-3.2-1.53h-2.84c-4.39-.14-6.28-4.3-6.37-4.51-.34-.77-1.23-1.13-2.02-.8-.78.33-1.14,1.23-.81,2.02.1.23,2.23,5.05,7.32,6.15Z"/><path class="cls-2" d="m40,53.01c-4.46,0-8.08,3.62-8.08,8.08s3.62,8.08,8.08,8.08,8.08-3.62,8.08-8.08-3.62-8.08-8.08-8.08Zm3.88,7.06l-4.17,4.17c-.24.24-.55.36-.86.36s-.62-.12-.86-.36l-2.07-2.07c-.47-.47-.47-1.24,0-1.72.47-.47,1.24-.47,1.72,0l1.21,1.21,3.31-3.31c.47-.47,1.24-.47,1.72,0,.48.47.48,1.24,0,1.72Z"/></svg>