<?xml version="1.0" encoding="UTF-8"?><svg id="Layer_1" xmlns="http://www.w3.org/2000/svg" viewBox="0 0 200 200"><defs><style>.cls-1{fill:#eaeae8;}.cls-2{fill:#ff575d;}.cls-3{fill:#fff;}.cls-4{fill:#07b9b1;}.cls-5{fill:#51555a;}</style></defs><circle class="cls-4" cx="99.77" cy="75.62" r="91.38"/><path class="cls-1" d="m.05,177.48s-3.88,13.31,54.04,16.55c57.92,3.24,48.23-13.21,48.23-13.21l-60.81-17.72L.05,177.48Z"/><path d="m116.62,396.35s3.64-54.95-2.33-104.38c-5.97-49.43-28.19-120.02-28.19-120.02,0,0-23.9-1.08-41.3,1.25-17.4,2.34-24.29-.07-24.29-.07,0,0-12.99,14.87-11.93,42.83,1.06,27.96,31.37,145.9,30.22,173.58,0,0,10.19,5.12,23.4,2.58l-5.47-158.95s11.32,32.72,16.64,55.14c4.33,18.28,11.85,30.1,11.85,30.1,0,0-.32,42.48,9.43,77.74,0,0,11.52,3.6,21.98.2Z"/><path class="cls-3" d="m81.08,126.78s13.41,30.16,35.27,36.32c21.86,6.16,37.09-12.45,36.99-31.67l-7.43-2.46s-7.63,19.69-24.63,14.57c-17.01-5.12-24.9-45.18-24.9-45.18l-15.29,28.43Z"/><path d="m124.75,165.35c-2.66,0-5.55-.37-8.68-1.25-22.08-6.22-35.38-35.65-35.94-36.9-.13-.29-.12-.63.03-.92l15.29-28.43c.21-.39.64-.6,1.07-.54.43.07.78.4.87.83.08.39,7.97,39.5,24.18,44.39,15.88,4.78,23.07-13.18,23.36-13.95.2-.52.77-.79,1.3-.61l7.43,2.46c.42.14.71.54.71.98.06,11.25-4.99,22.11-13.18,28.34-3.66,2.79-9.16,5.59-16.45,5.59Zm-42.5-38.54c1.79,3.78,14.71,29.74,34.39,35.28,10.89,3.07,18.68-.48,23.3-3.99,7.5-5.71,12.19-15.59,12.36-25.93l-5.81-1.93c-1.59,3.4-7.92,15.17-19.72,15.17-1.8,0-3.73-.27-5.79-.89-14.93-4.5-22.86-33.89-25.02-43.2l-13.71,25.49Z"/><path class="cls-5" d="m.05,97.68s13.44-17.54,51.42-14.27c45.35,3.91,48.81,12.87,48.81,12.87l-11.84,23.99,13.89,60.54s-9.49,7.86-31.73,3.45c-22.23-4.41-60.44-9.83-70.55-6.78l14.08-57.77L.05,97.68Z"/><polygon class="cls-2" points="145.89 154.4 87.47 154.4 125.79 85.02 184.21 85.02 145.89 154.4"/><path d="m146.09,154.75h-59.22l.28-.51,38.42-69.55h59.22l-.28.51-38.42,69.55Zm-58.04-.69h57.63l37.94-68.68h-57.63l-37.94,68.68Z"/><path class="cls-3" d="m147.23,152.21s-1.1-5.75,0-9.59c1.1-3.84,7.9-15.25,9.85-17.64,1.95-2.39,3.6,23.12-9.85,27.23Z"/><path d="m147.23,153.25c-.19,0-.37-.05-.54-.15-.25-.15-.43-.41-.49-.7-.05-.24-1.13-6.04.02-10.07,1.11-3.89,7.97-15.47,10.04-18.01.47-.58,1.09-.62,1.5-.46,1.6.59,1.7,5.01,1.63,7.6-.26,8.84-3.52,19.2-11.87,21.75-.1.03-.2.05-.31.05Zm9.85-26.52c-2.55,3.69-7.93,12.96-8.85,16.17-.73,2.54-.41,6.06-.17,7.89,3.28-1.42,5.77-4.47,7.41-9.06,2.15-6.02,2.05-12.4,1.61-15Z"/><path class="cls-3" d="m24.97,137.31l44.99-21.68,23.37,4.14s-1.64,2.43-4.96,1.87-7.74.38-10.52,3.44c-2.78,3.06-7.47,1.11-7.47,1.11,0,0-25.44,32.69-48.29,36.91C3.51,166.52,1.47,99.9,1.47,99.9l22.34,19.82,1.16,17.6Z"/><path d="m20.72,164.26c-1.93,0-3.76-.69-5.46-2.06C2.16,151.64.49,102.03.43,99.93c-.01-.42.22-.8.6-.97.38-.18.82-.11,1.13.16l22.35,19.81c.21.18.33.44.35.71l1.06,16.06,43.6-21.01c.2-.09.42-.13.63-.09l23.37,4.14c.35.06.64.29.78.62.14.32.1.7-.09.99-.08.12-2.06,2.98-6,2.31-2.91-.5-6.99.27-9.58,3.12-2.54,2.8-6.28,2.11-7.88,1.64-3.65,4.57-26.91,32.73-48.46,36.71-.53.1-1.05.15-1.56.15ZM2.61,102.3c.51,10.24,3.17,49.59,13.95,58.28,1.68,1.35,3.43,1.84,5.34,1.49,22.2-4.1,47.41-36.2,47.66-36.52.29-.37.79-.5,1.22-.32.04.02,4.06,1.62,6.3-.85,3.11-3.42,8-4.36,11.47-3.77.94.16,1.72.02,2.32-.22l-20.76-3.67-44.68,21.53c-.31.15-.68.14-.98-.04-.3-.17-.49-.49-.51-.83l-1.13-17.17L2.61,102.3Z"/><path d="m46.99,68.21c-2.97,1.86-6.15,1.65-7.68,1.56-3.21-.21-16.64-2.36-23.4-14.31-6.62-11.69-4.04-27.83,1.66-29.99,4.09-1.55,8.74,4.49,14.94,2.04,2.74-1.08,2.46-2.52,5.38-3.67,4.91-1.94,10.17.37,14.19,2.2,7.33,3.33,6.62,5.4,13.02,8.57,9.12,4.51,15.27,2.63,16.48,6.15.97,2.8-1.94,6.89-5.11,8.94-6.56,4.24-12.24-1.78-17.46,2.31-3.25,2.54-3.8,6.88-9.3,13.73-.44.55-1.28,1.58-2.7,2.46Z"/><path class="cls-3" d="m53.56,77.49c-.07-1.05-.14-2.22-.18-3.43,1.98,1.37,4.23,2.01,5.74,1.56,1.86-.55,2.56-2.28,3.69-4.29.48-.84.96-1.83,2.1-2.54.6-.38,1.23-.58,1.82-.67.72-.12,1.22-.77,1.19-1.5l-.08-.45c-.67-3.51-.64-7.12.09-10.63l1.42-6.92c-3.44-2.31-4.87-2.36-5.51-1.87-.24.18-.55.26-.77,1.33-1.05,5.14-5.54,3.61-9.2,1.83-3.65-1.78-3.85,5.66-3.85,5.66,0,0-1.72-3.61-4.97-1.51-2.33,1.51.7,5.47,2.6,7.59l-4.75,14.48c-1.25,3.81-4.56,6.58-8.54,7.13l-6,.83s22.08,6.56,39.85,1.87l-9.83-2.62c-2.7-.72-4.65-3.08-4.84-5.87Z"/><path d="m53.7,88.72c-13.23,0-24.95-3.42-25.62-3.62-.47-.14-.78-.59-.74-1.08.04-.49.41-.89.9-.95l6-.83c3.55-.49,6.57-3.01,7.69-6.42l4.56-13.92c-2.4-2.78-3.5-5.02-3.28-6.69.11-.84.56-1.54,1.29-2.01,1.2-.78,2.39-1.01,3.53-.69.47.13.88.34,1.23.59.29-1.54.9-3.34,2.18-4.11.59-.36,1.58-.65,2.9,0,1.93.94,4.67,2.1,6.24,1.32.73-.36,1.22-1.15,1.48-2.43.23-1.12.61-1.58,1.11-1.92,1.35-1.01,3.42-.45,6.77,1.81.35.24.52.66.44,1.07l-1.42,6.92c-.7,3.39-.73,6.82-.08,10.22l.08.45s.01.1.02.15c.05,1.26-.83,2.36-2.06,2.57-.54.09-1.02.27-1.44.53-.81.51-1.2,1.2-1.61,1.94l-.13.24c-.16.28-.31.55-.45.81-.95,1.73-1.84,3.37-3.85,3.96-1.35.4-3.13.13-4.91-.71.03.49.06,1,.09,1.51.16,2.35,1.8,4.33,4.07,4.94l9.83,2.62c.46.12.77.54.77,1.01,0,.47-.32.88-.78,1.01-4.82,1.27-9.91,1.74-14.8,1.74Zm-19.76-4.33c6.7,1.42,18.73,3.29,29.81,1.48l-5.62-1.5c-3.13-.83-5.39-3.57-5.61-6.8h0c-.08-1.2-.14-2.36-.18-3.46-.01-.39.2-.76.54-.95.34-.19.77-.17,1.09.06,1.73,1.2,3.68,1.77,4.85,1.42,1.13-.33,1.7-1.29,2.62-2.96.15-.27.3-.55.47-.84l.13-.23c.47-.85,1.06-1.9,2.32-2.69.65-.41,1.39-.68,2.2-.82.18-.03.31-.19.33-.37l-.07-.35c-.69-3.67-.66-7.38.09-11.03l1.28-6.22c-3.02-1.93-3.72-1.53-3.72-1.52-.04.03-.09.06-.13.09-.02.01-.04.03-.06.04,0,0-.09.12-.18.57-.39,1.92-1.27,3.22-2.6,3.88-2.37,1.17-5.56-.09-8.08-1.32-.58-.28-.82-.14-.91-.08-.91.55-1.4,3.21-1.45,4.84-.01.48-.35.89-.83.99-.47.1-.95-.14-1.15-.57-.17-.34-.79-1.28-1.64-1.51-.54-.15-1.14,0-1.82.43-.22.14-.33.3-.36.54-.14,1.06,1.04,3.11,3.17,5.48.25.28.33.67.21,1.02l-4.75,14.48c-1.36,4.16-5.05,7.24-9.39,7.83l-.58.08Z"/><path d="m53.39,75.1c-.19,0-.37-.05-.54-.15-4.25-2.59-4.77-9.21-4.79-9.49-.04-.57.39-1.07.96-1.11.57-.04,1.07.39,1.11.96,0,.06.46,5.83,3.79,7.86.49.3.65.94.35,1.43-.2.32-.54.5-.89.5Z"/></svg>