<?xml version="1.0" encoding="UTF-8"?><svg id="Layer_1" xmlns="http://www.w3.org/2000/svg" viewBox="0 0 80 80"><defs><style>.cls-1,.cls-2{fill:#03111a;}.cls-3{fill:#ff575d;}.cls-4{fill:#fff;}.cls-2{fill-rule:evenodd;}</style></defs><circle class="cls-4" cx="40" cy="40" r="38.5"/><path class="cls-1" d="m40,3c20.4,0,37,16.6,37,37s-16.6,37-37,37S3,60.4,3,40,19.6,3,40,3m0-3C17.91,0,0,17.91,0,40s17.91,40,40,40,40-17.91,40-40S62.09,0,40,0h0Z"/><path class="cls-2" d="m51.79,23.93v-4.29c0-1.18-.96-2.15-2.15-2.15s-2.14.96-2.14,2.15v4.29c0,1.18.96,2.13,2.14,2.13s2.15-.95,2.15-2.13h0Zm-20.89,2.13c.89,0,1.61-.71,1.61-1.61v-5.35c0-.89-.72-1.61-1.61-1.61h-1.07c-.89,0-1.61.71-1.61,1.61v5.35c0,.89.72,1.61,1.61,1.61h1.07Zm-12.04-4.28h7.22v4.01c0,1.34,1.43,2.42,3.22,2.42h2.13c1.78,0,3.21-1.08,3.21-2.42v-4.01h10.71v4.01c0,1.34,1.44,2.42,3.22,2.42h2.13c1.78,0,3.23-1.08,3.23-2.42v-4.01h7.22c.74,0,1.35.62,1.35,1.38v37.94c0,.76-.61,1.39-1.35,1.39H18.85c-.74,0-1.35-.63-1.35-1.39V23.17c0-.76.61-1.38,1.35-1.38h0Zm35.08,14.99v6.44h6.42v-6.44h-6.42Zm0,8.57v6.44h6.42v-6.44h-6.42Zm0,8.58v6.42h5.5c.51,0,.92-.36.92-.81v-5.62h-6.42Zm-8.58-17.15v6.44h6.44v-6.44h-6.44Zm0,8.57v6.44h6.44v-6.44h-6.44Zm0,8.58v6.42h6.44v-6.42h-6.44Zm-8.57-17.15v6.44h6.44v-6.44h-6.44Zm0,17.15v6.42h6.44v-6.42h-6.44Zm-8.57-17.15v6.44h6.42v-6.44h-6.42Zm0,8.57v6.44h6.42v-6.44h-6.42Zm0,8.58v6.42h6.42v-6.42h-6.42Zm-2.15,6.42v-6.42h-6.42v5.62c0,.45.41.81.92.81h5.5Zm0-8.57v-6.44h-6.42v6.44h6.42Zm0-8.57v-6.44h-6.42v6.44h6.42Zm17.42,1.87l-3.85,3.66-1.84-1.84c-.92-.92-2.31.48-1.4,1.4l2.54,2.54c.2.19.45.29.7.29s.51-.1.7-.29l4.11-4.12c.39-.39.39-1.01,0-1.4-.26-.26-.63-.34-.96-.25Z"/><rect class="cls-3" x="20.58" y="37.72" width="4.55" height="4.56"/><rect class="cls-3" x="29.15" y="37.72" width="4.55" height="4.56"/><rect class="cls-3" x="37.72" y="37.72" width="4.56" height="4.56"/><rect class="cls-3" x="46.29" y="37.72" width="4.56" height="4.56"/><rect class="cls-3" x="54.87" y="37.72" width="4.55" height="4.56"/><rect class="cls-3" x="54.87" y="46.29" width="4.55" height="4.56"/><rect class="cls-3" x="46.29" y="46.29" width="4.56" height="4.56"/><rect class="cls-3" x="29.15" y="46.29" width="4.55" height="4.56"/><rect class="cls-3" x="20.58" y="46.29" width="4.55" height="4.56"/><rect class="cls-3" x="20.58" y="54.87" width="4.55" height="4.55"/><rect class="cls-3" x="29.15" y="54.87" width="4.55" height="4.55"/><rect class="cls-3" x="37.72" y="54.87" width="4.56" height="4.55"/><rect class="cls-3" x="46.29" y="54.87" width="4.56" height="4.55"/><rect class="cls-3" x="54.87" y="54.87" width="4.55" height="4.55"/></svg>