<?xml version="1.0" encoding="UTF-8"?><svg id="Layer_1" xmlns="http://www.w3.org/2000/svg" viewBox="0 0 80 80"><defs><style>.cls-1{fill:#07b9b1;}</style></defs><circle class="cls-1" cx="40" cy="40" r="40"/><path d="m48.56,36.34c0,3.24-.57,6.12-1.71,8.62-1.14,2.51-2.72,4.38-4.74,5.64-2.02,1.25-4.41,1.88-7.16,1.88-1.27,0-2.44-.17-3.5-.5v-5.21c1.02.41,2.14.61,3.37.61,2.07,0,3.68-.48,4.84-1.44,1.16-.96,1.96-2.52,2.4-4.67h-.13c-.65,1.05-1.38,1.8-2.19,2.23-.81.44-1.74.66-2.81.66-1.67,0-2.99-.61-3.97-1.83s-1.46-2.86-1.46-4.91c0-1.95.36-3.67,1.09-5.16.73-1.49,1.78-2.65,3.15-3.49,1.38-.83,3.02-1.25,4.94-1.25,2.55,0,4.5.76,5.85,2.28,1.36,1.52,2.03,3.7,2.03,6.53Zm-7.72-3.72c-.81,0-1.48.39-2.02,1.18-.54.79-.8,1.74-.8,2.87,0,1.59.51,2.39,1.53,2.39.82,0,1.51-.39,2.08-1.17.56-.78.85-1.73.85-2.85,0-.73-.15-1.32-.46-1.76-.3-.44-.69-.66-1.17-.66Z"/></svg>