<?xml version="1.0" encoding="UTF-8"?><svg id="Layer_1" xmlns="http://www.w3.org/2000/svg" viewBox="0 0 100 100"><defs><style>.cls-1{fill:#03111a;}.cls-2{fill:#ff575d;}</style></defs><path class="cls-1" d="m89.89,3.16H10.11C4.53,3.16,0,7.69,0,13.3v61.13c0,5.57,4.53,10.11,10.11,10.11h4.85c.28-1.59,1-3.08,2.15-4.26l2.04-2.04h-9.03c-2.11,0-3.84-1.7-3.84-3.81V26.76h87.47v47.66c0,2.11-1.73,3.81-3.84,3.81h-11.7l.62.62c1.11,1.14,1.83,2.56,2.08,4.12l.24,1.56h8.76c5.57,0,10.11-4.53,10.11-10.11V13.3c0-5.61-4.53-10.14-10.11-10.14ZM14.92,18.52c-1.97,0-3.57-1.59-3.57-3.6s1.59-3.56,3.57-3.56,3.6,1.59,3.6,3.56-1.59,3.6-3.6,3.6Zm10.59,0c-1.97,0-3.6-1.59-3.6-3.6s1.63-3.56,3.6-3.56,3.56,1.59,3.56,3.56-1.59,3.6-3.56,3.6Zm10.56,0c-1.97,0-3.56-1.59-3.56-3.6s1.59-3.56,3.56-3.56,3.6,1.59,3.6,3.56-1.63,3.6-3.6,3.6Zm48.25-.69h-17.41c-1.59,0-2.91-1.28-2.91-2.91s1.32-2.87,2.91-2.87h17.41c1.59,0,2.91,1.28,2.91,2.87s-1.31,2.91-2.91,2.91Z"/><path class="cls-1" d="m32.43,72.35l3.06,3.06c.66.66.66,1.68,0,2.34-.3.33-.72.46-1.15.46s-.86-.13-1.15-.46l-3.1-3.09-3.82,3.85,3.06,3.06c.66.63.66,1.68,0,2.34-.3.3-.72.46-1.15.46s-.82-.17-1.15-.46l-3.09-3.09-3.09,3.09c-1.05,1.09-1.05,2.83.03,3.89l8.23,8.26c.56.53,1.25.79,1.94.79s1.42-.26,1.94-.79l15.97-15.97-12.12-12.15-4.41,4.41Z"/><path class="cls-1" d="m70.85,37.77c-1.02-1.02-2.83-1.02-3.88,0l-3.03,3.06,3.06,3.06c.66.66.66,1.68,0,2.34-.33.33-.73.49-1.15.49s-.86-.17-1.15-.49l-3.09-3.1-3.82,3.85,3.06,3.06c.66.66.66,1.68,0,2.34-.3.33-.72.46-1.15.46s-.86-.13-1.15-.46l-3.09-3.1-4.45,4.45,12.15,12.15,15.97-15.97c.53-.53.82-1.22.82-1.94s-.3-1.42-.82-1.94l-8.26-8.27Z"/><rect class="cls-2" x="43.8" y="44.61" width="13.49" height="45.72" transform="translate(-32.9 55.5) rotate(-45)"/><path class="cls-2" d="m75.76,83.79c-.08-.5-.32-.95-.67-1.31l-1.29-1.29-9.54,9.54,1.29,1.29c.36.36.81.59,1.31.67l7.34,1.2c1.62.26,3.02-1.14,2.76-2.76l-1.2-7.34Z"/><path class="cls-2" d="m27.28,53.75l9.54-9.54-3.84-3.84c-.94-.94-2.46-.94-3.4,0l-6.14,6.14c-.94.94-.94,2.46,0,3.4l3.84,3.84Z"/></svg>