<?xml version="1.0" encoding="UTF-8"?><svg id="Layer_1" xmlns="http://www.w3.org/2000/svg" viewBox="0 0 80 80"><defs><style>.cls-1{fill:#03111a;}.cls-2{fill:#fff;}</style></defs><path class="cls-2" d="m76.31,36.33h-3.97l-.06-.81c-1.41-15.6-13.76-27.95-29.36-29.36l-.81-.06v-3.97c0-1.17-.96-2.13-2.1-2.13s-2.13.96-2.13,2.13v3.97l-.81.06c-15.6,1.41-27.95,13.76-29.36,29.36l-.06.81h-3.97c-1.17,0-2.13.93-2.13,2.1s.96,2.13,2.13,2.13h3.97l.06.81c.96,10.67,7.03,19.8,15.78,24.97.06-1.59.39-3.09.9-4.54-6.73-4.51-11.45-11.84-12.38-20.25l-.12-.99h3.13c1.17,0,2.13-.96,2.13-2.13s-.96-2.1-2.13-2.1h-3.13l.12-1.02c1.44-12.95,11.9-23.41,24.88-24.85l.99-.12v3.13c0,1.17.96,2.13,2.13,2.13s2.1-.96,2.1-2.13v-3.13l.99.12c12.98,1.44,23.47,11.9,24.88,24.85l.12,1.02h-3.13c-1.17,0-2.13.93-2.13,2.1s.96,2.13,2.13,2.13h3.13l-.12.99c-.9,8.41-5.62,15.75-12.38,20.25.51,1.44.84,2.94.9,4.54,8.74-5.17,14.81-14.3,15.78-24.97l.06-.81h3.97c1.17,0,2.13-.96,2.13-2.13s-.96-2.1-2.13-2.1Z"/><path d="m27.06,35.06c2.82,0,5.11-2.29,5.11-5.11s-2.29-5.11-5.11-5.11-5.11,2.29-5.11,5.11,2.29,5.11,5.11,5.11Z"/><path d="m28.97,36.45h-3.81c-2.74,0-5.06,2.05-5.39,4.79l-.53,4.41c-.07.57.3,1.11.86,1.24,2.2.47,4.53.71,6.96.71.99,0,1.96-.04,2.9-.13l.47-3.94c.25-2.04,1.28-3.82,2.77-5.03-1-1.26-2.55-2.05-4.24-2.05Z"/><path d="m52.94,35.06c2.82,0,5.11-2.29,5.11-5.11s-2.29-5.11-5.11-5.11-5.11,2.29-5.11,5.11,2.29,5.11,5.11,5.11Z"/><path d="m60.23,41.24c-.32-2.74-2.65-4.79-5.39-4.79h-3.81c-1.7,0-3.24.79-4.23,2.05,1.49,1.21,2.52,2.99,2.76,5.03l.47,3.94c.94.09,1.91.13,2.9.13,2.43,0,4.76-.24,6.96-.71.56-.13.93-.67.86-1.24l-.53-4.41Z"/><path d="m41.9,39.03h-3.8c-2.75,0-5.06,2.05-5.39,4.78l-.53,4.42c-.07.57.3,1.12.87,1.24,2.19.47,4.53.72,6.95.72s4.76-.25,6.95-.72c.56-.12.94-.66.87-1.24l-.53-4.42c-.32-2.73-2.64-4.78-5.39-4.78Z"/><path d="m40,37.63c2.82,0,5.11-2.29,5.11-5.11s-2.29-5.11-5.11-5.11-5.11,2.29-5.11,5.11,2.29,5.11,5.11,5.11Z"/><path class="cls-1" d="m52.67,67.33c0-7-5.67-12.67-12.67-12.67s-12.67,5.67-12.67,12.67,5.67,12.67,12.67,12.67,12.67-5.67,12.67-12.67Zm-14.06,5.41c-.48,0-.95-.2-1.27-.55l-3.61-3.87c-.65-.7-.62-1.8.09-2.46.71-.65,1.81-.62,2.46.09l2.33,2.51,5.11-5.49c.65-.7,1.76-.74,2.46-.09.7.66.74,1.76.09,2.46l-6.39,6.86c-.33.35-.79.55-1.27.55Z"/></svg>