<?xml version="1.0" encoding="UTF-8"?><svg id="Layer_1" xmlns="http://www.w3.org/2000/svg" viewBox="0 0 80 80"><defs><style>.cls-1{fill:#03111a;}.cls-2{fill:#ff575d;}</style></defs><path class="cls-1" d="m65.05,55.96H31.06v-6.18c-.39-.05-.76-.13-1.11-.25l-2.39-.77v8.95c0,.96.78,1.75,1.75,1.75h16.99v11.69h-4.4c-.97,0-1.75.78-1.75,1.75s.79,1.75,1.75,1.75h12.3c.97,0,1.75-.78,1.75-1.75s-.78-1.75-1.75-1.75h-4.4v-11.69h17c.97,0,1.75-.79,1.75-1.75v-13.18c-1.09.85-2.25,1.59-3.51,2.2v9.23Z"/><path class="cls-1" d="m31.06,37.84v-18.45h7c.63-1.25,1.39-2.43,2.27-3.51h-11.02c-.97,0-1.75.78-1.75,1.75v17.27l1.97,2.44,1.53.49Z"/><path class="cls-1" d="m34.28,44.91c.46-1.42-.32-2.94-1.73-3.4l-4.81-1.56-3.94-4.85c-1.4-1.73-3.49-2.72-5.71-2.72h-5.25c-6.18,0-10.87,10.58-12.16,13.83-.55,1.38.13,2.95,1.51,3.5.33.13.66.19,1,.19,1.07,0,2.09-.64,2.51-1.7,1.11-2.77,2.61-5.51,4.01-7.49l-.37,10.53-4.25,19.78c-.35,1.62.68,3.21,2.3,3.56.21.05.42.07.63.07,1.38,0,2.62-.96,2.93-2.37l4.2-19.54h1.18v18.91c0,1.65,1.34,3,3,3s3-1.34,3-3v-20.15s-.36-10.13-.36-10.13l2.1,2.59c.33.41.77.71,1.26.87l5.57,1.81c1.42.47,2.94-.32,3.4-1.73Z"/><circle class="cls-1" cx="15.82" cy="24.76" r="6" transform="translate(-3.76 2.85) rotate(-9.22)"/><path class="cls-1" d="m68.35,22.41c.97,1.87,1.52,3.99,1.52,6.24,0,7.55-6.13,13.69-13.67,13.69s-13.69-6.14-13.69-13.69,6.14-13.69,13.69-13.69c2.25,0,4.39.55,6.26,1.52l2.45-2.46c-2.55-1.52-5.53-2.4-8.72-2.4-9.4,0-17.03,7.65-17.03,17.03s7.63,17.03,17.03,17.03,17.01-7.63,17.01-17.03c0-3.17-.87-6.16-2.4-8.7l-2.45,2.45Z"/><path class="cls-1" d="m56.2,21.39c.42,0,.83.03,1.24.12l2.69-2.69c-1.22-.5-2.54-.77-3.92-.77-5.86,0-10.62,4.76-10.62,10.6s4.76,10.62,10.62,10.62,10.6-4.76,10.6-10.62c0-1.39-.27-2.71-.77-3.92l-2.69,2.69c.08.4.12.82.12,1.24,0,4.01-3.26,7.28-7.26,7.28s-7.28-3.27-7.28-7.28,3.27-7.26,7.28-7.26Z"/><path class="cls-2" d="m79.41,10.69c-.19-.47-.65-.77-1.16-.77h-3.32v-3.32c0-.51-.3-.96-.77-1.16-.47-.19-1.01-.09-1.36.27l-3.43,3.43c-.23.24-.37.55-.37.89v3.46l-11.27,11.27c-.48-.19-.99-.3-1.53-.3-2.31,0-4.19,1.88-4.19,4.19s1.88,4.19,4.19,4.19,4.19-1.88,4.19-4.19c0-.54-.11-1.06-.3-1.53l11.27-11.27h3.46c.33,0,.65-.13.89-.37l3.43-3.43c.36-.36.46-.9.27-1.36Z"/></svg>