<?xml version="1.0" encoding="UTF-8"?><svg id="Layer_1" xmlns="http://www.w3.org/2000/svg" viewBox="0 0 80 80"><defs><style>.cls-1{fill:#03111a;}.cls-2{fill:#ff575d;}</style></defs><circle class="cls-2" cx="40" cy="40" r="40"/><path class="cls-1" d="m28.81,47.1l4.09,4.09,1.65-1.65c3.21,2.37,7.17,3.77,11.46,3.77,10.67,0,19.32-8.65,19.32-19.32,0-5.34-2.16-10.17-5.66-13.66-3.5-3.5-8.33-5.66-13.66-5.66-10.67,0-19.32,8.65-19.32,19.32,0,4.29,1.4,8.26,3.77,11.46l-1.65,1.65Zm2.06-13.11c0-4.05,1.58-7.85,4.44-10.71,2.86-2.86,6.66-4.44,10.71-4.44,4.05,0,7.85,1.58,10.71,4.44s4.44,6.66,4.44,10.71c0,8.35-6.79,15.14-15.14,15.14-4.05,0-7.85-1.58-10.71-4.44-2.86-2.86-4.44-6.66-4.44-10.71Z"/><path class="cls-1" d="m26.93,48.97l-11.42,11.42c-1.13,1.13-1.13,2.96,0,4.09,1.13,1.13,2.96,1.13,4.09,0l11.42-11.42-4.09-4.09Z"/></svg>