<?xml version="1.0" encoding="UTF-8"?><svg id="Layer_1" xmlns="http://www.w3.org/2000/svg" viewBox="0 0 80 80"><defs><style>.cls-1{fill:#03111a;}.cls-2{fill:#ff575d;}</style></defs><path class="cls-2" d="m50.66,72.38c-3.24,1.54-6.85,2.4-10.67,2.4s-7.41-.86-10.65-2.4v2.55c0,1.02-.31,1.98-.88,2.78,3.55,1.48,7.45,2.3,11.52,2.3s7.98-.81,11.52-2.3c-.54-.79-.86-1.75-.86-2.78v-2.55Z"/><path class="cls-2" d="m55.86,30.81c3.72,3.09,6.53,7.2,7.93,11.94,1.04-.31,2.17-.48,3.32-.48.69,0,1.36.06,2,.19-1.88-7.35-6.49-13.63-12.67-17.7.02.08.02.17.02.25v3.44c0,.86-.23,1.67-.61,2.36Z"/><path class="cls-2" d="m16.19,42.75c1.44-4.74,4.24-8.87,7.95-11.94-.38-.69-.61-1.5-.61-2.36v-3.44c0-.08,0-.17.02-.25-6.18,4.05-10.79,10.34-12.69,17.7.67-.13,1.34-.19,2.03-.19,1.15,0,2.25.17,3.3.48Z"/><circle class="cls-1" cx="40" cy="7.42" r="7.42"/><path class="cls-1" d="m28.49,29.24h23.02c.43,0,.78-.35.78-.78v-3.45c0-3.73-2.4-6.87-5.73-8.04-1.87,1.28-4.12,2.04-6.55,2.04s-4.69-.76-6.55-2.04c-3.33,1.17-5.73,4.31-5.73,8.04v3.45c0,.43.35.78.78.78Z"/><path class="cls-1" d="m19.49,63.4c-1.86,1.29-4.15,2.07-6.6,2.07s-4.74-.77-6.62-2.07c-3.3,1.19-5.68,4.34-5.68,8.06v3.47c0,.42.35.77.77.77h23.03c.42,0,.77-.36.77-.77v-3.47c0-3.72-2.38-6.87-5.68-8.06Z"/><path class="cls-1" d="m12.88,61.29c4.1,0,7.42-3.32,7.42-7.42s-3.32-7.42-7.42-7.42-7.42,3.32-7.42,7.42,3.32,7.42,7.42,7.42Z"/><path class="cls-1" d="m73.71,63.4c-1.88,1.32-4.15,2.07-6.6,2.07s-4.74-.77-6.6-2.07c-3.32,1.19-5.68,4.34-5.68,8.06v3.47c0,.42.33.77.77.77h23.01c.44,0,.79-.36.79-.77v-3.47c0-3.72-2.38-6.89-5.7-8.06Z"/><path class="cls-1" d="m59.7,53.87c0,4.1,3.32,7.42,7.42,7.42s7.42-3.32,7.42-7.42-3.32-7.42-7.42-7.42-7.42,3.32-7.42,7.42Z"/><path class="cls-2" d="m40,37.85c-8.19,0-14.83,4.74-14.83,10.59,0,3.34,2.16,6.3,5.54,8.24-.33.96-.97,2.21-2.27,3.71-.82.95.14,2.36,1.32,1.93,2.44-.91,5.24-2.18,7.83-3.45.79.09,1.59.15,2.41.15,8.19,0,14.83-4.74,14.83-10.59s-6.64-10.59-14.83-10.59Zm-7.34,12.87c-1.26,0-2.28-1.02-2.28-2.28s1.02-2.28,2.28-2.28,2.28,1.02,2.28,2.28-1.02,2.28-2.28,2.28Zm7.34,0c-1.26,0-2.28-1.02-2.28-2.28s1.02-2.28,2.28-2.28,2.28,1.02,2.28,2.28-1.02,2.28-2.28,2.28Zm7.34,0c-1.26,0-2.28-1.02-2.28-2.28s1.02-2.28,2.28-2.28,2.28,1.02,2.28,2.28-1.02,2.28-2.28,2.28Z"/></svg>