<?xml version="1.0" encoding="UTF-8"?><svg id="Layer_1" xmlns="http://www.w3.org/2000/svg" viewBox="0 0 100 100"><defs><style>.cls-1{fill:#03111a;}.cls-2{fill:#ff575d;}</style></defs><path class="cls-2" d="m30.74,79.58c1.34,0,2.69-.22,3.98-.65l13.9-4.76v9.28c0,1.12-.65,2.11-1.68,2.56-3.53,1.51-9.15,3.36-16.22,3.34-7.05,0-12.67-1.83-16.18-3.34-1.03-.45-1.68-1.44-1.68-2.56v-9.28l13.9,4.76c1.29.43,2.61.65,3.98.65Z"/><path class="cls-2" d="m.97,63.43l27.02-9.25c1.79-.61,3.73-.61,5.52,0l27.02,9.25c1.29.44,1.29,2.26,0,2.71l-4.31,1.48v7.62c1.23.48,2.1,1.67,2.1,3.07,0,1.82-1.48,3.3-3.3,3.3s-3.3-1.48-3.3-3.3c0-1.4.87-2.59,2.1-3.07v-6.79l-20.29,6.95c-1.79.61-3.73.61-5.52,0L.97,66.13c-1.29-.44-1.29-2.26,0-2.71Z"/><path class="cls-1" d="m94.21,61.78h-1.56v-15.5c0-4.18-3.4-7.58-7.58-7.58h-5.38c-.97-15.71-14.02-28.2-29.97-28.2s-30.07,13.49-30.07,30.07c0,4.14.84,8.1,2.37,11.7l3.57-1.21c-1.18-2.69-1.9-5.58-2.11-8.62h10.32c.09,2.87.37,5.62.86,8.19.02,0,.04.02.06.02l4.07,1.4c-.71-2.95-1.14-6.22-1.25-9.61h10.32v10.38h-6.83l10.9,3.73h7.43c-.28.78-.6,1.53-.91,2.24l3.28,1.12c.09.04.19.06.26.11.48-1.08.93-2.26,1.33-3.47h7.3c-1.7,2.22-3.75,4.16-6.07,5.73.45.75.67,1.61.67,2.5,0,.6-.09,1.18-.3,1.72,8.38-4.93,14.15-13.81,14.78-24.06h5.38c2.13,0,3.84,1.72,3.84,3.84v15.5h-1.56c-3.19,0-5.79,2.6-5.79,5.79v12.71c0,5.08,4.13,9.22,9.22,9.22s9.22-4.13,9.22-9.22v-12.71c0-3.19-2.6-5.79-5.79-5.79Zm-60.4-23.07h-10.32c.26-3.71,1.29-7.22,2.95-10.38h8.66c-.73,3.19-1.18,6.68-1.29,10.38Zm2.33-14.11h-7.3c2.97-3.86,6.98-6.89,11.63-8.64-1.74,2.3-3.21,5.23-4.33,8.64Zm11.72,14.11h-10.32c.13-3.7.62-7.22,1.42-10.38h8.9v10.38Zm0-14.11h-7.76c1.88-5.21,4.65-8.92,7.76-10v10Zm3.73-10c3.12,1.08,5.88,4.8,7.76,10h-7.76v-10Zm8.9,38.22h-8.9v-10.38h10.32c-.13,3.7-.62,7.22-1.42,10.38Zm-8.9-14.11v-10.38h8.9c.8,3.15,1.29,6.68,1.42,10.38h-10.32Zm7.39-22.75c4.65,1.75,8.66,4.78,11.63,8.64h-7.3c-1.12-3.42-2.59-6.35-4.33-8.64Zm14.04,36.86h-8.66c.73-3.19,1.18-6.68,1.29-10.38h10.32c-.26,3.71-1.29,7.22-2.95,10.38Zm-7.37-14.11c-.11-3.7-.56-7.19-1.29-10.38h8.66c1.66,3.15,2.69,6.66,2.95,10.38h-10.32Zm27,32.59c0,1.1-.89,1.99-1.99,1.99s-1.99-.89-1.99-1.99v-2.91c0-1.1.89-1.99,1.99-1.99s1.99.89,1.99,1.99v2.91Z"/></svg>