<?xml version="1.0" encoding="UTF-8"?><svg id="Layer_1" xmlns="http://www.w3.org/2000/svg" viewBox="0 0 100 100"><defs><style>.cls-1{fill:#03111a;}.cls-2{fill:#ff575d;}</style></defs><path class="cls-1" d="m98.31,18.89H27.21c-.91,0-1.66.76-1.66,1.66v5.11c1.45.39,2.84,1,4.11,1.78v-4.41h66.24v35.02h-53.36c1.96,2.51,3.29,5.5,3.84,8.7h9.61l-2.02,10.49h-4.84c-.36,0-.66.27-.66.63v2.53c0,.39.3.69.66.69h27.32c.36,0,.67-.3.67-.69v-2.53c0-.36-.3-.63-.67-.63h-4.83l-2.03-10.49h28.74c.94,0,1.69-.76,1.69-1.69V20.55c0-.91-.76-1.66-1.69-1.66Zm-35.08,45.27h-.91c-.97,0-1.72-.76-1.72-1.69s.76-1.69,1.72-1.69h.91c.94,0,1.69.76,1.69,1.69s-.76,1.69-1.69,1.69Z"/><path class="cls-1" d="m32.08,55.77l-.74-.27-.64.45c-2.83,1.97-6.16,3.02-9.63,3.02s-6.81-1.04-9.63-3.01l-.64-.44-.73.26c-6.03,2.12-10.07,7.85-10.07,14.25v8.36c0,1.51,1.23,2.74,2.74,2.74h36.63c1.51,0,2.74-1.23,2.74-2.74v-8.36c0-6.35-4.03-12.08-10.03-14.24Z"/><path class="cls-1" d="m21.06,54.47c6.87,0,12.44-5.57,12.44-12.44s-5.57-12.44-12.44-12.44-12.44,5.57-12.44,12.44,5.57,12.44,12.44,12.44Z"/><path class="cls-2" d="m62.96,28.8c-6.48,0-11.73,5.25-11.73,11.73s5.25,11.73,11.73,11.73,11.73-5.25,11.73-11.73-5.25-11.73-11.73-11.73Zm4.76,12.6l-6.84,4.55c-.69.46-1.62-.04-1.62-.87v-9.1c0-.83.93-1.33,1.62-.87l6.84,4.55c.62.41.62,1.32,0,1.74Z"/></svg>