<svg width="464" height="255" viewBox="0 0 464 255" fill="none" xmlns="http://www.w3.org/2000/svg">
<g clip-path="url(#clip0_195_5791)">
<path d="M161.618 115.752L190.185 203.786L157.8 248.404L109.151 98.7109L161.618 115.752Z" fill="#F04D68"/>
<path d="M282.814 203.785L315.199 248.403H157.8L190.185 203.785H282.814Z" fill="#F04D68"/>
<path d="M363.848 98.7109L315.199 248.404L282.814 203.786L311.452 115.752L363.848 98.7109Z" fill="#F04D68"/>
<path d="M363.848 98.7108L311.452 115.752L236.5 61.3054V6.15186L363.848 98.7108Z" fill="#F04D68"/>
<path d="M161.618 115.752L109.151 98.7108L236.5 6.15186V61.3054L161.618 115.752Z" fill="#FF879B"/>
<path d="M236.5 61.3052L311.452 115.752L282.814 203.785H190.185L161.618 115.752L236.5 61.3052Z" fill="#FF879B"/>
<path d="M315.217 254.531H157.817C155.13 254.531 152.797 252.834 151.948 250.288L103.3 100.596C102.451 98.0506 103.371 95.293 105.563 93.6666L232.911 1.17843C235.103 -0.377184 238.002 -0.377184 240.194 1.17843L367.543 93.6666C369.735 95.2222 370.583 98.0506 369.805 100.596L321.157 250.288C320.308 252.834 317.975 254.531 315.288 254.531H315.217ZM162.272 242.157H310.763L356.653 101.02L236.517 13.7647L116.452 101.02L162.343 242.157H162.272Z" fill="black"/>
<path d="M315.059 110.731L240.106 56.2849C237.914 54.7293 235.015 54.7293 232.823 56.2849C177.386 96.5187 203.337 77.7099 157.941 110.731C155.749 112.287 154.901 115.115 155.678 117.661L184.316 205.765C185.165 208.311 187.498 210.008 190.185 210.008H282.815C285.502 210.008 287.835 208.311 288.684 205.765L317.321 117.661C318.17 115.115 317.251 112.358 315.059 110.731ZM278.29 197.634H194.71L168.901 118.085C192.66 100.832 182.124 108.469 236.571 68.9419L304.24 118.085L278.36 197.634H278.29Z" fill="black"/>
<path d="M236.499 67.457C233.105 67.457 230.348 64.6993 230.348 61.3052V6.15174C230.348 2.75768 233.105 0 236.499 0C239.893 0 242.651 2.75768 242.651 6.15174V61.2345C242.651 64.6286 239.893 67.3863 236.499 67.3863V67.457Z" fill="black"/>
<path d="M159.709 121.621L107.242 104.58C103.99 103.519 102.222 100.054 103.282 96.8017C104.343 93.5491 107.808 91.7813 111.061 92.842L163.456 109.883C166.709 110.944 168.477 114.408 167.416 117.661C166.356 120.914 162.891 122.681 159.638 121.621H159.709Z" fill="black"/>
<path d="M154.193 253.353C151.436 251.373 150.799 247.484 152.85 244.726L185.235 200.179C187.215 197.421 191.104 196.785 193.861 198.836C196.619 200.815 197.255 204.705 195.205 207.462L162.82 252.009C160.84 254.767 156.951 255.403 154.193 253.353Z" fill="black"/>
<path d="M310.25 252.01L277.865 207.462C275.885 204.705 276.451 200.816 279.209 198.836C281.966 196.856 285.855 197.422 287.835 200.179L320.22 244.726C322.2 247.484 321.634 251.373 318.877 253.353C316.119 255.333 312.23 254.767 310.25 252.01Z" fill="black"/>
<path d="M305.583 117.661C304.523 114.408 306.29 110.944 309.543 109.883L361.939 92.842C365.192 91.7813 368.656 93.5491 369.717 96.8017C370.778 100.054 369.01 103.519 365.757 104.58L313.361 121.621C310.109 122.681 306.644 120.914 305.583 117.661Z" fill="black"/>
</g>
<path fill-rule="evenodd" clip-rule="evenodd" d="M12.81 95C12.81 95 14.35 107.69 15.52 109.79C16.89 112.23 25.62 113.31 25.62 113.31C25.62 113.31 17.12 114.62 15.83 116.92C14.56 119.18 12.81 131.62 12.81 131.62C12.81 131.62 11.13 118.85 9.78999 116.46C8.57999 114.3 0 113.31 0 113.31C0 113.31 8.68 112.05 10 109.7C11.24 107.49 12.82 95 12.82 95H12.81Z" fill="#E1251B"/>
<path fill-rule="evenodd" clip-rule="evenodd" d="M53.89 199C53.89 199 54.6 204.82 55.14 205.78C55.77 206.9 59.78 207.39 59.78 207.39C59.78 207.39 55.87 207.99 55.28 209.05C54.7 210.09 53.89 215.79 53.89 215.79C53.89 215.79 53.12 209.93 52.5 208.84C51.94 207.85 48 207.4 48 207.4C48 207.4 51.99 206.82 52.59 205.74C53.16 204.73 53.88 199 53.88 199H53.89Z" fill="#E1251B"/>
<path fill-rule="evenodd" clip-rule="evenodd" d="M43.14 123.4C43.14 123.4 43.85 129.22 44.39 130.19C45.02 131.31 49.03 131.8 49.03 131.8C49.03 131.8 45.12 132.4 44.53 133.46C43.95 134.5 43.14 140.2 43.14 140.2C43.14 140.2 42.37 134.34 41.75 133.25C41.19 132.26 37.25 131.8 37.25 131.8C37.25 131.8 41.24 131.22 41.85 130.15C42.42 129.14 43.14 123.41 43.14 123.41V123.4Z" fill="#E1251B"/>
<path fill-rule="evenodd" clip-rule="evenodd" d="M16.81 166.78C16.81 166.78 18.35 179.47 19.52 181.57C20.89 184.01 29.62 185.08 29.62 185.08C29.62 185.08 21.12 186.39 19.83 188.69C18.56 190.96 16.81 203.39 16.81 203.39C16.81 203.39 15.13 190.63 13.79 188.24C12.58 186.08 4 185.09 4 185.09C4 185.09 12.68 183.83 14 181.49C15.24 179.28 16.82 166.79 16.82 166.79L16.81 166.78Z" fill="#E1251B"/>
<path fill-rule="evenodd" clip-rule="evenodd" d="M450.97 95C450.97 95 449.43 107.69 448.26 109.79C446.89 112.23 438.16 113.31 438.16 113.31C438.16 113.31 446.66 114.62 447.95 116.92C449.22 119.18 450.97 131.62 450.97 131.62C450.97 131.62 452.65 118.85 453.99 116.46C455.2 114.3 463.78 113.31 463.78 113.31C463.78 113.31 455.1 112.05 453.78 109.7C452.54 107.49 450.96 95 450.96 95H450.97Z" fill="#E1251B"/>
<path fill-rule="evenodd" clip-rule="evenodd" d="M409.89 199C409.89 199 409.18 204.82 408.64 205.78C408.01 206.9 404 207.39 404 207.39C404 207.39 407.91 207.99 408.5 209.05C409.08 210.09 409.89 215.79 409.89 215.79C409.89 215.79 410.66 209.93 411.28 208.84C411.84 207.85 415.78 207.4 415.78 207.4C415.78 207.4 411.79 206.82 411.19 205.74C410.62 204.73 409.9 199 409.9 199H409.89Z" fill="#E1251B"/>
<path fill-rule="evenodd" clip-rule="evenodd" d="M420.64 123.4C420.64 123.4 419.93 129.22 419.39 130.19C418.76 131.31 414.75 131.8 414.75 131.8C414.75 131.8 418.66 132.4 419.25 133.46C419.83 134.5 420.64 140.2 420.64 140.2C420.64 140.2 421.41 134.34 422.03 133.25C422.59 132.26 426.53 131.8 426.53 131.8C426.53 131.8 422.54 131.22 421.93 130.15C421.36 129.14 420.64 123.41 420.64 123.41V123.4Z" fill="#E1251B"/>
<path fill-rule="evenodd" clip-rule="evenodd" d="M446.97 166.78C446.97 166.78 445.43 179.47 444.26 181.57C442.89 184.01 434.16 185.08 434.16 185.08C434.16 185.08 442.66 186.39 443.95 188.69C445.22 190.96 446.97 203.39 446.97 203.39C446.97 203.39 448.65 190.63 449.99 188.24C451.2 186.08 459.78 185.09 459.78 185.09C459.78 185.09 451.1 183.83 449.78 181.49C448.54 179.28 446.96 166.79 446.96 166.79L446.97 166.78Z" fill="#E1251B"/>
<defs>
<clipPath id="clip0_195_5791">
<rect width="267" height="254.555" fill="white" transform="translate(103)"/>
</clipPath>
</defs>
</svg>
